<?xml version="1.0" standalone="no"?>
 <!DOCTYPE svg PUBLIC "-//W3C//DTD SVG 1.1//EN" 
 "http://www.w3.org/Graphics/SVG/1.1/DTD/svg11.dtd"> 
<svg xmlns="http://www.w3.org/2000/svg" version="1.1" 
    width="29.7002cm" height="21.0007cm" viewBox="0 0 116930 82680 ">
<title>SVG Picture created as opto-interface-F.SilkS.svg date 2016/07/20 13:18:01 </title>
  <desc>Picture generated by PCBNEW </desc>
<g style="fill:#000000; fill-opacity:1;stroke:#000000; stroke-opacity:1;
stroke-linecap:round; stroke-linejoin:round; "
 transform="translate(0 0) scale(1 1)">
</g>
<g style="fill:#000000; fill-opacity:0.0; 
stroke:#000000; stroke-width:-0.000393701; stroke-opacity:1; 
stroke-linecap:round; stroke-linejoin:round;">
</g>
<g style="fill:#000000; fill-opacity:0.0; 
stroke:#000000; stroke-width:150; stroke-opacity:1; 
stroke-linecap:round; stroke-linejoin:round;">
<path d="M32465 25340
L32465 20840
" />
<path d="M32465 20840
L32965 20340
" />
<path d="M32965 20340
L58465 20340
" />
<path d="M32465 41340
L58465 41340
" />
<path d="M58465 41340
L58465 20340
" />
<path d="M32465 25340
L31465 26340
" />
<path d="M31465 26340
L31465 39340
" />
<path d="M31465 39340
L32465 40340
" />
<path d="M32465 40340
L32465 41340
" />
</g>
<g style="fill:#000000; fill-opacity:0.0; 
stroke:#000000; stroke-width:59.0551; stroke-opacity:1; 
stroke-linecap:round; stroke-linejoin:round;">
<path d="M47924 24011
L47924 23992
" />
<path d="M48200 22909
L47924 22909
" />
<path d="M47924 22909
L47924 23007
" />
<path d="M47924 24011
L47924 24090
" />
<path d="M47924 24090
L48200 24090
" />
<path d="M38166 34655
L37693 34655
" />
<path d="M37693 35344
L38166 35344
" />
<path d="M36693 38844
L37166 38844
" />
<path d="M37166 38155
L36693 38155
" />
<path d="M35693 35344
L36166 35344
" />
<path d="M36166 34655
L35693 34655
" />
<path d="M33585 38013
L33585 38486
" />
<path d="M34274 38486
L34274 38013
" />
<path d="M32430 36000
L32430 30000
" />
<path d="M34430 31000
L34430 36000
" />
<path d="M32430 36000
L34430 36000
" />
<path d="M32430 30000
L33430 30000
" />
<path d="M33930 29889
L34540 29889
" />
<path d="M33430 30000
L33430 31000
" />
<path d="M33430 31000
L34430 31000
" />
<path d="M34540 29889
L34540 30500
" />
<path d="M56430 35000
L56430 40000
" />
<path d="M56430 40000
L57430 40000
" />
<path d="M57430 40000
L57430 35000
" />
<path d="M56319 33889
L56319 34500
" />
<path d="M56430 35000
L57430 35000
" />
<path d="M57540 34500
L57540 33889
" />
<path d="M57540 33889
L56319 33889
" />
<path d="M46666 36655
L46193 36655
" />
<path d="M46193 37344
L46666 37344
" />
<path d="M49085 34763
L49085 35236
" />
<path d="M49774 35236
L49774 34763
" />
<path d="M46335 23263
L46335 23736
" />
<path d="M47024 23736
L47024 23263
" />
<path d="M36085 33263
L36085 33736
" />
<path d="M36774 33736
L36774 33263
" />
<path d="M47330 36500
L47330 34500
" />
<path d="M47330 34500
L45530 34500
" />
<path d="M45530 34500
L45530 36500
" />
<path d="M45530 36500
L47330 36500
" />
<path d="M46730 36500
L46730 36300
" />
<path d="M46730 36300
L46230 36300
" />
<path d="M46230 36300
L46230 36500
" />
<path d="M44930 29050
L44930 29600
" />
<path d="M43930 29050
L43930 29600
" />
<path d="M42930 29050
L42930 29600
" />
<circle cx="43930" cy="23900" r="989.95" /> 
<path d="M41830 25700
L41830 22550
" />
<path d="M41830 22550
L46030 22550
" />
<path d="M46030 22550
L46030 25700
" />
<path d="M41830 29050
L41830 25700
" />
<path d="M41830 25700
L46030 25700
" />
<path d="M46030 25700
L46030 29050
" />
<path d="M43930 29050
L46030 29050
" />
<path d="M43930 29050
L41830 29050
" />
<path d="M54930 29050
L54930 29600
" />
<path d="M53930 29050
L53930 29600
" />
<path d="M52930 29050
L52930 29600
" />
<circle cx="53930" cy="23900" r="989.95" /> 
<path d="M51830 25700
L51830 22550
" />
<path d="M51830 22550
L56030 22550
" />
<path d="M56030 22550
L56030 25700
" />
<path d="M51830 29050
L51830 25700
" />
<path d="M51830 25700
L56030 25700
" />
<path d="M56030 25700
L56030 29050
" />
<path d="M53930 29050
L56030 29050
" />
<path d="M53930 29050
L51830 29050
" />
<path d="M37733 33665
L38126 33665
" />
<path d="M38126 34334
L37733 34334
" />
<path d="M46233 33665
L46626 33665
" />
<path d="M46626 34334
L46233 34334
" />
<path d="M44764 35053
L44764 35446
" />
<path d="M44095 35446
L44095 35053
" />
<path d="M35764 33303
L35764 33696
" />
<path d="M35095 33696
L35095 33303
" />
<path d="M35514 38053
L35514 38446
" />
<path d="M34845 38446
L34845 38053
" />
<path d="M36733 36165
L37126 36165
" />
<path d="M37126 36834
L36733 36834
" />
<path d="M48095 35696
L48095 35303
" />
<path d="M48764 35303
L48764 35696
" />
<path d="M45876 31614
L43514 31614
" />
<path d="M43514 33385
L45876 33385
" />
<path d="M55126 31614
L52764 31614
" />
<path d="M52764 33385
L55126 33385
" />
<path d="M47430 29750
L47430 29750
" />
<path d="M47430 29750
L47430 29750
" />
<path d="M47430 29750
L47430 29750
" />
<path d="M47430 29750
L47430 26000
" />
<path d="M47430 26000
L46430 26000
" />
<path d="M46430 26000
L46430 29750
" />
<path d="M46430 29750
L47430 29750
" />
<path d="M47180 29750
L47180 29750
" />
<path d="M47180 29750
L47180 30000
" />
<path d="M47180 30000
L46680 30000
" />
<path d="M46680 30000
L46680 29750
" />
<path d="M46930 30500
L46930 30500
" />
<path d="M46930 30500
L46930 30000
" />
<path d="M46930 30000
L46930 30000
" />
<path d="M46930 30000
L46930 30000
" />
<path d="M46930 26000
L46930 26000
" />
<path d="M46930 26000
L46930 26000
" />
<path d="M46930 26000
L46930 25500
" />
<path d="M46930 25500
L46930 25500
" />
<path d="M46930 25500
L46930 25500
" />
<path d="M46930 25500
L46930 25500
" />
<path d="M56430 26250
L56430 26250
" />
<path d="M56430 26250
L56430 26250
" />
<path d="M56430 26250
L56430 26250
" />
<path d="M56430 26250
L56430 30000
" />
<path d="M56430 30000
L57430 30000
" />
<path d="M57430 30000
L57430 26250
" />
<path d="M57430 26250
L56430 26250
" />
<path d="M56680 26250
L56680 26250
" />
<path d="M56680 26250
L56680 26000
" />
<path d="M56680 26000
L57180 26000
" />
<path d="M57180 26000
L57180 26250
" />
<path d="M56930 25500
L56930 25500
" />
<path d="M56930 25500
L56930 26000
" />
<path d="M56930 26000
L56930 26000
" />
<path d="M56930 26000
L56930 26000
" />
<path d="M56930 30000
L56930 30000
" />
<path d="M56930 30000
L56930 30000
" />
<path d="M56930 30000
L56930 30500
" />
<path d="M56930 30500
L56930 30500
" />
<path d="M56930 30500
L56930 30500
" />
<path d="M56930 30500
L56930 30500
" />
</g>
<g style="fill:#000000; fill-opacity:0.0; 
stroke:#000000; stroke-width:120; stroke-opacity:1; 
stroke-linecap:round; stroke-linejoin:round;">
<path d="M59193 19083
L59107 19111
L58965 19111
L58907 19083
L58879 19054
L58850 18997
L58850 18940
L58879 18883
L58907 18854
L58965 18825
L59079 18797
L59136 18768
L59165 18740
L59193 18683
L59193 18625
L59165 18568
L59136 18540
L59079 18511
L58936 18511
L58850 18540
" />
<path d="M58593 19111
L58593 18511
" />
<path d="M58593 18797
L58250 18797
" />
<path d="M58250 19111
L58250 18511
" />
<path d="M57965 19111
L57965 18511
" />
<path d="M57679 18797
L57479 18797
" />
<path d="M57393 19111
L57679 19111
L57679 18511
L57393 18511
" />
<path d="M56850 19111
L57136 19111
L57136 18511
" />
<path d="M56650 19111
L56650 18511
L56507 18511
L56422 18540
L56365 18597
L56336 18654
L56307 18768
L56307 18854
L56336 18968
L56365 19025
L56422 19083
L56507 19111
L56650 19111
" />
<path d="M55736 19111
L56079 19111
" />
<path d="M55907 19111
L55907 18511
L55965 18597
L56022 18654
L56079 18683
" />
</g>
<g style="fill:#000000; fill-opacity:0.0; 
stroke:#000000; stroke-width:59.0551; stroke-opacity:1; 
stroke-linecap:round; stroke-linejoin:round;">
<path d="M47116 23790
L47509 23790
L47509 23696
L47491 23640
L47453 23603
L47416 23584
L47341 23565
L47284 23565
L47209 23584
L47172 23603
L47134 23640
L47116 23696
L47116 23790
" />
<path d="M47116 23190
L47116 23415
" />
<path d="M47116 23303
L47509 23303
L47453 23340
L47416 23378
L47397 23415
" />
<path d="M37995 36004
L38126 35817
" />
<path d="M38220 36004
L38220 35611
L38070 35611
L38033 35629
L38014 35648
L37995 35686
L37995 35742
L38014 35779
L38033 35798
L38070 35817
L38220 35817
" />
<path d="M37620 36004
L37845 36004
" />
<path d="M37733 36004
L37733 35611
L37770 35667
L37808 35704
L37845 35723
" />
<path d="M36995 37851
L37126 37663
" />
<path d="M37220 37851
L37220 37457
L37070 37457
L37033 37476
L37014 37495
L36995 37532
L36995 37588
L37014 37626
L37033 37645
L37070 37663
L37220 37663
" />
<path d="M36845 37495
L36826 37476
L36789 37457
L36695 37457
L36658 37476
L36639 37495
L36620 37532
L36620 37570
L36639 37626
L36864 37851
L36620 37851
" />
<path d="M35995 34351
L36126 34163
" />
<path d="M36220 34351
L36220 33957
L36070 33957
L36033 33976
L36014 33995
L35995 34032
L35995 34088
L36014 34126
L36033 34145
L36070 34163
L36220 34163
" />
<path d="M35864 33957
L35620 33957
L35751 34107
L35695 34107
L35658 34126
L35639 34145
L35620 34182
L35620 34276
L35639 34313
L35658 34332
L35695 34351
L35808 34351
L35845 34332
L35864 34313
" />
<path d="M34578 38315
L34766 38446
" />
<path d="M34578 38540
L34972 38540
L34972 38390
L34953 38353
L34934 38334
L34897 38315
L34841 38315
L34803 38334
L34784 38353
L34766 38390
L34766 38540
" />
<path d="M34841 37978
L34578 37978
" />
<path d="M34991 38071
L34709 38165
L34709 37921
" />
<path d="M34220 28670
L34220 28276
L34070 28276
L34033 28295
L34014 28314
L33995 28351
L33995 28407
L34014 28445
L34033 28464
L34070 28482
L34220 28482
" />
<path d="M33620 28670
L33845 28670
" />
<path d="M33733 28670
L33733 28276
L33770 28332
L33808 28370
L33845 28389
" />
<path d="M57220 32670
L57220 32276
L57070 32276
L57033 32295
L57014 32314
L56995 32351
L56995 32407
L57014 32445
L57033 32464
L57070 32482
L57220 32482
" />
<path d="M56845 32314
L56826 32295
L56789 32276
L56695 32276
L56658 32295
L56639 32314
L56620 32351
L56620 32389
L56639 32445
L56864 32670
L56620 32670
" />
<path d="M46495 38004
L46626 37817
" />
<path d="M46720 38004
L46720 37611
L46570 37611
L46533 37629
L46514 37648
L46495 37686
L46495 37742
L46514 37779
L46533 37798
L46570 37817
L46720 37817
" />
<path d="M46139 37611
L46326 37611
L46345 37798
L46326 37779
L46289 37761
L46195 37761
L46158 37779
L46139 37798
L46120 37836
L46120 37929
L46139 37967
L46158 37986
L46195 38004
L46289 38004
L46326 37986
L46345 37967
" />
<path d="M50078 35065
L50266 35196
" />
<path d="M50078 35290
L50472 35290
L50472 35140
L50453 35103
L50434 35084
L50397 35065
L50341 35065
L50303 35084
L50284 35103
L50266 35140
L50266 35290
" />
<path d="M50472 34728
L50472 34803
L50453 34840
L50434 34859
L50378 34896
L50303 34915
L50153 34915
L50116 34896
L50097 34878
L50078 34840
L50078 34765
L50097 34728
L50116 34709
L50153 34690
L50247 34690
L50284 34709
L50303 34728
L50322 34765
L50322 34840
L50303 34878
L50284 34896
L50247 34915
" />
<path d="M47328 23565
L47516 23696
" />
<path d="M47328 23790
L47722 23790
L47722 23640
L47703 23603
L47684 23584
L47647 23565
L47591 23565
L47553 23584
L47534 23603
L47516 23640
L47516 23790
" />
<path d="M47722 23434
L47722 23171
L47328 23340
" />
<path d="M37078 33565
L37266 33696
" />
<path d="M37078 33790
L37472 33790
L37472 33640
L37453 33603
L37434 33584
L37397 33565
L37341 33565
L37303 33584
L37284 33603
L37266 33640
L37266 33790
" />
<path d="M37303 33340
L37322 33378
L37341 33396
L37378 33415
L37397 33415
L37434 33396
L37453 33378
L37472 33340
L37472 33265
L37453 33228
L37434 33209
L37397 33190
L37378 33190
L37341 33209
L37322 33228
L37303 33265
L37303 33340
L37284 33378
L37266 33396
L37228 33415
L37153 33415
L37116 33396
L37097 33378
L37078 33340
L37078 33265
L37097 33228
L37116 33209
L37153 33190
L37228 33190
L37266 33209
L37284 33228
L37303 33265
" />
<path d="M47145 35799
L46826 35799
L46789 35781
L46770 35762
L46751 35724
L46751 35649
L46770 35612
L46789 35593
L46826 35574
L47145 35574
" />
<path d="M46751 35181
L46751 35406
" />
<path d="M46751 35293
L47145 35293
L47089 35331
L47051 35368
L47033 35406
" />
<path d="M44131 21288
L44131 21607
L44113 21644
L44094 21663
L44056 21682
L43981 21682
L43944 21663
L43925 21644
L43906 21607
L43906 21288
" />
<path d="M43738 21325
L43719 21307
L43682 21288
L43588 21288
L43550 21307
L43532 21325
L43513 21363
L43513 21400
L43532 21457
L43757 21682
L43513 21682
" />
<path d="M54131 21288
L54131 21607
L54113 21644
L54094 21663
L54056 21682
L53981 21682
L53944 21663
L53925 21644
L53906 21607
L53906 21288
" />
<path d="M53757 21288
L53513 21288
L53644 21438
L53588 21438
L53550 21457
L53532 21475
L53513 21513
L53513 21607
L53532 21644
L53550 21663
L53588 21682
L53700 21682
L53738 21663
L53757 21644
" />
<path d="M37995 33313
L38014 33332
L38070 33351
L38108 33351
L38164 33332
L38201 33295
L38220 33257
L38239 33182
L38239 33126
L38220 33051
L38201 33013
L38164 32976
L38108 32957
L38070 32957
L38014 32976
L37995 32995
" />
<path d="M37620 33351
L37845 33351
" />
<path d="M37733 33351
L37733 32957
L37770 33013
L37808 33051
L37845 33070
" />
<path d="M46495 33313
L46514 33332
L46570 33351
L46608 33351
L46664 33332
L46701 33295
L46720 33257
L46739 33182
L46739 33126
L46720 33051
L46701 33013
L46664 32976
L46608 32957
L46570 32957
L46514 32976
L46495 32995
" />
<path d="M46345 32995
L46326 32976
L46289 32957
L46195 32957
L46158 32976
L46139 32995
L46120 33032
L46120 33070
L46139 33126
L46364 33351
L46120 33351
" />
<path d="M45116 35315
L45097 35334
L45078 35390
L45078 35428
L45097 35484
L45134 35521
L45172 35540
L45247 35559
L45303 35559
L45378 35540
L45416 35521
L45453 35484
L45472 35428
L45472 35390
L45453 35334
L45434 35315
" />
<path d="M45472 35184
L45472 34940
L45322 35071
L45322 35015
L45303 34978
L45284 34959
L45247 34940
L45153 34940
L45116 34959
L45097 34978
L45078 35015
L45078 35128
L45097 35165
L45116 35184
" />
<path d="M36116 33565
L36097 33584
L36078 33640
L36078 33678
L36097 33734
L36134 33771
L36172 33790
L36247 33809
L36303 33809
L36378 33790
L36416 33771
L36453 33734
L36472 33678
L36472 33640
L36453 33584
L36434 33565
" />
<path d="M36341 33228
L36078 33228
" />
<path d="M36491 33321
L36209 33415
L36209 33171
" />
<path d="M35866 38315
L35847 38334
L35828 38390
L35828 38428
L35847 38484
L35884 38521
L35922 38540
L35997 38559
L36053 38559
L36128 38540
L36166 38521
L36203 38484
L36222 38428
L36222 38390
L36203 38334
L36184 38315
" />
<path d="M36222 37959
L36222 38146
L36034 38165
L36053 38146
L36072 38109
L36072 38015
L36053 37978
L36034 37959
L35997 37940
L35903 37940
L35866 37959
L35847 37978
L35828 38015
L35828 38109
L35847 38146
L35866 38165
" />
<path d="M36995 35813
L37014 35832
L37070 35851
L37108 35851
L37164 35832
L37201 35795
L37220 35757
L37239 35682
L37239 35626
L37220 35551
L37201 35513
L37164 35476
L37108 35457
L37070 35457
L37014 35476
L36995 35495
" />
<path d="M36658 35457
L36733 35457
L36770 35476
L36789 35495
L36826 35551
L36845 35626
L36845 35776
L36826 35813
L36808 35832
L36770 35851
L36695 35851
L36658 35832
L36639 35813
L36620 35776
L36620 35682
L36639 35645
L36658 35626
L36695 35607
L36770 35607
L36808 35626
L36826 35645
L36845 35682
" />
<path d="M47462 35565
L47443 35584
L47425 35640
L47425 35678
L47443 35734
L47481 35771
L47518 35790
L47593 35809
L47650 35809
L47725 35790
L47762 35771
L47800 35734
L47818 35678
L47818 35640
L47800 35584
L47781 35565
" />
<path d="M47818 35434
L47818 35171
L47425 35340
" />
<path d="M44761 31262
L44780 31281
L44836 31300
L44873 31300
L44930 31281
L44967 31243
L44986 31206
L45005 31131
L45005 31075
L44986 31000
L44967 30962
L44930 30925
L44873 30906
L44836 30906
L44780 30925
L44761 30943
" />
<path d="M44536 31075
L44573 31056
L44592 31037
L44611 31000
L44611 30981
L44592 30943
L44573 30925
L44536 30906
L44461 30906
L44423 30925
L44405 30943
L44386 30981
L44386 31000
L44405 31037
L44423 31056
L44461 31075
L44536 31075
L44573 31093
L44592 31112
L44611 31150
L44611 31225
L44592 31262
L44573 31281
L44536 31300
L44461 31300
L44423 31281
L44405 31262
L44386 31225
L44386 31150
L44405 31112
L44423 31093
L44461 31075
" />
<path d="M54011 31262
L54030 31281
L54086 31300
L54123 31300
L54180 31281
L54217 31243
L54236 31206
L54255 31131
L54255 31075
L54236 31000
L54217 30962
L54180 30925
L54123 30906
L54086 30906
L54030 30925
L54011 30943
" />
<path d="M53823 31300
L53748 31300
L53711 31281
L53692 31262
L53655 31206
L53636 31131
L53636 30981
L53655 30943
L53673 30925
L53711 30906
L53786 30906
L53823 30925
L53842 30943
L53861 30981
L53861 31075
L53842 31112
L53823 31131
L53786 31150
L53711 31150
L53673 31131
L53655 31112
L53636 31075
" />
<path d="M46789 28253
L46770 28271
L46751 28328
L46751 28365
L46770 28421
L46808 28459
L46845 28478
L46920 28496
L46976 28496
L47051 28478
L47089 28459
L47126 28421
L47145 28365
L47145 28328
L47126 28271
L47108 28253
" />
<path d="M46751 27878
L46751 28103
" />
<path d="M46751 27990
L47145 27990
L47089 28028
L47051 28065
L47033 28103
" />
<path d="M47145 27634
L47145 27596
L47126 27559
L47108 27540
L47070 27521
L46995 27503
L46901 27503
L46826 27521
L46789 27540
L46770 27559
L46751 27596
L46751 27634
L46770 27671
L46789 27690
L46826 27709
L46901 27728
L46995 27728
L47070 27709
L47108 27690
L47126 27671
L47145 27634
" />
<path d="M56789 28253
L56770 28271
L56751 28328
L56751 28365
L56770 28421
L56808 28459
L56845 28478
L56920 28496
L56976 28496
L57051 28478
L57089 28459
L57126 28421
L57145 28365
L57145 28328
L57126 28271
L57108 28253
" />
<path d="M56751 27878
L56751 28103
" />
<path d="M56751 27990
L57145 27990
L57089 28028
L57051 28065
L57033 28103
" />
<path d="M56751 27503
L56751 27728
" />
<path d="M56751 27615
L57145 27615
L57089 27653
L57051 27690
L57033 27728
" />
</g> 
</svg>
