<?xml version="1.0" standalone="no"?>
 <!DOCTYPE svg PUBLIC "-//W3C//DTD SVG 1.1//EN" 
 "http://www.w3.org/Graphics/SVG/1.1/DTD/svg11.dtd"> 
<svg xmlns="http://www.w3.org/2000/svg" version="1.1" 
    width="29.7002cm" height="21.0007cm" viewBox="0 0 116930 82680 ">
<title>SVG Picture created as opto-interface-F.Cu.svg date 2016/07/20 13:18:01 </title>
  <desc>Picture generated by PCBNEW </desc>
<g style="fill:#000000; fill-opacity:1;stroke:#000000; stroke-opacity:1;
stroke-linecap:round; stroke-linejoin:round; "
 transform="translate(0 0) scale(1 1)">
</g>
<g style="fill:#000000; fill-opacity:0.0; 
stroke:#000000; stroke-width:-0.000393701; stroke-opacity:1; 
stroke-linecap:round; stroke-linejoin:round;">
</g>
<g style="fill:#000000; fill-opacity:0.0; 
stroke:#000000; stroke-width:600; stroke-opacity:1; 
stroke-linecap:round; stroke-linejoin:round;">
<path d="M33465 40540
L33465 40140
" />
<path d="M34465 40540
L34465 40140
" />
<path d="M35465 40540
L35465 40140
" />
<path d="M38465 40540
L38465 40140
" />
<path d="M37465 40540
L37465 40140
" />
<path d="M36465 40540
L36465 40140
" />
<path d="M40465 40540
L40465 40140
" />
<path d="M41465 40540
L41465 40140
" />
<path d="M42465 40540
L42465 40140
" />
<path d="M44465 40540
L44465 40140
" />
<path d="M45465 40540
L45465 40140
" />
<path d="M33465 21540
L33465 21140
" />
<path d="M34465 21540
L34465 21140
" />
<path d="M35465 21540
L35465 21140
" />
<path d="M36465 21540
L36465 21140
" />
<path d="M37465 21540
L37465 21140
" />
<path d="M38465 21540
L38465 21140
" />
<path d="M39465 21540
L39465 21140
" />
<path d="M40465 21540
L40465 21140
" />
<path d="M42065 21540
L42065 21140
" />
<path d="M43065 21540
L43065 21140
" />
<path d="M44065 21540
L44065 21140
" />
<path d="M45065 21540
L45065 21140
" />
<path d="M46065 21540
L46065 21140
" />
<path d="M47065 21540
L47065 21140
" />
<path d="M48065 21540
L48065 21140
" />
<path d="M49065 21540
L49065 21140
" />
<path d="M43465 40540
L43465 40140
" />
</g>
<g style="fill:#000000; fill-opacity:1.0; 
stroke:#000000; stroke-width:0; stroke-opacity:1; 
stroke-linecap:round; stroke-linejoin:round;">
<circle cx="32465" cy="38340.2" r="775" /> 
</g>
<g style="fill:#000000; fill-opacity:1.0; 
stroke:#000000; stroke-width:39.3701; stroke-opacity:1; 
stroke-linecap:round; stroke-linejoin:round;">
</g>
<g style="fill:#000000; fill-opacity:1.0; 
stroke:#000000; stroke-width:0; stroke-opacity:1; 
stroke-linecap:round; stroke-linejoin:round;">
<circle cx="32465" cy="27340.2" r="775" /> 
</g>
<g style="fill:#000000; fill-opacity:1.0; 
stroke:#000000; stroke-width:39.3701; stroke-opacity:1; 
stroke-linecap:round; stroke-linejoin:round;">
</g>
<g style="fill:#000000; fill-opacity:1.0; 
stroke:#000000; stroke-width:0; stroke-opacity:1; 
stroke-linecap:round; stroke-linejoin:round;">
<circle cx="52465" cy="21340.2" r="775" /> 
</g>
<g style="fill:#000000; fill-opacity:1.0; 
stroke:#000000; stroke-width:39.3701; stroke-opacity:1; 
stroke-linecap:round; stroke-linejoin:round;">
</g>
<g style="fill:#000000; fill-opacity:1.0; 
stroke:#000000; stroke-width:0; stroke-opacity:1; 
stroke-linecap:round; stroke-linejoin:round;">
<circle cx="52965" cy="40340.2" r="775" /> 
</g>
<g style="fill:#000000; fill-opacity:1.0; 
stroke:#000000; stroke-width:39.3701; stroke-opacity:1; 
stroke-linecap:round; stroke-linejoin:round;">
</g>
<g style="fill:#000000; fill-opacity:1.0; 
stroke:#000000; stroke-width:0; stroke-opacity:1; 
stroke-linecap:round; stroke-linejoin:round;">
<polyline style="fill-rule:evenodd;"
points="48731,22968
48416,22968
48416,23283
48731,23283
48731,22968
" /> 
<polyline style="fill-rule:evenodd;"
points="48731,23716
48416,23716
48416,24031
48731,24031
48731,23716
" /> 
<polyline style="fill-rule:evenodd;"
points="47944,23342
47629,23342
47629,23657
47944,23657
47944,23342
" /> 
<polyline style="fill-rule:evenodd;"
points="37103,34744
37103,35255
37693,35255
37693,34744
37103,34744
" /> 
<polyline style="fill-rule:evenodd;"
points="38166,34744
38166,35255
38756,35255
38756,34744
38166,34744
" /> 
<polyline style="fill-rule:evenodd;"
points="37756,38755
37756,38244
37166,38244
37166,38755
37756,38755
" /> 
<polyline style="fill-rule:evenodd;"
points="36693,38755
36693,38244
36103,38244
36103,38755
36693,38755
" /> 
<polyline style="fill-rule:evenodd;"
points="36756,35255
36756,34744
36166,34744
36166,35255
36756,35255
" /> 
<polyline style="fill-rule:evenodd;"
points="35693,35255
35693,34744
35103,34744
35103,35255
35693,35255
" /> 
<polyline style="fill-rule:evenodd;"
points="33674,39076
34185,39076
34185,38486
33674,38486
33674,39076
" /> 
<polyline style="fill-rule:evenodd;"
points="33674,38013
34185,38013
34185,37423
33674,37423
33674,38013
" /> 
<polyline style="fill-rule:evenodd;"
points="34270,30840
34270,30160
33590,30160
33590,30840
34270,30840
" /> 
</g>
<g style="fill:#000000; fill-opacity:1.0; 
stroke:#000000; stroke-width:680; stroke-opacity:1; 
stroke-linecap:round; stroke-linejoin:round;">
</g>
<g style="fill:#000000; fill-opacity:0.0; 
stroke:#000000; stroke-width:680; stroke-opacity:1; 
stroke-linecap:round; stroke-linejoin:round;">
<path d="M32930 30500
L32930 30500
" />
<path d="M33930 31500
L33930 31500
" />
<path d="M32930 31500
L32930 31500
" />
<path d="M33930 32500
L33930 32500
" />
<path d="M32930 32500
L32930 32500
" />
<path d="M33930 33500
L33930 33500
" />
<path d="M32930 33500
L32930 33500
" />
<path d="M33930 34500
L33930 34500
" />
<path d="M32930 34500
L32930 34500
" />
<path d="M33930 35500
L33930 35500
" />
<path d="M32930 35500
L32930 35500
" />
</g>
<g style="fill:#000000; fill-opacity:0.0; 
stroke:#000000; stroke-width:0; stroke-opacity:1; 
stroke-linecap:round; stroke-linejoin:round;">
</g>
<g style="fill:#000000; fill-opacity:1.0; 
stroke:#000000; stroke-width:0; stroke-opacity:1; 
stroke-linecap:round; stroke-linejoin:round;">
<polyline style="fill-rule:evenodd;"
points="57330,34840
57330,34160
56530,34160
56530,34840
57330,34840
" /> 
</g>
<g style="fill:#000000; fill-opacity:1.0; 
stroke:#000000; stroke-width:680; stroke-opacity:1; 
stroke-linecap:round; stroke-linejoin:round;">
</g>
<g style="fill:#000000; fill-opacity:0.0; 
stroke:#000000; stroke-width:680; stroke-opacity:1; 
stroke-linecap:round; stroke-linejoin:round;">
<path d="M56990 35500
L56870 35500
" />
<path d="M56990 36500
L56870 36500
" />
<path d="M56990 37500
L56870 37500
" />
<path d="M56990 38500
L56870 38500
" />
<path d="M56990 39500
L56870 39500
" />
</g>
<g style="fill:#000000; fill-opacity:0.0; 
stroke:#000000; stroke-width:0; stroke-opacity:1; 
stroke-linecap:round; stroke-linejoin:round;">
</g>
<g style="fill:#000000; fill-opacity:1.0; 
stroke:#000000; stroke-width:0; stroke-opacity:1; 
stroke-linecap:round; stroke-linejoin:round;">
<polyline style="fill-rule:evenodd;"
points="45603,36744
45603,37255
46193,37255
46193,36744
45603,36744
" /> 
<polyline style="fill-rule:evenodd;"
points="46666,36744
46666,37255
47256,37255
47256,36744
46666,36744
" /> 
<polyline style="fill-rule:evenodd;"
points="49174,35826
49685,35826
49685,35236
49174,35236
49174,35826
" /> 
<polyline style="fill-rule:evenodd;"
points="49174,34763
49685,34763
49685,34173
49174,34173
49174,34763
" /> 
<polyline style="fill-rule:evenodd;"
points="46424,24326
46935,24326
46935,23736
46424,23736
46424,24326
" /> 
<polyline style="fill-rule:evenodd;"
points="46424,23263
46935,23263
46935,22673
46424,22673
46424,23263
" /> 
<polyline style="fill-rule:evenodd;"
points="36174,34326
36685,34326
36685,33736
36174,33736
36174,34326
" /> 
<polyline style="fill-rule:evenodd;"
points="36174,33263
36685,33263
36685,32673
36174,32673
36174,33263
" /> 
<polyline style="fill-rule:evenodd;"
points="47455,36350
47905,36350
47905,36150
47455,36150
47455,36350
" /> 
<polyline style="fill-rule:evenodd;"
points="47455,35850
47905,35850
47905,35650
47455,35650
47455,35850
" /> 
<polyline style="fill-rule:evenodd;"
points="47455,35350
47905,35350
47905,35150
47455,35150
47455,35350
" /> 
<polyline style="fill-rule:evenodd;"
points="47455,34850
47905,34850
47905,34650
47455,34650
47455,34850
" /> 
<polyline style="fill-rule:evenodd;"
points="44955,34850
45405,34850
45405,34650
44955,34650
44955,34850
" /> 
<polyline style="fill-rule:evenodd;"
points="44955,35350
45405,35350
45405,35150
44955,35150
44955,35350
" /> 
<polyline style="fill-rule:evenodd;"
points="44955,35850
45405,35850
45405,35650
44955,35650
44955,35850
" /> 
<polyline style="fill-rule:evenodd;"
points="44955,36350
45405,36350
45405,36150
44955,36150
44955,36350
" /> 
</g>
<g style="fill:#000000; fill-opacity:1.0; 
stroke:#000000; stroke-width:669; stroke-opacity:1; 
stroke-linecap:round; stroke-linejoin:round;">
</g>
<g style="fill:#000000; fill-opacity:0.0; 
stroke:#000000; stroke-width:669; stroke-opacity:1; 
stroke-linecap:round; stroke-linejoin:round;">
<path d="M43930 30854
L43930 30145
" />
<path d="M44930 30854
L44930 30145
" />
<path d="M42930 30854
L42930 30145
" />
<path d="M53930 30854
L53930 30145
" />
<path d="M54930 30854
L54930 30145
" />
<path d="M52930 30854
L52930 30145
" />
</g>
<g style="fill:#000000; fill-opacity:0.0; 
stroke:#000000; stroke-width:0; stroke-opacity:1; 
stroke-linecap:round; stroke-linejoin:round;">
</g>
<g style="fill:#000000; fill-opacity:1.0; 
stroke:#000000; stroke-width:0; stroke-opacity:1; 
stroke-linecap:round; stroke-linejoin:round;">
<polyline style="fill-rule:evenodd;"
points="38717,34246
38717,33753
38126,33753
38126,34246
38717,34246
" /> 
<polyline style="fill-rule:evenodd;"
points="37733,34246
37733,33753
37142,33753
37142,34246
37733,34246
" /> 
<polyline style="fill-rule:evenodd;"
points="47217,34246
47217,33753
46626,33753
46626,34246
47217,34246
" /> 
<polyline style="fill-rule:evenodd;"
points="46233,34246
46233,33753
45642,33753
45642,34246
46233,34246
" /> 
<polyline style="fill-rule:evenodd;"
points="44183,36037
44676,36037
44676,35446
44183,35446
44183,36037
" /> 
<polyline style="fill-rule:evenodd;"
points="44183,35053
44676,35053
44676,34462
44183,34462
44183,35053
" /> 
<polyline style="fill-rule:evenodd;"
points="35183,34287
35676,34287
35676,33696
35183,33696
35183,34287
" /> 
<polyline style="fill-rule:evenodd;"
points="35183,33303
35676,33303
35676,32712
35183,32712
35183,33303
" /> 
<polyline style="fill-rule:evenodd;"
points="34933,39037
35426,39037
35426,38446
34933,38446
34933,39037
" /> 
<polyline style="fill-rule:evenodd;"
points="34933,38053
35426,38053
35426,37462
34933,37462
34933,38053
" /> 
<polyline style="fill-rule:evenodd;"
points="37717,36746
37717,36253
37126,36253
37126,36746
37717,36746
" /> 
<polyline style="fill-rule:evenodd;"
points="36733,36746
36733,36253
36142,36253
36142,36746
36733,36746
" /> 
<polyline style="fill-rule:evenodd;"
points="48676,34712
48183,34712
48183,35303
48676,35303
48676,34712
" /> 
<polyline style="fill-rule:evenodd;"
points="48676,35696
48183,35696
48183,36287
48676,36287
48676,35696
" /> 
<polyline style="fill-rule:evenodd;"
points="45955,32775
45955,32224
45404,32224
45404,32775
45955,32775
" /> 
<circle cx="43711.5" cy="32500" r="275.591" /> 
</g>
<g style="fill:#000000; fill-opacity:1.0; 
stroke:#000000; stroke-width:39.3701; stroke-opacity:1; 
stroke-linecap:round; stroke-linejoin:round;">
</g>
<g style="fill:#000000; fill-opacity:1.0; 
stroke:#000000; stroke-width:0; stroke-opacity:1; 
stroke-linecap:round; stroke-linejoin:round;">
<polyline style="fill-rule:evenodd;"
points="55205,32775
55205,32224
54654,32224
54654,32775
55205,32775
" /> 
<circle cx="52961.5" cy="32500" r="275.591" /> 
</g>
<g style="fill:#000000; fill-opacity:1.0; 
stroke:#000000; stroke-width:39.3701; stroke-opacity:1; 
stroke-linecap:round; stroke-linejoin:round;">
</g>
<g style="fill:#000000; fill-opacity:1.0; 
stroke:#000000; stroke-width:0; stroke-opacity:1; 
stroke-linecap:round; stroke-linejoin:round;">
<polyline style="fill-rule:evenodd;"
points="46655,30775
47205,30775
47205,30225
46655,30225
46655,30775
" /> 
<circle cx="46930" cy="25500" r="275" /> 
</g>
<g style="fill:#000000; fill-opacity:1.0; 
stroke:#000000; stroke-width:39.3701; stroke-opacity:1; 
stroke-linecap:round; stroke-linejoin:round;">
</g>
<g style="fill:#000000; fill-opacity:1.0; 
stroke:#000000; stroke-width:0; stroke-opacity:1; 
stroke-linecap:round; stroke-linejoin:round;">
<polyline style="fill-rule:evenodd;"
points="57205,25225
56655,25225
56655,25775
57205,25775
57205,25225
" /> 
<circle cx="56930" cy="30500" r="275" /> 
</g>
<g style="fill:#000000; fill-opacity:1.0; 
stroke:#000000; stroke-width:39.3701; stroke-opacity:1; 
stroke-linecap:round; stroke-linejoin:round;">
</g>
<g style="fill:#000000; fill-opacity:1.0; 
stroke:#000000; stroke-width:0; stroke-opacity:1; 
stroke-linecap:round; stroke-linejoin:round;">
<circle cx="47532.7" cy="36630.7" r="118.11" /> 
</g>
<g style="fill:#000000; fill-opacity:1.0; 
stroke:#000000; stroke-width:39.3701; stroke-opacity:1; 
stroke-linecap:round; stroke-linejoin:round;">
</g>
<g style="fill:#000000; fill-opacity:1.0; 
stroke:#000000; stroke-width:0; stroke-opacity:1; 
stroke-linecap:round; stroke-linejoin:round;">
<circle cx="35106.8" cy="31709.5" r="118.11" /> 
</g>
<g style="fill:#000000; fill-opacity:1.0; 
stroke:#000000; stroke-width:39.3701; stroke-opacity:1; 
stroke-linecap:round; stroke-linejoin:round;">
</g>
<g style="fill:#000000; fill-opacity:1.0; 
stroke:#000000; stroke-width:0; stroke-opacity:1; 
stroke-linecap:round; stroke-linejoin:round;">
<circle cx="40296.9" cy="30936.7" r="118.11" /> 
</g>
<g style="fill:#000000; fill-opacity:1.0; 
stroke:#000000; stroke-width:39.3701; stroke-opacity:1; 
stroke-linecap:round; stroke-linejoin:round;">
</g>
<g style="fill:#000000; fill-opacity:1.0; 
stroke:#000000; stroke-width:0; stroke-opacity:1; 
stroke-linecap:round; stroke-linejoin:round;">
<circle cx="35398.5" cy="35551.1" r="118.11" /> 
</g>
<g style="fill:#000000; fill-opacity:1.0; 
stroke:#000000; stroke-width:39.3701; stroke-opacity:1; 
stroke-linecap:round; stroke-linejoin:round;">
</g>
<g style="fill:#000000; fill-opacity:1.0; 
stroke:#000000; stroke-width:177.165; stroke-opacity:1; 
stroke-linecap:round; stroke-linejoin:round;">
</g>
<g style="fill:#000000; fill-opacity:0.0; 
stroke:#000000; stroke-width:177.165; stroke-opacity:1; 
stroke-linecap:round; stroke-linejoin:round;">
<path d="M36437 36500
L36437 36992
" />
<path d="M34471 37757
L34432 37718
" />
<path d="M35180 37757
L34471 37757
" />
<path d="M33930 37718
L34432 37718
" />
<path d="M36398 38500
L36398 37997
" />
<path d="M45180 35250
L45651 35250
" />
<path d="M45651 34000
L45651 35250
" />
<path d="M45211 34000
L45651 34000
" />
<path d="M43711 32500
L45211 34000
" />
<path d="M45651 34000
L45937 34000
" />
<path d="M35180 37757
L35672 37757
" />
<path d="M35915 37514
L36398 37997
" />
<path d="M36437 36992
L35915 37514
" />
<path d="M35915 37514
L35672 37757
" />
<path d="M56930 39500
L56930 38913
" />
<path d="M32930 37220
L33427 37718
" />
<path d="M32930 35500
L32930 37220
" />
<path d="M33930 37718
L33427 37718
" />
<path d="M54386 31435
L54930 31978
" />
<path d="M53930 31435
L54386 31435
" />
<path d="M54930 32500
L54930 31978
" />
<path d="M53930 30500
L53930 31435
" />
<path d="M56930 38500
L56930 38913
" />
<path d="M48172 36250
L47680 36250
" />
<path d="M48430 35992
L48172 36250
" />
<path d="M47680 36483
L47532 36630
" />
<path d="M47680 36250
L47680 36483
" />
<path d="M48170 24259
L48170 23874
" />
<path d="M46930 25500
L48170 24259
" />
<path d="M48574 23874
L48170 23874
" />
<path d="M39926 35055
L44465 39593
" />
<path d="M39926 30282
L39926 35055
" />
<path d="M46177 24031
L39926 30282
" />
<path d="M46680 24031
L46177 24031
" />
<path d="M44465 40340
L44465 39593
" />
<path d="M35927 32466
L35927 32968
" />
<path d="M35170 31709
L35927 32466
" />
<path d="M35106 31709
L35170 31709
" />
<path d="M36430 32968
L35927 32968
" />
<path d="M48574 23125
L48170 23125
" />
<path d="M48012 22968
L48096 23052
" />
<path d="M46680 22968
L48012 22968
" />
<path d="M48096 23052
L48170 23125
" />
<path d="M49024 22086
L49065 22086
" />
<path d="M48190 22920
L49024 22086
" />
<path d="M48190 22958
L48190 22920
" />
<path d="M48096 23052
L48190 22958
" />
<path d="M49065 21340
L49065 22086
" />
<path d="M47680 35250
L47208 35250
" />
<path d="M45960 36497
L45898 36497
" />
<path d="M47208 35250
L45960 36497
" />
<path d="M45651 36250
L45898 36497
" />
<path d="M45651 36250
L45651 36250
" />
<path d="M45180 36250
L45651 36250
" />
<path d="M36461 35000
L36461 35251
" />
<path d="M36606 35251
L36857 35000
" />
<path d="M36461 35251
L36606 35251
" />
<path d="M37398 35000
L36857 35000
" />
<path d="M36430 34466
L36461 34497
" />
<path d="M36430 34031
L36430 34466
" />
<path d="M36461 35000
L36461 34497
" />
<path d="M46930 30500
L46408 30500
" />
<path d="M42930 30500
L42930 31435
" />
<path d="M54337 33907
L56930 36500
" />
<path d="M47555 33907
L54337 33907
" />
<path d="M47463 34000
L47555 33907
" />
<path d="M46922 34000
L47463 34000
" />
<path d="M46922 34963
L47208 35250
" />
<path d="M46922 34000
L46922 34963
" />
<path d="M46922 34000
L46922 33507
" />
<path d="M45779 33507
L46922 33507
" />
<path d="M45157 32885
L45779 33507
" />
<path d="M45157 31435
L45157 32885
" />
<path d="M45473 31435
L45157 31435
" />
<path d="M46408 30500
L45473 31435
" />
<path d="M45157 31435
L42930 31435
" />
<path d="M35782 35929
L36461 35251
" />
<path d="M35260 35929
L35782 35929
" />
<path d="M34516 35184
L35260 35929
" />
<path d="M34516 34086
L34516 35184
" />
<path d="M33930 33500
L34516 34086
" />
<path d="M45898 36748
L45898 36497
" />
<path d="M45898 36748
L45898 37000
" />
<path d="M45702 41086
L43465 41086
" />
<path d="M46031 40757
L45702 41086
" />
<path d="M46031 37634
L46031 40757
" />
<path d="M45898 37502
L46031 37634
" />
<path d="M45898 37000
L45898 37502
" />
<path d="M43465 40340
L43465 41086
" />
<path d="M48430 34750
L48430 35007
" />
<path d="M47680 34750
L48430 34750
" />
<path d="M49430 34468
L49011 34468
" />
<path d="M48711 34468
L49011 34468
" />
<path d="M48430 34750
L48711 34468
" />
<path d="M56930 30500
L55510 30500
" />
<path d="M49430 34468
L49932 34468
" />
<path d="M56930 37500
L56930 37413
" />
<path d="M57586 36756
L56930 37413
" />
<path d="M57586 31156
L57586 36756
" />
<path d="M56930 30500
L57586 31156
" />
<path d="M54930 30500
L55220 30500
" />
<path d="M55220 30500
L55510 30500
" />
<path d="M52876 37413
L56930 37413
" />
<path d="M49932 34468
L52876 37413
" />
<path d="M41672 29561
L40296 30936
" />
<path d="M54281 29561
L41672 29561
" />
<path d="M55220 30500
L54281 29561
" />
<path d="M46723 33021
L46201 32500
" />
<path d="M56037 33021
L46723 33021
" />
<path d="M56930 33913
L56037 33021
" />
<path d="M56930 34500
L56930 33913
" />
<path d="M45680 32500
L46201 32500
" />
<path d="M38427 34497
L38461 34497
" />
<path d="M38422 34492
L38427 34497
" />
<path d="M38422 34000
L38422 34492
" />
<path d="M38461 35000
L38461 34497
" />
<path d="M37056 39002
L36465 39593
" />
<path d="M37461 39002
L37056 39002
" />
<path d="M36465 40340
L36465 39593
" />
<path d="M37461 38500
L37461 39002
" />
<path d="M37461 38500
L37461 37997
" />
<path d="M37422 37958
L37461 37997
" />
<path d="M37422 36500
L37422 37958
" />
<path d="M37955 36007
L38461 35502
" />
<path d="M37422 36007
L37955 36007
" />
<path d="M37422 36500
L37422 36007
" />
<path d="M38461 35000
L38461 35502
" />
<path d="M34871 30500
L33930 30500
" />
<path d="M37437 33066
L34871 30500
" />
<path d="M37437 34000
L37437 33066
" />
<path d="M44700 35742
L44708 35750
" />
<path d="M44430 35742
L44700 35742
" />
<path d="M45180 35750
L44708 35750
" />
<path d="M44700 34757
L44708 34750
" />
<path d="M44430 34757
L44700 34757
" />
<path d="M45180 34750
L44708 34750
" />
<path d="M35430 33992
L35430 34533
" />
<path d="M35398 34565
L35398 35000
" />
<path d="M35430 34533
L35398 34565
" />
<path d="M34471 38742
L34432 38781
" />
<path d="M35180 38742
L34471 38742
" />
<path d="M33930 38781
L34432 38781
" />
<path d="M33658 39593
L33930 39322
" />
<path d="M33465 39593
L33658 39593
" />
<path d="M33930 38781
L33930 39322
" />
<path d="M33465 40340
L33465 39593
" />
<path d="M35398 35551
L35398 35000
" />
<path d="M35430 33007
L35430 32466
" />
<path d="M33930 31500
L34516 31500
" />
<path d="M34516 31634
L34516 31500
" />
<path d="M35348 32466
L34516 31634
" />
<path d="M35430 32466
L35348 32466
" />
<path d="M47680 35750
L47208 35750
" />
<path d="M47208 36250
L46961 36497
" />
<path d="M47208 35750
L47208 36250
" />
<path d="M48502 37000
L49430 36072
" />
<path d="M46961 37000
L48502 37000
" />
<path d="M49430 35531
L49430 36072
" />
<path d="M46961 37000
L46961 36497
" />
</g>
<g style="fill:#000000; fill-opacity:1.0; 
stroke:#000000; stroke-width:100; stroke-opacity:1; 
stroke-linecap:round; stroke-linejoin:round;">
<polyline style="fill-rule:evenodd;"
points="53397,20715
53565,21120
53565,21558
53398,21962
53089,22272
52684,22440
52247,22440
51842,22273
51532,21964
51364,21560
51364,21122
51531,20717
51653,20595
49378,20595
49507,20681
49643,20884
49690,21123
49690,21556
49643,21795
49507,21998
49479,22017
49479,22086
49447,22244
49357,22379
49236,22460
48964,22732
49037,22839
49063,22968
49063,23283
49040,23404
48969,23514
48918,23549
48943,23574
48981,23666
48981,23761
48919,23824
48624,23824
48624,23816
48524,23816
48524,23824
48516,23824
48516,23924
48524,23924
48524,24219
48461,24281
48366,24281
48274,24243
48204,24173
48166,24081
48166,23986
48228,23924
48166,23924
48166,23899
48073,23963
47944,23989
47629,23989
47508,23966
47398,23895
47323,23786
47297,23657
47297,23382
47245,23382
47245,23384
47173,23495
47168,23499
47241,23607
47267,23736
47267,24326
47245,24447
47173,24558
47065,24632
46935,24658
46424,24658
46303,24636
46215,24579
41642,29152
41672,29146
54281,29146
54439,29178
54574,29268
54797,29491
54930,29465
55182,29515
55396,29658
55539,29873
55582,30085
56494,30085
56589,29991
56810,29899
57048,29899
57269,29990
57438,30159
57530,30380
57530,30514
57879,30863
57969,30998
58000,31156
58000,36756
57969,36914
57879,37049
57629,37298
57669,37500
57619,37754
57474,37970
57355,38050
57461,38144
57561,38352
57562,38358
57515,38450
56980,38450
56980,38442
56880,38442
56880,38450
56344,38450
56297,38358
56298,38352
56398,38144
56504,38050
56385,37970
56289,37827
52876,37827
52718,37795
52583,37705
49993,35115
50017,35236
50017,35826
49995,35947
49923,36058
49835,36118
49812,36231
49722,36365
48795,37292
48661,37382
48502,37414
47541,37414
47494,37487
47385,37561
47256,37587
46666,37587
46545,37565
46434,37493
46430,37488
46418,37496
46445,37634
46445,40757
46414,40915
46324,41050
46219,41154
52223,41154
52032,40964
51864,40560
51864,40122
52031,39717
52340,39407
52745,39239
53183,39239
53587,39406
53897,39715
54065,40120
54065,40558
53898,40962
53707,41154
58334,41154
58334,39641
57562,39641
57561,39647
57461,39855
57289,40008
57072,40084
56980,40027
56980,39550
56880,39550
56880,40027
56787,40084
56570,40008
56398,39855
56298,39647
56297,39641
56344,39550
56880,39550
56980,39550
57515,39550
57562,39641
58334,39641
58334,38641
57562,38641
57561,38647
57461,38855
57299,39000
57461,39144
57561,39352
57562,39358
57515,39450
56980,39450
56980,38550
56880,38550
56880,39450
56344,39450
56297,39358
56298,39352
56398,39144
56560,39000
56398,38855
56298,38647
56297,38641
56344,38550
56880,38550
56980,38550
57515,38550
57562,38641
58334,38641
58334,25612
57455,25612
57455,25824
57416,25916
57346,25986
57254,26025
57042,26025
56980,25962
56980,25550
56880,25550
56880,25962
56817,26025
56605,26025
56513,25986
56443,25916
56422,25867
47227,25867
47202,25960
47005,26029
46797,26018
46657,25960
46632,25867
46930,25570
47227,25867
56422,25867
56405,25824
56405,25612
56467,25550
56880,25550
56980,25550
57392,25550
57455,25612
58334,25612
58334,25175
57455,25175
57455,25387
57392,25450
56980,25450
56980,25037
56880,25037
56880,25450
56467,25450
56441,25424
47459,25424
47448,25632
47390,25772
47297,25797
47000,25500
46859,25500
46562,25797
46469,25772
46400,25575
46411,25367
46469,25227
46562,25202
46859,25500
47000,25500
47297,25202
47390,25227
47459,25424
56441,25424
56405,25387
56405,25175
56422,25132
47227,25132
46930,25429
46632,25132
46657,25039
46854,24970
47062,24981
47202,25039
47227,25132
56422,25132
56443,25083
56513,25013
56605,24975
56817,24975
56880,25037
56980,25037
57042,24975
57254,24975
57346,25013
57416,25083
57455,25175
58334,25175
58334,24112
55003,24112
54840,24507
54538,24809
54144,24973
53717,24973
53322,24810
53020,24508
52856,24114
52856,23986
48981,23986
48981,24081
48943,24173
48873,24243
48781,24281
48686,24281
48624,24219
48624,23924
48919,23924
48981,23986
52856,23986
52856,23687
53019,23292
53321,22990
53715,22826
54142,22826
54537,22989
54839,23291
55003,23685
55003,24112
58334,24112
58334,20595
53276,20595
53397,20715
" /> 
<polyline style="fill-rule:evenodd;"
points="40907,20681
41043,20884
41090,21123
41090,21556
41043,21795
40907,21998
40704,22134
40465,22181
40225,22134
40022,21998
39965,21912
39907,21998
39704,22134
39465,22181
39225,22134
39022,21998
38965,21912
38907,21998
38704,22134
38465,22181
38225,22134
38022,21998
37965,21912
37907,21998
37704,22134
37465,22181
37225,22134
37022,21998
36965,21912
36907,21998
36704,22134
36465,22181
36225,22134
36022,21998
35965,21912
35907,21998
35704,22134
35465,22181
35225,22134
35022,21998
34965,21912
34907,21998
34704,22134
34465,22181
34225,22134
34022,21998
33965,21912
33907,21998
33704,22134
33465,22181
33225,22134
33022,21998
32887,21795
32839,21556
32839,21123
32887,20884
33022,20681
33151,20595
31275,20595
31275,41154
33328,41154
33225,41134
33022,40998
32887,40795
32839,40556
32839,40123
32887,39884
33022,39681
33050,39662
33050,39593
33082,39435
33172,39301
33306,39211
33366,39199
33342,39076
33342,39019
33089,39272
32684,39440
32247,39440
31842,39273
31532,38964
31364,38560
31364,38122
31531,37717
31840,37407
32245,37239
32683,37239
33087,37406
33397,37715
33439,37816
33486,37768
33880,37768
33880,37776
33980,37776
33980,37768
34373,37768
34435,37831
34435,38063
34397,38155
34348,38204
34417,38248
34471,38327
34624,38327
34624,38326
34695,38215
34723,38196
34721,38194
34683,38102
34683,37870
34746,37807
35130,37807
35130,37815
35230,37815
35230,37807
35613,37807
35676,37870
35676,38102
35638,38194
35637,38195
35657,38208
35731,38317
35758,38446
35758,39037
35735,39158
35664,39268
35555,39343
35426,39369
34933,39369
34813,39346
34702,39275
34628,39166
34626,39156
34602,39156
34590,39164
34497,39182
34495,39197
34423,39308
34335,39368
34312,39481
34276,39535
34465,39498
34704,39546
34907,39681
34965,39767
35022,39681
35225,39546
35465,39498
35704,39546
35907,39681
35965,39767
36022,39681
36050,39662
36050,39593
36082,39435
36172,39301
36489,38984
36448,38943
36448,38550
36348,38550
36348,38943
36286,39005
36053,39005
35961,38967
35891,38897
35853,38805
35853,38612
35915,38550
36348,38550
36448,38550
36456,38550
36456,38450
36448,38450
36448,38056
36348,38056
36348,38450
35915,38450
35853,38387
35853,38194
35891,38102
35961,38032
36053,37994
36286,37994
36348,38056
36448,38056
36511,37994
36743,37994
36835,38032
36884,38081
36928,38012
37007,37958
37007,37412
35676,37412
35676,37645
35613,37707
35230,37707
35230,37275
35130,37275
35130,37707
34746,37707
34683,37645
34683,37412
34700,37373
34435,37373
34435,37606
34373,37668
33980,37668
33980,37235
33880,37235
33880,37668
33486,37668
33424,37606
33424,37373
33462,37281
33532,37211
33624,37173
33817,37173
33880,37235
33980,37235
34042,37173
34235,37173
34327,37211
34397,37281
34435,37373
34700,37373
34721,37320
34792,37250
34884,37212
35067,37212
35130,37275
35230,37275
35292,37212
35475,37212
35567,37250
35638,37320
35676,37412
37007,37412
37007,37055
37006,37055
36895,36984
36876,36956
36874,36958
36782,36996
36550,36996
36487,36933
36487,36550
36387,36550
36387,36933
36325,36996
36092,36996
36000,36958
35930,36887
35892,36795
35892,36612
35955,36550
36387,36550
36487,36550
36495,36550
36495,36450
36487,36450
36487,36066
36550,36003
36782,36003
36874,36041
36875,36042
36888,36022
36997,35948
37020,35943
37039,35849
37129,35714
37263,35625
37422,35593
37784,35593
37814,35563
37693,35587
37103,35587
36982,35565
36930,35531
36885,35561
36866,35565
36833,35587
36764,35633
36639,35658
36294,36003
36325,36003
36387,36066
36387,36450
35955,36450
35892,36387
35892,36321
35782,36343
35260,36343
35102,36312
34967,36222
34534,35789
34413,35970
34197,36114
33943,36165
33916,36165
33662,36114
33446,35970
33377,35867
33279,35975
33071,36072
32980,36025
32980,35550
32880,35550
32880,36025
32788,36072
32580,35975
32425,35805
32357,35641
32404,35550
32880,35550
32980,35550
32987,35550
32987,35450
32980,35450
32980,34550
32880,34550
32880,35450
32404,35450
32357,35358
32425,35194
32580,35024
32633,35000
32580,34975
32425,34805
32357,34641
32404,34550
32880,34550
32980,34550
32987,34550
32987,34450
32980,34450
32980,33550
32880,33550
32880,34450
32404,34450
32357,34358
32425,34194
32580,34024
32633,34000
32580,33975
32425,33805
32357,33641
32404,33550
32880,33550
32980,33550
32987,33550
32987,33450
32980,33450
32980,32550
32880,32550
32880,33450
32404,33450
32357,33358
32425,33194
32580,33024
32633,33000
32580,32975
32425,32805
32357,32641
32404,32550
32880,32550
32980,32550
32987,32550
32987,32450
32980,32450
32980,31550
32880,31550
32880,32450
32404,32450
32357,32358
32425,32194
32580,32024
32633,32000
32580,31975
32425,31805
32357,31641
32404,31550
32880,31550
32980,31550
32987,31550
32987,31450
32980,31450
32980,31442
32880,31442
32880,31450
32404,31450
32357,31358
32425,31194
32560,31046
32446,30970
32302,30754
32251,30500
32302,30245
32446,30029
32662,29885
32916,29834
32943,29834
33197,29885
33325,29970
33352,29928
33460,29854
33590,29828
34270,29828
34390,29850
34501,29922
34575,30030
34586,30085
34871,30085
35030,30117
35164,30207
37730,32773
37820,32907
37852,33066
37852,33444
37853,33444
37930,33494
37997,33448
38126,33421
38717,33421
38838,33444
38948,33515
39023,33624
39049,33753
39049,34246
39026,34366
38955,34477
38949,34481
38988,34506
39062,34614
39088,34744
39088,35255
39066,35376
38994,35487
38885,35561
38862,35566
38844,35660
38754,35794
38248,36300
38114,36390
38049,36403
38049,36746
38026,36866
37955,36977
37846,37051
37836,37053
37836,37827
37844,37839
37862,37932
37877,37934
37988,38006
38062,38114
38088,38244
38088,38755
38066,38876
37994,38987
37885,39061
37862,39066
37844,39160
37754,39294
37619,39384
37461,39416
37228,39416
36929,39715
36965,39767
37022,39681
37225,39546
37465,39498
37704,39546
37907,39681
37965,39767
38022,39681
38225,39546
38465,39498
38704,39546
38907,39681
39043,39884
39090,40123
39090,40556
39043,40795
38907,40998
38704,41134
38601,41154
40328,41154
40225,41134
40022,40998
39887,40795
39839,40556
39839,40123
39887,39884
40022,39681
40225,39546
40465,39498
40704,39546
40907,39681
40965,39767
41022,39681
41225,39546
41465,39498
41704,39546
41907,39681
42012,39838
42111,39715
42300,39612
42329,39607
42415,39655
42415,40290
42407,40290
42407,40390
42415,40390
42415,41025
42329,41073
42300,41067
42111,40964
42012,40841
41907,40998
41704,41134
41601,41154
43064,41154
43050,41086
43050,41017
43022,40998
42917,40841
42818,40964
42629,41067
42600,41073
42515,41025
42515,40390
42522,40390
42522,40290
42515,40290
42515,39655
42600,39607
42629,39612
42818,39715
42917,39838
43022,39681
43225,39546
43465,39498
43704,39546
43907,39681
43965,39767
44000,39715
39634,35348
39544,35214
39538,35184
39512,35055
39512,30282
39544,30123
39569,30085
39634,29989
42065,27558
33565,27558
33398,27962
33089,28272
32684,28440
32247,28440
31842,28273
31532,27964
31364,27560
31364,27122
31531,26717
31840,26407
32245,26239
32683,26239
33087,26406
33397,26715
33565,27120
33565,27558
42065,27558
45511,24112
45003,24112
44840,24507
44538,24809
44144,24973
43717,24973
43322,24810
43020,24508
42856,24114
42856,23687
43019,23292
43321,22990
43715,22826
44142,22826
44537,22989
44839,23291
45003,23685
45003,24112
45511,24112
45885,23738
46019,23648
46112,23630
46114,23615
46186,23504
46191,23500
46118,23392
46092,23263
46092,22673
46114,22552
46186,22441
46294,22367
46424,22341
46935,22341
47056,22363
47167,22435
47241,22544
47243,22554
47971,22554
48584,21941
48565,21912
48507,21998
48304,22134
48065,22181
47825,22134
47622,21998
47565,21912
47507,21998
47304,22134
47065,22181
46825,22134
46622,21998
46565,21912
46507,21998
46304,22134
46065,22181
45825,22134
45622,21998
45565,21912
45507,21998
45304,22134
45065,22181
44825,22134
44622,21998
44565,21912
44507,21998
44304,22134
44065,22181
43825,22134
43622,21998
43565,21912
43507,21998
43304,22134
43065,22181
42825,22134
42622,21998
42565,21912
42507,21998
42304,22134
42065,22181
41825,22134
41622,21998
41487,21795
41439,21556
41439,21123
41487,20884
41622,20681
41751,20595
40778,20595
40907,20681
" /> 
<polyline style="fill-rule:evenodd;"
points="40702,31116
40673,31187
40548,31312
40385,31380
40341,31380
40341,34884
44757,39301
44847,39435
44879,39593
44879,39662
44907,39681
44965,39767
45022,39681
45225,39546
45465,39498
45617,39528
45617,37806
45605,37794
45515,37660
45510,37634
45497,37567
45482,37565
45371,37493
45297,37385
45271,37255
45271,36744
45282,36681
44955,36681
44834,36659
44723,36587
44649,36479
44626,36369
44183,36369
44063,36346
43952,36275
43878,36166
43851,36037
43851,35446
43874,35326
43924,35249
43878,35182
43851,35053
43851,34462
43874,34341
43945,34231
44054,34156
44183,34130
44676,34130
44796,34153
44907,34224
44971,34318
45401,34318
45392,34295
45392,34112
45455,34050
45887,34050
45887,34433
45825,34496
45693,34496
45710,34520
45736,34650
45736,34850
45714,34970
45645,35077
45655,35100
45655,35137
45592,35200
45230,35200
45230,35192
45130,35192
45130,35200
45122,35200
45122,35300
45130,35300
45130,35307
45230,35307
45230,35300
45592,35300
45655,35362
45655,35399
45644,35424
45710,35520
45736,35650
45736,35850
45736,35852
45809,35867
45927,35945
46624,35248
46539,35121
46533,35092
46507,34963
46507,34555
46506,34555
46395,34484
46376,34456
46374,34458
46282,34496
46050,34496
45987,34433
45987,34050
45995,34050
45995,33950
45987,33950
45987,33942
45887,33942
45887,33950
45455,33950
45392,33887
45392,33706
44864,33178
44789,33066
44774,33044
44743,32885
44743,32868
44009,32868
43984,32961
43787,33030
43578,33019
43438,32961
43413,32868
43711,32570
44009,32868
44743,32868
44743,32424
44241,32424
44230,32632
44172,32773
44079,32797
43782,32500
43640,32500
43343,32797
43250,32773
43181,32575
43192,32367
43250,32226
43343,32202
43640,32500
43782,32500
44079,32202
44172,32226
44241,32424
44743,32424
44743,32131
44009,32131
43711,32429
43413,32131
43438,32038
43635,31969
43844,31980
43984,32038
44009,32131
44743,32131
44743,31849
42930,31849
42771,31817
42637,31728
42547,31593
42515,31435
42515,31376
42463,31341
42320,31126
42269,30874
42269,30125
42299,29975
41844,29975
40702,31116
" /> 
<polyline style="fill-rule:evenodd;"
points="47630,36200
47622,36200
47622,36250
47622,36254
47622,36300
47630,36300
47630,36307
47730,36307
47730,36300
47737,36300
47737,36200
47730,36200
47730,36192
47630,36192
47630,36200
" /> 
<polyline style="fill-rule:evenodd;"
points="48380,35942
48372,35942
48372,36042
48380,36042
48380,36050
48480,36050
48480,36042
48487,36042
48487,35942
48480,35942
48480,35934
48380,35934
48380,35942
" /> 
<polyline style="fill-rule:evenodd;"
points="47436,29987
47510,30095
47536,30225
47536,30775
47514,30895
47442,31006
47334,31080
47205,31106
46655,31106
46534,31084
46458,31035
45766,31728
45632,31817
45571,31829
45571,31892
45955,31892
46076,31915
46187,31986
46261,32095
46261,32097
46348,32114
46360,32117
46494,32207
46895,32607
52360,32607
52360,32380
52451,32159
52620,31990
52841,31898
53080,31898
53301,31990
53470,32159
53562,32379
53562,32607
54409,32607
54466,32550
54880,32550
54880,32557
54980,32557
54980,32550
55393,32550
55450,32607
56037,32607
56196,32639
56330,32728
57172,33570
57172,32174
55455,32174
55455,32387
55393,32450
54980,32450
54980,32036
54880,32036
54880,32450
54466,32450
54404,32387
54404,32174
54442,32082
54512,32012
54604,31974
54817,31974
54880,32036
54980,32036
55042,31974
55255,31974
55347,32012
55417,32082
55455,32174
57172,32174
57172,31328
56944,31100
56811,31100
56590,31009
56494,30914
55582,30914
55539,31126
55396,31341
55182,31484
54930,31534
54677,31484
54463,31341
54378,31214
54307,31303
54107,31413
54070,31421
53980,31374
53980,30550
53987,30550
53987,30450
53980,30450
53980,30442
53880,30442
53880,30450
53872,30450
53872,30550
53880,30550
53880,31374
53789,31421
53752,31413
53552,31303
53481,31214
53396,31341
53182,31484
52930,31534
52677,31484
52463,31341
52320,31126
52269,30874
52269,30125
52299,29975
47418,29975
47436,29987
" /> 
<polyline style="fill-rule:evenodd;"
points="43880,30450
43872,30450
43872,30550
43880,30550
43880,30557
43980,30557
43980,30550
43987,30550
43987,30450
43980,30450
43980,30442
43880,30442
43880,30450
" /> 
</g>
<g style="fill:#FFFFFF; fill-opacity:1.0; 
stroke:#FFFFFF; stroke-width:100; stroke-opacity:1; 
stroke-linecap:round; stroke-linejoin:round;">
</g>
<g style="fill:#FFFFFF; fill-opacity:1.0; 
stroke:#FFFFFF; stroke-width:0; stroke-opacity:1; 
stroke-linecap:round; stroke-linejoin:round;">
<circle cx="47532.7" cy="36630.7" r="78.7402" /> 
</g>
<g style="fill:#FFFFFF; fill-opacity:1.0; 
stroke:#FFFFFF; stroke-width:39.3701; stroke-opacity:1; 
stroke-linecap:round; stroke-linejoin:round;">
</g>
<g style="fill:#FFFFFF; fill-opacity:1.0; 
stroke:#FFFFFF; stroke-width:0; stroke-opacity:1; 
stroke-linecap:round; stroke-linejoin:round;">
<circle cx="35106.8" cy="31709.5" r="78.7402" /> 
</g>
<g style="fill:#FFFFFF; fill-opacity:1.0; 
stroke:#FFFFFF; stroke-width:39.3701; stroke-opacity:1; 
stroke-linecap:round; stroke-linejoin:round;">
</g>
<g style="fill:#FFFFFF; fill-opacity:1.0; 
stroke:#FFFFFF; stroke-width:0; stroke-opacity:1; 
stroke-linecap:round; stroke-linejoin:round;">
<circle cx="40296.9" cy="30936.7" r="78.7402" /> 
</g>
<g style="fill:#FFFFFF; fill-opacity:1.0; 
stroke:#FFFFFF; stroke-width:39.3701; stroke-opacity:1; 
stroke-linecap:round; stroke-linejoin:round;">
</g>
<g style="fill:#FFFFFF; fill-opacity:1.0; 
stroke:#FFFFFF; stroke-width:0; stroke-opacity:1; 
stroke-linecap:round; stroke-linejoin:round;">
<circle cx="35398.5" cy="35551.1" r="78.7402" /> 
</g>
<g style="fill:#FFFFFF; fill-opacity:1.0; 
stroke:#FFFFFF; stroke-width:39.3701; stroke-opacity:1; 
stroke-linecap:round; stroke-linejoin:round;">
</g>
<g style="fill:#FFFFFF; fill-opacity:1.0; 
stroke:#FFFFFF; stroke-width:0; stroke-opacity:1; 
stroke-linecap:round; stroke-linejoin:round;">
<circle cx="33465" cy="40340.2" r="160" /> 
</g>
<g style="fill:#FFFFFF; fill-opacity:1.0; 
stroke:#FFFFFF; stroke-width:39.3701; stroke-opacity:1; 
stroke-linecap:round; stroke-linejoin:round;">
</g>
<g style="fill:#FFFFFF; fill-opacity:1.0; 
stroke:#FFFFFF; stroke-width:0; stroke-opacity:1; 
stroke-linecap:round; stroke-linejoin:round;">
<circle cx="34465" cy="40340.2" r="160" /> 
</g>
<g style="fill:#FFFFFF; fill-opacity:1.0; 
stroke:#FFFFFF; stroke-width:39.3701; stroke-opacity:1; 
stroke-linecap:round; stroke-linejoin:round;">
</g>
<g style="fill:#FFFFFF; fill-opacity:1.0; 
stroke:#FFFFFF; stroke-width:0; stroke-opacity:1; 
stroke-linecap:round; stroke-linejoin:round;">
<circle cx="35465" cy="40340.2" r="160" /> 
</g>
<g style="fill:#FFFFFF; fill-opacity:1.0; 
stroke:#FFFFFF; stroke-width:39.3701; stroke-opacity:1; 
stroke-linecap:round; stroke-linejoin:round;">
</g>
<g style="fill:#FFFFFF; fill-opacity:1.0; 
stroke:#FFFFFF; stroke-width:0; stroke-opacity:1; 
stroke-linecap:round; stroke-linejoin:round;">
<circle cx="38465" cy="40340.2" r="160" /> 
</g>
<g style="fill:#FFFFFF; fill-opacity:1.0; 
stroke:#FFFFFF; stroke-width:39.3701; stroke-opacity:1; 
stroke-linecap:round; stroke-linejoin:round;">
</g>
<g style="fill:#FFFFFF; fill-opacity:1.0; 
stroke:#FFFFFF; stroke-width:0; stroke-opacity:1; 
stroke-linecap:round; stroke-linejoin:round;">
<circle cx="37465" cy="40340.2" r="160" /> 
</g>
<g style="fill:#FFFFFF; fill-opacity:1.0; 
stroke:#FFFFFF; stroke-width:39.3701; stroke-opacity:1; 
stroke-linecap:round; stroke-linejoin:round;">
</g>
<g style="fill:#FFFFFF; fill-opacity:1.0; 
stroke:#FFFFFF; stroke-width:0; stroke-opacity:1; 
stroke-linecap:round; stroke-linejoin:round;">
<circle cx="36465" cy="40340.2" r="160" /> 
</g>
<g style="fill:#FFFFFF; fill-opacity:1.0; 
stroke:#FFFFFF; stroke-width:39.3701; stroke-opacity:1; 
stroke-linecap:round; stroke-linejoin:round;">
</g>
<g style="fill:#FFFFFF; fill-opacity:1.0; 
stroke:#FFFFFF; stroke-width:0; stroke-opacity:1; 
stroke-linecap:round; stroke-linejoin:round;">
<circle cx="40465" cy="40340.2" r="160" /> 
</g>
<g style="fill:#FFFFFF; fill-opacity:1.0; 
stroke:#FFFFFF; stroke-width:39.3701; stroke-opacity:1; 
stroke-linecap:round; stroke-linejoin:round;">
</g>
<g style="fill:#FFFFFF; fill-opacity:1.0; 
stroke:#FFFFFF; stroke-width:0; stroke-opacity:1; 
stroke-linecap:round; stroke-linejoin:round;">
<circle cx="41465" cy="40340.2" r="160" /> 
</g>
<g style="fill:#FFFFFF; fill-opacity:1.0; 
stroke:#FFFFFF; stroke-width:39.3701; stroke-opacity:1; 
stroke-linecap:round; stroke-linejoin:round;">
</g>
<g style="fill:#FFFFFF; fill-opacity:1.0; 
stroke:#FFFFFF; stroke-width:0; stroke-opacity:1; 
stroke-linecap:round; stroke-linejoin:round;">
<circle cx="42465" cy="40340.2" r="160" /> 
</g>
<g style="fill:#FFFFFF; fill-opacity:1.0; 
stroke:#FFFFFF; stroke-width:39.3701; stroke-opacity:1; 
stroke-linecap:round; stroke-linejoin:round;">
</g>
<g style="fill:#FFFFFF; fill-opacity:1.0; 
stroke:#FFFFFF; stroke-width:0; stroke-opacity:1; 
stroke-linecap:round; stroke-linejoin:round;">
<circle cx="44465" cy="40340.2" r="160" /> 
</g>
<g style="fill:#FFFFFF; fill-opacity:1.0; 
stroke:#FFFFFF; stroke-width:39.3701; stroke-opacity:1; 
stroke-linecap:round; stroke-linejoin:round;">
</g>
<g style="fill:#FFFFFF; fill-opacity:1.0; 
stroke:#FFFFFF; stroke-width:0; stroke-opacity:1; 
stroke-linecap:round; stroke-linejoin:round;">
<circle cx="45465" cy="40340.2" r="160" /> 
</g>
<g style="fill:#FFFFFF; fill-opacity:1.0; 
stroke:#FFFFFF; stroke-width:39.3701; stroke-opacity:1; 
stroke-linecap:round; stroke-linejoin:round;">
</g>
<g style="fill:#FFFFFF; fill-opacity:1.0; 
stroke:#FFFFFF; stroke-width:0; stroke-opacity:1; 
stroke-linecap:round; stroke-linejoin:round;">
<circle cx="33465" cy="21340.2" r="160" /> 
</g>
<g style="fill:#FFFFFF; fill-opacity:1.0; 
stroke:#FFFFFF; stroke-width:39.3701; stroke-opacity:1; 
stroke-linecap:round; stroke-linejoin:round;">
</g>
<g style="fill:#FFFFFF; fill-opacity:1.0; 
stroke:#FFFFFF; stroke-width:0; stroke-opacity:1; 
stroke-linecap:round; stroke-linejoin:round;">
<circle cx="34465" cy="21340.2" r="160" /> 
</g>
<g style="fill:#FFFFFF; fill-opacity:1.0; 
stroke:#FFFFFF; stroke-width:39.3701; stroke-opacity:1; 
stroke-linecap:round; stroke-linejoin:round;">
</g>
<g style="fill:#FFFFFF; fill-opacity:1.0; 
stroke:#FFFFFF; stroke-width:0; stroke-opacity:1; 
stroke-linecap:round; stroke-linejoin:round;">
<circle cx="35465" cy="21340.2" r="160" /> 
</g>
<g style="fill:#FFFFFF; fill-opacity:1.0; 
stroke:#FFFFFF; stroke-width:39.3701; stroke-opacity:1; 
stroke-linecap:round; stroke-linejoin:round;">
</g>
<g style="fill:#FFFFFF; fill-opacity:1.0; 
stroke:#FFFFFF; stroke-width:0; stroke-opacity:1; 
stroke-linecap:round; stroke-linejoin:round;">
<circle cx="36465" cy="21340.2" r="160" /> 
</g>
<g style="fill:#FFFFFF; fill-opacity:1.0; 
stroke:#FFFFFF; stroke-width:39.3701; stroke-opacity:1; 
stroke-linecap:round; stroke-linejoin:round;">
</g>
<g style="fill:#FFFFFF; fill-opacity:1.0; 
stroke:#FFFFFF; stroke-width:0; stroke-opacity:1; 
stroke-linecap:round; stroke-linejoin:round;">
<circle cx="37465" cy="21340.2" r="160" /> 
</g>
<g style="fill:#FFFFFF; fill-opacity:1.0; 
stroke:#FFFFFF; stroke-width:39.3701; stroke-opacity:1; 
stroke-linecap:round; stroke-linejoin:round;">
</g>
<g style="fill:#FFFFFF; fill-opacity:1.0; 
stroke:#FFFFFF; stroke-width:0; stroke-opacity:1; 
stroke-linecap:round; stroke-linejoin:round;">
<circle cx="38465" cy="21340.2" r="160" /> 
</g>
<g style="fill:#FFFFFF; fill-opacity:1.0; 
stroke:#FFFFFF; stroke-width:39.3701; stroke-opacity:1; 
stroke-linecap:round; stroke-linejoin:round;">
</g>
<g style="fill:#FFFFFF; fill-opacity:1.0; 
stroke:#FFFFFF; stroke-width:0; stroke-opacity:1; 
stroke-linecap:round; stroke-linejoin:round;">
<circle cx="39465" cy="21340.2" r="160" /> 
</g>
<g style="fill:#FFFFFF; fill-opacity:1.0; 
stroke:#FFFFFF; stroke-width:39.3701; stroke-opacity:1; 
stroke-linecap:round; stroke-linejoin:round;">
</g>
<g style="fill:#FFFFFF; fill-opacity:1.0; 
stroke:#FFFFFF; stroke-width:0; stroke-opacity:1; 
stroke-linecap:round; stroke-linejoin:round;">
<circle cx="40465" cy="21340.2" r="160" /> 
</g>
<g style="fill:#FFFFFF; fill-opacity:1.0; 
stroke:#FFFFFF; stroke-width:39.3701; stroke-opacity:1; 
stroke-linecap:round; stroke-linejoin:round;">
</g>
<g style="fill:#FFFFFF; fill-opacity:1.0; 
stroke:#FFFFFF; stroke-width:0; stroke-opacity:1; 
stroke-linecap:round; stroke-linejoin:round;">
<circle cx="42065" cy="21340.2" r="160" /> 
</g>
<g style="fill:#FFFFFF; fill-opacity:1.0; 
stroke:#FFFFFF; stroke-width:39.3701; stroke-opacity:1; 
stroke-linecap:round; stroke-linejoin:round;">
</g>
<g style="fill:#FFFFFF; fill-opacity:1.0; 
stroke:#FFFFFF; stroke-width:0; stroke-opacity:1; 
stroke-linecap:round; stroke-linejoin:round;">
<circle cx="43065" cy="21340.2" r="160" /> 
</g>
<g style="fill:#FFFFFF; fill-opacity:1.0; 
stroke:#FFFFFF; stroke-width:39.3701; stroke-opacity:1; 
stroke-linecap:round; stroke-linejoin:round;">
</g>
<g style="fill:#FFFFFF; fill-opacity:1.0; 
stroke:#FFFFFF; stroke-width:0; stroke-opacity:1; 
stroke-linecap:round; stroke-linejoin:round;">
<circle cx="44065" cy="21340.2" r="160" /> 
</g>
<g style="fill:#FFFFFF; fill-opacity:1.0; 
stroke:#FFFFFF; stroke-width:39.3701; stroke-opacity:1; 
stroke-linecap:round; stroke-linejoin:round;">
</g>
<g style="fill:#FFFFFF; fill-opacity:1.0; 
stroke:#FFFFFF; stroke-width:0; stroke-opacity:1; 
stroke-linecap:round; stroke-linejoin:round;">
<circle cx="45065" cy="21340.2" r="160" /> 
</g>
<g style="fill:#FFFFFF; fill-opacity:1.0; 
stroke:#FFFFFF; stroke-width:39.3701; stroke-opacity:1; 
stroke-linecap:round; stroke-linejoin:round;">
</g>
<g style="fill:#FFFFFF; fill-opacity:1.0; 
stroke:#FFFFFF; stroke-width:0; stroke-opacity:1; 
stroke-linecap:round; stroke-linejoin:round;">
<circle cx="46065" cy="21340.2" r="160" /> 
</g>
<g style="fill:#FFFFFF; fill-opacity:1.0; 
stroke:#FFFFFF; stroke-width:39.3701; stroke-opacity:1; 
stroke-linecap:round; stroke-linejoin:round;">
</g>
<g style="fill:#FFFFFF; fill-opacity:1.0; 
stroke:#FFFFFF; stroke-width:0; stroke-opacity:1; 
stroke-linecap:round; stroke-linejoin:round;">
<circle cx="47065" cy="21340.2" r="160" /> 
</g>
<g style="fill:#FFFFFF; fill-opacity:1.0; 
stroke:#FFFFFF; stroke-width:39.3701; stroke-opacity:1; 
stroke-linecap:round; stroke-linejoin:round;">
</g>
<g style="fill:#FFFFFF; fill-opacity:1.0; 
stroke:#FFFFFF; stroke-width:0; stroke-opacity:1; 
stroke-linecap:round; stroke-linejoin:round;">
<circle cx="48065" cy="21340.2" r="160" /> 
</g>
<g style="fill:#FFFFFF; fill-opacity:1.0; 
stroke:#FFFFFF; stroke-width:39.3701; stroke-opacity:1; 
stroke-linecap:round; stroke-linejoin:round;">
</g>
<g style="fill:#FFFFFF; fill-opacity:1.0; 
stroke:#FFFFFF; stroke-width:0; stroke-opacity:1; 
stroke-linecap:round; stroke-linejoin:round;">
<circle cx="49065" cy="21340.2" r="160" /> 
</g>
<g style="fill:#FFFFFF; fill-opacity:1.0; 
stroke:#FFFFFF; stroke-width:39.3701; stroke-opacity:1; 
stroke-linecap:round; stroke-linejoin:round;">
</g>
<g style="fill:#FFFFFF; fill-opacity:1.0; 
stroke:#FFFFFF; stroke-width:0; stroke-opacity:1; 
stroke-linecap:round; stroke-linejoin:round;">
<circle cx="43465" cy="40340.2" r="160" /> 
</g>
<g style="fill:#FFFFFF; fill-opacity:1.0; 
stroke:#FFFFFF; stroke-width:39.3701; stroke-opacity:1; 
stroke-linecap:round; stroke-linejoin:round;">
</g>
<g style="fill:#FFFFFF; fill-opacity:1.0; 
stroke:#FFFFFF; stroke-width:0; stroke-opacity:1; 
stroke-linecap:round; stroke-linejoin:round;">
<circle cx="32465" cy="38340.2" r="625" /> 
</g>
<g style="fill:#FFFFFF; fill-opacity:1.0; 
stroke:#FFFFFF; stroke-width:39.3701; stroke-opacity:1; 
stroke-linecap:round; stroke-linejoin:round;">
</g>
<g style="fill:#FFFFFF; fill-opacity:1.0; 
stroke:#FFFFFF; stroke-width:0; stroke-opacity:1; 
stroke-linecap:round; stroke-linejoin:round;">
<circle cx="32465" cy="27340.2" r="625" /> 
</g>
<g style="fill:#FFFFFF; fill-opacity:1.0; 
stroke:#FFFFFF; stroke-width:39.3701; stroke-opacity:1; 
stroke-linecap:round; stroke-linejoin:round;">
</g>
<g style="fill:#FFFFFF; fill-opacity:1.0; 
stroke:#FFFFFF; stroke-width:0; stroke-opacity:1; 
stroke-linecap:round; stroke-linejoin:round;">
<circle cx="52465" cy="21340.2" r="625" /> 
</g>
<g style="fill:#FFFFFF; fill-opacity:1.0; 
stroke:#FFFFFF; stroke-width:39.3701; stroke-opacity:1; 
stroke-linecap:round; stroke-linejoin:round;">
</g>
<g style="fill:#FFFFFF; fill-opacity:1.0; 
stroke:#FFFFFF; stroke-width:0; stroke-opacity:1; 
stroke-linecap:round; stroke-linejoin:round;">
<circle cx="52965" cy="40340.2" r="625" /> 
</g>
<g style="fill:#FFFFFF; fill-opacity:1.0; 
stroke:#FFFFFF; stroke-width:39.3701; stroke-opacity:1; 
stroke-linecap:round; stroke-linejoin:round;">
</g>
<g style="fill:#FFFFFF; fill-opacity:1.0; 
stroke:#FFFFFF; stroke-width:0; stroke-opacity:1; 
stroke-linecap:round; stroke-linejoin:round;">
<circle cx="33930" cy="30500" r="200" /> 
</g>
<g style="fill:#FFFFFF; fill-opacity:1.0; 
stroke:#FFFFFF; stroke-width:39.3701; stroke-opacity:1; 
stroke-linecap:round; stroke-linejoin:round;">
</g>
<g style="fill:#FFFFFF; fill-opacity:1.0; 
stroke:#FFFFFF; stroke-width:0; stroke-opacity:1; 
stroke-linecap:round; stroke-linejoin:round;">
<circle cx="32930" cy="30500" r="200" /> 
</g>
<g style="fill:#FFFFFF; fill-opacity:1.0; 
stroke:#FFFFFF; stroke-width:39.3701; stroke-opacity:1; 
stroke-linecap:round; stroke-linejoin:round;">
</g>
<g style="fill:#FFFFFF; fill-opacity:1.0; 
stroke:#FFFFFF; stroke-width:0; stroke-opacity:1; 
stroke-linecap:round; stroke-linejoin:round;">
<circle cx="33930" cy="31500" r="200" /> 
</g>
<g style="fill:#FFFFFF; fill-opacity:1.0; 
stroke:#FFFFFF; stroke-width:39.3701; stroke-opacity:1; 
stroke-linecap:round; stroke-linejoin:round;">
</g>
<g style="fill:#FFFFFF; fill-opacity:1.0; 
stroke:#FFFFFF; stroke-width:0; stroke-opacity:1; 
stroke-linecap:round; stroke-linejoin:round;">
<circle cx="32930" cy="31500" r="200" /> 
</g>
<g style="fill:#FFFFFF; fill-opacity:1.0; 
stroke:#FFFFFF; stroke-width:39.3701; stroke-opacity:1; 
stroke-linecap:round; stroke-linejoin:round;">
</g>
<g style="fill:#FFFFFF; fill-opacity:1.0; 
stroke:#FFFFFF; stroke-width:0; stroke-opacity:1; 
stroke-linecap:round; stroke-linejoin:round;">
<circle cx="33930" cy="32500" r="200" /> 
</g>
<g style="fill:#FFFFFF; fill-opacity:1.0; 
stroke:#FFFFFF; stroke-width:39.3701; stroke-opacity:1; 
stroke-linecap:round; stroke-linejoin:round;">
</g>
<g style="fill:#FFFFFF; fill-opacity:1.0; 
stroke:#FFFFFF; stroke-width:0; stroke-opacity:1; 
stroke-linecap:round; stroke-linejoin:round;">
<circle cx="32930" cy="32500" r="200" /> 
</g>
<g style="fill:#FFFFFF; fill-opacity:1.0; 
stroke:#FFFFFF; stroke-width:39.3701; stroke-opacity:1; 
stroke-linecap:round; stroke-linejoin:round;">
</g>
<g style="fill:#FFFFFF; fill-opacity:1.0; 
stroke:#FFFFFF; stroke-width:0; stroke-opacity:1; 
stroke-linecap:round; stroke-linejoin:round;">
<circle cx="33930" cy="33500" r="200" /> 
</g>
<g style="fill:#FFFFFF; fill-opacity:1.0; 
stroke:#FFFFFF; stroke-width:39.3701; stroke-opacity:1; 
stroke-linecap:round; stroke-linejoin:round;">
</g>
<g style="fill:#FFFFFF; fill-opacity:1.0; 
stroke:#FFFFFF; stroke-width:0; stroke-opacity:1; 
stroke-linecap:round; stroke-linejoin:round;">
<circle cx="32930" cy="33500" r="200" /> 
</g>
<g style="fill:#FFFFFF; fill-opacity:1.0; 
stroke:#FFFFFF; stroke-width:39.3701; stroke-opacity:1; 
stroke-linecap:round; stroke-linejoin:round;">
</g>
<g style="fill:#FFFFFF; fill-opacity:1.0; 
stroke:#FFFFFF; stroke-width:0; stroke-opacity:1; 
stroke-linecap:round; stroke-linejoin:round;">
<circle cx="33930" cy="34500" r="200" /> 
</g>
<g style="fill:#FFFFFF; fill-opacity:1.0; 
stroke:#FFFFFF; stroke-width:39.3701; stroke-opacity:1; 
stroke-linecap:round; stroke-linejoin:round;">
</g>
<g style="fill:#FFFFFF; fill-opacity:1.0; 
stroke:#FFFFFF; stroke-width:0; stroke-opacity:1; 
stroke-linecap:round; stroke-linejoin:round;">
<circle cx="32930" cy="34500" r="200" /> 
</g>
<g style="fill:#FFFFFF; fill-opacity:1.0; 
stroke:#FFFFFF; stroke-width:39.3701; stroke-opacity:1; 
stroke-linecap:round; stroke-linejoin:round;">
</g>
<g style="fill:#FFFFFF; fill-opacity:1.0; 
stroke:#FFFFFF; stroke-width:0; stroke-opacity:1; 
stroke-linecap:round; stroke-linejoin:round;">
<circle cx="33930" cy="35500" r="200" /> 
</g>
<g style="fill:#FFFFFF; fill-opacity:1.0; 
stroke:#FFFFFF; stroke-width:39.3701; stroke-opacity:1; 
stroke-linecap:round; stroke-linejoin:round;">
</g>
<g style="fill:#FFFFFF; fill-opacity:1.0; 
stroke:#FFFFFF; stroke-width:0; stroke-opacity:1; 
stroke-linecap:round; stroke-linejoin:round;">
<circle cx="32930" cy="35500" r="200" /> 
</g>
<g style="fill:#FFFFFF; fill-opacity:1.0; 
stroke:#FFFFFF; stroke-width:39.3701; stroke-opacity:1; 
stroke-linecap:round; stroke-linejoin:round;">
</g>
<g style="fill:#FFFFFF; fill-opacity:1.0; 
stroke:#FFFFFF; stroke-width:0; stroke-opacity:1; 
stroke-linecap:round; stroke-linejoin:round;">
<circle cx="56930" cy="34500" r="200" /> 
</g>
<g style="fill:#FFFFFF; fill-opacity:1.0; 
stroke:#FFFFFF; stroke-width:39.3701; stroke-opacity:1; 
stroke-linecap:round; stroke-linejoin:round;">
</g>
<g style="fill:#FFFFFF; fill-opacity:1.0; 
stroke:#FFFFFF; stroke-width:0; stroke-opacity:1; 
stroke-linecap:round; stroke-linejoin:round;">
<circle cx="56930" cy="35500" r="200" /> 
</g>
<g style="fill:#FFFFFF; fill-opacity:1.0; 
stroke:#FFFFFF; stroke-width:39.3701; stroke-opacity:1; 
stroke-linecap:round; stroke-linejoin:round;">
</g>
<g style="fill:#FFFFFF; fill-opacity:1.0; 
stroke:#FFFFFF; stroke-width:0; stroke-opacity:1; 
stroke-linecap:round; stroke-linejoin:round;">
<circle cx="56930" cy="36500" r="200" /> 
</g>
<g style="fill:#FFFFFF; fill-opacity:1.0; 
stroke:#FFFFFF; stroke-width:39.3701; stroke-opacity:1; 
stroke-linecap:round; stroke-linejoin:round;">
</g>
<g style="fill:#FFFFFF; fill-opacity:1.0; 
stroke:#FFFFFF; stroke-width:0; stroke-opacity:1; 
stroke-linecap:round; stroke-linejoin:round;">
<circle cx="56930" cy="37500" r="200" /> 
</g>
<g style="fill:#FFFFFF; fill-opacity:1.0; 
stroke:#FFFFFF; stroke-width:39.3701; stroke-opacity:1; 
stroke-linecap:round; stroke-linejoin:round;">
</g>
<g style="fill:#FFFFFF; fill-opacity:1.0; 
stroke:#FFFFFF; stroke-width:0; stroke-opacity:1; 
stroke-linecap:round; stroke-linejoin:round;">
<circle cx="56930" cy="38500" r="200" /> 
</g>
<g style="fill:#FFFFFF; fill-opacity:1.0; 
stroke:#FFFFFF; stroke-width:39.3701; stroke-opacity:1; 
stroke-linecap:round; stroke-linejoin:round;">
</g>
<g style="fill:#FFFFFF; fill-opacity:1.0; 
stroke:#FFFFFF; stroke-width:0; stroke-opacity:1; 
stroke-linecap:round; stroke-linejoin:round;">
<circle cx="56930" cy="39500" r="200" /> 
</g>
<g style="fill:#FFFFFF; fill-opacity:1.0; 
stroke:#FFFFFF; stroke-width:39.3701; stroke-opacity:1; 
stroke-linecap:round; stroke-linejoin:round;">
</g>
<g style="fill:#FFFFFF; fill-opacity:1.0; 
stroke:#FFFFFF; stroke-width:0; stroke-opacity:1; 
stroke-linecap:round; stroke-linejoin:round;">
<circle cx="43930" cy="30500" r="197" /> 
</g>
<g style="fill:#FFFFFF; fill-opacity:1.0; 
stroke:#FFFFFF; stroke-width:39.3701; stroke-opacity:1; 
stroke-linecap:round; stroke-linejoin:round;">
</g>
<g style="fill:#FFFFFF; fill-opacity:1.0; 
stroke:#FFFFFF; stroke-width:0; stroke-opacity:1; 
stroke-linecap:round; stroke-linejoin:round;">
<circle cx="44930" cy="30500" r="197" /> 
</g>
<g style="fill:#FFFFFF; fill-opacity:1.0; 
stroke:#FFFFFF; stroke-width:39.3701; stroke-opacity:1; 
stroke-linecap:round; stroke-linejoin:round;">
</g>
<g style="fill:#FFFFFF; fill-opacity:1.0; 
stroke:#FFFFFF; stroke-width:0; stroke-opacity:1; 
stroke-linecap:round; stroke-linejoin:round;">
<circle cx="42930" cy="30500" r="197" /> 
</g>
<g style="fill:#FFFFFF; fill-opacity:1.0; 
stroke:#FFFFFF; stroke-width:39.3701; stroke-opacity:1; 
stroke-linecap:round; stroke-linejoin:round;">
</g>
<g style="fill:#FFFFFF; fill-opacity:1.0; 
stroke:#FFFFFF; stroke-width:0; stroke-opacity:1; 
stroke-linecap:round; stroke-linejoin:round;">
<circle cx="43930" cy="23900" r="748" /> 
</g>
<g style="fill:#FFFFFF; fill-opacity:1.0; 
stroke:#FFFFFF; stroke-width:39.3701; stroke-opacity:1; 
stroke-linecap:round; stroke-linejoin:round;">
</g>
<g style="fill:#FFFFFF; fill-opacity:1.0; 
stroke:#FFFFFF; stroke-width:0; stroke-opacity:1; 
stroke-linecap:round; stroke-linejoin:round;">
<circle cx="53930" cy="30500" r="197" /> 
</g>
<g style="fill:#FFFFFF; fill-opacity:1.0; 
stroke:#FFFFFF; stroke-width:39.3701; stroke-opacity:1; 
stroke-linecap:round; stroke-linejoin:round;">
</g>
<g style="fill:#FFFFFF; fill-opacity:1.0; 
stroke:#FFFFFF; stroke-width:0; stroke-opacity:1; 
stroke-linecap:round; stroke-linejoin:round;">
<circle cx="54930" cy="30500" r="197" /> 
</g>
<g style="fill:#FFFFFF; fill-opacity:1.0; 
stroke:#FFFFFF; stroke-width:39.3701; stroke-opacity:1; 
stroke-linecap:round; stroke-linejoin:round;">
</g>
<g style="fill:#FFFFFF; fill-opacity:1.0; 
stroke:#FFFFFF; stroke-width:0; stroke-opacity:1; 
stroke-linecap:round; stroke-linejoin:round;">
<circle cx="52930" cy="30500" r="197" /> 
</g>
<g style="fill:#FFFFFF; fill-opacity:1.0; 
stroke:#FFFFFF; stroke-width:39.3701; stroke-opacity:1; 
stroke-linecap:round; stroke-linejoin:round;">
</g>
<g style="fill:#FFFFFF; fill-opacity:1.0; 
stroke:#FFFFFF; stroke-width:0; stroke-opacity:1; 
stroke-linecap:round; stroke-linejoin:round;">
<circle cx="53930" cy="23900" r="748" /> 
</g>
<g style="fill:#FFFFFF; fill-opacity:1.0; 
stroke:#FFFFFF; stroke-width:39.3701; stroke-opacity:1; 
stroke-linecap:round; stroke-linejoin:round;">
</g>
<g style="fill:#FFFFFF; fill-opacity:1.0; 
stroke:#FFFFFF; stroke-width:0; stroke-opacity:1; 
stroke-linecap:round; stroke-linejoin:round;">
<circle cx="45680" cy="32500" r="177.165" /> 
</g>
<g style="fill:#FFFFFF; fill-opacity:1.0; 
stroke:#FFFFFF; stroke-width:39.3701; stroke-opacity:1; 
stroke-linecap:round; stroke-linejoin:round;">
</g>
<g style="fill:#FFFFFF; fill-opacity:1.0; 
stroke:#FFFFFF; stroke-width:0; stroke-opacity:1; 
stroke-linecap:round; stroke-linejoin:round;">
<circle cx="43711.5" cy="32500" r="177.165" /> 
</g>
<g style="fill:#FFFFFF; fill-opacity:1.0; 
stroke:#FFFFFF; stroke-width:39.3701; stroke-opacity:1; 
stroke-linecap:round; stroke-linejoin:round;">
</g>
<g style="fill:#FFFFFF; fill-opacity:1.0; 
stroke:#FFFFFF; stroke-width:0; stroke-opacity:1; 
stroke-linecap:round; stroke-linejoin:round;">
<circle cx="54930" cy="32500" r="177.165" /> 
</g>
<g style="fill:#FFFFFF; fill-opacity:1.0; 
stroke:#FFFFFF; stroke-width:39.3701; stroke-opacity:1; 
stroke-linecap:round; stroke-linejoin:round;">
</g>
<g style="fill:#FFFFFF; fill-opacity:1.0; 
stroke:#FFFFFF; stroke-width:0; stroke-opacity:1; 
stroke-linecap:round; stroke-linejoin:round;">
<circle cx="52961.5" cy="32500" r="177.165" /> 
</g>
<g style="fill:#FFFFFF; fill-opacity:1.0; 
stroke:#FFFFFF; stroke-width:39.3701; stroke-opacity:1; 
stroke-linecap:round; stroke-linejoin:round;">
</g>
<g style="fill:#FFFFFF; fill-opacity:1.0; 
stroke:#FFFFFF; stroke-width:0; stroke-opacity:1; 
stroke-linecap:round; stroke-linejoin:round;">
<circle cx="46930" cy="30500" r="160" /> 
</g>
<g style="fill:#FFFFFF; fill-opacity:1.0; 
stroke:#FFFFFF; stroke-width:39.3701; stroke-opacity:1; 
stroke-linecap:round; stroke-linejoin:round;">
</g>
<g style="fill:#FFFFFF; fill-opacity:1.0; 
stroke:#FFFFFF; stroke-width:0; stroke-opacity:1; 
stroke-linecap:round; stroke-linejoin:round;">
<circle cx="46930" cy="25500" r="160" /> 
</g>
<g style="fill:#FFFFFF; fill-opacity:1.0; 
stroke:#FFFFFF; stroke-width:39.3701; stroke-opacity:1; 
stroke-linecap:round; stroke-linejoin:round;">
</g>
<g style="fill:#FFFFFF; fill-opacity:1.0; 
stroke:#FFFFFF; stroke-width:0; stroke-opacity:1; 
stroke-linecap:round; stroke-linejoin:round;">
<circle cx="56930" cy="25500" r="160" /> 
</g>
<g style="fill:#FFFFFF; fill-opacity:1.0; 
stroke:#FFFFFF; stroke-width:39.3701; stroke-opacity:1; 
stroke-linecap:round; stroke-linejoin:round;">
</g>
<g style="fill:#FFFFFF; fill-opacity:1.0; 
stroke:#FFFFFF; stroke-width:0; stroke-opacity:1; 
stroke-linecap:round; stroke-linejoin:round;">
<circle cx="56930" cy="30500" r="160" /> 
</g>
<g style="fill:#FFFFFF; fill-opacity:1.0; 
stroke:#FFFFFF; stroke-width:39.3701; stroke-opacity:1; 
stroke-linecap:round; stroke-linejoin:round;">
</g>
<g style="fill:#000000; fill-opacity:1.0; 
stroke:#000000; stroke-width:39.3701; stroke-opacity:1; 
stroke-linecap:round; stroke-linejoin:round;">
</g> 
</svg>
