<?xml version="1.0" standalone="no"?>
 <!DOCTYPE svg PUBLIC "-//W3C//DTD SVG 1.1//EN" 
 "http://www.w3.org/Graphics/SVG/1.1/DTD/svg11.dtd"> 
<svg xmlns="http://www.w3.org/2000/svg" version="1.1" 
    width="29.7002cm" height="21.0007cm" viewBox="0 0 116930 82680 ">
<title>SVG Picture created as opto-interface-B.Cu.svg date 2016/06/11 18:26:46 </title>
  <desc>Picture generated by PCBNEW </desc>
<g style="fill:#000000; fill-opacity:1;stroke:#000000; stroke-opacity:1;
stroke-linecap:round; stroke-linejoin:round; "
 transform="translate(0 0) scale(1 1)">
</g>
<g style="fill:#000000; fill-opacity:0.0; 
stroke:#000000; stroke-width:-0.000393701; stroke-opacity:1; 
stroke-linecap:round; stroke-linejoin:round;">
</g>
<g style="fill:#000000; fill-opacity:0.0; 
stroke:#000000; stroke-width:600; stroke-opacity:1; 
stroke-linecap:round; stroke-linejoin:round;">
<path d="M33465 40540
L33465 40140
" />
<path d="M34465 40540
L34465 40140
" />
<path d="M35465 40540
L35465 40140
" />
<path d="M38465 40540
L38465 40140
" />
<path d="M37465 40540
L37465 40140
" />
<path d="M36465 40540
L36465 40140
" />
<path d="M40465 40540
L40465 40140
" />
<path d="M41465 40540
L41465 40140
" />
<path d="M42465 40540
L42465 40140
" />
<path d="M44465 40540
L44465 40140
" />
<path d="M45465 40540
L45465 40140
" />
<path d="M33465 21540
L33465 21140
" />
<path d="M34465 21540
L34465 21140
" />
<path d="M35465 21540
L35465 21140
" />
<path d="M36465 21540
L36465 21140
" />
<path d="M37465 21540
L37465 21140
" />
<path d="M38465 21540
L38465 21140
" />
<path d="M39465 21540
L39465 21140
" />
<path d="M40465 21540
L40465 21140
" />
<path d="M42065 21540
L42065 21140
" />
<path d="M43065 21540
L43065 21140
" />
<path d="M44065 21540
L44065 21140
" />
<path d="M45065 21540
L45065 21140
" />
<path d="M46065 21540
L46065 21140
" />
<path d="M47065 21540
L47065 21140
" />
<path d="M48065 21540
L48065 21140
" />
<path d="M49065 21540
L49065 21140
" />
<path d="M43465 40540
L43465 40140
" />
</g>
<g style="fill:#000000; fill-opacity:1.0; 
stroke:#000000; stroke-width:0; stroke-opacity:1; 
stroke-linecap:round; stroke-linejoin:round;">
<circle cx="32465" cy="38340.2" r="775" /> 
</g>
<g style="fill:#000000; fill-opacity:1.0; 
stroke:#000000; stroke-width:39.3701; stroke-opacity:1; 
stroke-linecap:round; stroke-linejoin:round;">
</g>
<g style="fill:#000000; fill-opacity:1.0; 
stroke:#000000; stroke-width:0; stroke-opacity:1; 
stroke-linecap:round; stroke-linejoin:round;">
<circle cx="32465" cy="27340.2" r="775" /> 
</g>
<g style="fill:#000000; fill-opacity:1.0; 
stroke:#000000; stroke-width:39.3701; stroke-opacity:1; 
stroke-linecap:round; stroke-linejoin:round;">
</g>
<g style="fill:#000000; fill-opacity:1.0; 
stroke:#000000; stroke-width:0; stroke-opacity:1; 
stroke-linecap:round; stroke-linejoin:round;">
<circle cx="52465" cy="21340.2" r="775" /> 
</g>
<g style="fill:#000000; fill-opacity:1.0; 
stroke:#000000; stroke-width:39.3701; stroke-opacity:1; 
stroke-linecap:round; stroke-linejoin:round;">
</g>
<g style="fill:#000000; fill-opacity:1.0; 
stroke:#000000; stroke-width:0; stroke-opacity:1; 
stroke-linecap:round; stroke-linejoin:round;">
<circle cx="52965" cy="40340.2" r="775" /> 
</g>
<g style="fill:#000000; fill-opacity:1.0; 
stroke:#000000; stroke-width:39.3701; stroke-opacity:1; 
stroke-linecap:round; stroke-linejoin:round;">
</g>
<g style="fill:#000000; fill-opacity:1.0; 
stroke:#000000; stroke-width:0; stroke-opacity:1; 
stroke-linecap:round; stroke-linejoin:round;">
<polyline style="fill-rule:evenodd;"
points="34270,30840
34270,30160
33590,30160
33590,30840
34270,30840
" /> 
</g>
<g style="fill:#000000; fill-opacity:1.0; 
stroke:#000000; stroke-width:680; stroke-opacity:1; 
stroke-linecap:round; stroke-linejoin:round;">
</g>
<g style="fill:#000000; fill-opacity:0.0; 
stroke:#000000; stroke-width:680; stroke-opacity:1; 
stroke-linecap:round; stroke-linejoin:round;">
<path d="M32930 30500
L32930 30500
" />
<path d="M33930 31500
L33930 31500
" />
<path d="M32930 31500
L32930 31500
" />
<path d="M33930 32500
L33930 32500
" />
<path d="M32930 32500
L32930 32500
" />
<path d="M33930 33500
L33930 33500
" />
<path d="M32930 33500
L32930 33500
" />
<path d="M33930 34500
L33930 34500
" />
<path d="M32930 34500
L32930 34500
" />
<path d="M33930 35500
L33930 35500
" />
<path d="M32930 35500
L32930 35500
" />
</g>
<g style="fill:#000000; fill-opacity:0.0; 
stroke:#000000; stroke-width:0; stroke-opacity:1; 
stroke-linecap:round; stroke-linejoin:round;">
</g>
<g style="fill:#000000; fill-opacity:1.0; 
stroke:#000000; stroke-width:0; stroke-opacity:1; 
stroke-linecap:round; stroke-linejoin:round;">
<polyline style="fill-rule:evenodd;"
points="57330,34840
57330,34160
56530,34160
56530,34840
57330,34840
" /> 
</g>
<g style="fill:#000000; fill-opacity:1.0; 
stroke:#000000; stroke-width:680; stroke-opacity:1; 
stroke-linecap:round; stroke-linejoin:round;">
</g>
<g style="fill:#000000; fill-opacity:0.0; 
stroke:#000000; stroke-width:680; stroke-opacity:1; 
stroke-linecap:round; stroke-linejoin:round;">
<path d="M56990 35500
L56870 35500
" />
<path d="M56990 36500
L56870 36500
" />
<path d="M56990 37500
L56870 37500
" />
<path d="M56990 38500
L56870 38500
" />
<path d="M56990 39500
L56870 39500
" />
</g>
<g style="fill:#000000; fill-opacity:0.0; 
stroke:#000000; stroke-width:0; stroke-opacity:1; 
stroke-linecap:round; stroke-linejoin:round;">
</g>
<g style="fill:#000000; fill-opacity:1.0; 
stroke:#000000; stroke-width:0; stroke-opacity:1; 
stroke-linecap:round; stroke-linejoin:round;">
<polyline style="fill-rule:evenodd;"
points="50404,35525
50955,35525
50955,34974
50404,34974
50404,35525
" /> 
<circle cx="50680" cy="33281.5" r="275.591" /> 
</g>
<g style="fill:#000000; fill-opacity:1.0; 
stroke:#000000; stroke-width:39.3701; stroke-opacity:1; 
stroke-linecap:round; stroke-linejoin:round;">
</g>
<g style="fill:#000000; fill-opacity:1.0; 
stroke:#000000; stroke-width:0; stroke-opacity:1; 
stroke-linecap:round; stroke-linejoin:round;">
<polyline style="fill-rule:evenodd;"
points="54654,40025
55205,40025
55205,39474
54654,39474
54654,40025
" /> 
<circle cx="54930" cy="37781.5" r="275.591" /> 
</g>
<g style="fill:#000000; fill-opacity:1.0; 
stroke:#000000; stroke-width:39.3701; stroke-opacity:1; 
stroke-linecap:round; stroke-linejoin:round;">
</g>
<g style="fill:#000000; fill-opacity:1.0; 
stroke:#000000; stroke-width:0; stroke-opacity:1; 
stroke-linecap:round; stroke-linejoin:round;">
<polyline style="fill-rule:evenodd;"
points="39655,31725
39655,32275
40205,32275
40205,31725
39655,31725
" /> 
<circle cx="44930" cy="32000" r="275" /> 
</g>
<g style="fill:#000000; fill-opacity:1.0; 
stroke:#000000; stroke-width:39.3701; stroke-opacity:1; 
stroke-linecap:round; stroke-linejoin:round;">
</g>
<g style="fill:#000000; fill-opacity:1.0; 
stroke:#000000; stroke-width:0; stroke-opacity:1; 
stroke-linecap:round; stroke-linejoin:round;">
<polyline style="fill-rule:evenodd;"
points="50155,32225
50155,32775
50705,32775
50705,32225
50155,32225
" /> 
<circle cx="55430" cy="32500" r="275" /> 
</g>
<g style="fill:#000000; fill-opacity:1.0; 
stroke:#000000; stroke-width:39.3701; stroke-opacity:1; 
stroke-linecap:round; stroke-linejoin:round;">
</g>
<g style="fill:#000000; fill-opacity:1.0; 
stroke:#000000; stroke-width:0; stroke-opacity:1; 
stroke-linecap:round; stroke-linejoin:round;">
<polyline style="fill-rule:evenodd;"
points="40455,33775
40455,33225
39905,33225
39905,33775
40455,33775
" /> 
<circle cx="36180" cy="33500" r="275" /> 
</g>
<g style="fill:#000000; fill-opacity:1.0; 
stroke:#000000; stroke-width:39.3701; stroke-opacity:1; 
stroke-linecap:round; stroke-linejoin:round;">
</g>
<g style="fill:#000000; fill-opacity:1.0; 
stroke:#000000; stroke-width:0; stroke-opacity:1; 
stroke-linecap:round; stroke-linejoin:round;">
<polyline style="fill-rule:evenodd;"
points="35155,35775
35705,35775
35705,35225
35155,35225
35155,35775
" /> 
<circle cx="35430" cy="31500" r="275" /> 
</g>
<g style="fill:#000000; fill-opacity:1.0; 
stroke:#000000; stroke-width:39.3701; stroke-opacity:1; 
stroke-linecap:round; stroke-linejoin:round;">
</g>
<g style="fill:#000000; fill-opacity:1.0; 
stroke:#000000; stroke-width:669; stroke-opacity:1; 
stroke-linecap:round; stroke-linejoin:round;">
</g>
<g style="fill:#000000; fill-opacity:0.0; 
stroke:#000000; stroke-width:669; stroke-opacity:1; 
stroke-linecap:round; stroke-linejoin:round;">
<path d="M43930 30854
L43930 30145
" />
<path d="M44930 30854
L44930 30145
" />
<path d="M42930 30854
L42930 30145
" />
<path d="M53930 30854
L53930 30145
" />
<path d="M54930 30854
L54930 30145
" />
<path d="M52930 30854
L52930 30145
" />
</g> 
</svg>
