<?xml version="1.0" standalone="no"?>
 <!DOCTYPE svg PUBLIC "-//W3C//DTD SVG 1.1//EN" 
 "http://www.w3.org/Graphics/SVG/1.1/DTD/svg11.dtd"> 
<svg xmlns="http://www.w3.org/2000/svg" version="1.1" 
    width="29.7002cm" height="21.0007cm" viewBox="0 0 116930 82680 ">
<title>SVG Picture created as opto-interface-F.Cu.svg date 2016/06/11 18:26:46 </title>
  <desc>Picture generated by PCBNEW </desc>
<g style="fill:#000000; fill-opacity:1;stroke:#000000; stroke-opacity:1;
stroke-linecap:round; stroke-linejoin:round; "
 transform="translate(0 0) scale(1 1)">
</g>
<g style="fill:#000000; fill-opacity:0.0; 
stroke:#000000; stroke-width:-0.000393701; stroke-opacity:1; 
stroke-linecap:round; stroke-linejoin:round;">
</g>
<g style="fill:#000000; fill-opacity:0.0; 
stroke:#000000; stroke-width:600; stroke-opacity:1; 
stroke-linecap:round; stroke-linejoin:round;">
<path d="M33465 40540
L33465 40140
" />
<path d="M34465 40540
L34465 40140
" />
<path d="M35465 40540
L35465 40140
" />
<path d="M38465 40540
L38465 40140
" />
<path d="M37465 40540
L37465 40140
" />
<path d="M36465 40540
L36465 40140
" />
<path d="M40465 40540
L40465 40140
" />
<path d="M41465 40540
L41465 40140
" />
<path d="M42465 40540
L42465 40140
" />
<path d="M44465 40540
L44465 40140
" />
<path d="M45465 40540
L45465 40140
" />
<path d="M33465 21540
L33465 21140
" />
<path d="M34465 21540
L34465 21140
" />
<path d="M35465 21540
L35465 21140
" />
<path d="M36465 21540
L36465 21140
" />
<path d="M37465 21540
L37465 21140
" />
<path d="M38465 21540
L38465 21140
" />
<path d="M39465 21540
L39465 21140
" />
<path d="M40465 21540
L40465 21140
" />
<path d="M42065 21540
L42065 21140
" />
<path d="M43065 21540
L43065 21140
" />
<path d="M44065 21540
L44065 21140
" />
<path d="M45065 21540
L45065 21140
" />
<path d="M46065 21540
L46065 21140
" />
<path d="M47065 21540
L47065 21140
" />
<path d="M48065 21540
L48065 21140
" />
<path d="M49065 21540
L49065 21140
" />
<path d="M43465 40540
L43465 40140
" />
</g>
<g style="fill:#000000; fill-opacity:1.0; 
stroke:#000000; stroke-width:0; stroke-opacity:1; 
stroke-linecap:round; stroke-linejoin:round;">
<circle cx="32465" cy="38340.2" r="775" /> 
</g>
<g style="fill:#000000; fill-opacity:1.0; 
stroke:#000000; stroke-width:39.3701; stroke-opacity:1; 
stroke-linecap:round; stroke-linejoin:round;">
</g>
<g style="fill:#000000; fill-opacity:1.0; 
stroke:#000000; stroke-width:0; stroke-opacity:1; 
stroke-linecap:round; stroke-linejoin:round;">
<circle cx="32465" cy="27340.2" r="775" /> 
</g>
<g style="fill:#000000; fill-opacity:1.0; 
stroke:#000000; stroke-width:39.3701; stroke-opacity:1; 
stroke-linecap:round; stroke-linejoin:round;">
</g>
<g style="fill:#000000; fill-opacity:1.0; 
stroke:#000000; stroke-width:0; stroke-opacity:1; 
stroke-linecap:round; stroke-linejoin:round;">
<circle cx="52465" cy="21340.2" r="775" /> 
</g>
<g style="fill:#000000; fill-opacity:1.0; 
stroke:#000000; stroke-width:39.3701; stroke-opacity:1; 
stroke-linecap:round; stroke-linejoin:round;">
</g>
<g style="fill:#000000; fill-opacity:1.0; 
stroke:#000000; stroke-width:0; stroke-opacity:1; 
stroke-linecap:round; stroke-linejoin:round;">
<circle cx="52965" cy="40340.2" r="775" /> 
</g>
<g style="fill:#000000; fill-opacity:1.0; 
stroke:#000000; stroke-width:39.3701; stroke-opacity:1; 
stroke-linecap:round; stroke-linejoin:round;">
</g>
<g style="fill:#000000; fill-opacity:1.0; 
stroke:#000000; stroke-width:0; stroke-opacity:1; 
stroke-linecap:round; stroke-linejoin:round;">
<polyline style="fill-rule:evenodd;"
points="42461,38551
42461,38236
42146,38236
42146,38551
42461,38551
" /> 
<polyline style="fill-rule:evenodd;"
points="41713,38551
41713,38236
41398,38236
41398,38551
41713,38551
" /> 
<polyline style="fill-rule:evenodd;"
points="42087,37764
42087,37449
41772,37449
41772,37764
42087,37764
" /> 
<polyline style="fill-rule:evenodd;"
points="39674,36326
40185,36326
40185,35736
39674,35736
39674,36326
" /> 
<polyline style="fill-rule:evenodd;"
points="39674,35263
40185,35263
40185,34673
39674,34673
39674,35263
" /> 
<polyline style="fill-rule:evenodd;"
points="37506,38755
37506,38244
36916,38244
36916,38755
37506,38755
" /> 
<polyline style="fill-rule:evenodd;"
points="36443,38755
36443,38244
35853,38244
35853,38755
36443,38755
" /> 
<polyline style="fill-rule:evenodd;"
points="36756,36755
36756,36244
36166,36244
36166,36755
36756,36755
" /> 
<polyline style="fill-rule:evenodd;"
points="35693,36755
35693,36244
35103,36244
35103,36755
35693,36755
" /> 
<polyline style="fill-rule:evenodd;"
points="33674,39076
34185,39076
34185,38486
33674,38486
33674,39076
" /> 
<polyline style="fill-rule:evenodd;"
points="33674,38013
34185,38013
34185,37423
33674,37423
33674,38013
" /> 
<polyline style="fill-rule:evenodd;"
points="34270,30840
34270,30160
33590,30160
33590,30840
34270,30840
" /> 
</g>
<g style="fill:#000000; fill-opacity:1.0; 
stroke:#000000; stroke-width:680; stroke-opacity:1; 
stroke-linecap:round; stroke-linejoin:round;">
</g>
<g style="fill:#000000; fill-opacity:0.0; 
stroke:#000000; stroke-width:680; stroke-opacity:1; 
stroke-linecap:round; stroke-linejoin:round;">
<path d="M32930 30500
L32930 30500
" />
<path d="M33930 31500
L33930 31500
" />
<path d="M32930 31500
L32930 31500
" />
<path d="M33930 32500
L33930 32500
" />
<path d="M32930 32500
L32930 32500
" />
<path d="M33930 33500
L33930 33500
" />
<path d="M32930 33500
L32930 33500
" />
<path d="M33930 34500
L33930 34500
" />
<path d="M32930 34500
L32930 34500
" />
<path d="M33930 35500
L33930 35500
" />
<path d="M32930 35500
L32930 35500
" />
</g>
<g style="fill:#000000; fill-opacity:0.0; 
stroke:#000000; stroke-width:0; stroke-opacity:1; 
stroke-linecap:round; stroke-linejoin:round;">
</g>
<g style="fill:#000000; fill-opacity:1.0; 
stroke:#000000; stroke-width:0; stroke-opacity:1; 
stroke-linecap:round; stroke-linejoin:round;">
<polyline style="fill-rule:evenodd;"
points="57330,34840
57330,34160
56530,34160
56530,34840
57330,34840
" /> 
</g>
<g style="fill:#000000; fill-opacity:1.0; 
stroke:#000000; stroke-width:680; stroke-opacity:1; 
stroke-linecap:round; stroke-linejoin:round;">
</g>
<g style="fill:#000000; fill-opacity:0.0; 
stroke:#000000; stroke-width:680; stroke-opacity:1; 
stroke-linecap:round; stroke-linejoin:round;">
<path d="M56990 35500
L56870 35500
" />
<path d="M56990 36500
L56870 36500
" />
<path d="M56990 37500
L56870 37500
" />
<path d="M56990 38500
L56870 38500
" />
<path d="M56990 39500
L56870 39500
" />
</g>
<g style="fill:#000000; fill-opacity:0.0; 
stroke:#000000; stroke-width:0; stroke-opacity:1; 
stroke-linecap:round; stroke-linejoin:round;">
</g>
<g style="fill:#000000; fill-opacity:1.0; 
stroke:#000000; stroke-width:0; stroke-opacity:1; 
stroke-linecap:round; stroke-linejoin:round;">
<polyline style="fill-rule:evenodd;"
points="53115,34836
53745,34836
53745,33261
53115,33261
53115,34836
" /> 
<polyline style="fill-rule:evenodd;"
points="53115,37238
53745,37238
53745,35663
53115,35663
53115,37238
" /> 
<polyline style="fill-rule:evenodd;"
points="50404,35525
50955,35525
50955,34974
50404,34974
50404,35525
" /> 
<circle cx="50680" cy="33281.5" r="275.591" /> 
</g>
<g style="fill:#000000; fill-opacity:1.0; 
stroke:#000000; stroke-width:39.3701; stroke-opacity:1; 
stroke-linecap:round; stroke-linejoin:round;">
</g>
<g style="fill:#000000; fill-opacity:1.0; 
stroke:#000000; stroke-width:0; stroke-opacity:1; 
stroke-linecap:round; stroke-linejoin:round;">
<polyline style="fill-rule:evenodd;"
points="54654,40025
55205,40025
55205,39474
54654,39474
54654,40025
" /> 
<circle cx="54930" cy="37781.5" r="275.591" /> 
</g>
<g style="fill:#000000; fill-opacity:1.0; 
stroke:#000000; stroke-width:39.3701; stroke-opacity:1; 
stroke-linecap:round; stroke-linejoin:round;">
</g>
<g style="fill:#000000; fill-opacity:1.0; 
stroke:#000000; stroke-width:0; stroke-opacity:1; 
stroke-linecap:round; stroke-linejoin:round;">
<polyline style="fill-rule:evenodd;"
points="39655,31725
39655,32275
40205,32275
40205,31725
39655,31725
" /> 
<circle cx="44930" cy="32000" r="275" /> 
</g>
<g style="fill:#000000; fill-opacity:1.0; 
stroke:#000000; stroke-width:39.3701; stroke-opacity:1; 
stroke-linecap:round; stroke-linejoin:round;">
</g>
<g style="fill:#000000; fill-opacity:1.0; 
stroke:#000000; stroke-width:0; stroke-opacity:1; 
stroke-linecap:round; stroke-linejoin:round;">
<polyline style="fill-rule:evenodd;"
points="50155,32225
50155,32775
50705,32775
50705,32225
50155,32225
" /> 
<circle cx="55430" cy="32500" r="275" /> 
</g>
<g style="fill:#000000; fill-opacity:1.0; 
stroke:#000000; stroke-width:39.3701; stroke-opacity:1; 
stroke-linecap:round; stroke-linejoin:round;">
</g>
<g style="fill:#000000; fill-opacity:1.0; 
stroke:#000000; stroke-width:0; stroke-opacity:1; 
stroke-linecap:round; stroke-linejoin:round;">
<polyline style="fill-rule:evenodd;"
points="45603,36994
45603,37505
46193,37505
46193,36994
45603,36994
" /> 
<polyline style="fill-rule:evenodd;"
points="46666,36994
46666,37505
47256,37505
47256,36994
46666,36994
" /> 
<polyline style="fill-rule:evenodd;"
points="48424,36076
48935,36076
48935,35486
48424,35486
48424,36076
" /> 
<polyline style="fill-rule:evenodd;"
points="48424,35013
48935,35013
48935,34423
48424,34423
48424,35013
" /> 
<polyline style="fill-rule:evenodd;"
points="44174,39326
44685,39326
44685,38736
44174,38736
44174,39326
" /> 
<polyline style="fill-rule:evenodd;"
points="44174,38263
44685,38263
44685,37673
44174,37673
44174,38263
" /> 
<polyline style="fill-rule:evenodd;"
points="37424,36576
37935,36576
37935,35986
37424,35986
37424,36576
" /> 
<polyline style="fill-rule:evenodd;"
points="37424,35513
37935,35513
37935,34923
37424,34923
37424,35513
" /> 
<polyline style="fill-rule:evenodd;"
points="40455,33775
40455,33225
39905,33225
39905,33775
40455,33775
" /> 
<circle cx="36180" cy="33500" r="275" /> 
</g>
<g style="fill:#000000; fill-opacity:1.0; 
stroke:#000000; stroke-width:39.3701; stroke-opacity:1; 
stroke-linecap:round; stroke-linejoin:round;">
</g>
<g style="fill:#000000; fill-opacity:1.0; 
stroke:#000000; stroke-width:0; stroke-opacity:1; 
stroke-linecap:round; stroke-linejoin:round;">
<polyline style="fill-rule:evenodd;"
points="47266,32315
47266,31685
45691,31685
45691,32315
47266,32315
" /> 
<polyline style="fill-rule:evenodd;"
points="49668,32315
49668,31685
48093,31685
48093,32315
49668,32315
" /> 
<polyline style="fill-rule:evenodd;"
points="42995,35163
42365,35163
42365,36738
42995,36738
42995,35163
" /> 
<polyline style="fill-rule:evenodd;"
points="42995,32761
42365,32761
42365,34336
42995,34336
42995,32761
" /> 
<polyline style="fill-rule:evenodd;"
points="35155,35775
35705,35775
35705,35225
35155,35225
35155,35775
" /> 
<circle cx="35430" cy="31500" r="275" /> 
</g>
<g style="fill:#000000; fill-opacity:1.0; 
stroke:#000000; stroke-width:39.3701; stroke-opacity:1; 
stroke-linecap:round; stroke-linejoin:round;">
</g>
<g style="fill:#000000; fill-opacity:1.0; 
stroke:#000000; stroke-width:0; stroke-opacity:1; 
stroke-linecap:round; stroke-linejoin:round;">
<polyline style="fill-rule:evenodd;"
points="47455,36350
47905,36350
47905,36150
47455,36150
47455,36350
" /> 
<polyline style="fill-rule:evenodd;"
points="47455,35850
47905,35850
47905,35650
47455,35650
47455,35850
" /> 
<polyline style="fill-rule:evenodd;"
points="47455,35350
47905,35350
47905,35150
47455,35150
47455,35350
" /> 
<polyline style="fill-rule:evenodd;"
points="47455,34850
47905,34850
47905,34650
47455,34650
47455,34850
" /> 
<polyline style="fill-rule:evenodd;"
points="44955,34850
45405,34850
45405,34650
44955,34650
44955,34850
" /> 
<polyline style="fill-rule:evenodd;"
points="44955,35350
45405,35350
45405,35150
44955,35150
44955,35350
" /> 
<polyline style="fill-rule:evenodd;"
points="44955,35850
45405,35850
45405,35650
44955,35650
44955,35850
" /> 
<polyline style="fill-rule:evenodd;"
points="44955,36350
45405,36350
45405,36150
44955,36150
44955,36350
" /> 
</g>
<g style="fill:#000000; fill-opacity:1.0; 
stroke:#000000; stroke-width:669; stroke-opacity:1; 
stroke-linecap:round; stroke-linejoin:round;">
</g>
<g style="fill:#000000; fill-opacity:0.0; 
stroke:#000000; stroke-width:669; stroke-opacity:1; 
stroke-linecap:round; stroke-linejoin:round;">
<path d="M43930 30854
L43930 30145
" />
<path d="M44930 30854
L44930 30145
" />
<path d="M42930 30854
L42930 30145
" />
<path d="M53930 30854
L53930 30145
" />
<path d="M54930 30854
L54930 30145
" />
<path d="M52930 30854
L52930 30145
" />
</g>
<g style="fill:#000000; fill-opacity:0.0; 
stroke:#000000; stroke-width:196.85; stroke-opacity:1; 
stroke-linecap:round; stroke-linejoin:round;">
<path d="M53930 30500
L53930 29554
" />
<path d="M48880 32000
L48880 31428
" />
<path d="M43930 30500
L43930 31445
" />
<path d="M48880 32000
L48880 32571
" />
<path d="M50430 32500
L50430 32765
" />
<path d="M50430 32765
L50430 33031
" />
<path d="M49075 32765
L48880 32571
" />
<path d="M50430 32765
L49075 32765
" />
<path d="M50680 33281
L50680 33281
" />
<path d="M50430 33031
L50680 33281
" />
<path d="M32930 34500
L32930 33500
" />
<path d="M32930 33500
L32930 32500
" />
<path d="M32930 34500
L32930 35500
" />
<path d="M33674 37718
L33418 37718
" />
<path d="M43930 30500
L43930 29554
" />
<path d="M48880 29554
L48880 31428
" />
<path d="M53930 29554
L48880 29554
" />
<path d="M44375 31445
L44930 32000
" />
<path d="M43930 31445
L44375 31445
" />
<path d="M45661 32731
L45661 35250
" />
<path d="M44930 32000
L45661 32731
" />
<path d="M45188 35250
L45661 35250
" />
<path d="M45188 35250
L45180 35250
" />
<path d="M32930 32500
L32930 31500
" />
<path d="M41555 38187
L41555 37980
" />
<path d="M32930 35500
L32930 37230
" />
<path d="M32930 37230
L33418 37718
" />
<path d="M41555 38187
L41555 38394
" />
<path d="M33674 37718
L33930 37718
" />
<path d="M42465 40472
L42465 41096
" />
<path d="M42465 40472
L42465 40340
" />
<path d="M56930 38500
L56273 38500
" />
<path d="M56930 39500
L56930 38903
" />
<path d="M56677 38903
L56930 38903
" />
<path d="M56273 38500
L56677 38903
" />
<path d="M54930 39750
L54664 39750
" />
<path d="M54664 39750
L54398 39750
" />
<path d="M54914 39500
L56930 39500
" />
<path d="M54664 39750
L54914 39500
" />
<path d="M36148 38500
L36148 39011
" />
<path d="M38136 39011
L36148 39011
" />
<path d="M39029 39904
L38136 39011
" />
<path d="M39029 41096
L39029 39904
" />
<path d="M33193 41096
L39029 41096
" />
<path d="M31417 39319
L33193 41096
" />
<path d="M31417 37919
L31417 39319
" />
<path d="M32105 37230
L31417 37919
" />
<path d="M32930 37230
L32105 37230
" />
<path d="M39029 41096
L42465 41096
" />
<path d="M48880 29554
L43930 29554
" />
<path d="M31423 29993
L32930 31500
" />
<path d="M31423 22390
L31423 29993
" />
<path d="M33244 20570
L31423 22390
" />
<path d="M40711 20570
L33244 20570
" />
<path d="M41265 21123
L40711 20570
" />
<path d="M41265 26890
L41265 21123
" />
<path d="M43930 29554
L41265 26890
" />
<path d="M47680 36250
L47198 36250
" />
<path d="M44271 35250
L45180 35250
" />
<path d="M43928 34907
L44271 35250
" />
<path d="M42254 34907
L43928 34907
" />
<path d="M42092 35068
L42254 34907
" />
<path d="M42092 37002
L42092 35068
" />
<path d="M41840 37002
L42092 37002
" />
<path d="M41516 37326
L41840 37002
" />
<path d="M41516 37940
L41516 37326
" />
<path d="M41555 37980
L41516 37940
" />
<path d="M42092 37002
L45228 37002
" />
<path d="M46842 36606
L47198 36250
" />
<path d="M45625 36606
L46842 36606
" />
<path d="M45228 37002
L45625 36606
" />
<path d="M45750 38116
L53430 38116
" />
<path d="M45228 37594
L45750 38116
" />
<path d="M45228 37002
L45228 37594
" />
<path d="M53430 36450
L53430 38116
" />
<path d="M53430 38781
L54398 39750
" />
<path d="M53430 38116
L53430 38781
" />
<path d="M44431 39584
L44465 39584
" />
<path d="M44430 39582
L44431 39584
" />
<path d="M44430 39031
L44430 39582
" />
<path d="M44465 40340
L44465 39584
" />
<path d="M33930 32500
L34526 32500
" />
<path d="M37680 35218
L37680 34667
" />
<path d="M33465 21340
L33465 22096
" />
<path d="M35946 34032
L36724 34032
" />
<path d="M34526 32611
L35946 34032
" />
<path d="M34526 32500
L34526 32611
" />
<path d="M37044 34032
L36724 34032
" />
<path d="M37680 34667
L37044 34032
" />
<path d="M36724 25355
L33465 22096
" />
<path d="M36724 34032
L36724 25355
" />
<path d="M42510 38394
L42696 38394
" />
<path d="M42304 38394
L42510 38394
" />
<path d="M42696 38394
L42717 38394
" />
<path d="M43143 37968
L44430 37968
" />
<path d="M42717 38394
L43143 37968
" />
<path d="M58331 31362
L49065 22096
" />
<path d="M58331 39033
L58331 31362
" />
<path d="M57074 40289
L58331 39033
" />
<path d="M54373 40289
L57074 40289
" />
<path d="M52564 38480
L54373 40289
" />
<path d="M45453 38480
L52564 38480
" />
<path d="M44941 37968
L45453 38480
" />
<path d="M44430 37968
L44941 37968
" />
<path d="M49065 21340
L49065 22096
" />
<path d="M39930 32000
L39930 32531
" />
<path d="M37935 36281
L38191 36281
" />
<path d="M37935 36281
L37680 36281
" />
<path d="M37168 36344
L37012 36500
" />
<path d="M37168 36281
L37168 36344
" />
<path d="M36461 36500
L37012 36500
" />
<path d="M37680 36281
L37168 36281
" />
<path d="M39198 33262
L39198 35812
" />
<path d="M39930 32531
L39198 33262
" />
<path d="M38661 35812
L39198 35812
" />
<path d="M38191 36281
L38661 35812
" />
<path d="M39198 35812
L39418 36031
" />
<path d="M39674 36031
L39418 36031
" />
<path d="M39674 36031
L39930 36031
" />
<path d="M39930 32000
L40461 32000
" />
<path d="M41089 32000
L40461 32000
" />
<path d="M41089 31750
L41089 32000
" />
<path d="M42339 30500
L41089 31750
" />
<path d="M42050 39584
L43465 39584
" />
<path d="M41089 38622
L42050 39584
" />
<path d="M41089 32000
L41089 38622
" />
<path d="M43465 39962
L43465 39584
" />
<path d="M42930 30500
L42339 30500
" />
<path d="M45898 37250
L45898 37761
" />
<path d="M45898 37761
L46028 37761
" />
<path d="M56930 36563
L56930 36500
" />
<path d="M55178 38315
L56930 36563
" />
<path d="M54681 38315
L55178 38315
" />
<path d="M54251 37885
L54681 38315
" />
<path d="M54251 35784
L54251 37885
" />
<path d="M53858 35390
L54251 35784
" />
<path d="M52306 35390
L53858 35390
" />
<path d="M49935 37761
L52306 35390
" />
<path d="M46028 37761
L49935 37761
" />
<path d="M43465 39962
L43465 40340
" />
<path d="M54930 30500
L54930 31445
" />
<path d="M55430 31945
L55430 32500
" />
<path d="M54930 31445
L55430 31945
" />
<path d="M57961 36468
L56930 37500
" />
<path d="M57961 33904
L57961 36468
" />
<path d="M56557 32500
L57961 33904
" />
<path d="M55430 32500
L56557 32500
" />
<path d="M46449 31428
L46479 31428
" />
<path d="M45520 30500
L46449 31428
" />
<path d="M44930 30500
L45520 30500
" />
<path d="M46479 32000
L46479 31428
" />
<path d="M46479 32000
L46479 32571
" />
<path d="M56930 34500
L56273 34500
" />
<path d="M45661 36250
L45180 36250
" />
<path d="M46661 35250
L45661 36250
" />
<path d="M46661 35250
L47680 35250
" />
<path d="M46661 32753
L46661 33814
" />
<path d="M46479 32571
L46661 32753
" />
<path d="M46661 33814
L46661 35250
" />
<path d="M50680 35250
L50680 34718
" />
<path d="M50680 33814
L50680 34718
" />
<path d="M51738 33814
L50680 33814
" />
<path d="M52547 33005
L51738 33814
" />
<path d="M53857 33005
L52547 33005
" />
<path d="M55352 34500
L53857 33005
" />
<path d="M56273 34500
L55352 34500
" />
<path d="M50680 33814
L46661 33814
" />
<path d="M54930 36843
L56273 35500
" />
<path d="M54930 37781
L54930 36843
" />
<path d="M56756 35500
L56273 35500
" />
<path d="M56756 35500
L56930 35500
" />
<path d="M52930 30500
L52930 31445
" />
<path d="M56930 35500
L57586 35500
" />
<path d="M57586 34042
L57586 35500
" />
<path d="M57121 33577
L57586 34042
" />
<path d="M55062 33577
L57121 33577
" />
<path d="M52930 31445
L55062 33577
" />
<path d="M40180 33500
L40180 34031
" />
<path d="M39930 34281
L39930 34968
" />
<path d="M40180 34031
L39930 34281
" />
<path d="M39930 34968
L40441 34968
" />
<path d="M36465 40340
L36465 39584
" />
<path d="M40441 36460
L40441 34968
" />
<path d="M38402 38500
L40441 36460
" />
<path d="M37211 38500
L38402 38500
" />
<path d="M36201 39584
L36465 39584
" />
<path d="M35592 38974
L36201 39584
" />
<path d="M35592 38132
L35592 38974
" />
<path d="M35736 37988
L35592 38132
" />
<path d="M37211 37988
L35736 37988
" />
<path d="M37211 38500
L37211 37988
" />
<path d="M35191 30500
L33930 30500
" />
<path d="M36180 31488
L35191 30500
" />
<path d="M36180 33500
L36180 31488
" />
<path d="M43452 35750
L43251 35950
" />
<path d="M45180 35750
L43452 35750
" />
<path d="M42680 35950
L43251 35950
" />
<path d="M43497 33549
L42680 33549
" />
<path d="M44698 34750
L43497 33549
" />
<path d="M45180 34750
L44698 34750
" />
<path d="M35430 35500
L35430 36031
" />
<path d="M33678 39584
L33465 39584
" />
<path d="M33930 39332
L33678 39584
" />
<path d="M33465 40340
L33465 39584
" />
<path d="M33930 38808
L33930 39332
" />
<path d="M33930 38808
L33930 38781
" />
<path d="M35398 36062
L35398 36500
" />
<path d="M35430 36031
L35398 36062
" />
<path d="M33930 38781
L34441 38781
" />
<path d="M35398 37824
L35398 36500
" />
<path d="M34441 38781
L35398 37824
" />
<path d="M35430 31500
L33930 31500
" />
<path d="M48168 34742
L48168 34718
" />
<path d="M48161 34750
L48168 34742
" />
<path d="M47680 34750
L48161 34750
" />
<path d="M48502 34718
L48680 34718
" />
<path d="M48335 34718
L48168 34718
" />
<path d="M48335 34718
L48502 34718
" />
<path d="M52802 34049
L53430 34049
" />
<path d="M51069 35781
L52802 34049
" />
<path d="M49618 35781
L51069 35781
" />
<path d="M48555 34718
L49618 35781
" />
<path d="M48502 34718
L48555 34718
" />
<path d="M48168 35757
L48161 35750
" />
<path d="M48168 35781
L48168 35757
" />
<path d="M47680 35750
L48161 35750
" />
<path d="M48424 35781
L48554 35781
" />
<path d="M48424 35781
L48168 35781
" />
<path d="M48680 35781
L48617 35781
" />
<path d="M48617 35781
L48554 35781
" />
<path d="M48617 36145
L47512 37250
" />
<path d="M48617 35781
L48617 36145
" />
<path d="M46961 37250
L47512 37250
" />
</g>
<g style="fill:#000000; fill-opacity:1.0; 
stroke:#000000; stroke-width:100; stroke-opacity:1; 
stroke-linecap:round; stroke-linejoin:round;">
<polyline style="fill-rule:evenodd;"
points="53333,20758
53489,21135
53490,21543
53334,21920
53046,22208
52669,22364
52262,22365
51885,22209
51596,21921
51440,21544
51439,21137
51595,20760
51835,20519
31199,20519
31199,41230
52435,41230
52385,41209
52096,40921
51940,40544
51939,40137
52095,39760
52383,39471
52760,39315
52906,39315
52420,38828
45453,38828
45453,38828
45337,38805
45320,38802
45207,38726
44889,38408
44868,38441
44785,38498
44779,38499
44863,38553
44920,38637
44940,38736
44940,39326
44923,39419
44868,39504
44806,39547
44813,39584
44813,39709
44853,39736
44965,39902
45076,39736
45254,39617
45465,39575
45675,39617
45853,39736
45973,39914
46015,40125
46015,40554
45973,40765
45853,40943
45675,41062
45465,41104
45254,41062
45076,40943
44965,40777
44853,40943
44675,41062
44465,41104
44254,41062
44076,40943
43965,40777
43853,40943
43675,41062
43465,41104
43254,41062
43076,40943
42961,40772
42954,40796
42818,40964
42629,41067
42600,41073
42515,41025
42515,40390
42522,40390
42522,40290
42515,40290
42515,40282
42415,40282
42415,40290
42407,40290
42407,40390
42415,40390
42415,41025
42329,41073
42300,41067
42111,40964
41976,40796
41968,40772
41853,40943
41675,41062
41465,41104
41254,41062
41076,40943
40965,40777
40853,40943
40675,41062
40465,41104
40254,41062
40076,40943
39956,40765
39915,40554
39915,40125
39956,39914
40076,39736
40254,39617
40465,39575
40675,39617
40853,39736
40965,39902
41076,39736
41254,39617
41465,39575
41570,39596
40842,38869
40842,38869
40767,38756
40761,38726
40740,38622
40740,38622
40740,36627
40694,36697
40688,36706
38648,38746
38648,38746
38535,38821
38513,38826
38402,38848
38402,38848
37744,38848
37744,38848
37689,38933
37605,38990
37506,39010
36916,39010
36823,38993
36738,38938
36681,38855
36678,38841
36655,38897
36585,38967
36493,39005
36261,39005
36198,38943
36198,38550
36206,38550
36206,38450
36198,38450
36198,38442
36098,38442
36098,38450
36090,38450
36090,38550
36098,38550
36098,38943
36076,38965
36346,39235
36465,39235
36598,39262
36711,39337
36786,39450
36813,39584
36813,39709
36853,39736
36965,39902
37076,39736
37254,39617
37465,39575
37675,39617
37853,39736
37965,39902
38076,39736
38254,39617
38465,39575
38675,39617
38853,39736
38973,39914
39015,40125
39015,40554
38973,40765
38853,40943
38675,41062
38465,41104
38254,41062
38076,40943
37965,40777
37853,40943
37675,41062
37465,41104
37254,41062
37076,40943
36965,40777
36853,40943
36675,41062
36465,41104
36254,41062
36076,40943
35965,40777
35853,40943
35675,41062
35465,41104
35254,41062
35076,40943
34965,40777
34853,40943
34675,41062
34465,41104
34254,41062
34076,40943
33965,40777
33853,40943
33675,41062
33465,41104
33254,41062
33076,40943
32956,40765
32915,40554
32915,40125
32956,39914
33076,39736
33116,39709
33116,39584
33143,39450
33218,39337
33331,39262
33465,39235
33480,39235
33439,39175
33419,39076
33419,38715
33334,38920
33046,39208
32669,39364
32262,39365
31885,39209
31596,38921
31440,38544
31439,38137
31595,37760
31883,37471
32260,37315
32668,37314
33044,37470
33333,37758
33424,37976
33424,37831
33486,37768
33880,37768
33880,37776
33980,37776
33980,37768
34373,37768
34435,37831
34435,38063
34397,38155
34327,38225
34273,38247
34278,38248
34363,38303
34389,38341
35050,37680
35050,37373
34435,37373
34435,37606
34373,37668
33980,37668
33980,37235
33880,37235
33880,37668
33486,37668
33424,37606
33424,37373
33462,37281
33532,37211
33624,37173
33817,37173
33880,37235
33980,37235
34042,37173
34235,37173
34327,37211
34397,37281
34435,37373
35050,37373
35050,37000
35010,36993
34925,36938
34868,36855
34848,36755
34848,36244
34865,36151
34920,36066
35004,36009
35044,36001
34977,35957
34920,35874
34900,35775
34900,35225
34917,35132
34972,35047
35055,34990
35155,34970
35705,34970
35797,34987
35882,35042
35939,35125
35959,35225
35959,35775
35942,35867
35887,35952
35804,36009
35794,36011
35871,36061
35928,36144
35929,36150
35983,36066
36067,36009
36166,35989
36756,35989
36849,36006
36913,36047
36921,36035
37034,35959
37168,35933
37179,35933
37186,35893
37241,35808
37324,35751
37330,35750
37246,35696
37189,35612
37169,35513
37169,34923
37186,34830
37241,34745
37255,34735
36900,34380
35946,34380
35946,34380
35835,34358
35813,34353
35699,34278
34346,32925
34234,33000
34358,33082
34486,33274
34531,33500
34486,33725
34358,33917
34234,34000
34358,34082
34486,34274
34531,34500
34486,34725
34358,34917
34234,35000
34358,35082
34486,35274
34531,35500
34486,35725
34358,35917
34167,36045
33941,36090
33918,36090
33692,36045
33501,35917
33430,35810
33279,35975
33071,36072
32980,36025
32980,35550
32880,35550
32880,36025
32788,36072
32580,35975
32425,35805
32357,35641
32404,35550
32880,35550
32980,35550
32987,35550
32987,35450
32980,35450
32980,34550
32880,34550
32880,35450
32404,35450
32357,35358
32425,35194
32580,35024
32633,35000
32580,34975
32425,34805
32357,34641
32404,34550
32880,34550
32980,34550
32987,34550
32987,34450
32980,34450
32980,33550
32880,33550
32880,34450
32404,34450
32357,34358
32425,34194
32580,34024
32633,34000
32580,33975
32425,33805
32357,33641
32404,33550
32880,33550
32980,33550
32987,33550
32987,33450
32980,33450
32980,32550
32880,32550
32880,33450
32404,33450
32357,33358
32425,33194
32580,33024
32633,33000
32580,32975
32425,32805
32357,32641
32404,32550
32880,32550
32980,32550
32987,32550
32987,32450
32980,32450
32980,31550
32880,31550
32880,32450
32404,32450
32357,32358
32425,32194
32580,32024
32633,32000
32580,31975
32425,31805
32357,31641
32404,31550
32880,31550
32980,31550
32987,31550
32987,31450
32980,31450
32980,31442
32880,31442
32880,31450
32404,31450
32357,31358
32425,31194
32580,31024
32628,31002
32501,30917
32373,30725
32328,30500
32373,30274
32501,30082
32692,29954
32918,29910
32941,29910
33167,29954
33350,30077
33352,30067
33407,29982
33490,29925
33590,29905
34270,29905
34362,29922
34447,29977
34504,30060
34523,30151
35191,30151
35191,30151
35324,30178
35437,30253
35437,30253
36376,31191
36376,27543
33490,27543
33334,27920
33046,28208
32669,28364
32262,28365
31885,28209
31596,27921
31440,27544
31439,27137
31595,26760
31883,26471
32260,26315
32668,26314
33044,26470
33333,26758
33489,27135
33490,27543
36376,27543
36376,25499
33218,22342
33218,22342
33143,22229
33143,22229
33116,22096
33116,22096
33116,21970
33076,21943
32956,21765
32915,21554
32915,21125
32956,20914
33076,20736
33254,20617
33465,20575
33675,20617
33853,20736
33965,20902
34076,20736
34254,20617
34465,20575
34675,20617
34853,20736
34965,20902
35076,20736
35254,20617
35465,20575
35675,20617
35853,20736
35965,20902
36076,20736
36254,20617
36465,20575
36675,20617
36853,20736
36965,20902
37076,20736
37254,20617
37465,20575
37675,20617
37853,20736
37965,20902
38076,20736
38254,20617
38465,20575
38675,20617
38853,20736
38965,20902
39076,20736
39254,20617
39465,20575
39675,20617
39853,20736
39965,20902
40076,20736
40254,20617
40465,20575
40675,20617
40853,20736
40973,20914
41015,21125
41015,21554
40973,21765
40853,21943
40675,22062
40465,22104
40254,22062
40076,21943
39965,21777
39853,21943
39675,22062
39465,22104
39254,22062
39076,21943
38965,21777
38853,21943
38675,22062
38465,22104
38254,22062
38076,21943
37965,21777
37853,21943
37675,22062
37465,22104
37254,22062
37076,21943
36965,21777
36853,21943
36675,22062
36465,22104
36254,22062
36076,21943
35965,21777
35853,21943
35675,22062
35465,22104
35254,22062
35076,21943
34965,21777
34853,21943
34675,22062
34465,22104
34254,22062
34076,21943
33965,21777
33853,21943
33824,21963
36970,25109
37046,25222
37046,25222
37072,25355
37072,25355
37072,33689
37178,33710
37291,33785
37291,33785
37926,34420
38001,34533
38001,34533
38028,34667
38028,34667
38028,34685
38028,34685
38113,34740
38170,34824
38190,34923
38190,35513
38173,35606
38118,35691
38035,35748
38029,35749
38113,35803
38139,35841
38415,35565
38474,35525
38528,35490
38550,35485
38661,35463
38661,35463
38850,35463
38850,33262
38850,33262
38874,33138
38876,33129
38952,33016
38952,33016
39497,32470
39477,32457
39420,32374
39400,32275
39400,31725
39417,31632
39472,31547
39555,31490
39655,31470
40205,31470
40297,31487
40382,31542
40439,31625
40445,31651
40760,31651
40767,31616
40767,31616
40842,31503
40842,31503
42093,30253
42206,30178
42228,30173
42339,30151
42339,30151
42345,30151
42345,30127
42389,29903
42516,29713
42706,29587
42930,29542
43153,29587
43343,29713
43432,29846
43552,29696
43752,29586
43789,29578
43880,29625
43880,30450
43872,30450
43872,30550
43880,30550
43880,31374
43789,31421
43752,31413
43552,31303
43432,31153
43343,31286
43153,31412
42930,31457
42706,31412
42516,31286
42389,31096
42364,30967
41437,31894
41437,37986
41443,37986
41505,38049
41505,38344
41498,38344
41498,38444
41505,38444
41505,38451
41605,38451
41605,38444
41613,38444
41613,38344
41605,38344
41605,38049
41663,37991
41594,37947
41537,37863
41517,37764
41517,37449
41535,37356
41589,37271
41673,37214
41772,37194
42087,37194
42180,37212
42265,37266
42322,37350
42342,37449
42342,37764
42324,37857
42270,37942
42212,37981
42461,37981
42554,37999
42594,38024
42896,37722
43009,37646
43031,37642
43143,37620
43143,37620
43929,37620
43936,37580
43991,37495
44074,37438
44174,37418
44685,37418
44778,37435
44863,37490
44920,37574
44930,37620
44941,37620
44941,37620
45053,37642
45075,37646
45188,37722
45188,37722
45598,38132
52564,38132
52697,38158
52810,38234
52810,38234
54421,39845
54466,39800
54880,39800
54880,39807
54980,39807
54980,39800
55393,39800
55455,39862
55455,39941
56494,39941
56398,39855
56298,39647
56297,39641
56344,39550
56880,39550
56880,39557
56980,39557
56980,39550
56987,39550
56987,39450
56980,39450
56980,38550
56880,38550
56880,39450
56344,39450
56331,39424
55455,39424
55455,39637
55393,39700
54980,39700
54980,39286
54880,39286
54880,39700
54466,39700
54404,39637
54404,39424
54442,39332
54512,39262
54604,39224
54817,39224
54880,39286
54980,39286
55042,39224
55255,39224
55347,39262
55417,39332
55455,39424
56331,39424
56297,39358
56298,39352
56398,39144
56560,39000
56398,38855
56298,38647
56297,38641
56344,38550
56880,38550
56980,38550
57515,38550
57562,38641
57561,38647
57461,38855
57299,39000
57461,39144
57547,39323
57982,38888
57982,36940
57564,37358
57592,37500
57547,37725
57419,37917
57298,37998
57461,38144
57561,38352
57562,38358
57515,38450
56980,38450
56980,38442
56880,38442
56880,38450
56344,38450
56297,38358
56298,38352
56398,38144
56561,37998
56440,37917
56312,37725
56303,37682
55425,38561
55425,38561
55346,38613
55312,38636
55178,38663
55178,38663
54681,38663
54681,38663
54565,38640
54548,38636
54435,38561
54435,38561
54005,38131
54005,38131
53947,38045
53929,38018
53903,37885
53903,37885
53903,37433
53886,37450
53794,37488
53542,37488
53480,37426
53480,36501
53380,36501
53380,37426
53317,37488
53065,37488
52973,37450
52903,37380
52865,37288
52865,36563
52927,36501
53380,36501
53480,36501
53487,36501
53487,36401
53480,36401
53480,36393
53380,36393
53380,36401
52927,36401
52865,36338
52865,35739
52450,35739
50181,38008
50181,38008
50086,38072
50068,38083
49935,38110
49935,38110
45898,38110
45765,38083
45652,38008
45576,37895
45550,37761
45550,37750
45510,37743
45425,37688
45368,37605
45348,37505
45348,36994
45365,36901
45420,36816
45504,36759
45603,36739
46193,36739
46286,36756
46371,36811
46428,36894
46429,36900
46483,36816
46567,36759
46666,36739
47256,36739
47349,36756
47434,36811
47444,36825
47670,36600
47629,36600
47629,36537
47567,36600
47405,36600
47313,36561
47243,36491
47205,36399
47205,36362
47267,36300
47630,36300
47630,36307
47730,36307
47730,36300
47737,36300
47737,36200
47730,36200
47730,36192
47630,36192
47630,36200
47267,36200
47205,36137
47205,36100
47243,36008
47253,35997
47220,35949
47200,35850
47200,35650
47209,35598
46805,35598
45907,36496
45907,36496
45794,36571
45661,36598
45436,36598
45405,36604
44955,36604
44862,36587
44777,36532
44720,36449
44700,36350
44700,36150
44709,36098
43596,36098
43497,36197
43497,36197
43384,36272
43362,36277
43251,36299
43251,36299
43249,36299
43249,36738
43232,36831
43177,36916
43094,36973
42995,36993
42365,36993
42272,36975
42187,36921
42130,36837
42110,36738
42110,35163
42127,35070
42182,34985
42265,34928
42365,34908
42995,34908
43087,34926
43172,34980
43229,35064
43249,35163
43249,35474
43318,35428
43340,35423
43452,35401
43452,35401
44705,35401
44705,35399
44705,35362
44767,35300
45130,35300
45130,35307
45230,35307
45230,35300
45592,35300
45655,35362
45655,35399
45616,35491
45606,35502
45639,35550
45659,35650
45659,35758
46312,35105
46312,34650
45659,34650
45659,34850
45642,34942
45606,34998
45616,35008
45655,35100
45655,35137
45592,35200
45230,35200
45230,35192
45130,35192
45130,35200
44767,35200
44705,35137
44705,35100
44705,35098
44698,35098
44698,35098
44580,35074
44565,35071
44452,34996
44452,34996
43353,33897
43249,33897
43249,34336
43232,34429
43177,34514
43094,34571
42995,34591
42365,34591
42272,34573
42187,34519
42130,34435
42110,34336
42110,32761
42127,32668
42182,32583
42265,32526
42365,32506
42995,32506
43087,32524
43172,32578
43229,32662
43249,32761
43249,33200
43497,33200
43631,33227
43744,33302
43744,33302
44843,34401
44923,34401
44955,34395
45405,34395
45497,34412
45582,34467
45639,34550
45659,34650
46312,34650
46312,32897
46232,32817
46232,32817
46157,32704
46152,32682
46130,32571
46130,32571
46130,32569
45691,32569
45598,32552
45513,32497
45456,32414
45447,32367
45227,32367
45202,32460
45005,32529
44797,32518
44657,32460
44632,32367
44930,32070
45227,32367
45447,32367
45436,32315
45436,32161
45390,32272
45297,32297
45000,32000
44859,32000
44562,32297
44469,32272
44400,32075
44411,31867
44469,31727
44562,31702
44859,32000
45000,32000
45297,31702
45390,31727
45436,31858
45436,31685
45446,31632
45227,31632
44930,31929
44632,31632
44657,31539
44854,31470
45062,31481
45202,31539
45227,31632
45446,31632
45454,31592
45508,31507
45592,31450
45691,31430
45957,31430
45495,30967
45470,31096
45343,31286
45153,31412
44930,31457
44706,31412
44516,31286
44427,31153
44307,31303
44107,31413
44070,31421
43980,31374
43980,30550
43987,30550
43987,30450
43980,30450
43980,29625
44070,29578
44107,29586
44307,29696
44427,29846
44516,29713
44706,29587
44930,29542
45153,29587
45343,29713
45470,29903
45514,30127
45514,30151
45520,30151
45653,30178
45766,30253
45766,30253
46636,31123
46725,31182
46800,31295
46827,31428
46827,31430
47266,31430
47359,31447
47444,31502
47501,31585
47521,31685
47521,32315
47503,32407
47449,32492
47365,32549
47266,32569
46949,32569
46982,32619
46982,32619
47009,32753
47009,32753
47009,33466
50187,33466
50149,33357
50160,33148
50212,33025
50105,33025
50013,32986
49943,32916
49905,32824
49905,32612
49967,32550
50380,32550
50380,32910
50382,32913
50406,32820
50480,32794
50480,32550
50892,32550
50955,32612
50955,32824
50954,32825
50977,32913
50680,33210
50674,33205
50603,33275
50609,33281
50603,33287
50674,33357
50680,33352
50685,33357
50756,33287
50750,33281
51048,32983
51141,33008
51210,33205
51199,33414
51177,33466
51593,33466
52300,32759
52321,32745
52413,32683
52436,32679
52547,32657
52547,32657
53649,32657
53167,32175
50955,32175
50955,32387
50892,32450
50480,32450
50480,32037
50380,32037
50380,32450
49967,32450
49907,32390
49880,32456
49810,32526
49718,32565
48993,32565
48931,32502
48931,32050
48831,32050
48831,32502
48768,32565
48043,32565
47951,32526
47881,32456
47843,32364
47843,32112
47906,32050
48831,32050
48931,32050
49856,32050
49918,32112
49918,32142
49943,32083
50013,32013
50105,31975
50317,31975
50380,32037
50480,32037
50542,31975
50754,31975
50846,32013
50916,32083
50955,32175
53167,32175
52683,31691
52683,31691
52646,31635
49918,31635
49918,31887
49856,31950
48931,31950
48931,31497
48831,31497
48831,31950
47906,31950
47843,31887
47843,31635
47881,31543
47951,31473
48043,31435
48768,31435
48831,31497
48931,31497
48993,31435
49718,31435
49810,31473
49880,31543
49918,31635
52646,31635
52608,31578
52581,31445
52581,31329
52516,31286
52389,31096
52345,30872
52345,30127
52389,29903
52516,29713
52706,29587
52930,29542
53153,29587
53343,29713
53432,29846
53552,29696
53752,29586
53789,29578
53880,29625
53880,30450
53872,30450
53872,30550
53880,30550
53880,31374
53789,31421
53752,31413
53552,31303
53432,31153
53343,31286
53295,31318
55207,33229
56793,33229
56412,32848
55823,32848
55727,32944
55534,33024
55326,33025
55133,32945
54985,32797
54905,32604
54904,32396
54984,32203
55081,32105
55081,32089
54683,31691
54683,31691
54608,31578
54602,31550
54581,31445
54581,31445
54581,31329
54516,31286
54427,31153
54307,31303
54107,31413
54070,31421
53980,31374
53980,30550
53987,30550
53987,30450
53980,30450
53980,29625
54070,29578
54107,29586
54307,29696
54427,29846
54516,29713
54706,29587
54930,29542
55153,29587
55343,29713
55470,29903
55514,30127
55514,30872
55470,31096
55343,31286
55295,31318
55676,31698
55751,31811
55751,31811
55778,31945
55778,31945
55778,32106
55824,32151
56557,32151
56690,32178
56803,32253
56803,32253
57982,33432
57982,31506
50573,24097
44928,24097
44776,24464
44496,24745
44129,24897
43732,24898
43365,24746
43084,24466
42932,24099
42931,23702
43083,23335
43363,23054
43730,22902
44127,22901
44494,23053
44775,23333
44927,23700
44928,24097
50573,24097
48818,22342
48818,22342
48743,22229
48738,22207
48716,22096
48716,22096
48716,21970
48676,21943
48565,21777
48453,21943
48275,22062
48065,22104
47854,22062
47676,21943
47565,21777
47453,21943
47275,22062
47065,22104
46854,22062
46676,21943
46565,21777
46453,21943
46275,22062
46065,22104
45854,22062
45676,21943
45565,21777
45453,21943
45275,22062
45065,22104
44854,22062
44676,21943
44565,21777
44453,21943
44275,22062
44065,22104
43854,22062
43676,21943
43565,21777
43453,21943
43275,22062
43065,22104
42854,22062
42676,21943
42565,21777
42453,21943
42275,22062
42065,22104
41854,22062
41676,21943
41556,21765
41515,21554
41515,21125
41556,20914
41676,20736
41854,20617
42065,20575
42275,20617
42453,20736
42565,20902
42676,20736
42854,20617
43065,20575
43275,20617
43453,20736
43565,20902
43676,20736
43854,20617
44065,20575
44275,20617
44453,20736
44565,20902
44676,20736
44854,20617
45065,20575
45275,20617
45453,20736
45565,20902
45676,20736
45854,20617
46065,20575
46275,20617
46453,20736
46565,20902
46676,20736
46854,20617
47065,20575
47275,20617
47453,20736
47565,20902
47676,20736
47854,20617
48065,20575
48275,20617
48453,20736
48565,20902
48676,20736
48854,20617
49065,20575
49275,20617
49453,20736
49573,20914
49615,21125
49615,21554
49573,21765
49453,21943
49424,21963
58410,30948
58410,24097
54928,24097
54776,24464
54496,24745
54129,24897
53732,24898
53365,24746
53084,24466
52932,24099
52931,23702
53083,23335
53363,23054
53730,22902
54127,22901
54494,23053
54775,23333
54927,23700
54928,24097
58410,24097
58410,20519
53093,20519
53333,20758
" /> 
</g> 
</svg>
