<?xml version="1.0" standalone="no"?>
 <!DOCTYPE svg PUBLIC "-//W3C//DTD SVG 1.1//EN" 
 "http://www.w3.org/Graphics/SVG/1.1/DTD/svg11.dtd"> 
<svg xmlns="http://www.w3.org/2000/svg" version="1.1" 
    width="29.7002cm" height="21.0007cm" viewBox="0 0 116930 82680 ">
<title>SVG Picture created as opto-interface-B.Cu.svg date 2016/07/20 13:18:01 </title>
  <desc>Picture generated by PCBNEW </desc>
<g style="fill:#000000; fill-opacity:1;stroke:#000000; stroke-opacity:1;
stroke-linecap:round; stroke-linejoin:round; "
 transform="translate(0 0) scale(1 1)">
</g>
<g style="fill:#000000; fill-opacity:0.0; 
stroke:#000000; stroke-width:-0.000393701; stroke-opacity:1; 
stroke-linecap:round; stroke-linejoin:round;">
</g>
<g style="fill:#000000; fill-opacity:0.0; 
stroke:#000000; stroke-width:600; stroke-opacity:1; 
stroke-linecap:round; stroke-linejoin:round;">
<path d="M33465 40540
L33465 40140
" />
<path d="M34465 40540
L34465 40140
" />
<path d="M35465 40540
L35465 40140
" />
<path d="M38465 40540
L38465 40140
" />
<path d="M37465 40540
L37465 40140
" />
<path d="M36465 40540
L36465 40140
" />
<path d="M40465 40540
L40465 40140
" />
<path d="M41465 40540
L41465 40140
" />
<path d="M42465 40540
L42465 40140
" />
<path d="M44465 40540
L44465 40140
" />
<path d="M45465 40540
L45465 40140
" />
<path d="M33465 21540
L33465 21140
" />
<path d="M34465 21540
L34465 21140
" />
<path d="M35465 21540
L35465 21140
" />
<path d="M36465 21540
L36465 21140
" />
<path d="M37465 21540
L37465 21140
" />
<path d="M38465 21540
L38465 21140
" />
<path d="M39465 21540
L39465 21140
" />
<path d="M40465 21540
L40465 21140
" />
<path d="M42065 21540
L42065 21140
" />
<path d="M43065 21540
L43065 21140
" />
<path d="M44065 21540
L44065 21140
" />
<path d="M45065 21540
L45065 21140
" />
<path d="M46065 21540
L46065 21140
" />
<path d="M47065 21540
L47065 21140
" />
<path d="M48065 21540
L48065 21140
" />
<path d="M49065 21540
L49065 21140
" />
<path d="M43465 40540
L43465 40140
" />
</g>
<g style="fill:#000000; fill-opacity:1.0; 
stroke:#000000; stroke-width:0; stroke-opacity:1; 
stroke-linecap:round; stroke-linejoin:round;">
<circle cx="32465" cy="38340.2" r="775" /> 
</g>
<g style="fill:#000000; fill-opacity:1.0; 
stroke:#000000; stroke-width:39.3701; stroke-opacity:1; 
stroke-linecap:round; stroke-linejoin:round;">
</g>
<g style="fill:#000000; fill-opacity:1.0; 
stroke:#000000; stroke-width:0; stroke-opacity:1; 
stroke-linecap:round; stroke-linejoin:round;">
<circle cx="32465" cy="27340.2" r="775" /> 
</g>
<g style="fill:#000000; fill-opacity:1.0; 
stroke:#000000; stroke-width:39.3701; stroke-opacity:1; 
stroke-linecap:round; stroke-linejoin:round;">
</g>
<g style="fill:#000000; fill-opacity:1.0; 
stroke:#000000; stroke-width:0; stroke-opacity:1; 
stroke-linecap:round; stroke-linejoin:round;">
<circle cx="52465" cy="21340.2" r="775" /> 
</g>
<g style="fill:#000000; fill-opacity:1.0; 
stroke:#000000; stroke-width:39.3701; stroke-opacity:1; 
stroke-linecap:round; stroke-linejoin:round;">
</g>
<g style="fill:#000000; fill-opacity:1.0; 
stroke:#000000; stroke-width:0; stroke-opacity:1; 
stroke-linecap:round; stroke-linejoin:round;">
<circle cx="52965" cy="40340.2" r="775" /> 
</g>
<g style="fill:#000000; fill-opacity:1.0; 
stroke:#000000; stroke-width:39.3701; stroke-opacity:1; 
stroke-linecap:round; stroke-linejoin:round;">
</g>
<g style="fill:#000000; fill-opacity:1.0; 
stroke:#000000; stroke-width:0; stroke-opacity:1; 
stroke-linecap:round; stroke-linejoin:round;">
<polyline style="fill-rule:evenodd;"
points="34270,30840
34270,30160
33590,30160
33590,30840
34270,30840
" /> 
</g>
<g style="fill:#000000; fill-opacity:1.0; 
stroke:#000000; stroke-width:680; stroke-opacity:1; 
stroke-linecap:round; stroke-linejoin:round;">
</g>
<g style="fill:#000000; fill-opacity:0.0; 
stroke:#000000; stroke-width:680; stroke-opacity:1; 
stroke-linecap:round; stroke-linejoin:round;">
<path d="M32930 30500
L32930 30500
" />
<path d="M33930 31500
L33930 31500
" />
<path d="M32930 31500
L32930 31500
" />
<path d="M33930 32500
L33930 32500
" />
<path d="M32930 32500
L32930 32500
" />
<path d="M33930 33500
L33930 33500
" />
<path d="M32930 33500
L32930 33500
" />
<path d="M33930 34500
L33930 34500
" />
<path d="M32930 34500
L32930 34500
" />
<path d="M33930 35500
L33930 35500
" />
<path d="M32930 35500
L32930 35500
" />
</g>
<g style="fill:#000000; fill-opacity:0.0; 
stroke:#000000; stroke-width:0; stroke-opacity:1; 
stroke-linecap:round; stroke-linejoin:round;">
</g>
<g style="fill:#000000; fill-opacity:1.0; 
stroke:#000000; stroke-width:0; stroke-opacity:1; 
stroke-linecap:round; stroke-linejoin:round;">
<polyline style="fill-rule:evenodd;"
points="57330,34840
57330,34160
56530,34160
56530,34840
57330,34840
" /> 
</g>
<g style="fill:#000000; fill-opacity:1.0; 
stroke:#000000; stroke-width:680; stroke-opacity:1; 
stroke-linecap:round; stroke-linejoin:round;">
</g>
<g style="fill:#000000; fill-opacity:0.0; 
stroke:#000000; stroke-width:680; stroke-opacity:1; 
stroke-linecap:round; stroke-linejoin:round;">
<path d="M56990 35500
L56870 35500
" />
<path d="M56990 36500
L56870 36500
" />
<path d="M56990 37500
L56870 37500
" />
<path d="M56990 38500
L56870 38500
" />
<path d="M56990 39500
L56870 39500
" />
</g>
<g style="fill:#000000; fill-opacity:0.0; 
stroke:#000000; stroke-width:669; stroke-opacity:1; 
stroke-linecap:round; stroke-linejoin:round;">
<path d="M43930 30854
L43930 30145
" />
<path d="M44930 30854
L44930 30145
" />
<path d="M42930 30854
L42930 30145
" />
<path d="M53930 30854
L53930 30145
" />
<path d="M54930 30854
L54930 30145
" />
<path d="M52930 30854
L52930 30145
" />
</g>
<g style="fill:#000000; fill-opacity:0.0; 
stroke:#000000; stroke-width:0; stroke-opacity:1; 
stroke-linecap:round; stroke-linejoin:round;">
</g>
<g style="fill:#000000; fill-opacity:1.0; 
stroke:#000000; stroke-width:0; stroke-opacity:1; 
stroke-linecap:round; stroke-linejoin:round;">
<polyline style="fill-rule:evenodd;"
points="45955,32775
45955,32224
45404,32224
45404,32775
45955,32775
" /> 
<circle cx="43711.5" cy="32500" r="275.591" /> 
</g>
<g style="fill:#000000; fill-opacity:1.0; 
stroke:#000000; stroke-width:39.3701; stroke-opacity:1; 
stroke-linecap:round; stroke-linejoin:round;">
</g>
<g style="fill:#000000; fill-opacity:1.0; 
stroke:#000000; stroke-width:0; stroke-opacity:1; 
stroke-linecap:round; stroke-linejoin:round;">
<polyline style="fill-rule:evenodd;"
points="55205,32775
55205,32224
54654,32224
54654,32775
55205,32775
" /> 
<circle cx="52961.5" cy="32500" r="275.591" /> 
</g>
<g style="fill:#000000; fill-opacity:1.0; 
stroke:#000000; stroke-width:39.3701; stroke-opacity:1; 
stroke-linecap:round; stroke-linejoin:round;">
</g>
<g style="fill:#000000; fill-opacity:1.0; 
stroke:#000000; stroke-width:0; stroke-opacity:1; 
stroke-linecap:round; stroke-linejoin:round;">
<polyline style="fill-rule:evenodd;"
points="46655,30775
47205,30775
47205,30225
46655,30225
46655,30775
" /> 
<circle cx="46930" cy="25500" r="275" /> 
</g>
<g style="fill:#000000; fill-opacity:1.0; 
stroke:#000000; stroke-width:39.3701; stroke-opacity:1; 
stroke-linecap:round; stroke-linejoin:round;">
</g>
<g style="fill:#000000; fill-opacity:1.0; 
stroke:#000000; stroke-width:0; stroke-opacity:1; 
stroke-linecap:round; stroke-linejoin:round;">
<polyline style="fill-rule:evenodd;"
points="57205,25225
56655,25225
56655,25775
57205,25775
57205,25225
" /> 
<circle cx="56930" cy="30500" r="275" /> 
</g>
<g style="fill:#000000; fill-opacity:1.0; 
stroke:#000000; stroke-width:39.3701; stroke-opacity:1; 
stroke-linecap:round; stroke-linejoin:round;">
</g>
<g style="fill:#000000; fill-opacity:1.0; 
stroke:#000000; stroke-width:0; stroke-opacity:1; 
stroke-linecap:round; stroke-linejoin:round;">
<circle cx="47532.7" cy="36630.7" r="118.11" /> 
</g>
<g style="fill:#000000; fill-opacity:1.0; 
stroke:#000000; stroke-width:39.3701; stroke-opacity:1; 
stroke-linecap:round; stroke-linejoin:round;">
</g>
<g style="fill:#000000; fill-opacity:1.0; 
stroke:#000000; stroke-width:0; stroke-opacity:1; 
stroke-linecap:round; stroke-linejoin:round;">
<circle cx="35106.8" cy="31709.5" r="118.11" /> 
</g>
<g style="fill:#000000; fill-opacity:1.0; 
stroke:#000000; stroke-width:39.3701; stroke-opacity:1; 
stroke-linecap:round; stroke-linejoin:round;">
</g>
<g style="fill:#000000; fill-opacity:1.0; 
stroke:#000000; stroke-width:0; stroke-opacity:1; 
stroke-linecap:round; stroke-linejoin:round;">
<circle cx="40296.9" cy="30936.7" r="118.11" /> 
</g>
<g style="fill:#000000; fill-opacity:1.0; 
stroke:#000000; stroke-width:39.3701; stroke-opacity:1; 
stroke-linecap:round; stroke-linejoin:round;">
</g>
<g style="fill:#000000; fill-opacity:1.0; 
stroke:#000000; stroke-width:0; stroke-opacity:1; 
stroke-linecap:round; stroke-linejoin:round;">
<circle cx="35398.5" cy="35551.1" r="118.11" /> 
</g>
<g style="fill:#000000; fill-opacity:1.0; 
stroke:#000000; stroke-width:39.3701; stroke-opacity:1; 
stroke-linecap:round; stroke-linejoin:round;">
</g>
<g style="fill:#000000; fill-opacity:1.0; 
stroke:#000000; stroke-width:177.165; stroke-opacity:1; 
stroke-linecap:round; stroke-linejoin:round;">
</g>
<g style="fill:#000000; fill-opacity:0.0; 
stroke:#000000; stroke-width:177.165; stroke-opacity:1; 
stroke-linecap:round; stroke-linejoin:round;">
<path d="M32930 32500
L32930 31500
" />
<path d="M32930 34500
L32930 35500
" />
<path d="M42465 40340
L42465 39593
" />
<path d="M43930 32281
L43711 32500
" />
<path d="M43930 30500
L43930 32281
" />
<path d="M32930 34500
L32930 33500
" />
<path d="M32930 33500
L32930 32500
" />
<path d="M57586 37843
L56930 38500
" />
<path d="M57586 34063
L57586 37843
" />
<path d="M56023 32500
L57586 34063
" />
<path d="M54930 32500
L56023 32500
" />
<path d="M56930 25500
L56930 26021
" />
<path d="M56930 26021
L53930 29021
" />
<path d="M53930 29021
L53930 30500
" />
<path d="M46930 25500
L46930 26586
" />
<path d="M43951 29564
L46930 26586
" />
<path d="M43930 29564
L43951 29564
" />
<path d="M51495 26586
L53930 29021
" />
<path d="M46930 26586
L51495 26586
" />
<path d="M43930 30500
L43930 29564
" />
<path d="M43711 36630
L47532 36630
" />
<path d="M43711 38347
L42465 39593
" />
<path d="M43711 36630
L43711 38347
" />
<path d="M33525 36095
L32930 35500
" />
<path d="M34329 36095
L33525 36095
" />
<path d="M35253 35171
L34329 36095
" />
<path d="M43711 35171
L35253 35171
" />
<path d="M43711 32500
L43711 35171
" />
<path d="M43711 35171
L43711 36630
" />
<path d="M33465 21340
L33465 22086
" />
<path d="M34523 31709
L35106 31709
" />
<path d="M34523 23145
L34523 31709
" />
<path d="M33465 22086
L34523 23145
" />
<path d="M34523 31906
L33930 32500
" />
<path d="M34523 31709
L34523 31906
" />
<path d="M37516 30500
L34516 33500
" />
<path d="M42930 30500
L37516 30500
" />
<path d="M33930 33500
L34516 33500
" />
<path d="M38079 30936
L34516 34500
" />
<path d="M40296 30936
L38079 30936
" />
<path d="M33930 34500
L34516 34500
" />
<path d="M45136 31435
L44930 31435
" />
<path d="M45680 31978
L45136 31435
" />
<path d="M45680 32500
L45680 31978
" />
<path d="M44930 30500
L44930 31435
" />
<path d="M52930 32468
L52961 32500
" />
<path d="M52930 30500
L52930 32468
" />
<path d="M55961 35500
L56930 35500
" />
<path d="M52961 32500
L55961 35500
" />
<path d="M35398 37660
L35398 35551
" />
<path d="M33465 39593
L35398 37660
" />
<path d="M33465 40340
L33465 39593
" />
</g>
<g style="fill:#000000; fill-opacity:1.0; 
stroke:#000000; stroke-width:100; stroke-opacity:1; 
stroke-linecap:round; stroke-linejoin:round;">
<polyline style="fill-rule:evenodd;"
points="53397,20715
53565,21120
53565,21558
53398,21962
53089,22272
52684,22440
52247,22440
51842,22273
51532,21964
51364,21560
51364,21122
51531,20717
51653,20595
49378,20595
49507,20681
49643,20884
49690,21123
49690,21556
49643,21795
49507,21998
49304,22134
49065,22181
48825,22134
48622,21998
48565,21912
48507,21998
48304,22134
48065,22181
47825,22134
47622,21998
47565,21912
47507,21998
47304,22134
47065,22181
46825,22134
46622,21998
46565,21912
46507,21998
46304,22134
46065,22181
45825,22134
45622,21998
45565,21912
45507,21998
45304,22134
45065,22181
44825,22134
44622,21998
44565,21912
44507,21998
44304,22134
44065,22181
43825,22134
43622,21998
43565,21912
43507,21998
43304,22134
43065,22181
42825,22134
42622,21998
42565,21912
42507,21998
42304,22134
42065,22181
41825,22134
41622,21998
41487,21795
41439,21556
41439,21123
41487,20884
41622,20681
41751,20595
40778,20595
40907,20681
41043,20884
41090,21123
41090,21556
41043,21795
40907,21998
40704,22134
40465,22181
40225,22134
40022,21998
39965,21912
39907,21998
39704,22134
39465,22181
39225,22134
39022,21998
38965,21912
38907,21998
38704,22134
38465,22181
38225,22134
38022,21998
37965,21912
37907,21998
37704,22134
37465,22181
37225,22134
37022,21998
36965,21912
36907,21998
36704,22134
36465,22181
36225,22134
36022,21998
35965,21912
35907,21998
35704,22134
35465,22181
35225,22134
35022,21998
34965,21912
34907,21998
34704,22134
34465,22181
34225,22134
34022,21998
33965,21912
33929,21965
34816,22852
34906,22986
34937,23145
34937,31295
34947,31295
35018,31265
35194,31265
35357,31333
35482,31457
35550,31620
35550,31797
35492,31938
37223,30207
37357,30117
37516,30085
42277,30085
42320,29873
42463,29658
42677,29515
42930,29465
43182,29515
43396,29658
43481,29785
43552,29696
43752,29586
43789,29578
43880,29625
43880,30450
43872,30450
43872,30550
43880,30550
43880,31374
43789,31421
43752,31413
43552,31303
43481,31214
43396,31341
43182,31484
42930,31534
42677,31484
42463,31341
42320,31126
42277,30914
40740,30914
40740,31024
40673,31187
40548,31312
40385,31380
40209,31380
40137,31350
38251,31350
34809,34792
34738,34840
34674,34882
34516,34914
34451,34914
34413,34970
34369,35000
34413,35029
34557,35245
34608,35500
34557,35754
34413,35970
34197,36114
33943,36165
33916,36165
33662,36114
33446,35970
33377,35867
33279,35975
33071,36072
32980,36025
32980,35550
32880,35550
32880,36025
32788,36072
32580,35975
32425,35805
32357,35641
32404,35550
32880,35550
32980,35550
32987,35550
32987,35450
32980,35450
32980,34550
32880,34550
32880,35450
32404,35450
32357,35358
32425,35194
32580,35024
32633,35000
32580,34975
32425,34805
32357,34641
32404,34550
32880,34550
32980,34550
32987,34550
32987,34450
32980,34450
32980,33550
32880,33550
32880,34450
32404,34450
32357,34358
32425,34194
32580,34024
32633,34000
32580,33975
32425,33805
32357,33641
32404,33550
32880,33550
32980,33550
32987,33550
32987,33450
32980,33450
32980,32550
32880,32550
32880,33450
32404,33450
32357,33358
32425,33194
32580,33024
32633,33000
32580,32975
32425,32805
32357,32641
32404,32550
32880,32550
32980,32550
32987,32550
32987,32450
32980,32450
32980,31550
32880,31550
32880,32450
32404,32450
32357,32358
32425,32194
32580,32024
32633,32000
32580,31975
32425,31805
32357,31641
32404,31550
32880,31550
32980,31550
32987,31550
32987,31450
32980,31450
32980,31442
32880,31442
32880,31450
32404,31450
32357,31358
32425,31194
32560,31046
32446,30970
32302,30754
32251,30500
32302,30245
32446,30029
32662,29885
32916,29834
32943,29834
33197,29885
33325,29970
33352,29928
33460,29854
33590,29828
34109,29828
34109,27558
33565,27558
33398,27962
33089,28272
32684,28440
32247,28440
31842,28273
31532,27964
31364,27560
31364,27122
31531,26717
31840,26407
32245,26239
32683,26239
33087,26406
33397,26715
33565,27120
33565,27558
34109,27558
34109,23316
33172,22379
33100,22272
33082,22244
33050,22086
33050,22017
33022,21998
32887,21795
32839,21556
32839,21123
32887,20884
33022,20681
33151,20595
31275,20595
31275,41154
33328,41154
33225,41134
33022,40998
32887,40795
32839,40556
32839,40123
32887,39884
33022,39681
33050,39662
33050,39593
33082,39435
33172,39301
33915,38558
33565,38558
33398,38962
33089,39272
32684,39440
32247,39440
31842,39273
31532,38964
31364,38560
31364,38122
31531,37717
31840,37407
32245,37239
32683,37239
33087,37406
33397,37715
33565,38120
33565,38558
33915,38558
34984,37488
34984,35710
34954,35639
34954,35463
35022,35300
35146,35175
35309,35107
35486,35107
35649,35174
35774,35299
35842,35462
35842,35638
35812,35710
35812,37660
35781,37819
35691,37953
33929,39715
33965,39767
34022,39681
34225,39546
34465,39498
34704,39546
34907,39681
34965,39767
35022,39681
35225,39546
35465,39498
35704,39546
35907,39681
35965,39767
36022,39681
36225,39546
36465,39498
36704,39546
36907,39681
36965,39767
37022,39681
37225,39546
37465,39498
37704,39546
37907,39681
37965,39767
38022,39681
38225,39546
38465,39498
38704,39546
38907,39681
39043,39884
39090,40123
39090,40556
39043,40795
38907,40998
38704,41134
38601,41154
40328,41154
40225,41134
40022,40998
39887,40795
39839,40556
39839,40123
39887,39884
40022,39681
40225,39546
40465,39498
40704,39546
40907,39681
40965,39767
41022,39681
41225,39546
41465,39498
41704,39546
41907,39681
42012,39838
42111,39715
42300,39612
42329,39607
42415,39655
42415,40290
42407,40290
42407,40390
42415,40390
42415,41025
42329,41073
42300,41067
42111,40964
42012,40841
41907,40998
41704,41134
41601,41154
43328,41154
43225,41134
43022,40998
42917,40841
42818,40964
42629,41067
42600,41073
42515,41025
42515,40390
42522,40390
42522,40290
42515,40290
42515,39655
42600,39607
42629,39612
42818,39715
42917,39838
43022,39681
43225,39546
43465,39498
43704,39546
43907,39681
43965,39767
44022,39681
44225,39546
44465,39498
44704,39546
44907,39681
44965,39767
45022,39681
45225,39546
45465,39498
45704,39546
45907,39681
46043,39884
46090,40123
46090,40556
46043,40795
45907,40998
45704,41134
45601,41154
52223,41154
52032,40964
51864,40560
51864,40122
52031,39717
52340,39407
52745,39239
53183,39239
53587,39406
53897,39715
54065,40120
54065,40558
53898,40962
53707,41154
58334,41154
58334,39641
57562,39641
57561,39647
57461,39855
57289,40008
57072,40084
56980,40027
56980,39550
56880,39550
56880,40027
56787,40084
56570,40008
56398,39855
56298,39647
56297,39641
56344,39550
56880,39550
56980,39550
57515,39550
57562,39641
58334,39641
58334,38641
57562,38641
57561,38647
57461,38855
57299,39000
57461,39144
57561,39352
57562,39358
57515,39450
56980,39450
56980,38550
56880,38550
56880,39450
56344,39450
56297,39358
56298,39352
56398,39144
56560,39000
56398,38855
56298,38647
56297,38641
56344,38550
56880,38550
56980,38550
57515,38550
57562,38641
58334,38641
58334,35500
57669,35500
57619,35754
57474,35970
57430,36000
57474,36029
57619,36245
57669,36500
57619,36754
57474,36970
57430,37000
57474,37029
57619,37245
57669,37500
57619,37754
57474,37970
57355,38050
57461,38144
57561,38352
57562,38358
57515,38450
56980,38450
56980,38442
56880,38442
56880,38450
56344,38450
56297,38358
56298,38352
56398,38144
56504,38050
56385,37970
56240,37754
56190,37500
56240,37245
56385,37029
56429,37000
56385,36970
56240,36754
56190,36500
56240,36245
56385,36029
56429,36000
56385,35970
56347,35914
55961,35914
55802,35882
55668,35792
52976,33101
52842,33101
52621,33009
52452,32840
52360,32620
52360,32380
52424,32224
46287,32224
46287,32775
46264,32896
46193,33007
46084,33081
45955,33107
45404,33107
45283,33084
45172,33013
45098,32904
45091,32868
44009,32868
43984,32961
43787,33030
43578,33019
43438,32961
43413,32868
43711,32570
44009,32868
45091,32868
45072,32775
45072,32424
44241,32424
44230,32632
44172,32773
44079,32797
43782,32500
43640,32500
43343,32797
43250,32773
43181,32575
43192,32367
43250,32226
43343,32202
43640,32500
43782,32500
44079,32202
44172,32226
44241,32424
45072,32424
45072,32224
45089,32131
44009,32131
43711,32429
43413,32131
43438,32038
43635,31969
43844,31980
43984,32038
44009,32131
45089,32131
45095,32103
45143,32027
44965,31849
44930,31849
44771,31817
44637,31728
44547,31593
44515,31435
44515,31376
44463,31341
44378,31214
44307,31303
44107,31413
44070,31421
43980,31374
43980,30550
43987,30550
43987,30450
43980,30450
43980,29625
44070,29578
44107,29586
44307,29696
44378,29785
44463,29658
44677,29515
44930,29465
45182,29515
45396,29658
45539,29873
45590,30125
45590,30874
45539,31126
45489,31202
45972,31685
46062,31819
46082,31919
46187,31986
46261,32095
46287,32224
52424,32224
52451,32159
52515,32095
52515,31376
52463,31341
52320,31126
52269,30874
52269,30225
47536,30225
47536,30775
47514,30895
47442,31006
47334,31080
47205,31106
46655,31106
46534,31084
46423,31012
46349,30904
46323,30775
46323,30225
46345,30104
46417,29993
46525,29919
46655,29893
47205,29893
47325,29915
47436,29987
47510,30095
47536,30225
52269,30225
52269,30125
52320,29873
52463,29658
52677,29515
52930,29465
53182,29515
53396,29658
53481,29785
53552,29696
53752,29586
53789,29578
53880,29625
53880,30450
53872,30450
53872,30550
53880,30550
53880,31374
53789,31421
53752,31413
53552,31303
53481,31214
53396,31341
53344,31376
53344,32032
53470,32159
53562,32379
53562,32515
56133,35085
56310,35085
56298,35077
56224,34969
56198,34840
56198,34160
56220,34039
56292,33928
56400,33854
56530,33828
57330,33828
57450,33850
57561,33922
57635,34030
57661,34160
57661,34840
57639,34960
57567,35071
57523,35101
57619,35245
57669,35500
58334,35500
58334,32612
55455,32612
55455,32825
55417,32917
55347,32987
55255,33025
55042,33025
54980,32963
54980,32550
54880,32550
54880,32963
54817,33025
54604,33025
54512,32987
54442,32917
54404,32825
54404,32612
54466,32550
54880,32550
54980,32550
55393,32550
55455,32612
58334,32612
58334,32174
55455,32174
55455,32387
55393,32450
54980,32450
54980,32036
54880,32036
54880,32450
54466,32450
54404,32387
54404,32174
54442,32082
54512,32012
54604,31974
54817,31974
54880,32036
54980,32036
55042,31974
55255,31974
55347,32012
55417,32082
55455,32174
58334,32174
58334,30618
57530,30618
57439,30839
57270,31008
57049,31100
56811,31100
56590,31009
56421,30840
56329,30619
56329,30381
56420,30160
56455,30125
55590,30125
55590,30874
55539,31126
55396,31341
55182,31484
54930,31534
54677,31484
54463,31341
54378,31214
54307,31303
54107,31413
54070,31421
53980,31374
53980,30550
53987,30550
53987,30450
53980,30450
53980,29625
54070,29578
54107,29586
54307,29696
54378,29785
54463,29658
54677,29515
54930,29465
55182,29515
55396,29658
55539,29873
55590,30125
56455,30125
56589,29991
56810,29899
57048,29899
57269,29990
57438,30159
57530,30380
57530,30618
58334,30618
58334,25612
57455,25612
57455,25824
57416,25916
57346,25986
57254,26025
57042,26025
56980,25962
56980,25550
56880,25550
56880,25962
56817,26025
56605,26025
56513,25986
56443,25916
56422,25867
47227,25867
47202,25960
47005,26029
46797,26018
46657,25960
46632,25867
46930,25570
47227,25867
56422,25867
56405,25824
56405,25612
56467,25550
56880,25550
56980,25550
57392,25550
57455,25612
58334,25612
58334,25175
57455,25175
57455,25387
57392,25450
56980,25450
56980,25037
56880,25037
56880,25450
56467,25450
56441,25424
47459,25424
47448,25632
47390,25772
47297,25797
47000,25500
46859,25500
46562,25797
46469,25772
46400,25575
46411,25367
46469,25227
46562,25202
46859,25500
47000,25500
47297,25202
47390,25227
47459,25424
56441,25424
56405,25387
56405,25175
56422,25132
47227,25132
46930,25429
46632,25132
46657,25039
46854,24970
47062,24981
47202,25039
47227,25132
56422,25132
56443,25083
56513,25013
56605,24975
56817,24975
56880,25037
56980,25037
57042,24975
57254,24975
57346,25013
57416,25083
57455,25175
58334,25175
58334,24112
55003,24112
54840,24507
54538,24809
54144,24973
53717,24973
53322,24810
53020,24508
52856,24114
52856,24112
45003,24112
44840,24507
44538,24809
44144,24973
43717,24973
43322,24810
43020,24508
42856,24114
42856,23687
43019,23292
43321,22990
43715,22826
44142,22826
44537,22989
44839,23291
45003,23685
45003,24112
52856,24112
52856,23687
53019,23292
53321,22990
53715,22826
54142,22826
54537,22989
54839,23291
55003,23685
55003,24112
58334,24112
58334,20595
53276,20595
53397,20715
" /> 
</g>
<g style="fill:#FFFFFF; fill-opacity:1.0; 
stroke:#FFFFFF; stroke-width:100; stroke-opacity:1; 
stroke-linecap:round; stroke-linejoin:round;">
</g>
<g style="fill:#FFFFFF; fill-opacity:1.0; 
stroke:#FFFFFF; stroke-width:0; stroke-opacity:1; 
stroke-linecap:round; stroke-linejoin:round;">
<circle cx="47532.7" cy="36630.7" r="78.7402" /> 
</g>
<g style="fill:#FFFFFF; fill-opacity:1.0; 
stroke:#FFFFFF; stroke-width:39.3701; stroke-opacity:1; 
stroke-linecap:round; stroke-linejoin:round;">
</g>
<g style="fill:#FFFFFF; fill-opacity:1.0; 
stroke:#FFFFFF; stroke-width:0; stroke-opacity:1; 
stroke-linecap:round; stroke-linejoin:round;">
<circle cx="35106.8" cy="31709.5" r="78.7402" /> 
</g>
<g style="fill:#FFFFFF; fill-opacity:1.0; 
stroke:#FFFFFF; stroke-width:39.3701; stroke-opacity:1; 
stroke-linecap:round; stroke-linejoin:round;">
</g>
<g style="fill:#FFFFFF; fill-opacity:1.0; 
stroke:#FFFFFF; stroke-width:0; stroke-opacity:1; 
stroke-linecap:round; stroke-linejoin:round;">
<circle cx="40296.9" cy="30936.7" r="78.7402" /> 
</g>
<g style="fill:#FFFFFF; fill-opacity:1.0; 
stroke:#FFFFFF; stroke-width:39.3701; stroke-opacity:1; 
stroke-linecap:round; stroke-linejoin:round;">
</g>
<g style="fill:#FFFFFF; fill-opacity:1.0; 
stroke:#FFFFFF; stroke-width:0; stroke-opacity:1; 
stroke-linecap:round; stroke-linejoin:round;">
<circle cx="35398.5" cy="35551.1" r="78.7402" /> 
</g>
<g style="fill:#FFFFFF; fill-opacity:1.0; 
stroke:#FFFFFF; stroke-width:39.3701; stroke-opacity:1; 
stroke-linecap:round; stroke-linejoin:round;">
</g>
<g style="fill:#FFFFFF; fill-opacity:1.0; 
stroke:#FFFFFF; stroke-width:0; stroke-opacity:1; 
stroke-linecap:round; stroke-linejoin:round;">
<circle cx="33465" cy="40340.2" r="160" /> 
</g>
<g style="fill:#FFFFFF; fill-opacity:1.0; 
stroke:#FFFFFF; stroke-width:39.3701; stroke-opacity:1; 
stroke-linecap:round; stroke-linejoin:round;">
</g>
<g style="fill:#FFFFFF; fill-opacity:1.0; 
stroke:#FFFFFF; stroke-width:0; stroke-opacity:1; 
stroke-linecap:round; stroke-linejoin:round;">
<circle cx="34465" cy="40340.2" r="160" /> 
</g>
<g style="fill:#FFFFFF; fill-opacity:1.0; 
stroke:#FFFFFF; stroke-width:39.3701; stroke-opacity:1; 
stroke-linecap:round; stroke-linejoin:round;">
</g>
<g style="fill:#FFFFFF; fill-opacity:1.0; 
stroke:#FFFFFF; stroke-width:0; stroke-opacity:1; 
stroke-linecap:round; stroke-linejoin:round;">
<circle cx="35465" cy="40340.2" r="160" /> 
</g>
<g style="fill:#FFFFFF; fill-opacity:1.0; 
stroke:#FFFFFF; stroke-width:39.3701; stroke-opacity:1; 
stroke-linecap:round; stroke-linejoin:round;">
</g>
<g style="fill:#FFFFFF; fill-opacity:1.0; 
stroke:#FFFFFF; stroke-width:0; stroke-opacity:1; 
stroke-linecap:round; stroke-linejoin:round;">
<circle cx="38465" cy="40340.2" r="160" /> 
</g>
<g style="fill:#FFFFFF; fill-opacity:1.0; 
stroke:#FFFFFF; stroke-width:39.3701; stroke-opacity:1; 
stroke-linecap:round; stroke-linejoin:round;">
</g>
<g style="fill:#FFFFFF; fill-opacity:1.0; 
stroke:#FFFFFF; stroke-width:0; stroke-opacity:1; 
stroke-linecap:round; stroke-linejoin:round;">
<circle cx="37465" cy="40340.2" r="160" /> 
</g>
<g style="fill:#FFFFFF; fill-opacity:1.0; 
stroke:#FFFFFF; stroke-width:39.3701; stroke-opacity:1; 
stroke-linecap:round; stroke-linejoin:round;">
</g>
<g style="fill:#FFFFFF; fill-opacity:1.0; 
stroke:#FFFFFF; stroke-width:0; stroke-opacity:1; 
stroke-linecap:round; stroke-linejoin:round;">
<circle cx="36465" cy="40340.2" r="160" /> 
</g>
<g style="fill:#FFFFFF; fill-opacity:1.0; 
stroke:#FFFFFF; stroke-width:39.3701; stroke-opacity:1; 
stroke-linecap:round; stroke-linejoin:round;">
</g>
<g style="fill:#FFFFFF; fill-opacity:1.0; 
stroke:#FFFFFF; stroke-width:0; stroke-opacity:1; 
stroke-linecap:round; stroke-linejoin:round;">
<circle cx="40465" cy="40340.2" r="160" /> 
</g>
<g style="fill:#FFFFFF; fill-opacity:1.0; 
stroke:#FFFFFF; stroke-width:39.3701; stroke-opacity:1; 
stroke-linecap:round; stroke-linejoin:round;">
</g>
<g style="fill:#FFFFFF; fill-opacity:1.0; 
stroke:#FFFFFF; stroke-width:0; stroke-opacity:1; 
stroke-linecap:round; stroke-linejoin:round;">
<circle cx="41465" cy="40340.2" r="160" /> 
</g>
<g style="fill:#FFFFFF; fill-opacity:1.0; 
stroke:#FFFFFF; stroke-width:39.3701; stroke-opacity:1; 
stroke-linecap:round; stroke-linejoin:round;">
</g>
<g style="fill:#FFFFFF; fill-opacity:1.0; 
stroke:#FFFFFF; stroke-width:0; stroke-opacity:1; 
stroke-linecap:round; stroke-linejoin:round;">
<circle cx="42465" cy="40340.2" r="160" /> 
</g>
<g style="fill:#FFFFFF; fill-opacity:1.0; 
stroke:#FFFFFF; stroke-width:39.3701; stroke-opacity:1; 
stroke-linecap:round; stroke-linejoin:round;">
</g>
<g style="fill:#FFFFFF; fill-opacity:1.0; 
stroke:#FFFFFF; stroke-width:0; stroke-opacity:1; 
stroke-linecap:round; stroke-linejoin:round;">
<circle cx="44465" cy="40340.2" r="160" /> 
</g>
<g style="fill:#FFFFFF; fill-opacity:1.0; 
stroke:#FFFFFF; stroke-width:39.3701; stroke-opacity:1; 
stroke-linecap:round; stroke-linejoin:round;">
</g>
<g style="fill:#FFFFFF; fill-opacity:1.0; 
stroke:#FFFFFF; stroke-width:0; stroke-opacity:1; 
stroke-linecap:round; stroke-linejoin:round;">
<circle cx="45465" cy="40340.2" r="160" /> 
</g>
<g style="fill:#FFFFFF; fill-opacity:1.0; 
stroke:#FFFFFF; stroke-width:39.3701; stroke-opacity:1; 
stroke-linecap:round; stroke-linejoin:round;">
</g>
<g style="fill:#FFFFFF; fill-opacity:1.0; 
stroke:#FFFFFF; stroke-width:0; stroke-opacity:1; 
stroke-linecap:round; stroke-linejoin:round;">
<circle cx="33465" cy="21340.2" r="160" /> 
</g>
<g style="fill:#FFFFFF; fill-opacity:1.0; 
stroke:#FFFFFF; stroke-width:39.3701; stroke-opacity:1; 
stroke-linecap:round; stroke-linejoin:round;">
</g>
<g style="fill:#FFFFFF; fill-opacity:1.0; 
stroke:#FFFFFF; stroke-width:0; stroke-opacity:1; 
stroke-linecap:round; stroke-linejoin:round;">
<circle cx="34465" cy="21340.2" r="160" /> 
</g>
<g style="fill:#FFFFFF; fill-opacity:1.0; 
stroke:#FFFFFF; stroke-width:39.3701; stroke-opacity:1; 
stroke-linecap:round; stroke-linejoin:round;">
</g>
<g style="fill:#FFFFFF; fill-opacity:1.0; 
stroke:#FFFFFF; stroke-width:0; stroke-opacity:1; 
stroke-linecap:round; stroke-linejoin:round;">
<circle cx="35465" cy="21340.2" r="160" /> 
</g>
<g style="fill:#FFFFFF; fill-opacity:1.0; 
stroke:#FFFFFF; stroke-width:39.3701; stroke-opacity:1; 
stroke-linecap:round; stroke-linejoin:round;">
</g>
<g style="fill:#FFFFFF; fill-opacity:1.0; 
stroke:#FFFFFF; stroke-width:0; stroke-opacity:1; 
stroke-linecap:round; stroke-linejoin:round;">
<circle cx="36465" cy="21340.2" r="160" /> 
</g>
<g style="fill:#FFFFFF; fill-opacity:1.0; 
stroke:#FFFFFF; stroke-width:39.3701; stroke-opacity:1; 
stroke-linecap:round; stroke-linejoin:round;">
</g>
<g style="fill:#FFFFFF; fill-opacity:1.0; 
stroke:#FFFFFF; stroke-width:0; stroke-opacity:1; 
stroke-linecap:round; stroke-linejoin:round;">
<circle cx="37465" cy="21340.2" r="160" /> 
</g>
<g style="fill:#FFFFFF; fill-opacity:1.0; 
stroke:#FFFFFF; stroke-width:39.3701; stroke-opacity:1; 
stroke-linecap:round; stroke-linejoin:round;">
</g>
<g style="fill:#FFFFFF; fill-opacity:1.0; 
stroke:#FFFFFF; stroke-width:0; stroke-opacity:1; 
stroke-linecap:round; stroke-linejoin:round;">
<circle cx="38465" cy="21340.2" r="160" /> 
</g>
<g style="fill:#FFFFFF; fill-opacity:1.0; 
stroke:#FFFFFF; stroke-width:39.3701; stroke-opacity:1; 
stroke-linecap:round; stroke-linejoin:round;">
</g>
<g style="fill:#FFFFFF; fill-opacity:1.0; 
stroke:#FFFFFF; stroke-width:0; stroke-opacity:1; 
stroke-linecap:round; stroke-linejoin:round;">
<circle cx="39465" cy="21340.2" r="160" /> 
</g>
<g style="fill:#FFFFFF; fill-opacity:1.0; 
stroke:#FFFFFF; stroke-width:39.3701; stroke-opacity:1; 
stroke-linecap:round; stroke-linejoin:round;">
</g>
<g style="fill:#FFFFFF; fill-opacity:1.0; 
stroke:#FFFFFF; stroke-width:0; stroke-opacity:1; 
stroke-linecap:round; stroke-linejoin:round;">
<circle cx="40465" cy="21340.2" r="160" /> 
</g>
<g style="fill:#FFFFFF; fill-opacity:1.0; 
stroke:#FFFFFF; stroke-width:39.3701; stroke-opacity:1; 
stroke-linecap:round; stroke-linejoin:round;">
</g>
<g style="fill:#FFFFFF; fill-opacity:1.0; 
stroke:#FFFFFF; stroke-width:0; stroke-opacity:1; 
stroke-linecap:round; stroke-linejoin:round;">
<circle cx="42065" cy="21340.2" r="160" /> 
</g>
<g style="fill:#FFFFFF; fill-opacity:1.0; 
stroke:#FFFFFF; stroke-width:39.3701; stroke-opacity:1; 
stroke-linecap:round; stroke-linejoin:round;">
</g>
<g style="fill:#FFFFFF; fill-opacity:1.0; 
stroke:#FFFFFF; stroke-width:0; stroke-opacity:1; 
stroke-linecap:round; stroke-linejoin:round;">
<circle cx="43065" cy="21340.2" r="160" /> 
</g>
<g style="fill:#FFFFFF; fill-opacity:1.0; 
stroke:#FFFFFF; stroke-width:39.3701; stroke-opacity:1; 
stroke-linecap:round; stroke-linejoin:round;">
</g>
<g style="fill:#FFFFFF; fill-opacity:1.0; 
stroke:#FFFFFF; stroke-width:0; stroke-opacity:1; 
stroke-linecap:round; stroke-linejoin:round;">
<circle cx="44065" cy="21340.2" r="160" /> 
</g>
<g style="fill:#FFFFFF; fill-opacity:1.0; 
stroke:#FFFFFF; stroke-width:39.3701; stroke-opacity:1; 
stroke-linecap:round; stroke-linejoin:round;">
</g>
<g style="fill:#FFFFFF; fill-opacity:1.0; 
stroke:#FFFFFF; stroke-width:0; stroke-opacity:1; 
stroke-linecap:round; stroke-linejoin:round;">
<circle cx="45065" cy="21340.2" r="160" /> 
</g>
<g style="fill:#FFFFFF; fill-opacity:1.0; 
stroke:#FFFFFF; stroke-width:39.3701; stroke-opacity:1; 
stroke-linecap:round; stroke-linejoin:round;">
</g>
<g style="fill:#FFFFFF; fill-opacity:1.0; 
stroke:#FFFFFF; stroke-width:0; stroke-opacity:1; 
stroke-linecap:round; stroke-linejoin:round;">
<circle cx="46065" cy="21340.2" r="160" /> 
</g>
<g style="fill:#FFFFFF; fill-opacity:1.0; 
stroke:#FFFFFF; stroke-width:39.3701; stroke-opacity:1; 
stroke-linecap:round; stroke-linejoin:round;">
</g>
<g style="fill:#FFFFFF; fill-opacity:1.0; 
stroke:#FFFFFF; stroke-width:0; stroke-opacity:1; 
stroke-linecap:round; stroke-linejoin:round;">
<circle cx="47065" cy="21340.2" r="160" /> 
</g>
<g style="fill:#FFFFFF; fill-opacity:1.0; 
stroke:#FFFFFF; stroke-width:39.3701; stroke-opacity:1; 
stroke-linecap:round; stroke-linejoin:round;">
</g>
<g style="fill:#FFFFFF; fill-opacity:1.0; 
stroke:#FFFFFF; stroke-width:0; stroke-opacity:1; 
stroke-linecap:round; stroke-linejoin:round;">
<circle cx="48065" cy="21340.2" r="160" /> 
</g>
<g style="fill:#FFFFFF; fill-opacity:1.0; 
stroke:#FFFFFF; stroke-width:39.3701; stroke-opacity:1; 
stroke-linecap:round; stroke-linejoin:round;">
</g>
<g style="fill:#FFFFFF; fill-opacity:1.0; 
stroke:#FFFFFF; stroke-width:0; stroke-opacity:1; 
stroke-linecap:round; stroke-linejoin:round;">
<circle cx="49065" cy="21340.2" r="160" /> 
</g>
<g style="fill:#FFFFFF; fill-opacity:1.0; 
stroke:#FFFFFF; stroke-width:39.3701; stroke-opacity:1; 
stroke-linecap:round; stroke-linejoin:round;">
</g>
<g style="fill:#FFFFFF; fill-opacity:1.0; 
stroke:#FFFFFF; stroke-width:0; stroke-opacity:1; 
stroke-linecap:round; stroke-linejoin:round;">
<circle cx="43465" cy="40340.2" r="160" /> 
</g>
<g style="fill:#FFFFFF; fill-opacity:1.0; 
stroke:#FFFFFF; stroke-width:39.3701; stroke-opacity:1; 
stroke-linecap:round; stroke-linejoin:round;">
</g>
<g style="fill:#FFFFFF; fill-opacity:1.0; 
stroke:#FFFFFF; stroke-width:0; stroke-opacity:1; 
stroke-linecap:round; stroke-linejoin:round;">
<circle cx="32465" cy="38340.2" r="625" /> 
</g>
<g style="fill:#FFFFFF; fill-opacity:1.0; 
stroke:#FFFFFF; stroke-width:39.3701; stroke-opacity:1; 
stroke-linecap:round; stroke-linejoin:round;">
</g>
<g style="fill:#FFFFFF; fill-opacity:1.0; 
stroke:#FFFFFF; stroke-width:0; stroke-opacity:1; 
stroke-linecap:round; stroke-linejoin:round;">
<circle cx="32465" cy="27340.2" r="625" /> 
</g>
<g style="fill:#FFFFFF; fill-opacity:1.0; 
stroke:#FFFFFF; stroke-width:39.3701; stroke-opacity:1; 
stroke-linecap:round; stroke-linejoin:round;">
</g>
<g style="fill:#FFFFFF; fill-opacity:1.0; 
stroke:#FFFFFF; stroke-width:0; stroke-opacity:1; 
stroke-linecap:round; stroke-linejoin:round;">
<circle cx="52465" cy="21340.2" r="625" /> 
</g>
<g style="fill:#FFFFFF; fill-opacity:1.0; 
stroke:#FFFFFF; stroke-width:39.3701; stroke-opacity:1; 
stroke-linecap:round; stroke-linejoin:round;">
</g>
<g style="fill:#FFFFFF; fill-opacity:1.0; 
stroke:#FFFFFF; stroke-width:0; stroke-opacity:1; 
stroke-linecap:round; stroke-linejoin:round;">
<circle cx="52965" cy="40340.2" r="625" /> 
</g>
<g style="fill:#FFFFFF; fill-opacity:1.0; 
stroke:#FFFFFF; stroke-width:39.3701; stroke-opacity:1; 
stroke-linecap:round; stroke-linejoin:round;">
</g>
<g style="fill:#FFFFFF; fill-opacity:1.0; 
stroke:#FFFFFF; stroke-width:0; stroke-opacity:1; 
stroke-linecap:round; stroke-linejoin:round;">
<circle cx="33930" cy="30500" r="200" /> 
</g>
<g style="fill:#FFFFFF; fill-opacity:1.0; 
stroke:#FFFFFF; stroke-width:39.3701; stroke-opacity:1; 
stroke-linecap:round; stroke-linejoin:round;">
</g>
<g style="fill:#FFFFFF; fill-opacity:1.0; 
stroke:#FFFFFF; stroke-width:0; stroke-opacity:1; 
stroke-linecap:round; stroke-linejoin:round;">
<circle cx="32930" cy="30500" r="200" /> 
</g>
<g style="fill:#FFFFFF; fill-opacity:1.0; 
stroke:#FFFFFF; stroke-width:39.3701; stroke-opacity:1; 
stroke-linecap:round; stroke-linejoin:round;">
</g>
<g style="fill:#FFFFFF; fill-opacity:1.0; 
stroke:#FFFFFF; stroke-width:0; stroke-opacity:1; 
stroke-linecap:round; stroke-linejoin:round;">
<circle cx="33930" cy="31500" r="200" /> 
</g>
<g style="fill:#FFFFFF; fill-opacity:1.0; 
stroke:#FFFFFF; stroke-width:39.3701; stroke-opacity:1; 
stroke-linecap:round; stroke-linejoin:round;">
</g>
<g style="fill:#FFFFFF; fill-opacity:1.0; 
stroke:#FFFFFF; stroke-width:0; stroke-opacity:1; 
stroke-linecap:round; stroke-linejoin:round;">
<circle cx="32930" cy="31500" r="200" /> 
</g>
<g style="fill:#FFFFFF; fill-opacity:1.0; 
stroke:#FFFFFF; stroke-width:39.3701; stroke-opacity:1; 
stroke-linecap:round; stroke-linejoin:round;">
</g>
<g style="fill:#FFFFFF; fill-opacity:1.0; 
stroke:#FFFFFF; stroke-width:0; stroke-opacity:1; 
stroke-linecap:round; stroke-linejoin:round;">
<circle cx="33930" cy="32500" r="200" /> 
</g>
<g style="fill:#FFFFFF; fill-opacity:1.0; 
stroke:#FFFFFF; stroke-width:39.3701; stroke-opacity:1; 
stroke-linecap:round; stroke-linejoin:round;">
</g>
<g style="fill:#FFFFFF; fill-opacity:1.0; 
stroke:#FFFFFF; stroke-width:0; stroke-opacity:1; 
stroke-linecap:round; stroke-linejoin:round;">
<circle cx="32930" cy="32500" r="200" /> 
</g>
<g style="fill:#FFFFFF; fill-opacity:1.0; 
stroke:#FFFFFF; stroke-width:39.3701; stroke-opacity:1; 
stroke-linecap:round; stroke-linejoin:round;">
</g>
<g style="fill:#FFFFFF; fill-opacity:1.0; 
stroke:#FFFFFF; stroke-width:0; stroke-opacity:1; 
stroke-linecap:round; stroke-linejoin:round;">
<circle cx="33930" cy="33500" r="200" /> 
</g>
<g style="fill:#FFFFFF; fill-opacity:1.0; 
stroke:#FFFFFF; stroke-width:39.3701; stroke-opacity:1; 
stroke-linecap:round; stroke-linejoin:round;">
</g>
<g style="fill:#FFFFFF; fill-opacity:1.0; 
stroke:#FFFFFF; stroke-width:0; stroke-opacity:1; 
stroke-linecap:round; stroke-linejoin:round;">
<circle cx="32930" cy="33500" r="200" /> 
</g>
<g style="fill:#FFFFFF; fill-opacity:1.0; 
stroke:#FFFFFF; stroke-width:39.3701; stroke-opacity:1; 
stroke-linecap:round; stroke-linejoin:round;">
</g>
<g style="fill:#FFFFFF; fill-opacity:1.0; 
stroke:#FFFFFF; stroke-width:0; stroke-opacity:1; 
stroke-linecap:round; stroke-linejoin:round;">
<circle cx="33930" cy="34500" r="200" /> 
</g>
<g style="fill:#FFFFFF; fill-opacity:1.0; 
stroke:#FFFFFF; stroke-width:39.3701; stroke-opacity:1; 
stroke-linecap:round; stroke-linejoin:round;">
</g>
<g style="fill:#FFFFFF; fill-opacity:1.0; 
stroke:#FFFFFF; stroke-width:0; stroke-opacity:1; 
stroke-linecap:round; stroke-linejoin:round;">
<circle cx="32930" cy="34500" r="200" /> 
</g>
<g style="fill:#FFFFFF; fill-opacity:1.0; 
stroke:#FFFFFF; stroke-width:39.3701; stroke-opacity:1; 
stroke-linecap:round; stroke-linejoin:round;">
</g>
<g style="fill:#FFFFFF; fill-opacity:1.0; 
stroke:#FFFFFF; stroke-width:0; stroke-opacity:1; 
stroke-linecap:round; stroke-linejoin:round;">
<circle cx="33930" cy="35500" r="200" /> 
</g>
<g style="fill:#FFFFFF; fill-opacity:1.0; 
stroke:#FFFFFF; stroke-width:39.3701; stroke-opacity:1; 
stroke-linecap:round; stroke-linejoin:round;">
</g>
<g style="fill:#FFFFFF; fill-opacity:1.0; 
stroke:#FFFFFF; stroke-width:0; stroke-opacity:1; 
stroke-linecap:round; stroke-linejoin:round;">
<circle cx="32930" cy="35500" r="200" /> 
</g>
<g style="fill:#FFFFFF; fill-opacity:1.0; 
stroke:#FFFFFF; stroke-width:39.3701; stroke-opacity:1; 
stroke-linecap:round; stroke-linejoin:round;">
</g>
<g style="fill:#FFFFFF; fill-opacity:1.0; 
stroke:#FFFFFF; stroke-width:0; stroke-opacity:1; 
stroke-linecap:round; stroke-linejoin:round;">
<circle cx="56930" cy="34500" r="200" /> 
</g>
<g style="fill:#FFFFFF; fill-opacity:1.0; 
stroke:#FFFFFF; stroke-width:39.3701; stroke-opacity:1; 
stroke-linecap:round; stroke-linejoin:round;">
</g>
<g style="fill:#FFFFFF; fill-opacity:1.0; 
stroke:#FFFFFF; stroke-width:0; stroke-opacity:1; 
stroke-linecap:round; stroke-linejoin:round;">
<circle cx="56930" cy="35500" r="200" /> 
</g>
<g style="fill:#FFFFFF; fill-opacity:1.0; 
stroke:#FFFFFF; stroke-width:39.3701; stroke-opacity:1; 
stroke-linecap:round; stroke-linejoin:round;">
</g>
<g style="fill:#FFFFFF; fill-opacity:1.0; 
stroke:#FFFFFF; stroke-width:0; stroke-opacity:1; 
stroke-linecap:round; stroke-linejoin:round;">
<circle cx="56930" cy="36500" r="200" /> 
</g>
<g style="fill:#FFFFFF; fill-opacity:1.0; 
stroke:#FFFFFF; stroke-width:39.3701; stroke-opacity:1; 
stroke-linecap:round; stroke-linejoin:round;">
</g>
<g style="fill:#FFFFFF; fill-opacity:1.0; 
stroke:#FFFFFF; stroke-width:0; stroke-opacity:1; 
stroke-linecap:round; stroke-linejoin:round;">
<circle cx="56930" cy="37500" r="200" /> 
</g>
<g style="fill:#FFFFFF; fill-opacity:1.0; 
stroke:#FFFFFF; stroke-width:39.3701; stroke-opacity:1; 
stroke-linecap:round; stroke-linejoin:round;">
</g>
<g style="fill:#FFFFFF; fill-opacity:1.0; 
stroke:#FFFFFF; stroke-width:0; stroke-opacity:1; 
stroke-linecap:round; stroke-linejoin:round;">
<circle cx="56930" cy="38500" r="200" /> 
</g>
<g style="fill:#FFFFFF; fill-opacity:1.0; 
stroke:#FFFFFF; stroke-width:39.3701; stroke-opacity:1; 
stroke-linecap:round; stroke-linejoin:round;">
</g>
<g style="fill:#FFFFFF; fill-opacity:1.0; 
stroke:#FFFFFF; stroke-width:0; stroke-opacity:1; 
stroke-linecap:round; stroke-linejoin:round;">
<circle cx="56930" cy="39500" r="200" /> 
</g>
<g style="fill:#FFFFFF; fill-opacity:1.0; 
stroke:#FFFFFF; stroke-width:39.3701; stroke-opacity:1; 
stroke-linecap:round; stroke-linejoin:round;">
</g>
<g style="fill:#FFFFFF; fill-opacity:1.0; 
stroke:#FFFFFF; stroke-width:0; stroke-opacity:1; 
stroke-linecap:round; stroke-linejoin:round;">
<circle cx="43930" cy="30500" r="197" /> 
</g>
<g style="fill:#FFFFFF; fill-opacity:1.0; 
stroke:#FFFFFF; stroke-width:39.3701; stroke-opacity:1; 
stroke-linecap:round; stroke-linejoin:round;">
</g>
<g style="fill:#FFFFFF; fill-opacity:1.0; 
stroke:#FFFFFF; stroke-width:0; stroke-opacity:1; 
stroke-linecap:round; stroke-linejoin:round;">
<circle cx="44930" cy="30500" r="197" /> 
</g>
<g style="fill:#FFFFFF; fill-opacity:1.0; 
stroke:#FFFFFF; stroke-width:39.3701; stroke-opacity:1; 
stroke-linecap:round; stroke-linejoin:round;">
</g>
<g style="fill:#FFFFFF; fill-opacity:1.0; 
stroke:#FFFFFF; stroke-width:0; stroke-opacity:1; 
stroke-linecap:round; stroke-linejoin:round;">
<circle cx="42930" cy="30500" r="197" /> 
</g>
<g style="fill:#FFFFFF; fill-opacity:1.0; 
stroke:#FFFFFF; stroke-width:39.3701; stroke-opacity:1; 
stroke-linecap:round; stroke-linejoin:round;">
</g>
<g style="fill:#FFFFFF; fill-opacity:1.0; 
stroke:#FFFFFF; stroke-width:0; stroke-opacity:1; 
stroke-linecap:round; stroke-linejoin:round;">
<circle cx="43930" cy="23900" r="748" /> 
</g>
<g style="fill:#FFFFFF; fill-opacity:1.0; 
stroke:#FFFFFF; stroke-width:39.3701; stroke-opacity:1; 
stroke-linecap:round; stroke-linejoin:round;">
</g>
<g style="fill:#FFFFFF; fill-opacity:1.0; 
stroke:#FFFFFF; stroke-width:0; stroke-opacity:1; 
stroke-linecap:round; stroke-linejoin:round;">
<circle cx="53930" cy="30500" r="197" /> 
</g>
<g style="fill:#FFFFFF; fill-opacity:1.0; 
stroke:#FFFFFF; stroke-width:39.3701; stroke-opacity:1; 
stroke-linecap:round; stroke-linejoin:round;">
</g>
<g style="fill:#FFFFFF; fill-opacity:1.0; 
stroke:#FFFFFF; stroke-width:0; stroke-opacity:1; 
stroke-linecap:round; stroke-linejoin:round;">
<circle cx="54930" cy="30500" r="197" /> 
</g>
<g style="fill:#FFFFFF; fill-opacity:1.0; 
stroke:#FFFFFF; stroke-width:39.3701; stroke-opacity:1; 
stroke-linecap:round; stroke-linejoin:round;">
</g>
<g style="fill:#FFFFFF; fill-opacity:1.0; 
stroke:#FFFFFF; stroke-width:0; stroke-opacity:1; 
stroke-linecap:round; stroke-linejoin:round;">
<circle cx="52930" cy="30500" r="197" /> 
</g>
<g style="fill:#FFFFFF; fill-opacity:1.0; 
stroke:#FFFFFF; stroke-width:39.3701; stroke-opacity:1; 
stroke-linecap:round; stroke-linejoin:round;">
</g>
<g style="fill:#FFFFFF; fill-opacity:1.0; 
stroke:#FFFFFF; stroke-width:0; stroke-opacity:1; 
stroke-linecap:round; stroke-linejoin:round;">
<circle cx="53930" cy="23900" r="748" /> 
</g>
<g style="fill:#FFFFFF; fill-opacity:1.0; 
stroke:#FFFFFF; stroke-width:39.3701; stroke-opacity:1; 
stroke-linecap:round; stroke-linejoin:round;">
</g>
<g style="fill:#FFFFFF; fill-opacity:1.0; 
stroke:#FFFFFF; stroke-width:0; stroke-opacity:1; 
stroke-linecap:round; stroke-linejoin:round;">
<circle cx="45680" cy="32500" r="177.165" /> 
</g>
<g style="fill:#FFFFFF; fill-opacity:1.0; 
stroke:#FFFFFF; stroke-width:39.3701; stroke-opacity:1; 
stroke-linecap:round; stroke-linejoin:round;">
</g>
<g style="fill:#FFFFFF; fill-opacity:1.0; 
stroke:#FFFFFF; stroke-width:0; stroke-opacity:1; 
stroke-linecap:round; stroke-linejoin:round;">
<circle cx="43711.5" cy="32500" r="177.165" /> 
</g>
<g style="fill:#FFFFFF; fill-opacity:1.0; 
stroke:#FFFFFF; stroke-width:39.3701; stroke-opacity:1; 
stroke-linecap:round; stroke-linejoin:round;">
</g>
<g style="fill:#FFFFFF; fill-opacity:1.0; 
stroke:#FFFFFF; stroke-width:0; stroke-opacity:1; 
stroke-linecap:round; stroke-linejoin:round;">
<circle cx="54930" cy="32500" r="177.165" /> 
</g>
<g style="fill:#FFFFFF; fill-opacity:1.0; 
stroke:#FFFFFF; stroke-width:39.3701; stroke-opacity:1; 
stroke-linecap:round; stroke-linejoin:round;">
</g>
<g style="fill:#FFFFFF; fill-opacity:1.0; 
stroke:#FFFFFF; stroke-width:0; stroke-opacity:1; 
stroke-linecap:round; stroke-linejoin:round;">
<circle cx="52961.5" cy="32500" r="177.165" /> 
</g>
<g style="fill:#FFFFFF; fill-opacity:1.0; 
stroke:#FFFFFF; stroke-width:39.3701; stroke-opacity:1; 
stroke-linecap:round; stroke-linejoin:round;">
</g>
<g style="fill:#FFFFFF; fill-opacity:1.0; 
stroke:#FFFFFF; stroke-width:0; stroke-opacity:1; 
stroke-linecap:round; stroke-linejoin:round;">
<circle cx="46930" cy="30500" r="160" /> 
</g>
<g style="fill:#FFFFFF; fill-opacity:1.0; 
stroke:#FFFFFF; stroke-width:39.3701; stroke-opacity:1; 
stroke-linecap:round; stroke-linejoin:round;">
</g>
<g style="fill:#FFFFFF; fill-opacity:1.0; 
stroke:#FFFFFF; stroke-width:0; stroke-opacity:1; 
stroke-linecap:round; stroke-linejoin:round;">
<circle cx="46930" cy="25500" r="160" /> 
</g>
<g style="fill:#FFFFFF; fill-opacity:1.0; 
stroke:#FFFFFF; stroke-width:39.3701; stroke-opacity:1; 
stroke-linecap:round; stroke-linejoin:round;">
</g>
<g style="fill:#FFFFFF; fill-opacity:1.0; 
stroke:#FFFFFF; stroke-width:0; stroke-opacity:1; 
stroke-linecap:round; stroke-linejoin:round;">
<circle cx="56930" cy="25500" r="160" /> 
</g>
<g style="fill:#FFFFFF; fill-opacity:1.0; 
stroke:#FFFFFF; stroke-width:39.3701; stroke-opacity:1; 
stroke-linecap:round; stroke-linejoin:round;">
</g>
<g style="fill:#FFFFFF; fill-opacity:1.0; 
stroke:#FFFFFF; stroke-width:0; stroke-opacity:1; 
stroke-linecap:round; stroke-linejoin:round;">
<circle cx="56930" cy="30500" r="160" /> 
</g>
<g style="fill:#FFFFFF; fill-opacity:1.0; 
stroke:#FFFFFF; stroke-width:39.3701; stroke-opacity:1; 
stroke-linecap:round; stroke-linejoin:round;">
</g>
<g style="fill:#000000; fill-opacity:1.0; 
stroke:#000000; stroke-width:39.3701; stroke-opacity:1; 
stroke-linecap:round; stroke-linejoin:round;">
</g> 
</svg>
