<?xml version="1.0" standalone="no"?>
 <!DOCTYPE svg PUBLIC "-//W3C//DTD SVG 1.1//EN" 
 "http://www.w3.org/Graphics/SVG/1.1/DTD/svg11.dtd"> 
<svg xmlns="http://www.w3.org/2000/svg" version="1.1" 
    width="29.7002cm" height="21.0007cm" viewBox="0 0 116930 82680 ">
<title>SVG Picture created as opto-interface-F.SilkS.svg date 2016/06/11 18:26:46 </title>
  <desc>Picture generated by PCBNEW </desc>
<g style="fill:#000000; fill-opacity:1;stroke:#000000; stroke-opacity:1;
stroke-linecap:round; stroke-linejoin:round; "
 transform="translate(0 0) scale(1 1)">
</g>
<g style="fill:#000000; fill-opacity:0.0; 
stroke:#000000; stroke-width:-0.000393701; stroke-opacity:1; 
stroke-linecap:round; stroke-linejoin:round;">
</g>
<g style="fill:#000000; fill-opacity:0.0; 
stroke:#000000; stroke-width:150; stroke-opacity:1; 
stroke-linecap:round; stroke-linejoin:round;">
<path d="M32465 25340
L32465 20840
" />
<path d="M32465 20840
L32965 20340
" />
<path d="M32965 20340
L58465 20340
" />
<path d="M32465 41340
L58465 41340
" />
<path d="M58465 41340
L58465 20340
" />
<path d="M32465 25340
L31465 26340
" />
<path d="M31465 26340
L31465 39340
" />
<path d="M31465 39340
L32465 40340
" />
<path d="M32465 40340
L32465 41340
" />
</g>
<g style="fill:#000000; fill-opacity:0.0; 
stroke:#000000; stroke-width:59.0551; stroke-opacity:1; 
stroke-linecap:round; stroke-linejoin:round;">
<path d="M41418 37744
L41437 37744
" />
<path d="M42520 38020
L42520 37744
" />
<path d="M42520 37744
L42422 37744
" />
<path d="M41418 37744
L41339 37744
" />
<path d="M41339 37744
L41339 38020
" />
<path d="M39585 35263
L39585 35736
" />
<path d="M40274 35736
L40274 35263
" />
<path d="M36443 38844
L36916 38844
" />
<path d="M36916 38155
L36443 38155
" />
<path d="M35693 36844
L36166 36844
" />
<path d="M36166 36155
L35693 36155
" />
<path d="M33585 38013
L33585 38486
" />
<path d="M34274 38486
L34274 38013
" />
<path d="M32430 36000
L32430 30000
" />
<path d="M34430 31000
L34430 36000
" />
<path d="M32430 36000
L34430 36000
" />
<path d="M32430 30000
L33430 30000
" />
<path d="M33930 29889
L34540 29889
" />
<path d="M33430 30000
L33430 31000
" />
<path d="M33430 31000
L34430 31000
" />
<path d="M34540 29889
L34540 30500
" />
<path d="M56430 35000
L56430 40000
" />
<path d="M56430 40000
L57430 40000
" />
<path d="M57430 40000
L57430 35000
" />
<path d="M56319 33889
L56319 34500
" />
<path d="M56430 35000
L57430 35000
" />
<path d="M57540 34500
L57540 33889
" />
<path d="M57540 33889
L56319 33889
" />
<path d="M53830 36750
L53030 36750
" />
<path d="M52880 36700
L53980 36700
" />
<path d="M54080 36650
L52780 36650
" />
<path d="M52680 36600
L54180 36600
" />
<path d="M52630 36550
L54230 36550
" />
<path d="M54330 36500
L52530 36500
" />
<path d="M55080 36900
L51780 36900
" />
<path d="M51780 36900
L51780 33900
" />
<path d="M51780 33900
L52080 33600
" />
<path d="M52080 33600
L54780 33600
" />
<path d="M54780 33600
L55080 33900
" />
<path d="M55080 33900
L55080 36900
" />
<path d="M53430 33800
L53430 34100
" />
<path d="M53580 33950
L53280 33950
" />
<circle cx="53430" cy="35250" r="1550" /> 
<path d="M51565 35446
L51565 33084
" />
<path d="M49794 33084
L49794 35446
" />
<path d="M55815 39946
L55815 37584
" />
<path d="M54044 37584
L54044 39946
" />
<path d="M40680 32500
L40680 32500
" />
<path d="M40680 32500
L40680 32500
" />
<path d="M40680 32500
L40680 32500
" />
<path d="M40680 32500
L44430 32500
" />
<path d="M44430 32500
L44430 31500
" />
<path d="M44430 31500
L40680 31500
" />
<path d="M40680 31500
L40680 32500
" />
<path d="M40680 32250
L40680 32250
" />
<path d="M40680 32250
L40430 32250
" />
<path d="M40430 32250
L40430 31750
" />
<path d="M40430 31750
L40680 31750
" />
<path d="M39930 32000
L39930 32000
" />
<path d="M39930 32000
L40430 32000
" />
<path d="M40430 32000
L40430 32000
" />
<path d="M40430 32000
L40430 32000
" />
<path d="M44430 32000
L44430 32000
" />
<path d="M44430 32000
L44430 32000
" />
<path d="M44430 32000
L44930 32000
" />
<path d="M44930 32000
L44930 32000
" />
<path d="M44930 32000
L44930 32000
" />
<path d="M44930 32000
L44930 32000
" />
<path d="M51180 33000
L51180 33000
" />
<path d="M51180 33000
L51180 33000
" />
<path d="M51180 33000
L51180 33000
" />
<path d="M51180 33000
L54930 33000
" />
<path d="M54930 33000
L54930 32000
" />
<path d="M54930 32000
L51180 32000
" />
<path d="M51180 32000
L51180 33000
" />
<path d="M51180 32750
L51180 32750
" />
<path d="M51180 32750
L50930 32750
" />
<path d="M50930 32750
L50930 32250
" />
<path d="M50930 32250
L51180 32250
" />
<path d="M50430 32500
L50430 32500
" />
<path d="M50430 32500
L50930 32500
" />
<path d="M50930 32500
L50930 32500
" />
<path d="M50930 32500
L50930 32500
" />
<path d="M54930 32500
L54930 32500
" />
<path d="M54930 32500
L54930 32500
" />
<path d="M54930 32500
L55430 32500
" />
<path d="M55430 32500
L55430 32500
" />
<path d="M55430 32500
L55430 32500
" />
<path d="M55430 32500
L55430 32500
" />
<path d="M46666 36905
L46193 36905
" />
<path d="M46193 37594
L46666 37594
" />
<path d="M48335 35013
L48335 35486
" />
<path d="M49024 35486
L49024 35013
" />
<path d="M44085 38263
L44085 38736
" />
<path d="M44774 38736
L44774 38263
" />
<path d="M37335 35513
L37335 35986
" />
<path d="M38024 35986
L38024 35513
" />
<path d="M36180 33500
L36580 33500
" />
<path d="M36580 33500
L36580 33900
" />
<path d="M36580 33900
L39580 33900
" />
<path d="M39580 33900
L39580 33100
" />
<path d="M39580 33100
L36580 33100
" />
<path d="M36580 33100
L36580 33500
" />
<path d="M40180 33500
L39780 33500
" />
<path d="M39580 33700
L39780 33700
" />
<path d="M39780 33700
L39780 33300
" />
<path d="M39780 33300
L39580 33300
" />
<path d="M49180 31600
L49180 32400
" />
<path d="M49130 32550
L49130 31450
" />
<path d="M49080 31350
L49080 32650
" />
<path d="M49030 32750
L49030 31250
" />
<path d="M48980 32800
L48980 31200
" />
<path d="M48930 31100
L48930 32900
" />
<path d="M49330 30350
L49330 33650
" />
<path d="M49330 33650
L46330 33650
" />
<path d="M46330 33650
L46030 33350
" />
<path d="M46030 33350
L46030 30650
" />
<path d="M46030 30650
L46330 30350
" />
<path d="M46330 30350
L49330 30350
" />
<path d="M46230 32000
L46530 32000
" />
<path d="M46380 31850
L46380 32150
" />
<circle cx="47680" cy="32000" r="1550" /> 
<path d="M42280 33250
L43080 33250
" />
<path d="M43230 33300
L42130 33300
" />
<path d="M42030 33350
L43330 33350
" />
<path d="M43430 33400
L41930 33400
" />
<path d="M43480 33450
L41880 33450
" />
<path d="M41780 33500
L43580 33500
" />
<path d="M41030 33100
L44330 33100
" />
<path d="M44330 33100
L44330 36100
" />
<path d="M44330 36100
L44030 36400
" />
<path d="M44030 36400
L41330 36400
" />
<path d="M41330 36400
L41030 36100
" />
<path d="M41030 36100
L41030 33100
" />
<path d="M42680 36200
L42680 35900
" />
<path d="M42530 36050
L42830 36050
" />
<circle cx="42680" cy="34750" r="1550" /> 
<path d="M35430 31500
L35430 31900
" />
<path d="M35430 31900
L35030 31900
" />
<path d="M35030 31900
L35030 34900
" />
<path d="M35030 34900
L35830 34900
" />
<path d="M35830 34900
L35830 31900
" />
<path d="M35830 31900
L35430 31900
" />
<path d="M35430 35500
L35430 35100
" />
<path d="M35230 34900
L35230 35100
" />
<path d="M35230 35100
L35630 35100
" />
<path d="M35630 35100
L35630 34900
" />
<path d="M47330 36500
L47330 34500
" />
<path d="M47330 34500
L45530 34500
" />
<path d="M45530 34500
L45530 36500
" />
<path d="M45530 36500
L47330 36500
" />
<path d="M46730 36500
L46730 36300
" />
<path d="M46730 36300
L46230 36300
" />
<path d="M46230 36300
L46230 36500
" />
<path d="M44930 29050
L44930 29600
" />
<path d="M43930 29050
L43930 29600
" />
<path d="M42930 29050
L42930 29600
" />
<circle cx="43930" cy="23900" r="989.95" /> 
<path d="M41830 25700
L41830 22550
" />
<path d="M41830 22550
L46030 22550
" />
<path d="M46030 22550
L46030 25700
" />
<path d="M41830 29050
L41830 25700
" />
<path d="M41830 25700
L46030 25700
" />
<path d="M46030 25700
L46030 29050
" />
<path d="M43930 29050
L46030 29050
" />
<path d="M43930 29050
L41830 29050
" />
<path d="M54930 29050
L54930 29600
" />
<path d="M53930 29050
L53930 29600
" />
<path d="M52930 29050
L52930 29600
" />
<circle cx="53930" cy="23900" r="989.95" /> 
<path d="M51830 25700
L51830 22550
" />
<path d="M51830 22550
L56030 22550
" />
<path d="M56030 22550
L56030 25700
" />
<path d="M51830 29050
L51830 25700
" />
<path d="M51830 25700
L56030 25700
" />
<path d="M56030 25700
L56030 29050
" />
<path d="M53930 29050
L56030 29050
" />
<path d="M53930 29050
L51830 29050
" />
</g>
<g style="fill:#000000; fill-opacity:0.0; 
stroke:#000000; stroke-width:120; stroke-opacity:1; 
stroke-linecap:round; stroke-linejoin:round;">
<path d="M59193 19083
L59107 19111
L58965 19111
L58907 19083
L58879 19054
L58850 18997
L58850 18940
L58879 18883
L58907 18854
L58965 18825
L59079 18797
L59136 18768
L59165 18740
L59193 18683
L59193 18625
L59165 18568
L59136 18540
L59079 18511
L58936 18511
L58850 18540
" />
<path d="M58593 19111
L58593 18511
" />
<path d="M58593 18797
L58250 18797
" />
<path d="M58250 19111
L58250 18511
" />
<path d="M57965 19111
L57965 18511
" />
<path d="M57679 18797
L57479 18797
" />
<path d="M57393 19111
L57679 19111
L57679 18511
L57393 18511
" />
<path d="M56850 19111
L57136 19111
L57136 18511
" />
<path d="M56650 19111
L56650 18511
L56507 18511
L56422 18540
L56365 18597
L56336 18654
L56307 18768
L56307 18854
L56336 18968
L56365 19025
L56422 19083
L56507 19111
L56650 19111
" />
<path d="M55736 19111
L56079 19111
" />
<path d="M55907 19111
L55907 18511
L55965 18597
L56022 18654
L56079 18683
" />
</g>
<g style="fill:#000000; fill-opacity:0.0; 
stroke:#000000; stroke-width:59.0551; stroke-opacity:1; 
stroke-linecap:round; stroke-linejoin:round;">
<path d="M42220 37292
L42220 36898
L42126 36898
L42070 36917
L42033 36954
L42014 36992
L41995 37067
L41995 37123
L42014 37198
L42033 37236
L42070 37273
L42126 37292
L42220 37292
" />
<path d="M41620 37292
L41845 37292
" />
<path d="M41733 37292
L41733 36898
L41770 36954
L41808 36992
L41845 37011
" />
<path d="M40578 35565
L40766 35696
" />
<path d="M40578 35790
L40972 35790
L40972 35640
L40953 35603
L40934 35584
L40897 35565
L40841 35565
L40803 35584
L40784 35603
L40766 35640
L40766 35790
" />
<path d="M40578 35190
L40578 35415
" />
<path d="M40578 35303
L40972 35303
L40916 35340
L40878 35378
L40859 35415
" />
<path d="M36745 37851
L36876 37663
" />
<path d="M36970 37851
L36970 37457
L36820 37457
L36783 37476
L36764 37495
L36745 37532
L36745 37588
L36764 37626
L36783 37645
L36820 37663
L36970 37663
" />
<path d="M36595 37495
L36576 37476
L36539 37457
L36445 37457
L36408 37476
L36389 37495
L36370 37532
L36370 37570
L36389 37626
L36614 37851
L36370 37851
" />
<path d="M35995 35851
L36126 35663
" />
<path d="M36220 35851
L36220 35457
L36070 35457
L36033 35476
L36014 35495
L35995 35532
L35995 35588
L36014 35626
L36033 35645
L36070 35663
L36220 35663
" />
<path d="M35864 35457
L35620 35457
L35751 35607
L35695 35607
L35658 35626
L35639 35645
L35620 35682
L35620 35776
L35639 35813
L35658 35832
L35695 35851
L35808 35851
L35845 35832
L35864 35813
" />
<path d="M34578 38315
L34766 38446
" />
<path d="M34578 38540
L34972 38540
L34972 38390
L34953 38353
L34934 38334
L34897 38315
L34841 38315
L34803 38334
L34784 38353
L34766 38390
L34766 38540
" />
<path d="M34841 37978
L34578 37978
" />
<path d="M34991 38071
L34709 38165
L34709 37921
" />
<path d="M34220 28670
L34220 28276
L34070 28276
L34033 28295
L34014 28314
L33995 28351
L33995 28407
L34014 28445
L34033 28464
L34070 28482
L34220 28482
" />
<path d="M33620 28670
L33845 28670
" />
<path d="M33733 28670
L33733 28276
L33770 28332
L33808 28370
L33845 28389
" />
<path d="M57220 32670
L57220 32276
L57070 32276
L57033 32295
L57014 32314
L56995 32351
L56995 32407
L57014 32445
L57033 32464
L57070 32482
L57220 32482
" />
<path d="M56845 32314
L56826 32295
L56789 32276
L56695 32276
L56658 32295
L56639 32314
L56620 32351
L56620 32389
L56639 32445
L56864 32670
L56620 32670
" />
<path d="M55389 35315
L55370 35334
L55351 35390
L55351 35428
L55370 35484
L55408 35521
L55445 35540
L55520 35559
L55576 35559
L55651 35540
L55689 35521
L55726 35484
L55745 35428
L55745 35390
L55726 35334
L55708 35315
" />
<path d="M55745 34959
L55745 35146
L55558 35165
L55576 35146
L55595 35109
L55595 35015
L55576 34978
L55558 34959
L55520 34940
L55426 34940
L55389 34959
L55370 34978
L55351 35015
L55351 35109
L55370 35146
L55389 35165
" />
<path d="M51917 34331
L51898 34350
L51879 34406
L51879 34443
L51898 34500
L51936 34537
L51973 34556
L52048 34575
L52104 34575
L52179 34556
L52217 34537
L52254 34500
L52273 34443
L52273 34406
L52254 34350
L52236 34331
" />
<path d="M52273 33993
L52273 34068
L52254 34106
L52236 34125
L52179 34162
L52104 34181
L51954 34181
L51917 34162
L51898 34143
L51879 34106
L51879 34031
L51898 33993
L51917 33975
L51954 33956
L52048 33956
L52086 33975
L52104 33993
L52123 34031
L52123 34106
L52104 34143
L52086 34162
L52048 34181
" />
<path d="M56167 38831
L56148 38850
L56129 38906
L56129 38943
L56148 39000
L56186 39037
L56223 39056
L56298 39075
L56354 39075
L56429 39056
L56467 39037
L56504 39000
L56523 38943
L56523 38906
L56504 38850
L56486 38831
" />
<path d="M56523 38700
L56523 38437
L56129 38606
" />
<path d="M42495 32140
L42514 32159
L42570 32178
L42608 32178
L42664 32159
L42701 32121
L42720 32084
L42739 32009
L42739 31953
L42720 31878
L42701 31840
L42664 31803
L42608 31784
L42570 31784
L42514 31803
L42495 31821
" />
<path d="M42270 31953
L42308 31934
L42326 31915
L42345 31878
L42345 31859
L42326 31821
L42308 31803
L42270 31784
L42195 31784
L42158 31803
L42139 31821
L42120 31859
L42120 31878
L42139 31915
L42158 31934
L42195 31953
L42270 31953
L42308 31971
L42326 31990
L42345 32028
L42345 32103
L42326 32140
L42308 32159
L42270 32178
L42195 32178
L42158 32159
L42139 32140
L42120 32103
L42120 32028
L42139 31990
L42158 31971
L42195 31953
" />
<path d="M52995 32640
L53014 32659
L53070 32678
L53108 32678
L53164 32659
L53201 32621
L53220 32584
L53239 32509
L53239 32453
L53220 32378
L53201 32340
L53164 32303
L53108 32284
L53070 32284
L53014 32303
L52995 32321
" />
<path d="M52808 32678
L52733 32678
L52695 32659
L52676 32640
L52639 32584
L52620 32509
L52620 32359
L52639 32321
L52658 32303
L52695 32284
L52770 32284
L52808 32303
L52826 32321
L52845 32359
L52845 32453
L52826 32490
L52808 32509
L52770 32528
L52695 32528
L52658 32509
L52639 32490
L52620 32453
" />
<path d="M46495 38254
L46626 38067
" />
<path d="M46720 38254
L46720 37861
L46570 37861
L46533 37879
L46514 37898
L46495 37936
L46495 37992
L46514 38029
L46533 38048
L46570 38067
L46720 38067
" />
<path d="M46139 37861
L46326 37861
L46345 38048
L46326 38029
L46289 38011
L46195 38011
L46158 38029
L46139 38048
L46120 38086
L46120 38179
L46139 38217
L46158 38236
L46195 38254
L46289 38254
L46326 38236
L46345 38217
" />
<path d="M49328 35315
L49516 35446
" />
<path d="M49328 35540
L49722 35540
L49722 35390
L49703 35353
L49684 35334
L49647 35315
L49591 35315
L49553 35334
L49534 35353
L49516 35390
L49516 35540
" />
<path d="M49722 34978
L49722 35053
L49703 35090
L49684 35109
L49628 35146
L49553 35165
L49403 35165
L49366 35146
L49347 35128
L49328 35090
L49328 35015
L49347 34978
L49366 34959
L49403 34940
L49497 34940
L49534 34959
L49553 34978
L49572 35015
L49572 35090
L49553 35128
L49534 35146
L49497 35165
" />
<path d="M45078 38565
L45266 38696
" />
<path d="M45078 38790
L45472 38790
L45472 38640
L45453 38603
L45434 38584
L45397 38565
L45341 38565
L45303 38584
L45284 38603
L45266 38640
L45266 38790
" />
<path d="M45472 38434
L45472 38171
L45078 38340
" />
<path d="M38328 35815
L38516 35946
" />
<path d="M38328 36040
L38722 36040
L38722 35890
L38703 35853
L38684 35834
L38647 35815
L38591 35815
L38553 35834
L38534 35853
L38516 35890
L38516 36040
" />
<path d="M38553 35590
L38572 35628
L38591 35646
L38628 35665
L38647 35665
L38684 35646
L38703 35628
L38722 35590
L38722 35515
L38703 35478
L38684 35459
L38647 35440
L38628 35440
L38591 35459
L38572 35478
L38553 35515
L38553 35590
L38534 35628
L38516 35646
L38478 35665
L38403 35665
L38366 35646
L38347 35628
L38328 35590
L38328 35515
L38347 35478
L38366 35459
L38403 35440
L38478 35440
L38516 35459
L38534 35478
L38553 35515
" />
<path d="M38045 33640
L38064 33659
L38120 33678
L38158 33678
L38214 33659
L38251 33621
L38270 33584
L38289 33509
L38289 33453
L38270 33378
L38251 33340
L38214 33303
L38158 33284
L38120 33284
L38064 33303
L38045 33321
" />
<path d="M37670 33678
L37895 33678
" />
<path d="M37783 33678
L37783 33284
L37820 33340
L37858 33378
L37895 33396
" />
<path d="M47745 30040
L47764 30059
L47820 30078
L47858 30078
L47914 30059
L47951 30021
L47970 29984
L47989 29909
L47989 29853
L47970 29778
L47951 29740
L47914 29703
L47858 29684
L47820 29684
L47764 29703
L47745 29721
" />
<path d="M47595 29721
L47576 29703
L47539 29684
L47445 29684
L47408 29703
L47389 29721
L47370 29759
L47370 29796
L47389 29853
L47614 30078
L47370 30078
" />
<path d="M40439 34815
L40420 34834
L40401 34890
L40401 34928
L40420 34984
L40458 35021
L40495 35040
L40570 35059
L40626 35059
L40701 35040
L40739 35021
L40776 34984
L40795 34928
L40795 34890
L40776 34834
L40758 34815
" />
<path d="M40795 34684
L40795 34440
L40645 34571
L40645 34515
L40626 34478
L40608 34459
L40570 34440
L40476 34440
L40439 34459
L40420 34478
L40401 34515
L40401 34628
L40420 34665
L40439 34684
" />
<path d="M35289 33365
L35270 33384
L35251 33440
L35251 33478
L35270 33534
L35308 33571
L35345 33590
L35420 33609
L35476 33609
L35551 33590
L35589 33571
L35626 33534
L35645 33478
L35645 33440
L35626 33384
L35608 33365
" />
<path d="M35514 33028
L35251 33028
" />
<path d="M35664 33121
L35383 33215
L35383 32971
" />
<path d="M47145 35799
L46826 35799
L46789 35781
L46770 35762
L46751 35724
L46751 35649
L46770 35612
L46789 35593
L46826 35574
L47145 35574
" />
<path d="M46751 35181
L46751 35406
" />
<path d="M46751 35293
L47145 35293
L47089 35331
L47051 35368
L47033 35406
" />
<path d="M44131 21288
L44131 21607
L44113 21644
L44094 21663
L44056 21682
L43981 21682
L43944 21663
L43925 21644
L43906 21607
L43906 21288
" />
<path d="M43738 21325
L43719 21307
L43682 21288
L43588 21288
L43550 21307
L43532 21325
L43513 21363
L43513 21400
L43532 21457
L43757 21682
L43513 21682
" />
<path d="M54131 21288
L54131 21607
L54113 21644
L54094 21663
L54056 21682
L53981 21682
L53944 21663
L53925 21644
L53906 21607
L53906 21288
" />
<path d="M53757 21288
L53513 21288
L53644 21438
L53588 21438
L53550 21457
L53532 21475
L53513 21513
L53513 21607
L53532 21644
L53550 21663
L53588 21682
L53700 21682
L53738 21663
L53757 21644
" />
</g> 
</svg>
