G04 #@! TF.FileFunction,Copper,L1,Top,Signal*
%FSLAX46Y46*%
G04 Gerber Fmt 4.6, Leading zero omitted, Abs format (unit mm)*
G04 Created by KiCad (PCBNEW 4.0.2+e4-6225~38~ubuntu15.10.1-stable) date Sat 11 Jun 2016 15:46:18 BST*
%MOMM*%
G01*
G04 APERTURE LIST*
%ADD10C,0.100000*%
%ADD11O,1.524000X2.540000*%
%ADD12C,3.937000*%
%ADD13R,0.800100X0.800100*%
%ADD14R,1.300000X1.500000*%
%ADD15R,1.500000X1.300000*%
%ADD16R,1.727200X1.727200*%
%ADD17O,1.727200X1.727200*%
%ADD18R,2.032000X1.727200*%
%ADD19O,2.032000X1.727200*%
%ADD20R,1.600200X4.000500*%
%ADD21R,1.400000X1.400000*%
%ADD22C,1.400000*%
%ADD23R,1.397000X1.397000*%
%ADD24C,1.397000*%
%ADD25R,4.000500X1.600200*%
%ADD26R,1.143000X0.508000*%
%ADD27O,1.699260X3.500120*%
%ADD28C,0.500000*%
%ADD29C,0.254000*%
G04 APERTURE END LIST*
D10*
D11*
X212001000Y-102464000D03*
X209461000Y-102464000D03*
X206921000Y-102464000D03*
X199301000Y-102464000D03*
X201841000Y-102464000D03*
X204381000Y-102464000D03*
X194221000Y-102464000D03*
X191681000Y-102464000D03*
X189141000Y-102464000D03*
X184061000Y-102464000D03*
X181521000Y-102464000D03*
X212001000Y-54204000D03*
X209461000Y-54204000D03*
X206921000Y-54204000D03*
X204381000Y-54204000D03*
X201841000Y-54204000D03*
X199301000Y-54204000D03*
X196761000Y-54204000D03*
X194221000Y-54204000D03*
X190157000Y-54204000D03*
X187617000Y-54204000D03*
X185077000Y-54204000D03*
X182537000Y-54204000D03*
X179997000Y-54204000D03*
X177457000Y-54204000D03*
X174917000Y-54204000D03*
X172377000Y-54204000D03*
X186601000Y-102464000D03*
D12*
X214541000Y-97384000D03*
X214541000Y-69444000D03*
X163741000Y-54204000D03*
X162471000Y-102464000D03*
D13*
X189550000Y-97520760D03*
X191450000Y-97520760D03*
X190500000Y-95521780D03*
D14*
X195580000Y-91520000D03*
X195580000Y-88820000D03*
D15*
X202485000Y-97790000D03*
X205185000Y-97790000D03*
X204390000Y-92710000D03*
X207090000Y-92710000D03*
D14*
X210820000Y-98505000D03*
X210820000Y-95805000D03*
D16*
X210820000Y-77470000D03*
D17*
X213360000Y-77470000D03*
X210820000Y-80010000D03*
X213360000Y-80010000D03*
X210820000Y-82550000D03*
X213360000Y-82550000D03*
X210820000Y-85090000D03*
X213360000Y-85090000D03*
X210820000Y-87630000D03*
X213360000Y-87630000D03*
X210820000Y-90170000D03*
X213360000Y-90170000D03*
D18*
X152400000Y-87630000D03*
D19*
X152400000Y-90170000D03*
X152400000Y-92710000D03*
X152400000Y-95250000D03*
X152400000Y-97790000D03*
X152400000Y-100330000D03*
D20*
X161290000Y-86484460D03*
X161290000Y-92585540D03*
D21*
X168275000Y-89535000D03*
D22*
X168275000Y-84535000D03*
D21*
X157480000Y-100965000D03*
D22*
X157480000Y-95965000D03*
D23*
X195580000Y-81280000D03*
D24*
X182880000Y-81280000D03*
D23*
X168910000Y-82550000D03*
D24*
X156210000Y-82550000D03*
D15*
X180420000Y-94615000D03*
X177720000Y-94615000D03*
D14*
X173355000Y-90885000D03*
X173355000Y-88185000D03*
X184150000Y-99140000D03*
X184150000Y-96440000D03*
X201295000Y-92155000D03*
X201295000Y-89455000D03*
D23*
X194945000Y-85090000D03*
D24*
X205105000Y-85090000D03*
D25*
X178945540Y-81280000D03*
X172844460Y-81280000D03*
D20*
X188595000Y-91315540D03*
X188595000Y-85214460D03*
D23*
X207010000Y-90170000D03*
D24*
X207010000Y-80010000D03*
D26*
X175895000Y-92075000D03*
X175895000Y-90805000D03*
X175895000Y-89535000D03*
X175895000Y-88265000D03*
X182245000Y-88265000D03*
X182245000Y-89535000D03*
X182245000Y-90805000D03*
X182245000Y-92075000D03*
D27*
X185420000Y-77470000D03*
X182880000Y-77470000D03*
X187960000Y-77470000D03*
X160020000Y-77470000D03*
X157480000Y-77470000D03*
X162560000Y-77470000D03*
D28*
X160020000Y-77470000D02*
X160020000Y-75069600D01*
X172844500Y-81280000D02*
X172844500Y-79829600D01*
X185420000Y-77470000D02*
X185420000Y-79870400D01*
X172844500Y-81280000D02*
X172844500Y-82730400D01*
X168910000Y-82550000D02*
X168910000Y-83224400D01*
X168910000Y-83224400D02*
X168910000Y-83898800D01*
X172350500Y-83224400D02*
X172844500Y-82730400D01*
X168910000Y-83224400D02*
X172350500Y-83224400D01*
X168275000Y-84533800D02*
X168275000Y-84535000D01*
X168910000Y-83898800D02*
X168275000Y-84533800D01*
X213360000Y-87630000D02*
X213360000Y-85090000D01*
X213360000Y-85090000D02*
X213360000Y-82550000D01*
X213360000Y-87630000D02*
X213360000Y-90170000D01*
X211470200Y-95805000D02*
X212120300Y-95805000D01*
X185420000Y-77470000D02*
X185420000Y-75069600D01*
X172844500Y-75069600D02*
X172844500Y-79829600D01*
X160020000Y-75069600D02*
X172844500Y-75069600D01*
X184289600Y-79870400D02*
X182880000Y-81280000D01*
X185420000Y-79870400D02*
X184289600Y-79870400D01*
X181023200Y-83136800D02*
X181023200Y-89535000D01*
X182880000Y-81280000D02*
X181023200Y-83136800D01*
X182222900Y-89535000D02*
X181023200Y-89535000D01*
X182222900Y-89535000D02*
X182245000Y-89535000D01*
X213360000Y-82550000D02*
X213360000Y-80010000D01*
X191450000Y-96995600D02*
X191450000Y-96470400D01*
X213360000Y-90170000D02*
X213360000Y-94565300D01*
X213360000Y-94565300D02*
X212120300Y-95805000D01*
X191450000Y-96995600D02*
X191450000Y-97520800D01*
X211470200Y-95805000D02*
X210820000Y-95805000D01*
X189141000Y-102799700D02*
X189141000Y-104384300D01*
X189141000Y-102799700D02*
X189141000Y-102464000D01*
X152400000Y-97790000D02*
X154066300Y-97790000D01*
X152400000Y-100330000D02*
X152400000Y-98816100D01*
X153040200Y-98816100D02*
X152400000Y-98816100D01*
X154066300Y-97790000D02*
X153040200Y-98816100D01*
X157480000Y-100965000D02*
X158155200Y-100965000D01*
X158155200Y-100965000D02*
X158830300Y-100965000D01*
X157520200Y-100330000D02*
X152400000Y-100330000D01*
X158155200Y-100965000D02*
X157520200Y-100330000D01*
X205185000Y-97790000D02*
X205185000Y-99090300D01*
X200134600Y-99090300D02*
X205185000Y-99090300D01*
X197868000Y-101356900D02*
X200134600Y-99090300D01*
X197868000Y-104384300D02*
X197868000Y-101356900D01*
X212689500Y-104384300D02*
X197868000Y-104384300D01*
X217202700Y-99871100D02*
X212689500Y-104384300D01*
X217202700Y-96314800D02*
X217202700Y-99871100D01*
X215453200Y-94565300D02*
X217202700Y-96314800D01*
X213360000Y-94565300D02*
X215453200Y-94565300D01*
X197868000Y-104384300D02*
X189141000Y-104384300D01*
X172844500Y-75069600D02*
X185420000Y-75069600D01*
X217186100Y-76183900D02*
X213360000Y-80010000D01*
X217186100Y-56872600D02*
X217186100Y-76183900D01*
X212561500Y-52248000D02*
X217186100Y-56872600D01*
X193595200Y-52248000D02*
X212561500Y-52248000D01*
X192189000Y-53654200D02*
X193595200Y-52248000D01*
X192189000Y-68300600D02*
X192189000Y-53654200D01*
X185420000Y-75069600D02*
X192189000Y-68300600D01*
X175895000Y-92075000D02*
X177116800Y-92075000D01*
X184553800Y-89535000D02*
X182245000Y-89535000D01*
X185423900Y-88664900D02*
X184553800Y-89535000D01*
X189676800Y-88664900D02*
X185423900Y-88664900D01*
X190086700Y-89074800D02*
X189676800Y-88664900D01*
X190086700Y-93985900D02*
X190086700Y-89074800D01*
X190727200Y-93985900D02*
X190086700Y-93985900D01*
X191550500Y-94809200D02*
X190727200Y-93985900D01*
X191550500Y-96369900D02*
X191550500Y-94809200D01*
X191450000Y-96470400D02*
X191550500Y-96369900D01*
X190086700Y-93985900D02*
X182120900Y-93985900D01*
X178021100Y-92979300D02*
X177116800Y-92075000D01*
X181114300Y-92979300D02*
X178021100Y-92979300D01*
X182120900Y-93985900D02*
X181114300Y-92979300D01*
X180796300Y-96815700D02*
X161290000Y-96815700D01*
X182120900Y-95491100D02*
X180796300Y-96815700D01*
X182120900Y-93985900D02*
X182120900Y-95491100D01*
X161290000Y-92585500D02*
X161290000Y-96815700D01*
X161290000Y-98505300D02*
X158830300Y-100965000D01*
X161290000Y-96815700D02*
X161290000Y-98505300D01*
X184146600Y-100543700D02*
X184061000Y-100543700D01*
X184150000Y-100540300D02*
X184146600Y-100543700D01*
X184150000Y-99140000D02*
X184150000Y-100540300D01*
X184061000Y-102464000D02*
X184061000Y-100543700D01*
X210820000Y-82550000D02*
X209306100Y-82550000D01*
X201295000Y-89455000D02*
X201295000Y-88054700D01*
X212001000Y-54204000D02*
X212001000Y-56124300D01*
X205698500Y-86441500D02*
X203721900Y-86441500D01*
X209306100Y-82833900D02*
X205698500Y-86441500D01*
X209306100Y-82550000D02*
X209306100Y-82833900D01*
X202908200Y-86441500D02*
X203721900Y-86441500D01*
X201295000Y-88054700D02*
X202908200Y-86441500D01*
X203721900Y-64403400D02*
X212001000Y-56124300D01*
X203721900Y-86441500D02*
X203721900Y-64403400D01*
X189024900Y-97520800D02*
X188554000Y-97520800D01*
X189550000Y-97520800D02*
X189024900Y-97520800D01*
X188554000Y-97520800D02*
X188499700Y-97520800D01*
X187418900Y-96440000D02*
X184150000Y-96440000D01*
X188499700Y-97520800D02*
X187418900Y-96440000D01*
X148841400Y-79659900D02*
X172377000Y-56124300D01*
X148841400Y-99144500D02*
X148841400Y-79659900D01*
X152032200Y-102335300D02*
X148841400Y-99144500D01*
X158893500Y-102335300D02*
X152032200Y-102335300D01*
X163488500Y-97740300D02*
X158893500Y-102335300D01*
X181549400Y-97740300D02*
X163488500Y-97740300D01*
X182849700Y-96440000D02*
X181549400Y-97740300D01*
X184150000Y-96440000D02*
X182849700Y-96440000D01*
X172377000Y-54204000D02*
X172377000Y-56124300D01*
X195580000Y-81280000D02*
X195580000Y-82628800D01*
X200644900Y-92155000D02*
X199994700Y-92155000D01*
X200644900Y-92155000D02*
X201295000Y-92155000D01*
X202595300Y-92315600D02*
X202989700Y-92710000D01*
X202595300Y-92155000D02*
X202595300Y-92315600D01*
X204390000Y-92710000D02*
X202989700Y-92710000D01*
X201295000Y-92155000D02*
X202595300Y-92155000D01*
X197437800Y-84486600D02*
X197437800Y-90962500D01*
X195580000Y-82628800D02*
X197437800Y-84486600D01*
X198802200Y-90962500D02*
X197437800Y-90962500D01*
X199994700Y-92155000D02*
X198802200Y-90962500D01*
X197437800Y-90962500D02*
X196880300Y-91520000D01*
X196230200Y-91520000D02*
X196880300Y-91520000D01*
X196230200Y-91520000D02*
X195580000Y-91520000D01*
X195580000Y-81280000D02*
X194231200Y-81280000D01*
X192635300Y-81280000D02*
X194231200Y-81280000D01*
X192635300Y-80645400D02*
X192635300Y-81280000D01*
X189459900Y-77470000D02*
X192635300Y-80645400D01*
X190193500Y-100543700D02*
X186601000Y-100543700D01*
X192635300Y-98101900D02*
X190193500Y-100543700D01*
X192635300Y-81280000D02*
X192635300Y-98101900D01*
X186601000Y-101503800D02*
X186601000Y-100543700D01*
X187960000Y-77470000D02*
X189459900Y-77470000D01*
X180420000Y-94615000D02*
X180420000Y-95915300D01*
X180420000Y-95915300D02*
X180089400Y-95915300D01*
X152400000Y-92872300D02*
X152400000Y-92710000D01*
X156847800Y-97320100D02*
X152400000Y-92872300D01*
X158111400Y-97320100D02*
X156847800Y-97320100D01*
X159203000Y-96228500D02*
X158111400Y-97320100D01*
X159203000Y-90891500D02*
X159203000Y-96228500D01*
X160201700Y-89892800D02*
X159203000Y-90891500D01*
X164144300Y-89892800D02*
X160201700Y-89892800D01*
X170166800Y-95915300D02*
X164144300Y-89892800D01*
X180089400Y-95915300D02*
X170166800Y-95915300D01*
X186601000Y-101503800D02*
X186601000Y-102464000D01*
X157480000Y-77470000D02*
X157480000Y-79870400D01*
X156210000Y-81140400D02*
X156210000Y-82550000D01*
X157480000Y-79870400D02*
X156210000Y-81140400D01*
X149780000Y-92630000D02*
X152400000Y-95250000D01*
X149780000Y-86116900D02*
X149780000Y-92630000D01*
X153346900Y-82550000D02*
X149780000Y-86116900D01*
X156210000Y-82550000D02*
X153346900Y-82550000D01*
X179020500Y-79829600D02*
X178945500Y-79829600D01*
X181380100Y-77470000D02*
X179020500Y-79829600D01*
X182880000Y-77470000D02*
X181380100Y-77470000D01*
X178945500Y-81280000D02*
X178945500Y-79829600D01*
X178945500Y-81280000D02*
X178945500Y-82730400D01*
X152400000Y-87630000D02*
X154066300Y-87630000D01*
X181023200Y-92075000D02*
X182245000Y-92075000D01*
X178483200Y-89535000D02*
X181023200Y-92075000D01*
X178483200Y-89535000D02*
X175895000Y-89535000D01*
X178483200Y-83192700D02*
X178483200Y-85888900D01*
X178945500Y-82730400D02*
X178483200Y-83192700D01*
X178483200Y-85888900D02*
X178483200Y-89535000D01*
X168275000Y-89535000D02*
X168275000Y-88184700D01*
X168275000Y-85888900D02*
X168275000Y-88184700D01*
X165587100Y-85888900D02*
X168275000Y-85888900D01*
X163532000Y-83833800D02*
X165587100Y-85888900D01*
X160203900Y-83833800D02*
X163532000Y-83833800D01*
X156407700Y-87630000D02*
X160203900Y-83833800D01*
X154066300Y-87630000D02*
X156407700Y-87630000D01*
X168275000Y-85888900D02*
X178483200Y-85888900D01*
X157480000Y-93583700D02*
X154066300Y-90170000D01*
X157480000Y-95965000D02*
X157480000Y-93583700D01*
X152841700Y-90170000D02*
X154066300Y-90170000D01*
X152841700Y-90170000D02*
X152400000Y-90170000D01*
X162560000Y-77470000D02*
X162560000Y-79870400D01*
X152400000Y-90170000D02*
X150733700Y-90170000D01*
X150733700Y-86468700D02*
X150733700Y-90170000D01*
X151914400Y-85288000D02*
X150733700Y-86468700D01*
X157142400Y-85288000D02*
X151914400Y-85288000D01*
X162560000Y-79870400D02*
X157142400Y-85288000D01*
X194945000Y-85090000D02*
X194945000Y-86438800D01*
X195580000Y-87073800D02*
X195580000Y-88820000D01*
X194945000Y-86438800D02*
X195580000Y-87073800D01*
X195580000Y-88820000D02*
X194279700Y-88820000D01*
X204381000Y-102464000D02*
X204381000Y-100543700D01*
X194279700Y-92609200D02*
X194279700Y-88820000D01*
X199460500Y-97790000D02*
X194279700Y-92609200D01*
X202485000Y-97790000D02*
X199460500Y-97790000D01*
X205049600Y-100543700D02*
X204381000Y-100543700D01*
X206597500Y-98995800D02*
X205049600Y-100543700D01*
X206597500Y-96856100D02*
X206597500Y-98995800D01*
X206231100Y-96489700D02*
X206597500Y-96856100D01*
X202485000Y-96489700D02*
X206231100Y-96489700D01*
X202485000Y-97790000D02*
X202485000Y-96489700D01*
X207616000Y-77470000D02*
X210820000Y-77470000D01*
X205105000Y-79981000D02*
X207616000Y-77470000D01*
X205105000Y-85090000D02*
X205105000Y-79981000D01*
X186634100Y-90805000D02*
X187144600Y-91315500D01*
X182245000Y-90805000D02*
X186634100Y-90805000D01*
X188595000Y-91315500D02*
X187144600Y-91315500D01*
X186517300Y-85214500D02*
X188595000Y-85214500D01*
X183466800Y-88265000D02*
X186517300Y-85214500D01*
X182245000Y-88265000D02*
X183466800Y-88265000D01*
X207010000Y-90170000D02*
X207010000Y-91518800D01*
X211458400Y-100543700D02*
X212001000Y-100543700D01*
X210820000Y-99905300D02*
X211458400Y-100543700D01*
X212001000Y-102464000D02*
X212001000Y-100543700D01*
X210820000Y-98572500D02*
X210820000Y-99905300D01*
X210820000Y-98572500D02*
X210820000Y-98505000D01*
X207090000Y-91598800D02*
X207090000Y-92710000D01*
X207010000Y-91518800D02*
X207090000Y-91598800D01*
X210820000Y-98505000D02*
X209519700Y-98505000D01*
X207090000Y-96075300D02*
X207090000Y-92710000D01*
X209519700Y-98505000D02*
X207090000Y-96075300D01*
X207010000Y-80010000D02*
X210820000Y-80010000D01*
X174655300Y-88247100D02*
X174655300Y-88185000D01*
X174673200Y-88265000D02*
X174655300Y-88247100D01*
X175895000Y-88265000D02*
X174673200Y-88265000D01*
X173804900Y-88185000D02*
X173355000Y-88185000D01*
X174230100Y-88185000D02*
X174655300Y-88185000D01*
X174230100Y-88185000D02*
X173804900Y-88185000D01*
X162884400Y-86484500D02*
X161290000Y-86484500D01*
X167285300Y-90885400D02*
X162884400Y-86484500D01*
X170971800Y-90885400D02*
X167285300Y-90885400D01*
X173672200Y-88185000D02*
X170971800Y-90885400D01*
X173804900Y-88185000D02*
X173672200Y-88185000D01*
X174655300Y-90822900D02*
X174673200Y-90805000D01*
X174655300Y-90885000D02*
X174655300Y-90822900D01*
X175895000Y-90805000D02*
X174673200Y-90805000D01*
X174005200Y-90885000D02*
X173673600Y-90885000D01*
X174005200Y-90885000D02*
X174655300Y-90885000D01*
X173355000Y-90885000D02*
X173514300Y-90885000D01*
X173514300Y-90885000D02*
X173673600Y-90885000D01*
X173514300Y-91809600D02*
X176319700Y-94615000D01*
X173514300Y-90885000D02*
X173514300Y-91809600D01*
X177720000Y-94615000D02*
X176319700Y-94615000D01*
D29*
G36*
X161535147Y-52727310D02*
X161137953Y-53683860D01*
X161137049Y-54719596D01*
X161532573Y-55676838D01*
X162264310Y-56409853D01*
X163220860Y-56807047D01*
X164256596Y-56807951D01*
X165213838Y-56412427D01*
X165946853Y-55680690D01*
X166344047Y-54724140D01*
X166344951Y-53688404D01*
X165949427Y-52731162D01*
X165339331Y-52120000D01*
X217755000Y-52120000D01*
X217755000Y-104725000D01*
X163816602Y-104725000D01*
X163943838Y-104672427D01*
X164676853Y-103940690D01*
X165074047Y-102984140D01*
X165074951Y-101948404D01*
X164679427Y-100991162D01*
X163947690Y-100258147D01*
X162991140Y-99860953D01*
X162619750Y-99860629D01*
X163855079Y-98625300D01*
X181549395Y-98625300D01*
X181549400Y-98625301D01*
X181845961Y-98566310D01*
X181888075Y-98557933D01*
X182175190Y-98366090D01*
X182982633Y-97558646D01*
X183035910Y-97641441D01*
X183248110Y-97786431D01*
X183261197Y-97789081D01*
X183048559Y-97925910D01*
X182903569Y-98138110D01*
X182852560Y-98390000D01*
X182852560Y-99890000D01*
X182896838Y-100125317D01*
X183035910Y-100341441D01*
X183194657Y-100449908D01*
X183176000Y-100543700D01*
X183176000Y-100862143D01*
X183073172Y-100930851D01*
X182791000Y-101353150D01*
X182508828Y-100930851D01*
X182055609Y-100628019D01*
X181521000Y-100521679D01*
X180986391Y-100628019D01*
X180533172Y-100930851D01*
X180230340Y-101384070D01*
X180124000Y-101918679D01*
X180124000Y-103009321D01*
X180230340Y-103543930D01*
X180533172Y-103997149D01*
X180986391Y-104299981D01*
X181521000Y-104406321D01*
X182055609Y-104299981D01*
X182508828Y-103997149D01*
X182791000Y-103574850D01*
X183073172Y-103997149D01*
X183526391Y-104299981D01*
X184061000Y-104406321D01*
X184595609Y-104299981D01*
X185048828Y-103997149D01*
X185331000Y-103574850D01*
X185613172Y-103997149D01*
X186066391Y-104299981D01*
X186601000Y-104406321D01*
X187135609Y-104299981D01*
X187588828Y-103997149D01*
X187880330Y-103560887D01*
X187898941Y-103623941D01*
X188242974Y-104049630D01*
X188723723Y-104311260D01*
X188797930Y-104326220D01*
X189014000Y-104203720D01*
X189014000Y-102591000D01*
X188994000Y-102591000D01*
X188994000Y-102337000D01*
X189014000Y-102337000D01*
X189014000Y-102317000D01*
X189268000Y-102317000D01*
X189268000Y-102337000D01*
X189288000Y-102337000D01*
X189288000Y-102591000D01*
X189268000Y-102591000D01*
X189268000Y-104203720D01*
X189484070Y-104326220D01*
X189558277Y-104311260D01*
X190039026Y-104049630D01*
X190383059Y-103623941D01*
X190401670Y-103560887D01*
X190693172Y-103997149D01*
X191146391Y-104299981D01*
X191681000Y-104406321D01*
X192215609Y-104299981D01*
X192668828Y-103997149D01*
X192951000Y-103574850D01*
X193233172Y-103997149D01*
X193686391Y-104299981D01*
X194221000Y-104406321D01*
X194755609Y-104299981D01*
X195208828Y-103997149D01*
X195511660Y-103543930D01*
X195618000Y-103009321D01*
X195618000Y-101918679D01*
X195511660Y-101384070D01*
X195208828Y-100930851D01*
X194755609Y-100628019D01*
X194221000Y-100521679D01*
X193686391Y-100628019D01*
X193233172Y-100930851D01*
X192951000Y-101353150D01*
X192668828Y-100930851D01*
X192215609Y-100628019D01*
X191681000Y-100521679D01*
X191413989Y-100574791D01*
X193261087Y-98727692D01*
X193261090Y-98727690D01*
X193452933Y-98440575D01*
X193467749Y-98366090D01*
X193520301Y-98101900D01*
X193520300Y-98101895D01*
X193520300Y-93035027D01*
X193637863Y-93210974D01*
X193653910Y-93234990D01*
X198834708Y-98415787D01*
X198834710Y-98415790D01*
X199121825Y-98607633D01*
X199178016Y-98618810D01*
X199460500Y-98675001D01*
X199460505Y-98675000D01*
X201131778Y-98675000D01*
X201131838Y-98675317D01*
X201270910Y-98891441D01*
X201483110Y-99036431D01*
X201735000Y-99087440D01*
X203235000Y-99087440D01*
X203470317Y-99043162D01*
X203686441Y-98904090D01*
X203831431Y-98691890D01*
X203838191Y-98658510D01*
X203896673Y-98799699D01*
X204075302Y-98978327D01*
X204308691Y-99075000D01*
X204899250Y-99075000D01*
X205058000Y-98916250D01*
X205058000Y-97917000D01*
X205038000Y-97917000D01*
X205038000Y-97663000D01*
X205058000Y-97663000D01*
X205058000Y-97643000D01*
X205312000Y-97643000D01*
X205312000Y-97663000D01*
X205332000Y-97663000D01*
X205332000Y-97917000D01*
X205312000Y-97917000D01*
X205312000Y-98916250D01*
X205368735Y-98972985D01*
X204683020Y-99658700D01*
X204381000Y-99658700D01*
X204042325Y-99726067D01*
X203755210Y-99917910D01*
X203563367Y-100205025D01*
X203496000Y-100543700D01*
X203496000Y-100862143D01*
X203393172Y-100930851D01*
X203111000Y-101353150D01*
X202828828Y-100930851D01*
X202375609Y-100628019D01*
X201841000Y-100521679D01*
X201306391Y-100628019D01*
X200853172Y-100930851D01*
X200571000Y-101353150D01*
X200288828Y-100930851D01*
X199835609Y-100628019D01*
X199301000Y-100521679D01*
X198766391Y-100628019D01*
X198313172Y-100930851D01*
X198010340Y-101384070D01*
X197904000Y-101918679D01*
X197904000Y-103009321D01*
X198010340Y-103543930D01*
X198313172Y-103997149D01*
X198766391Y-104299981D01*
X199301000Y-104406321D01*
X199835609Y-104299981D01*
X200288828Y-103997149D01*
X200571000Y-103574850D01*
X200853172Y-103997149D01*
X201306391Y-104299981D01*
X201841000Y-104406321D01*
X202375609Y-104299981D01*
X202828828Y-103997149D01*
X203111000Y-103574850D01*
X203393172Y-103997149D01*
X203846391Y-104299981D01*
X204381000Y-104406321D01*
X204915609Y-104299981D01*
X205368828Y-103997149D01*
X205651000Y-103574850D01*
X205933172Y-103997149D01*
X206386391Y-104299981D01*
X206921000Y-104406321D01*
X207455609Y-104299981D01*
X207908828Y-103997149D01*
X208191000Y-103574850D01*
X208473172Y-103997149D01*
X208926391Y-104299981D01*
X209461000Y-104406321D01*
X209995609Y-104299981D01*
X210448828Y-103997149D01*
X210731000Y-103574850D01*
X211013172Y-103997149D01*
X211466391Y-104299981D01*
X212001000Y-104406321D01*
X212535609Y-104299981D01*
X212988828Y-103997149D01*
X213291660Y-103543930D01*
X213398000Y-103009321D01*
X213398000Y-101918679D01*
X213291660Y-101384070D01*
X212988828Y-100930851D01*
X212886000Y-100862143D01*
X212886000Y-100543700D01*
X212818633Y-100205025D01*
X212626790Y-99917910D01*
X212339675Y-99726067D01*
X212001000Y-99658700D01*
X211962704Y-99658700D01*
X212066431Y-99506890D01*
X212117440Y-99255000D01*
X212117440Y-98336176D01*
X212332573Y-98856838D01*
X213064310Y-99589853D01*
X214020860Y-99987047D01*
X215056596Y-99987951D01*
X216013838Y-99592427D01*
X216746853Y-98860690D01*
X217144047Y-97904140D01*
X217144951Y-96868404D01*
X216749427Y-95911162D01*
X216017690Y-95178147D01*
X215061140Y-94780953D01*
X214025404Y-94780049D01*
X213068162Y-95175573D01*
X212335147Y-95907310D01*
X212105000Y-96461566D01*
X212105000Y-96090750D01*
X211946250Y-95932000D01*
X210947000Y-95932000D01*
X210947000Y-95952000D01*
X210693000Y-95952000D01*
X210693000Y-95932000D01*
X209693750Y-95932000D01*
X209535000Y-96090750D01*
X209535000Y-96681309D01*
X209631673Y-96914698D01*
X209810301Y-97093327D01*
X209946287Y-97149654D01*
X209934683Y-97151838D01*
X209718559Y-97290910D01*
X209653056Y-97386777D01*
X207975000Y-95708720D01*
X207975000Y-94928691D01*
X209535000Y-94928691D01*
X209535000Y-95519250D01*
X209693750Y-95678000D01*
X210693000Y-95678000D01*
X210693000Y-94578750D01*
X210947000Y-94578750D01*
X210947000Y-95678000D01*
X211946250Y-95678000D01*
X212105000Y-95519250D01*
X212105000Y-94928691D01*
X212008327Y-94695302D01*
X211829699Y-94516673D01*
X211596310Y-94420000D01*
X211105750Y-94420000D01*
X210947000Y-94578750D01*
X210693000Y-94578750D01*
X210534250Y-94420000D01*
X210043690Y-94420000D01*
X209810301Y-94516673D01*
X209631673Y-94695302D01*
X209535000Y-94928691D01*
X207975000Y-94928691D01*
X207975000Y-93982038D01*
X208075317Y-93963162D01*
X208291441Y-93824090D01*
X208436431Y-93611890D01*
X208487440Y-93360000D01*
X208487440Y-92060000D01*
X208443162Y-91824683D01*
X208304090Y-91608559D01*
X208091890Y-91463569D01*
X207988828Y-91442698D01*
X208159941Y-91332590D01*
X208304931Y-91120390D01*
X208355940Y-90868500D01*
X208355940Y-89471500D01*
X208311662Y-89236183D01*
X208172590Y-89020059D01*
X207960390Y-88875069D01*
X207708500Y-88824060D01*
X206311500Y-88824060D01*
X206076183Y-88868338D01*
X205860059Y-89007410D01*
X205715069Y-89219610D01*
X205664060Y-89471500D01*
X205664060Y-90868500D01*
X205708338Y-91103817D01*
X205847410Y-91319941D01*
X206059610Y-91464931D01*
X206084327Y-91469936D01*
X205888559Y-91595910D01*
X205743569Y-91808110D01*
X205740919Y-91821197D01*
X205604090Y-91608559D01*
X205391890Y-91463569D01*
X205140000Y-91412560D01*
X203640000Y-91412560D01*
X203404683Y-91456838D01*
X203242475Y-91561216D01*
X203221090Y-91529210D01*
X202933975Y-91337367D01*
X202595300Y-91270000D01*
X202567038Y-91270000D01*
X202548162Y-91169683D01*
X202409090Y-90953559D01*
X202196890Y-90808569D01*
X202183803Y-90805919D01*
X202396441Y-90669090D01*
X202541431Y-90456890D01*
X202592440Y-90205000D01*
X202592440Y-88705000D01*
X202548162Y-88469683D01*
X202409090Y-88253559D01*
X202372632Y-88228648D01*
X203274779Y-87326500D01*
X205698495Y-87326500D01*
X205698500Y-87326501D01*
X205980984Y-87270310D01*
X206037175Y-87259133D01*
X206324290Y-87067290D01*
X209761506Y-83630073D01*
X210045752Y-83820000D01*
X209730971Y-84030330D01*
X209406115Y-84516511D01*
X209292041Y-85090000D01*
X209406115Y-85663489D01*
X209730971Y-86149670D01*
X210045752Y-86360000D01*
X209730971Y-86570330D01*
X209406115Y-87056511D01*
X209292041Y-87630000D01*
X209406115Y-88203489D01*
X209730971Y-88689670D01*
X210045752Y-88900000D01*
X209730971Y-89110330D01*
X209406115Y-89596511D01*
X209292041Y-90170000D01*
X209406115Y-90743489D01*
X209730971Y-91229670D01*
X210217152Y-91554526D01*
X210790641Y-91668600D01*
X210849359Y-91668600D01*
X211422848Y-91554526D01*
X211909029Y-91229670D01*
X212089992Y-90958839D01*
X212471510Y-91376821D01*
X213000973Y-91624968D01*
X213233000Y-91504469D01*
X213233000Y-90297000D01*
X213487000Y-90297000D01*
X213487000Y-91504469D01*
X213719027Y-91624968D01*
X214248490Y-91376821D01*
X214642688Y-90944947D01*
X214814958Y-90529026D01*
X214693817Y-90297000D01*
X213487000Y-90297000D01*
X213233000Y-90297000D01*
X213213000Y-90297000D01*
X213213000Y-90043000D01*
X213233000Y-90043000D01*
X213233000Y-87757000D01*
X213487000Y-87757000D01*
X213487000Y-90043000D01*
X214693817Y-90043000D01*
X214814958Y-89810974D01*
X214642688Y-89395053D01*
X214248490Y-88963179D01*
X214113687Y-88900000D01*
X214248490Y-88836821D01*
X214642688Y-88404947D01*
X214814958Y-87989026D01*
X214693817Y-87757000D01*
X213487000Y-87757000D01*
X213233000Y-87757000D01*
X213213000Y-87757000D01*
X213213000Y-87503000D01*
X213233000Y-87503000D01*
X213233000Y-85217000D01*
X213487000Y-85217000D01*
X213487000Y-87503000D01*
X214693817Y-87503000D01*
X214814958Y-87270974D01*
X214642688Y-86855053D01*
X214248490Y-86423179D01*
X214113687Y-86360000D01*
X214248490Y-86296821D01*
X214642688Y-85864947D01*
X214814958Y-85449026D01*
X214693817Y-85217000D01*
X213487000Y-85217000D01*
X213233000Y-85217000D01*
X213213000Y-85217000D01*
X213213000Y-84963000D01*
X213233000Y-84963000D01*
X213233000Y-82677000D01*
X213487000Y-82677000D01*
X213487000Y-84963000D01*
X214693817Y-84963000D01*
X214814958Y-84730974D01*
X214642688Y-84315053D01*
X214248490Y-83883179D01*
X214113687Y-83820000D01*
X214248490Y-83756821D01*
X214642688Y-83324947D01*
X214814958Y-82909026D01*
X214693817Y-82677000D01*
X213487000Y-82677000D01*
X213233000Y-82677000D01*
X213213000Y-82677000D01*
X213213000Y-82423000D01*
X213233000Y-82423000D01*
X213233000Y-80137000D01*
X213487000Y-80137000D01*
X213487000Y-82423000D01*
X214693817Y-82423000D01*
X214814958Y-82190974D01*
X214642688Y-81775053D01*
X214248490Y-81343179D01*
X214113687Y-81280000D01*
X214248490Y-81216821D01*
X214642688Y-80784947D01*
X214814958Y-80369026D01*
X214693817Y-80137000D01*
X213487000Y-80137000D01*
X213233000Y-80137000D01*
X213213000Y-80137000D01*
X213213000Y-79883000D01*
X213233000Y-79883000D01*
X213233000Y-79863000D01*
X213487000Y-79863000D01*
X213487000Y-79883000D01*
X214693817Y-79883000D01*
X214814958Y-79650974D01*
X214642688Y-79235053D01*
X214248490Y-78803179D01*
X214125772Y-78745664D01*
X214449029Y-78529670D01*
X214773885Y-78043489D01*
X214887959Y-77470000D01*
X214773885Y-76896511D01*
X214449029Y-76410330D01*
X213962848Y-76085474D01*
X213389359Y-75971400D01*
X213330641Y-75971400D01*
X212757152Y-76085474D01*
X212291558Y-76396574D01*
X212286762Y-76371083D01*
X212147690Y-76154959D01*
X211935490Y-76009969D01*
X211683600Y-75958960D01*
X209956400Y-75958960D01*
X209721083Y-76003238D01*
X209504959Y-76142310D01*
X209359969Y-76354510D01*
X209313294Y-76585000D01*
X207616005Y-76585000D01*
X207616000Y-76584999D01*
X207277325Y-76652367D01*
X206990210Y-76844210D01*
X206990208Y-76844213D01*
X204606900Y-79227520D01*
X204606900Y-69959596D01*
X211937049Y-69959596D01*
X212332573Y-70916838D01*
X213064310Y-71649853D01*
X214020860Y-72047047D01*
X215056596Y-72047951D01*
X216013838Y-71652427D01*
X216746853Y-70920690D01*
X217144047Y-69964140D01*
X217144951Y-68928404D01*
X216749427Y-67971162D01*
X216017690Y-67238147D01*
X215061140Y-66840953D01*
X214025404Y-66840049D01*
X213068162Y-67235573D01*
X212335147Y-67967310D01*
X211937953Y-68923860D01*
X211937049Y-69959596D01*
X204606900Y-69959596D01*
X204606900Y-64769980D01*
X212626787Y-56750092D01*
X212626790Y-56750090D01*
X212818633Y-56462975D01*
X212818634Y-56462974D01*
X212886001Y-56124300D01*
X212886000Y-56124295D01*
X212886000Y-55805857D01*
X212988828Y-55737149D01*
X213291660Y-55283930D01*
X213398000Y-54749321D01*
X213398000Y-53658679D01*
X213291660Y-53124070D01*
X212988828Y-52670851D01*
X212535609Y-52368019D01*
X212001000Y-52261679D01*
X211466391Y-52368019D01*
X211013172Y-52670851D01*
X210731000Y-53093150D01*
X210448828Y-52670851D01*
X209995609Y-52368019D01*
X209461000Y-52261679D01*
X208926391Y-52368019D01*
X208473172Y-52670851D01*
X208191000Y-53093150D01*
X207908828Y-52670851D01*
X207455609Y-52368019D01*
X206921000Y-52261679D01*
X206386391Y-52368019D01*
X205933172Y-52670851D01*
X205651000Y-53093150D01*
X205368828Y-52670851D01*
X204915609Y-52368019D01*
X204381000Y-52261679D01*
X203846391Y-52368019D01*
X203393172Y-52670851D01*
X203111000Y-53093150D01*
X202828828Y-52670851D01*
X202375609Y-52368019D01*
X201841000Y-52261679D01*
X201306391Y-52368019D01*
X200853172Y-52670851D01*
X200571000Y-53093150D01*
X200288828Y-52670851D01*
X199835609Y-52368019D01*
X199301000Y-52261679D01*
X198766391Y-52368019D01*
X198313172Y-52670851D01*
X198031000Y-53093150D01*
X197748828Y-52670851D01*
X197295609Y-52368019D01*
X196761000Y-52261679D01*
X196226391Y-52368019D01*
X195773172Y-52670851D01*
X195491000Y-53093150D01*
X195208828Y-52670851D01*
X194755609Y-52368019D01*
X194221000Y-52261679D01*
X193686391Y-52368019D01*
X193233172Y-52670851D01*
X192930340Y-53124070D01*
X192824000Y-53658679D01*
X192824000Y-54749321D01*
X192930340Y-55283930D01*
X193233172Y-55737149D01*
X193686391Y-56039981D01*
X194221000Y-56146321D01*
X194755609Y-56039981D01*
X195208828Y-55737149D01*
X195491000Y-55314850D01*
X195773172Y-55737149D01*
X196226391Y-56039981D01*
X196761000Y-56146321D01*
X197295609Y-56039981D01*
X197748828Y-55737149D01*
X198031000Y-55314850D01*
X198313172Y-55737149D01*
X198766391Y-56039981D01*
X199301000Y-56146321D01*
X199835609Y-56039981D01*
X200288828Y-55737149D01*
X200571000Y-55314850D01*
X200853172Y-55737149D01*
X201306391Y-56039981D01*
X201841000Y-56146321D01*
X202375609Y-56039981D01*
X202828828Y-55737149D01*
X203111000Y-55314850D01*
X203393172Y-55737149D01*
X203846391Y-56039981D01*
X204381000Y-56146321D01*
X204915609Y-56039981D01*
X205368828Y-55737149D01*
X205651000Y-55314850D01*
X205933172Y-55737149D01*
X206386391Y-56039981D01*
X206921000Y-56146321D01*
X207455609Y-56039981D01*
X207908828Y-55737149D01*
X208191000Y-55314850D01*
X208473172Y-55737149D01*
X208926391Y-56039981D01*
X209461000Y-56146321D01*
X209995609Y-56039981D01*
X210448828Y-55737149D01*
X210731000Y-55314850D01*
X211013172Y-55737149D01*
X211087145Y-55786576D01*
X203096110Y-63777610D01*
X202904267Y-64064725D01*
X202904267Y-64064726D01*
X202836899Y-64403400D01*
X202836900Y-64403405D01*
X202836900Y-85570683D01*
X202569525Y-85623867D01*
X202282410Y-85815710D01*
X202282408Y-85815713D01*
X200669210Y-87428910D01*
X200477367Y-87716025D01*
X200477367Y-87716026D01*
X200409999Y-88054700D01*
X200410000Y-88054705D01*
X200410000Y-88101778D01*
X200409683Y-88101838D01*
X200193559Y-88240910D01*
X200048569Y-88453110D01*
X199997560Y-88705000D01*
X199997560Y-90205000D01*
X200041838Y-90440317D01*
X200180910Y-90656441D01*
X200393110Y-90801431D01*
X200406197Y-90804081D01*
X200193559Y-90940910D01*
X200128056Y-91036777D01*
X199427990Y-90336710D01*
X199275769Y-90235000D01*
X199140875Y-90144867D01*
X199084684Y-90133690D01*
X198802200Y-90077499D01*
X198802195Y-90077500D01*
X198322800Y-90077500D01*
X198322800Y-84486605D01*
X198322801Y-84486600D01*
X198260316Y-84172474D01*
X198255433Y-84147925D01*
X198063590Y-83860810D01*
X198063587Y-83860808D01*
X196678482Y-82475703D01*
X196729941Y-82442590D01*
X196874931Y-82230390D01*
X196925940Y-81978500D01*
X196925940Y-80581500D01*
X196881662Y-80346183D01*
X196742590Y-80130059D01*
X196530390Y-79985069D01*
X196278500Y-79934060D01*
X194881500Y-79934060D01*
X194646183Y-79978338D01*
X194430059Y-80117410D01*
X194285069Y-80329610D01*
X194271827Y-80395000D01*
X193470492Y-80395000D01*
X193452933Y-80306726D01*
X193452933Y-80306725D01*
X193261090Y-80019610D01*
X193261087Y-80019608D01*
X190085690Y-76844210D01*
X189798575Y-76652367D01*
X189742384Y-76641190D01*
X189459900Y-76584999D01*
X189459895Y-76585000D01*
X189444630Y-76585000D01*
X189444630Y-76522844D01*
X189331619Y-75954701D01*
X189009792Y-75473052D01*
X188528143Y-75151225D01*
X187960000Y-75038214D01*
X187391857Y-75151225D01*
X186910208Y-75473052D01*
X186684484Y-75810873D01*
X186379989Y-75429976D01*
X185870810Y-75149351D01*
X185776832Y-75128460D01*
X185547000Y-75249786D01*
X185547000Y-77343000D01*
X185567000Y-77343000D01*
X185567000Y-77597000D01*
X185547000Y-77597000D01*
X185547000Y-79690214D01*
X185776832Y-79811540D01*
X185870810Y-79790649D01*
X186379989Y-79510024D01*
X186684484Y-79129127D01*
X186910208Y-79466948D01*
X187391857Y-79788775D01*
X187960000Y-79901786D01*
X188528143Y-79788775D01*
X189009792Y-79466948D01*
X189331619Y-78985299D01*
X189396656Y-78658336D01*
X191750300Y-81011979D01*
X191750300Y-96485710D01*
X191735750Y-96485710D01*
X191577000Y-96644460D01*
X191577000Y-97393760D01*
X191597000Y-97393760D01*
X191597000Y-97647760D01*
X191577000Y-97647760D01*
X191577000Y-97667760D01*
X191323000Y-97667760D01*
X191323000Y-97647760D01*
X191303000Y-97647760D01*
X191303000Y-97393760D01*
X191323000Y-97393760D01*
X191323000Y-96644460D01*
X191176843Y-96498303D01*
X191351491Y-96385920D01*
X191496481Y-96173720D01*
X191547490Y-95921830D01*
X191547490Y-95121730D01*
X191503212Y-94886413D01*
X191364140Y-94670289D01*
X191151940Y-94525299D01*
X190900050Y-94474290D01*
X190099950Y-94474290D01*
X189864633Y-94518568D01*
X189648509Y-94657640D01*
X189503519Y-94869840D01*
X189452510Y-95121730D01*
X189452510Y-95921830D01*
X189496788Y-96157147D01*
X189635860Y-96373271D01*
X189782213Y-96473270D01*
X189149950Y-96473270D01*
X188914633Y-96517548D01*
X188813259Y-96582780D01*
X188044690Y-95814210D01*
X187757575Y-95622367D01*
X187701384Y-95611190D01*
X187418900Y-95554999D01*
X187418895Y-95555000D01*
X185422038Y-95555000D01*
X185403162Y-95454683D01*
X185264090Y-95238559D01*
X185051890Y-95093569D01*
X184800000Y-95042560D01*
X183500000Y-95042560D01*
X183264683Y-95086838D01*
X183048559Y-95225910D01*
X182903569Y-95438110D01*
X182879898Y-95555000D01*
X182849705Y-95555000D01*
X182849700Y-95554999D01*
X182567216Y-95611190D01*
X182511025Y-95622367D01*
X182223910Y-95814210D01*
X182223908Y-95814213D01*
X181182820Y-96855300D01*
X163488500Y-96855300D01*
X163149825Y-96922667D01*
X162862710Y-97114510D01*
X162862708Y-97114513D01*
X158770735Y-101206485D01*
X158656250Y-101092000D01*
X157607000Y-101092000D01*
X157607000Y-101112000D01*
X157353000Y-101112000D01*
X157353000Y-101092000D01*
X156303750Y-101092000D01*
X156145000Y-101250750D01*
X156145000Y-101450300D01*
X153506442Y-101450300D01*
X153750732Y-101232036D01*
X154004709Y-100704791D01*
X154007358Y-100689026D01*
X153886217Y-100457000D01*
X152527000Y-100457000D01*
X152527000Y-100477000D01*
X152273000Y-100477000D01*
X152273000Y-100457000D01*
X152253000Y-100457000D01*
X152253000Y-100203000D01*
X152273000Y-100203000D01*
X152273000Y-97917000D01*
X152527000Y-97917000D01*
X152527000Y-100203000D01*
X153886217Y-100203000D01*
X153919792Y-100138691D01*
X156145000Y-100138691D01*
X156145000Y-100679250D01*
X156303750Y-100838000D01*
X157353000Y-100838000D01*
X157353000Y-99788750D01*
X157607000Y-99788750D01*
X157607000Y-100838000D01*
X158656250Y-100838000D01*
X158815000Y-100679250D01*
X158815000Y-100138691D01*
X158718327Y-99905302D01*
X158539699Y-99726673D01*
X158306310Y-99630000D01*
X157765750Y-99630000D01*
X157607000Y-99788750D01*
X157353000Y-99788750D01*
X157194250Y-99630000D01*
X156653690Y-99630000D01*
X156420301Y-99726673D01*
X156241673Y-99905302D01*
X156145000Y-100138691D01*
X153919792Y-100138691D01*
X154007358Y-99970974D01*
X154004709Y-99955209D01*
X153750732Y-99427964D01*
X153338892Y-99060000D01*
X153750732Y-98692036D01*
X154004709Y-98164791D01*
X154007358Y-98149026D01*
X153886217Y-97917000D01*
X152527000Y-97917000D01*
X152273000Y-97917000D01*
X150913783Y-97917000D01*
X150792642Y-98149026D01*
X150795291Y-98164791D01*
X151049268Y-98692036D01*
X151461108Y-99060000D01*
X151049268Y-99427964D01*
X150830531Y-99882052D01*
X149726400Y-98777920D01*
X149726400Y-93827980D01*
X150788290Y-94889869D01*
X150716655Y-95250000D01*
X150830729Y-95823489D01*
X151155585Y-96309670D01*
X151465069Y-96516461D01*
X151049268Y-96887964D01*
X150795291Y-97415209D01*
X150792642Y-97430974D01*
X150913783Y-97663000D01*
X152273000Y-97663000D01*
X152273000Y-97643000D01*
X152527000Y-97643000D01*
X152527000Y-97663000D01*
X153886217Y-97663000D01*
X154007358Y-97430974D01*
X154004709Y-97415209D01*
X153750732Y-96887964D01*
X153334931Y-96516461D01*
X153644415Y-96309670D01*
X153969271Y-95823489D01*
X153990896Y-95714775D01*
X156222008Y-97945887D01*
X156222010Y-97945890D01*
X156421187Y-98078975D01*
X156509125Y-98137733D01*
X156847800Y-98205101D01*
X156847805Y-98205100D01*
X158111395Y-98205100D01*
X158111400Y-98205101D01*
X158405553Y-98146589D01*
X158450075Y-98137733D01*
X158737190Y-97945890D01*
X158737191Y-97945889D01*
X159828787Y-96854292D01*
X159828790Y-96854290D01*
X159975631Y-96634526D01*
X160020634Y-96567174D01*
X160088001Y-96228500D01*
X160088000Y-96228495D01*
X160088000Y-95081916D01*
X160130201Y-95124117D01*
X160363590Y-95220790D01*
X161004250Y-95220790D01*
X161163000Y-95062040D01*
X161163000Y-92712540D01*
X161417000Y-92712540D01*
X161417000Y-95062040D01*
X161575750Y-95220790D01*
X162216410Y-95220790D01*
X162449799Y-95124117D01*
X162628427Y-94945488D01*
X162725100Y-94712099D01*
X162725100Y-92871290D01*
X162566350Y-92712540D01*
X161417000Y-92712540D01*
X161163000Y-92712540D01*
X161143000Y-92712540D01*
X161143000Y-92458540D01*
X161163000Y-92458540D01*
X161163000Y-92438540D01*
X161417000Y-92438540D01*
X161417000Y-92458540D01*
X162566350Y-92458540D01*
X162725100Y-92299790D01*
X162725100Y-90777800D01*
X163777720Y-90777800D01*
X169541008Y-96541087D01*
X169541010Y-96541090D01*
X169783577Y-96703167D01*
X169828125Y-96732933D01*
X170166800Y-96800301D01*
X170166805Y-96800300D01*
X180420000Y-96800300D01*
X180758675Y-96732933D01*
X181045790Y-96541090D01*
X181237633Y-96253975D01*
X181305000Y-95915300D01*
X181305000Y-95887038D01*
X181405317Y-95868162D01*
X181621441Y-95729090D01*
X181766431Y-95516890D01*
X181817440Y-95265000D01*
X181817440Y-93965000D01*
X181773162Y-93729683D01*
X181634090Y-93513559D01*
X181421890Y-93368569D01*
X181170000Y-93317560D01*
X179670000Y-93317560D01*
X179434683Y-93361838D01*
X179218559Y-93500910D01*
X179073569Y-93713110D01*
X179070919Y-93726197D01*
X178934090Y-93513559D01*
X178721890Y-93368569D01*
X178470000Y-93317560D01*
X176970000Y-93317560D01*
X176734683Y-93361838D01*
X176518559Y-93500910D01*
X176493648Y-93537369D01*
X175920280Y-92964000D01*
X176022002Y-92964000D01*
X176022002Y-92805252D01*
X176180750Y-92964000D01*
X176592810Y-92964000D01*
X176826199Y-92867327D01*
X177004827Y-92688698D01*
X177101500Y-92455309D01*
X177101500Y-92360750D01*
X176942750Y-92202000D01*
X176022000Y-92202000D01*
X176022000Y-92222000D01*
X175768000Y-92222000D01*
X175768000Y-92202000D01*
X175748000Y-92202000D01*
X175748000Y-91948000D01*
X175768000Y-91948000D01*
X175768000Y-91928000D01*
X176022000Y-91928000D01*
X176022000Y-91948000D01*
X176942750Y-91948000D01*
X177101500Y-91789250D01*
X177101500Y-91694691D01*
X177004827Y-91461302D01*
X176978291Y-91434765D01*
X177062931Y-91310890D01*
X177113940Y-91059000D01*
X177113940Y-90551000D01*
X177089291Y-90420000D01*
X178116620Y-90420000D01*
X180397408Y-92700787D01*
X180397410Y-92700790D01*
X180684525Y-92892633D01*
X181023200Y-92960000D01*
X181592317Y-92960000D01*
X181673500Y-92976440D01*
X182816500Y-92976440D01*
X183051817Y-92932162D01*
X183267941Y-92793090D01*
X183412931Y-92580890D01*
X183463940Y-92329000D01*
X183463940Y-91821000D01*
X183439291Y-91690000D01*
X186267521Y-91690000D01*
X186518808Y-91941287D01*
X186518810Y-91941290D01*
X186805925Y-92133133D01*
X186862116Y-92144310D01*
X187144600Y-92200501D01*
X187144605Y-92200500D01*
X187147460Y-92200500D01*
X187147460Y-93315790D01*
X187191738Y-93551107D01*
X187330810Y-93767231D01*
X187543010Y-93912221D01*
X187794900Y-93963230D01*
X189395100Y-93963230D01*
X189630417Y-93918952D01*
X189846541Y-93779880D01*
X189991531Y-93567680D01*
X190042540Y-93315790D01*
X190042540Y-89315290D01*
X189998262Y-89079973D01*
X189859190Y-88863849D01*
X189646990Y-88718859D01*
X189395100Y-88667850D01*
X187794900Y-88667850D01*
X187559583Y-88712128D01*
X187343459Y-88851200D01*
X187198469Y-89063400D01*
X187147460Y-89315290D01*
X187147460Y-90104087D01*
X186972775Y-89987367D01*
X186916584Y-89976190D01*
X186634100Y-89919999D01*
X186634095Y-89920000D01*
X183449557Y-89920000D01*
X183451500Y-89915309D01*
X183451500Y-89820750D01*
X183292750Y-89662000D01*
X182372000Y-89662000D01*
X182372000Y-89682000D01*
X182118000Y-89682000D01*
X182118000Y-89662000D01*
X181197250Y-89662000D01*
X181038500Y-89820750D01*
X181038500Y-89915309D01*
X181135173Y-90148698D01*
X181161709Y-90175235D01*
X181077069Y-90299110D01*
X181026060Y-90551000D01*
X181026060Y-90826281D01*
X179368200Y-89168420D01*
X179368200Y-88011000D01*
X181026060Y-88011000D01*
X181026060Y-88519000D01*
X181070338Y-88754317D01*
X181161104Y-88895371D01*
X181135173Y-88921302D01*
X181038500Y-89154691D01*
X181038500Y-89249250D01*
X181197250Y-89408000D01*
X182118000Y-89408000D01*
X182118000Y-89388000D01*
X182372000Y-89388000D01*
X182372000Y-89408000D01*
X183292750Y-89408000D01*
X183451500Y-89249250D01*
X183451500Y-89154691D01*
X183449557Y-89150000D01*
X183466795Y-89150000D01*
X183466800Y-89150001D01*
X183768283Y-89090031D01*
X183805475Y-89082633D01*
X184092590Y-88890790D01*
X184092591Y-88890789D01*
X186883879Y-86099500D01*
X187147460Y-86099500D01*
X187147460Y-87214710D01*
X187191738Y-87450027D01*
X187330810Y-87666151D01*
X187543010Y-87811141D01*
X187794900Y-87862150D01*
X189395100Y-87862150D01*
X189630417Y-87817872D01*
X189846541Y-87678800D01*
X189991531Y-87466600D01*
X190042540Y-87214710D01*
X190042540Y-83214210D01*
X189998262Y-82978893D01*
X189859190Y-82762769D01*
X189646990Y-82617779D01*
X189395100Y-82566770D01*
X187794900Y-82566770D01*
X187559583Y-82611048D01*
X187343459Y-82750120D01*
X187198469Y-82962320D01*
X187147460Y-83214210D01*
X187147460Y-84329500D01*
X186517300Y-84329500D01*
X186178625Y-84396867D01*
X185891510Y-84588710D01*
X185891508Y-84588713D01*
X183100220Y-87380000D01*
X182897683Y-87380000D01*
X182816500Y-87363560D01*
X181673500Y-87363560D01*
X181438183Y-87407838D01*
X181222059Y-87546910D01*
X181077069Y-87759110D01*
X181026060Y-88011000D01*
X179368200Y-88011000D01*
X179368200Y-83559279D01*
X179571287Y-83356192D01*
X179571290Y-83356190D01*
X179763133Y-83069075D01*
X179774310Y-83012884D01*
X179830501Y-82730400D01*
X179830500Y-82730395D01*
X179830500Y-82727540D01*
X180945790Y-82727540D01*
X181181107Y-82683262D01*
X181397231Y-82544190D01*
X181542221Y-82331990D01*
X181566076Y-82214188D01*
X182125417Y-82214188D01*
X182187071Y-82449800D01*
X182687480Y-82625927D01*
X183217199Y-82597148D01*
X183572929Y-82449800D01*
X183634583Y-82214188D01*
X182880000Y-81459605D01*
X182125417Y-82214188D01*
X181566076Y-82214188D01*
X181593230Y-82080100D01*
X181593230Y-81690538D01*
X181710200Y-81972929D01*
X181945812Y-82034583D01*
X182700395Y-81280000D01*
X183059605Y-81280000D01*
X183814188Y-82034583D01*
X184049800Y-81972929D01*
X184225927Y-81472520D01*
X184197148Y-80942801D01*
X184049800Y-80587071D01*
X183814188Y-80525417D01*
X183059605Y-81280000D01*
X182700395Y-81280000D01*
X181945812Y-80525417D01*
X181710200Y-80587071D01*
X181593230Y-80919404D01*
X181593230Y-80479900D01*
X181568000Y-80345812D01*
X182125417Y-80345812D01*
X182880000Y-81100395D01*
X183634583Y-80345812D01*
X183572929Y-80110200D01*
X183072520Y-79934073D01*
X182542801Y-79962852D01*
X182187071Y-80110200D01*
X182125417Y-80345812D01*
X181568000Y-80345812D01*
X181548952Y-80244583D01*
X181409880Y-80028459D01*
X181197680Y-79883469D01*
X180945790Y-79832460D01*
X180269220Y-79832460D01*
X181443344Y-78658336D01*
X181508381Y-78985299D01*
X181830208Y-79466948D01*
X182311857Y-79788775D01*
X182880000Y-79901786D01*
X183448143Y-79788775D01*
X183929792Y-79466948D01*
X184155516Y-79129127D01*
X184460011Y-79510024D01*
X184969190Y-79790649D01*
X185063168Y-79811540D01*
X185293000Y-79690214D01*
X185293000Y-77597000D01*
X185273000Y-77597000D01*
X185273000Y-77343000D01*
X185293000Y-77343000D01*
X185293000Y-75249786D01*
X185063168Y-75128460D01*
X184969190Y-75149351D01*
X184460011Y-75429976D01*
X184155516Y-75810873D01*
X183929792Y-75473052D01*
X183448143Y-75151225D01*
X182880000Y-75038214D01*
X182311857Y-75151225D01*
X181830208Y-75473052D01*
X181508381Y-75954701D01*
X181395370Y-76522844D01*
X181395370Y-76585000D01*
X181380100Y-76585000D01*
X181041425Y-76652367D01*
X180754310Y-76844210D01*
X180754308Y-76844213D01*
X178545733Y-79052787D01*
X178319710Y-79203810D01*
X178127867Y-79490925D01*
X178060500Y-79829600D01*
X178060500Y-79832460D01*
X176945290Y-79832460D01*
X176709973Y-79876738D01*
X176493849Y-80015810D01*
X176348859Y-80228010D01*
X176297850Y-80479900D01*
X176297850Y-82080100D01*
X176342128Y-82315417D01*
X176481200Y-82531541D01*
X176693400Y-82676531D01*
X176945290Y-82727540D01*
X177750081Y-82727540D01*
X177665567Y-82854025D01*
X177665567Y-82854026D01*
X177598199Y-83192700D01*
X177598200Y-83192705D01*
X177598200Y-85003900D01*
X169525236Y-85003900D01*
X169622419Y-84727878D01*
X169593664Y-84197560D01*
X169463576Y-83883500D01*
X169734809Y-83883500D01*
X169968198Y-83786827D01*
X170146827Y-83608199D01*
X170243500Y-83374810D01*
X170243500Y-82835750D01*
X170084750Y-82677000D01*
X169037000Y-82677000D01*
X169037000Y-83593392D01*
X169030669Y-83599723D01*
X168968831Y-83363958D01*
X168783000Y-83298530D01*
X168783000Y-82677000D01*
X167735250Y-82677000D01*
X167576500Y-82835750D01*
X167576500Y-83374810D01*
X167577616Y-83377504D01*
X167519331Y-83599725D01*
X168275000Y-84355395D01*
X168289142Y-84341252D01*
X168468748Y-84520858D01*
X168454605Y-84535000D01*
X168468748Y-84549142D01*
X168289143Y-84728748D01*
X168275000Y-84714605D01*
X168260858Y-84728748D01*
X168081252Y-84549142D01*
X168095395Y-84535000D01*
X167339725Y-83779331D01*
X167103958Y-83841169D01*
X166927581Y-84342122D01*
X166956336Y-84872440D01*
X167010789Y-85003900D01*
X165953679Y-85003900D01*
X164157790Y-83208010D01*
X164104756Y-83172574D01*
X163870675Y-83016167D01*
X163814484Y-83004990D01*
X163532000Y-82948799D01*
X163531995Y-82948800D01*
X160733179Y-82948800D01*
X161956789Y-81725190D01*
X167576500Y-81725190D01*
X167576500Y-82264250D01*
X167735250Y-82423000D01*
X168783000Y-82423000D01*
X168783000Y-81375250D01*
X169037000Y-81375250D01*
X169037000Y-82423000D01*
X170084750Y-82423000D01*
X170236194Y-82271556D01*
X170305883Y-82439799D01*
X170484512Y-82618427D01*
X170717901Y-82715100D01*
X172558710Y-82715100D01*
X172717460Y-82556350D01*
X172717460Y-81407000D01*
X172971460Y-81407000D01*
X172971460Y-82556350D01*
X173130210Y-82715100D01*
X174971019Y-82715100D01*
X175204408Y-82618427D01*
X175383037Y-82439799D01*
X175479710Y-82206410D01*
X175479710Y-81565750D01*
X175320960Y-81407000D01*
X172971460Y-81407000D01*
X172717460Y-81407000D01*
X170367960Y-81407000D01*
X170209210Y-81565750D01*
X170209210Y-81642407D01*
X170146827Y-81491801D01*
X169968198Y-81313173D01*
X169734809Y-81216500D01*
X169195750Y-81216500D01*
X169037000Y-81375250D01*
X168783000Y-81375250D01*
X168624250Y-81216500D01*
X168085191Y-81216500D01*
X167851802Y-81313173D01*
X167673173Y-81491801D01*
X167576500Y-81725190D01*
X161956789Y-81725190D01*
X163185787Y-80496192D01*
X163185790Y-80496190D01*
X163281071Y-80353590D01*
X170209210Y-80353590D01*
X170209210Y-80994250D01*
X170367960Y-81153000D01*
X172717460Y-81153000D01*
X172717460Y-80003650D01*
X172971460Y-80003650D01*
X172971460Y-81153000D01*
X175320960Y-81153000D01*
X175479710Y-80994250D01*
X175479710Y-80353590D01*
X175383037Y-80120201D01*
X175204408Y-79941573D01*
X174971019Y-79844900D01*
X173130210Y-79844900D01*
X172971460Y-80003650D01*
X172717460Y-80003650D01*
X172558710Y-79844900D01*
X170717901Y-79844900D01*
X170484512Y-79941573D01*
X170305883Y-80120201D01*
X170209210Y-80353590D01*
X163281071Y-80353590D01*
X163377633Y-80209075D01*
X163445000Y-79870400D01*
X163445000Y-79577058D01*
X163609792Y-79466948D01*
X163931619Y-78985299D01*
X164044630Y-78417156D01*
X164044630Y-76522844D01*
X163931619Y-75954701D01*
X163609792Y-75473052D01*
X163128143Y-75151225D01*
X162560000Y-75038214D01*
X161991857Y-75151225D01*
X161510208Y-75473052D01*
X161284484Y-75810873D01*
X160979989Y-75429976D01*
X160470810Y-75149351D01*
X160376832Y-75128460D01*
X160147000Y-75249786D01*
X160147000Y-77343000D01*
X160167000Y-77343000D01*
X160167000Y-77597000D01*
X160147000Y-77597000D01*
X160147000Y-79690214D01*
X160376832Y-79811540D01*
X160470810Y-79790649D01*
X160979989Y-79510024D01*
X161284484Y-79129127D01*
X161510208Y-79466948D01*
X161631097Y-79547724D01*
X156775820Y-84403000D01*
X152745479Y-84403000D01*
X153713479Y-83435000D01*
X155209246Y-83435000D01*
X155453647Y-83679827D01*
X155943587Y-83883268D01*
X156474086Y-83883731D01*
X156964380Y-83681146D01*
X157339827Y-83306353D01*
X157543268Y-82816413D01*
X157543731Y-82285914D01*
X157341146Y-81795620D01*
X157095000Y-81549044D01*
X157095000Y-81506980D01*
X158105787Y-80496192D01*
X158105790Y-80496190D01*
X158297633Y-80209075D01*
X158311970Y-80137000D01*
X158365001Y-79870400D01*
X158365000Y-79870395D01*
X158365000Y-79577058D01*
X158529792Y-79466948D01*
X158755516Y-79129127D01*
X159060011Y-79510024D01*
X159569190Y-79790649D01*
X159663168Y-79811540D01*
X159893000Y-79690214D01*
X159893000Y-77597000D01*
X159873000Y-77597000D01*
X159873000Y-77343000D01*
X159893000Y-77343000D01*
X159893000Y-75249786D01*
X159663168Y-75128460D01*
X159569190Y-75149351D01*
X159060011Y-75429976D01*
X158755516Y-75810873D01*
X158529792Y-75473052D01*
X158048143Y-75151225D01*
X157480000Y-75038214D01*
X156911857Y-75151225D01*
X156430208Y-75473052D01*
X156108381Y-75954701D01*
X155995370Y-76522844D01*
X155995370Y-78417156D01*
X156108381Y-78985299D01*
X156430208Y-79466948D01*
X156551097Y-79547723D01*
X155584210Y-80514610D01*
X155392367Y-80801725D01*
X155392367Y-80801726D01*
X155324999Y-81140400D01*
X155325000Y-81140405D01*
X155325000Y-81549246D01*
X155209044Y-81665000D01*
X153346900Y-81665000D01*
X153008225Y-81732367D01*
X152721110Y-81924210D01*
X152721108Y-81924213D01*
X149726400Y-84918920D01*
X149726400Y-80026480D01*
X168544864Y-61208015D01*
X182884641Y-61208015D01*
X183269746Y-62140041D01*
X183982208Y-62853748D01*
X184913561Y-63240479D01*
X185922015Y-63241359D01*
X186854041Y-62856254D01*
X187567748Y-62143792D01*
X187954479Y-61212439D01*
X187955359Y-60203985D01*
X187570254Y-59271959D01*
X186857792Y-58558252D01*
X185926439Y-58171521D01*
X184917985Y-58170641D01*
X183985959Y-58555746D01*
X183272252Y-59268208D01*
X182885521Y-60199561D01*
X182884641Y-61208015D01*
X168544864Y-61208015D01*
X173002787Y-56750092D01*
X173002790Y-56750090D01*
X173194633Y-56462975D01*
X173205810Y-56406784D01*
X173262001Y-56124300D01*
X173262000Y-56124295D01*
X173262000Y-55805857D01*
X173364828Y-55737149D01*
X173647000Y-55314850D01*
X173929172Y-55737149D01*
X174382391Y-56039981D01*
X174917000Y-56146321D01*
X175451609Y-56039981D01*
X175904828Y-55737149D01*
X176187000Y-55314850D01*
X176469172Y-55737149D01*
X176922391Y-56039981D01*
X177457000Y-56146321D01*
X177991609Y-56039981D01*
X178444828Y-55737149D01*
X178727000Y-55314850D01*
X179009172Y-55737149D01*
X179462391Y-56039981D01*
X179997000Y-56146321D01*
X180531609Y-56039981D01*
X180984828Y-55737149D01*
X181267000Y-55314850D01*
X181549172Y-55737149D01*
X182002391Y-56039981D01*
X182537000Y-56146321D01*
X183071609Y-56039981D01*
X183524828Y-55737149D01*
X183807000Y-55314850D01*
X184089172Y-55737149D01*
X184542391Y-56039981D01*
X185077000Y-56146321D01*
X185611609Y-56039981D01*
X186064828Y-55737149D01*
X186347000Y-55314850D01*
X186629172Y-55737149D01*
X187082391Y-56039981D01*
X187617000Y-56146321D01*
X188151609Y-56039981D01*
X188604828Y-55737149D01*
X188887000Y-55314850D01*
X189169172Y-55737149D01*
X189622391Y-56039981D01*
X190157000Y-56146321D01*
X190691609Y-56039981D01*
X191144828Y-55737149D01*
X191447660Y-55283930D01*
X191554000Y-54749321D01*
X191554000Y-53658679D01*
X191447660Y-53124070D01*
X191144828Y-52670851D01*
X190691609Y-52368019D01*
X190157000Y-52261679D01*
X189622391Y-52368019D01*
X189169172Y-52670851D01*
X188887000Y-53093150D01*
X188604828Y-52670851D01*
X188151609Y-52368019D01*
X187617000Y-52261679D01*
X187082391Y-52368019D01*
X186629172Y-52670851D01*
X186347000Y-53093150D01*
X186064828Y-52670851D01*
X185611609Y-52368019D01*
X185077000Y-52261679D01*
X184542391Y-52368019D01*
X184089172Y-52670851D01*
X183807000Y-53093150D01*
X183524828Y-52670851D01*
X183071609Y-52368019D01*
X182537000Y-52261679D01*
X182002391Y-52368019D01*
X181549172Y-52670851D01*
X181267000Y-53093150D01*
X180984828Y-52670851D01*
X180531609Y-52368019D01*
X179997000Y-52261679D01*
X179462391Y-52368019D01*
X179009172Y-52670851D01*
X178727000Y-53093150D01*
X178444828Y-52670851D01*
X177991609Y-52368019D01*
X177457000Y-52261679D01*
X176922391Y-52368019D01*
X176469172Y-52670851D01*
X176187000Y-53093150D01*
X175904828Y-52670851D01*
X175451609Y-52368019D01*
X174917000Y-52261679D01*
X174382391Y-52368019D01*
X173929172Y-52670851D01*
X173647000Y-53093150D01*
X173364828Y-52670851D01*
X172911609Y-52368019D01*
X172377000Y-52261679D01*
X171842391Y-52368019D01*
X171389172Y-52670851D01*
X171086340Y-53124070D01*
X170980000Y-53658679D01*
X170980000Y-54749321D01*
X171086340Y-55283930D01*
X171389172Y-55737149D01*
X171463145Y-55786576D01*
X148640000Y-78609720D01*
X148640000Y-61208015D01*
X157484641Y-61208015D01*
X157869746Y-62140041D01*
X158582208Y-62853748D01*
X159513561Y-63240479D01*
X160522015Y-63241359D01*
X161454041Y-62856254D01*
X162167748Y-62143792D01*
X162554479Y-61212439D01*
X162555359Y-60203985D01*
X162170254Y-59271959D01*
X161457792Y-58558252D01*
X160526439Y-58171521D01*
X159517985Y-58170641D01*
X158585959Y-58555746D01*
X157872252Y-59268208D01*
X157485521Y-60199561D01*
X157484641Y-61208015D01*
X148640000Y-61208015D01*
X148640000Y-52120000D01*
X162143518Y-52120000D01*
X161535147Y-52727310D01*
X161535147Y-52727310D01*
G37*
X161535147Y-52727310D02*
X161137953Y-53683860D01*
X161137049Y-54719596D01*
X161532573Y-55676838D01*
X162264310Y-56409853D01*
X163220860Y-56807047D01*
X164256596Y-56807951D01*
X165213838Y-56412427D01*
X165946853Y-55680690D01*
X166344047Y-54724140D01*
X166344951Y-53688404D01*
X165949427Y-52731162D01*
X165339331Y-52120000D01*
X217755000Y-52120000D01*
X217755000Y-104725000D01*
X163816602Y-104725000D01*
X163943838Y-104672427D01*
X164676853Y-103940690D01*
X165074047Y-102984140D01*
X165074951Y-101948404D01*
X164679427Y-100991162D01*
X163947690Y-100258147D01*
X162991140Y-99860953D01*
X162619750Y-99860629D01*
X163855079Y-98625300D01*
X181549395Y-98625300D01*
X181549400Y-98625301D01*
X181845961Y-98566310D01*
X181888075Y-98557933D01*
X182175190Y-98366090D01*
X182982633Y-97558646D01*
X183035910Y-97641441D01*
X183248110Y-97786431D01*
X183261197Y-97789081D01*
X183048559Y-97925910D01*
X182903569Y-98138110D01*
X182852560Y-98390000D01*
X182852560Y-99890000D01*
X182896838Y-100125317D01*
X183035910Y-100341441D01*
X183194657Y-100449908D01*
X183176000Y-100543700D01*
X183176000Y-100862143D01*
X183073172Y-100930851D01*
X182791000Y-101353150D01*
X182508828Y-100930851D01*
X182055609Y-100628019D01*
X181521000Y-100521679D01*
X180986391Y-100628019D01*
X180533172Y-100930851D01*
X180230340Y-101384070D01*
X180124000Y-101918679D01*
X180124000Y-103009321D01*
X180230340Y-103543930D01*
X180533172Y-103997149D01*
X180986391Y-104299981D01*
X181521000Y-104406321D01*
X182055609Y-104299981D01*
X182508828Y-103997149D01*
X182791000Y-103574850D01*
X183073172Y-103997149D01*
X183526391Y-104299981D01*
X184061000Y-104406321D01*
X184595609Y-104299981D01*
X185048828Y-103997149D01*
X185331000Y-103574850D01*
X185613172Y-103997149D01*
X186066391Y-104299981D01*
X186601000Y-104406321D01*
X187135609Y-104299981D01*
X187588828Y-103997149D01*
X187880330Y-103560887D01*
X187898941Y-103623941D01*
X188242974Y-104049630D01*
X188723723Y-104311260D01*
X188797930Y-104326220D01*
X189014000Y-104203720D01*
X189014000Y-102591000D01*
X188994000Y-102591000D01*
X188994000Y-102337000D01*
X189014000Y-102337000D01*
X189014000Y-102317000D01*
X189268000Y-102317000D01*
X189268000Y-102337000D01*
X189288000Y-102337000D01*
X189288000Y-102591000D01*
X189268000Y-102591000D01*
X189268000Y-104203720D01*
X189484070Y-104326220D01*
X189558277Y-104311260D01*
X190039026Y-104049630D01*
X190383059Y-103623941D01*
X190401670Y-103560887D01*
X190693172Y-103997149D01*
X191146391Y-104299981D01*
X191681000Y-104406321D01*
X192215609Y-104299981D01*
X192668828Y-103997149D01*
X192951000Y-103574850D01*
X193233172Y-103997149D01*
X193686391Y-104299981D01*
X194221000Y-104406321D01*
X194755609Y-104299981D01*
X195208828Y-103997149D01*
X195511660Y-103543930D01*
X195618000Y-103009321D01*
X195618000Y-101918679D01*
X195511660Y-101384070D01*
X195208828Y-100930851D01*
X194755609Y-100628019D01*
X194221000Y-100521679D01*
X193686391Y-100628019D01*
X193233172Y-100930851D01*
X192951000Y-101353150D01*
X192668828Y-100930851D01*
X192215609Y-100628019D01*
X191681000Y-100521679D01*
X191413989Y-100574791D01*
X193261087Y-98727692D01*
X193261090Y-98727690D01*
X193452933Y-98440575D01*
X193467749Y-98366090D01*
X193520301Y-98101900D01*
X193520300Y-98101895D01*
X193520300Y-93035027D01*
X193637863Y-93210974D01*
X193653910Y-93234990D01*
X198834708Y-98415787D01*
X198834710Y-98415790D01*
X199121825Y-98607633D01*
X199178016Y-98618810D01*
X199460500Y-98675001D01*
X199460505Y-98675000D01*
X201131778Y-98675000D01*
X201131838Y-98675317D01*
X201270910Y-98891441D01*
X201483110Y-99036431D01*
X201735000Y-99087440D01*
X203235000Y-99087440D01*
X203470317Y-99043162D01*
X203686441Y-98904090D01*
X203831431Y-98691890D01*
X203838191Y-98658510D01*
X203896673Y-98799699D01*
X204075302Y-98978327D01*
X204308691Y-99075000D01*
X204899250Y-99075000D01*
X205058000Y-98916250D01*
X205058000Y-97917000D01*
X205038000Y-97917000D01*
X205038000Y-97663000D01*
X205058000Y-97663000D01*
X205058000Y-97643000D01*
X205312000Y-97643000D01*
X205312000Y-97663000D01*
X205332000Y-97663000D01*
X205332000Y-97917000D01*
X205312000Y-97917000D01*
X205312000Y-98916250D01*
X205368735Y-98972985D01*
X204683020Y-99658700D01*
X204381000Y-99658700D01*
X204042325Y-99726067D01*
X203755210Y-99917910D01*
X203563367Y-100205025D01*
X203496000Y-100543700D01*
X203496000Y-100862143D01*
X203393172Y-100930851D01*
X203111000Y-101353150D01*
X202828828Y-100930851D01*
X202375609Y-100628019D01*
X201841000Y-100521679D01*
X201306391Y-100628019D01*
X200853172Y-100930851D01*
X200571000Y-101353150D01*
X200288828Y-100930851D01*
X199835609Y-100628019D01*
X199301000Y-100521679D01*
X198766391Y-100628019D01*
X198313172Y-100930851D01*
X198010340Y-101384070D01*
X197904000Y-101918679D01*
X197904000Y-103009321D01*
X198010340Y-103543930D01*
X198313172Y-103997149D01*
X198766391Y-104299981D01*
X199301000Y-104406321D01*
X199835609Y-104299981D01*
X200288828Y-103997149D01*
X200571000Y-103574850D01*
X200853172Y-103997149D01*
X201306391Y-104299981D01*
X201841000Y-104406321D01*
X202375609Y-104299981D01*
X202828828Y-103997149D01*
X203111000Y-103574850D01*
X203393172Y-103997149D01*
X203846391Y-104299981D01*
X204381000Y-104406321D01*
X204915609Y-104299981D01*
X205368828Y-103997149D01*
X205651000Y-103574850D01*
X205933172Y-103997149D01*
X206386391Y-104299981D01*
X206921000Y-104406321D01*
X207455609Y-104299981D01*
X207908828Y-103997149D01*
X208191000Y-103574850D01*
X208473172Y-103997149D01*
X208926391Y-104299981D01*
X209461000Y-104406321D01*
X209995609Y-104299981D01*
X210448828Y-103997149D01*
X210731000Y-103574850D01*
X211013172Y-103997149D01*
X211466391Y-104299981D01*
X212001000Y-104406321D01*
X212535609Y-104299981D01*
X212988828Y-103997149D01*
X213291660Y-103543930D01*
X213398000Y-103009321D01*
X213398000Y-101918679D01*
X213291660Y-101384070D01*
X212988828Y-100930851D01*
X212886000Y-100862143D01*
X212886000Y-100543700D01*
X212818633Y-100205025D01*
X212626790Y-99917910D01*
X212339675Y-99726067D01*
X212001000Y-99658700D01*
X211962704Y-99658700D01*
X212066431Y-99506890D01*
X212117440Y-99255000D01*
X212117440Y-98336176D01*
X212332573Y-98856838D01*
X213064310Y-99589853D01*
X214020860Y-99987047D01*
X215056596Y-99987951D01*
X216013838Y-99592427D01*
X216746853Y-98860690D01*
X217144047Y-97904140D01*
X217144951Y-96868404D01*
X216749427Y-95911162D01*
X216017690Y-95178147D01*
X215061140Y-94780953D01*
X214025404Y-94780049D01*
X213068162Y-95175573D01*
X212335147Y-95907310D01*
X212105000Y-96461566D01*
X212105000Y-96090750D01*
X211946250Y-95932000D01*
X210947000Y-95932000D01*
X210947000Y-95952000D01*
X210693000Y-95952000D01*
X210693000Y-95932000D01*
X209693750Y-95932000D01*
X209535000Y-96090750D01*
X209535000Y-96681309D01*
X209631673Y-96914698D01*
X209810301Y-97093327D01*
X209946287Y-97149654D01*
X209934683Y-97151838D01*
X209718559Y-97290910D01*
X209653056Y-97386777D01*
X207975000Y-95708720D01*
X207975000Y-94928691D01*
X209535000Y-94928691D01*
X209535000Y-95519250D01*
X209693750Y-95678000D01*
X210693000Y-95678000D01*
X210693000Y-94578750D01*
X210947000Y-94578750D01*
X210947000Y-95678000D01*
X211946250Y-95678000D01*
X212105000Y-95519250D01*
X212105000Y-94928691D01*
X212008327Y-94695302D01*
X211829699Y-94516673D01*
X211596310Y-94420000D01*
X211105750Y-94420000D01*
X210947000Y-94578750D01*
X210693000Y-94578750D01*
X210534250Y-94420000D01*
X210043690Y-94420000D01*
X209810301Y-94516673D01*
X209631673Y-94695302D01*
X209535000Y-94928691D01*
X207975000Y-94928691D01*
X207975000Y-93982038D01*
X208075317Y-93963162D01*
X208291441Y-93824090D01*
X208436431Y-93611890D01*
X208487440Y-93360000D01*
X208487440Y-92060000D01*
X208443162Y-91824683D01*
X208304090Y-91608559D01*
X208091890Y-91463569D01*
X207988828Y-91442698D01*
X208159941Y-91332590D01*
X208304931Y-91120390D01*
X208355940Y-90868500D01*
X208355940Y-89471500D01*
X208311662Y-89236183D01*
X208172590Y-89020059D01*
X207960390Y-88875069D01*
X207708500Y-88824060D01*
X206311500Y-88824060D01*
X206076183Y-88868338D01*
X205860059Y-89007410D01*
X205715069Y-89219610D01*
X205664060Y-89471500D01*
X205664060Y-90868500D01*
X205708338Y-91103817D01*
X205847410Y-91319941D01*
X206059610Y-91464931D01*
X206084327Y-91469936D01*
X205888559Y-91595910D01*
X205743569Y-91808110D01*
X205740919Y-91821197D01*
X205604090Y-91608559D01*
X205391890Y-91463569D01*
X205140000Y-91412560D01*
X203640000Y-91412560D01*
X203404683Y-91456838D01*
X203242475Y-91561216D01*
X203221090Y-91529210D01*
X202933975Y-91337367D01*
X202595300Y-91270000D01*
X202567038Y-91270000D01*
X202548162Y-91169683D01*
X202409090Y-90953559D01*
X202196890Y-90808569D01*
X202183803Y-90805919D01*
X202396441Y-90669090D01*
X202541431Y-90456890D01*
X202592440Y-90205000D01*
X202592440Y-88705000D01*
X202548162Y-88469683D01*
X202409090Y-88253559D01*
X202372632Y-88228648D01*
X203274779Y-87326500D01*
X205698495Y-87326500D01*
X205698500Y-87326501D01*
X205980984Y-87270310D01*
X206037175Y-87259133D01*
X206324290Y-87067290D01*
X209761506Y-83630073D01*
X210045752Y-83820000D01*
X209730971Y-84030330D01*
X209406115Y-84516511D01*
X209292041Y-85090000D01*
X209406115Y-85663489D01*
X209730971Y-86149670D01*
X210045752Y-86360000D01*
X209730971Y-86570330D01*
X209406115Y-87056511D01*
X209292041Y-87630000D01*
X209406115Y-88203489D01*
X209730971Y-88689670D01*
X210045752Y-88900000D01*
X209730971Y-89110330D01*
X209406115Y-89596511D01*
X209292041Y-90170000D01*
X209406115Y-90743489D01*
X209730971Y-91229670D01*
X210217152Y-91554526D01*
X210790641Y-91668600D01*
X210849359Y-91668600D01*
X211422848Y-91554526D01*
X211909029Y-91229670D01*
X212089992Y-90958839D01*
X212471510Y-91376821D01*
X213000973Y-91624968D01*
X213233000Y-91504469D01*
X213233000Y-90297000D01*
X213487000Y-90297000D01*
X213487000Y-91504469D01*
X213719027Y-91624968D01*
X214248490Y-91376821D01*
X214642688Y-90944947D01*
X214814958Y-90529026D01*
X214693817Y-90297000D01*
X213487000Y-90297000D01*
X213233000Y-90297000D01*
X213213000Y-90297000D01*
X213213000Y-90043000D01*
X213233000Y-90043000D01*
X213233000Y-87757000D01*
X213487000Y-87757000D01*
X213487000Y-90043000D01*
X214693817Y-90043000D01*
X214814958Y-89810974D01*
X214642688Y-89395053D01*
X214248490Y-88963179D01*
X214113687Y-88900000D01*
X214248490Y-88836821D01*
X214642688Y-88404947D01*
X214814958Y-87989026D01*
X214693817Y-87757000D01*
X213487000Y-87757000D01*
X213233000Y-87757000D01*
X213213000Y-87757000D01*
X213213000Y-87503000D01*
X213233000Y-87503000D01*
X213233000Y-85217000D01*
X213487000Y-85217000D01*
X213487000Y-87503000D01*
X214693817Y-87503000D01*
X214814958Y-87270974D01*
X214642688Y-86855053D01*
X214248490Y-86423179D01*
X214113687Y-86360000D01*
X214248490Y-86296821D01*
X214642688Y-85864947D01*
X214814958Y-85449026D01*
X214693817Y-85217000D01*
X213487000Y-85217000D01*
X213233000Y-85217000D01*
X213213000Y-85217000D01*
X213213000Y-84963000D01*
X213233000Y-84963000D01*
X213233000Y-82677000D01*
X213487000Y-82677000D01*
X213487000Y-84963000D01*
X214693817Y-84963000D01*
X214814958Y-84730974D01*
X214642688Y-84315053D01*
X214248490Y-83883179D01*
X214113687Y-83820000D01*
X214248490Y-83756821D01*
X214642688Y-83324947D01*
X214814958Y-82909026D01*
X214693817Y-82677000D01*
X213487000Y-82677000D01*
X213233000Y-82677000D01*
X213213000Y-82677000D01*
X213213000Y-82423000D01*
X213233000Y-82423000D01*
X213233000Y-80137000D01*
X213487000Y-80137000D01*
X213487000Y-82423000D01*
X214693817Y-82423000D01*
X214814958Y-82190974D01*
X214642688Y-81775053D01*
X214248490Y-81343179D01*
X214113687Y-81280000D01*
X214248490Y-81216821D01*
X214642688Y-80784947D01*
X214814958Y-80369026D01*
X214693817Y-80137000D01*
X213487000Y-80137000D01*
X213233000Y-80137000D01*
X213213000Y-80137000D01*
X213213000Y-79883000D01*
X213233000Y-79883000D01*
X213233000Y-79863000D01*
X213487000Y-79863000D01*
X213487000Y-79883000D01*
X214693817Y-79883000D01*
X214814958Y-79650974D01*
X214642688Y-79235053D01*
X214248490Y-78803179D01*
X214125772Y-78745664D01*
X214449029Y-78529670D01*
X214773885Y-78043489D01*
X214887959Y-77470000D01*
X214773885Y-76896511D01*
X214449029Y-76410330D01*
X213962848Y-76085474D01*
X213389359Y-75971400D01*
X213330641Y-75971400D01*
X212757152Y-76085474D01*
X212291558Y-76396574D01*
X212286762Y-76371083D01*
X212147690Y-76154959D01*
X211935490Y-76009969D01*
X211683600Y-75958960D01*
X209956400Y-75958960D01*
X209721083Y-76003238D01*
X209504959Y-76142310D01*
X209359969Y-76354510D01*
X209313294Y-76585000D01*
X207616005Y-76585000D01*
X207616000Y-76584999D01*
X207277325Y-76652367D01*
X206990210Y-76844210D01*
X206990208Y-76844213D01*
X204606900Y-79227520D01*
X204606900Y-69959596D01*
X211937049Y-69959596D01*
X212332573Y-70916838D01*
X213064310Y-71649853D01*
X214020860Y-72047047D01*
X215056596Y-72047951D01*
X216013838Y-71652427D01*
X216746853Y-70920690D01*
X217144047Y-69964140D01*
X217144951Y-68928404D01*
X216749427Y-67971162D01*
X216017690Y-67238147D01*
X215061140Y-66840953D01*
X214025404Y-66840049D01*
X213068162Y-67235573D01*
X212335147Y-67967310D01*
X211937953Y-68923860D01*
X211937049Y-69959596D01*
X204606900Y-69959596D01*
X204606900Y-64769980D01*
X212626787Y-56750092D01*
X212626790Y-56750090D01*
X212818633Y-56462975D01*
X212818634Y-56462974D01*
X212886001Y-56124300D01*
X212886000Y-56124295D01*
X212886000Y-55805857D01*
X212988828Y-55737149D01*
X213291660Y-55283930D01*
X213398000Y-54749321D01*
X213398000Y-53658679D01*
X213291660Y-53124070D01*
X212988828Y-52670851D01*
X212535609Y-52368019D01*
X212001000Y-52261679D01*
X211466391Y-52368019D01*
X211013172Y-52670851D01*
X210731000Y-53093150D01*
X210448828Y-52670851D01*
X209995609Y-52368019D01*
X209461000Y-52261679D01*
X208926391Y-52368019D01*
X208473172Y-52670851D01*
X208191000Y-53093150D01*
X207908828Y-52670851D01*
X207455609Y-52368019D01*
X206921000Y-52261679D01*
X206386391Y-52368019D01*
X205933172Y-52670851D01*
X205651000Y-53093150D01*
X205368828Y-52670851D01*
X204915609Y-52368019D01*
X204381000Y-52261679D01*
X203846391Y-52368019D01*
X203393172Y-52670851D01*
X203111000Y-53093150D01*
X202828828Y-52670851D01*
X202375609Y-52368019D01*
X201841000Y-52261679D01*
X201306391Y-52368019D01*
X200853172Y-52670851D01*
X200571000Y-53093150D01*
X200288828Y-52670851D01*
X199835609Y-52368019D01*
X199301000Y-52261679D01*
X198766391Y-52368019D01*
X198313172Y-52670851D01*
X198031000Y-53093150D01*
X197748828Y-52670851D01*
X197295609Y-52368019D01*
X196761000Y-52261679D01*
X196226391Y-52368019D01*
X195773172Y-52670851D01*
X195491000Y-53093150D01*
X195208828Y-52670851D01*
X194755609Y-52368019D01*
X194221000Y-52261679D01*
X193686391Y-52368019D01*
X193233172Y-52670851D01*
X192930340Y-53124070D01*
X192824000Y-53658679D01*
X192824000Y-54749321D01*
X192930340Y-55283930D01*
X193233172Y-55737149D01*
X193686391Y-56039981D01*
X194221000Y-56146321D01*
X194755609Y-56039981D01*
X195208828Y-55737149D01*
X195491000Y-55314850D01*
X195773172Y-55737149D01*
X196226391Y-56039981D01*
X196761000Y-56146321D01*
X197295609Y-56039981D01*
X197748828Y-55737149D01*
X198031000Y-55314850D01*
X198313172Y-55737149D01*
X198766391Y-56039981D01*
X199301000Y-56146321D01*
X199835609Y-56039981D01*
X200288828Y-55737149D01*
X200571000Y-55314850D01*
X200853172Y-55737149D01*
X201306391Y-56039981D01*
X201841000Y-56146321D01*
X202375609Y-56039981D01*
X202828828Y-55737149D01*
X203111000Y-55314850D01*
X203393172Y-55737149D01*
X203846391Y-56039981D01*
X204381000Y-56146321D01*
X204915609Y-56039981D01*
X205368828Y-55737149D01*
X205651000Y-55314850D01*
X205933172Y-55737149D01*
X206386391Y-56039981D01*
X206921000Y-56146321D01*
X207455609Y-56039981D01*
X207908828Y-55737149D01*
X208191000Y-55314850D01*
X208473172Y-55737149D01*
X208926391Y-56039981D01*
X209461000Y-56146321D01*
X209995609Y-56039981D01*
X210448828Y-55737149D01*
X210731000Y-55314850D01*
X211013172Y-55737149D01*
X211087145Y-55786576D01*
X203096110Y-63777610D01*
X202904267Y-64064725D01*
X202904267Y-64064726D01*
X202836899Y-64403400D01*
X202836900Y-64403405D01*
X202836900Y-85570683D01*
X202569525Y-85623867D01*
X202282410Y-85815710D01*
X202282408Y-85815713D01*
X200669210Y-87428910D01*
X200477367Y-87716025D01*
X200477367Y-87716026D01*
X200409999Y-88054700D01*
X200410000Y-88054705D01*
X200410000Y-88101778D01*
X200409683Y-88101838D01*
X200193559Y-88240910D01*
X200048569Y-88453110D01*
X199997560Y-88705000D01*
X199997560Y-90205000D01*
X200041838Y-90440317D01*
X200180910Y-90656441D01*
X200393110Y-90801431D01*
X200406197Y-90804081D01*
X200193559Y-90940910D01*
X200128056Y-91036777D01*
X199427990Y-90336710D01*
X199275769Y-90235000D01*
X199140875Y-90144867D01*
X199084684Y-90133690D01*
X198802200Y-90077499D01*
X198802195Y-90077500D01*
X198322800Y-90077500D01*
X198322800Y-84486605D01*
X198322801Y-84486600D01*
X198260316Y-84172474D01*
X198255433Y-84147925D01*
X198063590Y-83860810D01*
X198063587Y-83860808D01*
X196678482Y-82475703D01*
X196729941Y-82442590D01*
X196874931Y-82230390D01*
X196925940Y-81978500D01*
X196925940Y-80581500D01*
X196881662Y-80346183D01*
X196742590Y-80130059D01*
X196530390Y-79985069D01*
X196278500Y-79934060D01*
X194881500Y-79934060D01*
X194646183Y-79978338D01*
X194430059Y-80117410D01*
X194285069Y-80329610D01*
X194271827Y-80395000D01*
X193470492Y-80395000D01*
X193452933Y-80306726D01*
X193452933Y-80306725D01*
X193261090Y-80019610D01*
X193261087Y-80019608D01*
X190085690Y-76844210D01*
X189798575Y-76652367D01*
X189742384Y-76641190D01*
X189459900Y-76584999D01*
X189459895Y-76585000D01*
X189444630Y-76585000D01*
X189444630Y-76522844D01*
X189331619Y-75954701D01*
X189009792Y-75473052D01*
X188528143Y-75151225D01*
X187960000Y-75038214D01*
X187391857Y-75151225D01*
X186910208Y-75473052D01*
X186684484Y-75810873D01*
X186379989Y-75429976D01*
X185870810Y-75149351D01*
X185776832Y-75128460D01*
X185547000Y-75249786D01*
X185547000Y-77343000D01*
X185567000Y-77343000D01*
X185567000Y-77597000D01*
X185547000Y-77597000D01*
X185547000Y-79690214D01*
X185776832Y-79811540D01*
X185870810Y-79790649D01*
X186379989Y-79510024D01*
X186684484Y-79129127D01*
X186910208Y-79466948D01*
X187391857Y-79788775D01*
X187960000Y-79901786D01*
X188528143Y-79788775D01*
X189009792Y-79466948D01*
X189331619Y-78985299D01*
X189396656Y-78658336D01*
X191750300Y-81011979D01*
X191750300Y-96485710D01*
X191735750Y-96485710D01*
X191577000Y-96644460D01*
X191577000Y-97393760D01*
X191597000Y-97393760D01*
X191597000Y-97647760D01*
X191577000Y-97647760D01*
X191577000Y-97667760D01*
X191323000Y-97667760D01*
X191323000Y-97647760D01*
X191303000Y-97647760D01*
X191303000Y-97393760D01*
X191323000Y-97393760D01*
X191323000Y-96644460D01*
X191176843Y-96498303D01*
X191351491Y-96385920D01*
X191496481Y-96173720D01*
X191547490Y-95921830D01*
X191547490Y-95121730D01*
X191503212Y-94886413D01*
X191364140Y-94670289D01*
X191151940Y-94525299D01*
X190900050Y-94474290D01*
X190099950Y-94474290D01*
X189864633Y-94518568D01*
X189648509Y-94657640D01*
X189503519Y-94869840D01*
X189452510Y-95121730D01*
X189452510Y-95921830D01*
X189496788Y-96157147D01*
X189635860Y-96373271D01*
X189782213Y-96473270D01*
X189149950Y-96473270D01*
X188914633Y-96517548D01*
X188813259Y-96582780D01*
X188044690Y-95814210D01*
X187757575Y-95622367D01*
X187701384Y-95611190D01*
X187418900Y-95554999D01*
X187418895Y-95555000D01*
X185422038Y-95555000D01*
X185403162Y-95454683D01*
X185264090Y-95238559D01*
X185051890Y-95093569D01*
X184800000Y-95042560D01*
X183500000Y-95042560D01*
X183264683Y-95086838D01*
X183048559Y-95225910D01*
X182903569Y-95438110D01*
X182879898Y-95555000D01*
X182849705Y-95555000D01*
X182849700Y-95554999D01*
X182567216Y-95611190D01*
X182511025Y-95622367D01*
X182223910Y-95814210D01*
X182223908Y-95814213D01*
X181182820Y-96855300D01*
X163488500Y-96855300D01*
X163149825Y-96922667D01*
X162862710Y-97114510D01*
X162862708Y-97114513D01*
X158770735Y-101206485D01*
X158656250Y-101092000D01*
X157607000Y-101092000D01*
X157607000Y-101112000D01*
X157353000Y-101112000D01*
X157353000Y-101092000D01*
X156303750Y-101092000D01*
X156145000Y-101250750D01*
X156145000Y-101450300D01*
X153506442Y-101450300D01*
X153750732Y-101232036D01*
X154004709Y-100704791D01*
X154007358Y-100689026D01*
X153886217Y-100457000D01*
X152527000Y-100457000D01*
X152527000Y-100477000D01*
X152273000Y-100477000D01*
X152273000Y-100457000D01*
X152253000Y-100457000D01*
X152253000Y-100203000D01*
X152273000Y-100203000D01*
X152273000Y-97917000D01*
X152527000Y-97917000D01*
X152527000Y-100203000D01*
X153886217Y-100203000D01*
X153919792Y-100138691D01*
X156145000Y-100138691D01*
X156145000Y-100679250D01*
X156303750Y-100838000D01*
X157353000Y-100838000D01*
X157353000Y-99788750D01*
X157607000Y-99788750D01*
X157607000Y-100838000D01*
X158656250Y-100838000D01*
X158815000Y-100679250D01*
X158815000Y-100138691D01*
X158718327Y-99905302D01*
X158539699Y-99726673D01*
X158306310Y-99630000D01*
X157765750Y-99630000D01*
X157607000Y-99788750D01*
X157353000Y-99788750D01*
X157194250Y-99630000D01*
X156653690Y-99630000D01*
X156420301Y-99726673D01*
X156241673Y-99905302D01*
X156145000Y-100138691D01*
X153919792Y-100138691D01*
X154007358Y-99970974D01*
X154004709Y-99955209D01*
X153750732Y-99427964D01*
X153338892Y-99060000D01*
X153750732Y-98692036D01*
X154004709Y-98164791D01*
X154007358Y-98149026D01*
X153886217Y-97917000D01*
X152527000Y-97917000D01*
X152273000Y-97917000D01*
X150913783Y-97917000D01*
X150792642Y-98149026D01*
X150795291Y-98164791D01*
X151049268Y-98692036D01*
X151461108Y-99060000D01*
X151049268Y-99427964D01*
X150830531Y-99882052D01*
X149726400Y-98777920D01*
X149726400Y-93827980D01*
X150788290Y-94889869D01*
X150716655Y-95250000D01*
X150830729Y-95823489D01*
X151155585Y-96309670D01*
X151465069Y-96516461D01*
X151049268Y-96887964D01*
X150795291Y-97415209D01*
X150792642Y-97430974D01*
X150913783Y-97663000D01*
X152273000Y-97663000D01*
X152273000Y-97643000D01*
X152527000Y-97643000D01*
X152527000Y-97663000D01*
X153886217Y-97663000D01*
X154007358Y-97430974D01*
X154004709Y-97415209D01*
X153750732Y-96887964D01*
X153334931Y-96516461D01*
X153644415Y-96309670D01*
X153969271Y-95823489D01*
X153990896Y-95714775D01*
X156222008Y-97945887D01*
X156222010Y-97945890D01*
X156421187Y-98078975D01*
X156509125Y-98137733D01*
X156847800Y-98205101D01*
X156847805Y-98205100D01*
X158111395Y-98205100D01*
X158111400Y-98205101D01*
X158405553Y-98146589D01*
X158450075Y-98137733D01*
X158737190Y-97945890D01*
X158737191Y-97945889D01*
X159828787Y-96854292D01*
X159828790Y-96854290D01*
X159975631Y-96634526D01*
X160020634Y-96567174D01*
X160088001Y-96228500D01*
X160088000Y-96228495D01*
X160088000Y-95081916D01*
X160130201Y-95124117D01*
X160363590Y-95220790D01*
X161004250Y-95220790D01*
X161163000Y-95062040D01*
X161163000Y-92712540D01*
X161417000Y-92712540D01*
X161417000Y-95062040D01*
X161575750Y-95220790D01*
X162216410Y-95220790D01*
X162449799Y-95124117D01*
X162628427Y-94945488D01*
X162725100Y-94712099D01*
X162725100Y-92871290D01*
X162566350Y-92712540D01*
X161417000Y-92712540D01*
X161163000Y-92712540D01*
X161143000Y-92712540D01*
X161143000Y-92458540D01*
X161163000Y-92458540D01*
X161163000Y-92438540D01*
X161417000Y-92438540D01*
X161417000Y-92458540D01*
X162566350Y-92458540D01*
X162725100Y-92299790D01*
X162725100Y-90777800D01*
X163777720Y-90777800D01*
X169541008Y-96541087D01*
X169541010Y-96541090D01*
X169783577Y-96703167D01*
X169828125Y-96732933D01*
X170166800Y-96800301D01*
X170166805Y-96800300D01*
X180420000Y-96800300D01*
X180758675Y-96732933D01*
X181045790Y-96541090D01*
X181237633Y-96253975D01*
X181305000Y-95915300D01*
X181305000Y-95887038D01*
X181405317Y-95868162D01*
X181621441Y-95729090D01*
X181766431Y-95516890D01*
X181817440Y-95265000D01*
X181817440Y-93965000D01*
X181773162Y-93729683D01*
X181634090Y-93513559D01*
X181421890Y-93368569D01*
X181170000Y-93317560D01*
X179670000Y-93317560D01*
X179434683Y-93361838D01*
X179218559Y-93500910D01*
X179073569Y-93713110D01*
X179070919Y-93726197D01*
X178934090Y-93513559D01*
X178721890Y-93368569D01*
X178470000Y-93317560D01*
X176970000Y-93317560D01*
X176734683Y-93361838D01*
X176518559Y-93500910D01*
X176493648Y-93537369D01*
X175920280Y-92964000D01*
X176022002Y-92964000D01*
X176022002Y-92805252D01*
X176180750Y-92964000D01*
X176592810Y-92964000D01*
X176826199Y-92867327D01*
X177004827Y-92688698D01*
X177101500Y-92455309D01*
X177101500Y-92360750D01*
X176942750Y-92202000D01*
X176022000Y-92202000D01*
X176022000Y-92222000D01*
X175768000Y-92222000D01*
X175768000Y-92202000D01*
X175748000Y-92202000D01*
X175748000Y-91948000D01*
X175768000Y-91948000D01*
X175768000Y-91928000D01*
X176022000Y-91928000D01*
X176022000Y-91948000D01*
X176942750Y-91948000D01*
X177101500Y-91789250D01*
X177101500Y-91694691D01*
X177004827Y-91461302D01*
X176978291Y-91434765D01*
X177062931Y-91310890D01*
X177113940Y-91059000D01*
X177113940Y-90551000D01*
X177089291Y-90420000D01*
X178116620Y-90420000D01*
X180397408Y-92700787D01*
X180397410Y-92700790D01*
X180684525Y-92892633D01*
X181023200Y-92960000D01*
X181592317Y-92960000D01*
X181673500Y-92976440D01*
X182816500Y-92976440D01*
X183051817Y-92932162D01*
X183267941Y-92793090D01*
X183412931Y-92580890D01*
X183463940Y-92329000D01*
X183463940Y-91821000D01*
X183439291Y-91690000D01*
X186267521Y-91690000D01*
X186518808Y-91941287D01*
X186518810Y-91941290D01*
X186805925Y-92133133D01*
X186862116Y-92144310D01*
X187144600Y-92200501D01*
X187144605Y-92200500D01*
X187147460Y-92200500D01*
X187147460Y-93315790D01*
X187191738Y-93551107D01*
X187330810Y-93767231D01*
X187543010Y-93912221D01*
X187794900Y-93963230D01*
X189395100Y-93963230D01*
X189630417Y-93918952D01*
X189846541Y-93779880D01*
X189991531Y-93567680D01*
X190042540Y-93315790D01*
X190042540Y-89315290D01*
X189998262Y-89079973D01*
X189859190Y-88863849D01*
X189646990Y-88718859D01*
X189395100Y-88667850D01*
X187794900Y-88667850D01*
X187559583Y-88712128D01*
X187343459Y-88851200D01*
X187198469Y-89063400D01*
X187147460Y-89315290D01*
X187147460Y-90104087D01*
X186972775Y-89987367D01*
X186916584Y-89976190D01*
X186634100Y-89919999D01*
X186634095Y-89920000D01*
X183449557Y-89920000D01*
X183451500Y-89915309D01*
X183451500Y-89820750D01*
X183292750Y-89662000D01*
X182372000Y-89662000D01*
X182372000Y-89682000D01*
X182118000Y-89682000D01*
X182118000Y-89662000D01*
X181197250Y-89662000D01*
X181038500Y-89820750D01*
X181038500Y-89915309D01*
X181135173Y-90148698D01*
X181161709Y-90175235D01*
X181077069Y-90299110D01*
X181026060Y-90551000D01*
X181026060Y-90826281D01*
X179368200Y-89168420D01*
X179368200Y-88011000D01*
X181026060Y-88011000D01*
X181026060Y-88519000D01*
X181070338Y-88754317D01*
X181161104Y-88895371D01*
X181135173Y-88921302D01*
X181038500Y-89154691D01*
X181038500Y-89249250D01*
X181197250Y-89408000D01*
X182118000Y-89408000D01*
X182118000Y-89388000D01*
X182372000Y-89388000D01*
X182372000Y-89408000D01*
X183292750Y-89408000D01*
X183451500Y-89249250D01*
X183451500Y-89154691D01*
X183449557Y-89150000D01*
X183466795Y-89150000D01*
X183466800Y-89150001D01*
X183768283Y-89090031D01*
X183805475Y-89082633D01*
X184092590Y-88890790D01*
X184092591Y-88890789D01*
X186883879Y-86099500D01*
X187147460Y-86099500D01*
X187147460Y-87214710D01*
X187191738Y-87450027D01*
X187330810Y-87666151D01*
X187543010Y-87811141D01*
X187794900Y-87862150D01*
X189395100Y-87862150D01*
X189630417Y-87817872D01*
X189846541Y-87678800D01*
X189991531Y-87466600D01*
X190042540Y-87214710D01*
X190042540Y-83214210D01*
X189998262Y-82978893D01*
X189859190Y-82762769D01*
X189646990Y-82617779D01*
X189395100Y-82566770D01*
X187794900Y-82566770D01*
X187559583Y-82611048D01*
X187343459Y-82750120D01*
X187198469Y-82962320D01*
X187147460Y-83214210D01*
X187147460Y-84329500D01*
X186517300Y-84329500D01*
X186178625Y-84396867D01*
X185891510Y-84588710D01*
X185891508Y-84588713D01*
X183100220Y-87380000D01*
X182897683Y-87380000D01*
X182816500Y-87363560D01*
X181673500Y-87363560D01*
X181438183Y-87407838D01*
X181222059Y-87546910D01*
X181077069Y-87759110D01*
X181026060Y-88011000D01*
X179368200Y-88011000D01*
X179368200Y-83559279D01*
X179571287Y-83356192D01*
X179571290Y-83356190D01*
X179763133Y-83069075D01*
X179774310Y-83012884D01*
X179830501Y-82730400D01*
X179830500Y-82730395D01*
X179830500Y-82727540D01*
X180945790Y-82727540D01*
X181181107Y-82683262D01*
X181397231Y-82544190D01*
X181542221Y-82331990D01*
X181566076Y-82214188D01*
X182125417Y-82214188D01*
X182187071Y-82449800D01*
X182687480Y-82625927D01*
X183217199Y-82597148D01*
X183572929Y-82449800D01*
X183634583Y-82214188D01*
X182880000Y-81459605D01*
X182125417Y-82214188D01*
X181566076Y-82214188D01*
X181593230Y-82080100D01*
X181593230Y-81690538D01*
X181710200Y-81972929D01*
X181945812Y-82034583D01*
X182700395Y-81280000D01*
X183059605Y-81280000D01*
X183814188Y-82034583D01*
X184049800Y-81972929D01*
X184225927Y-81472520D01*
X184197148Y-80942801D01*
X184049800Y-80587071D01*
X183814188Y-80525417D01*
X183059605Y-81280000D01*
X182700395Y-81280000D01*
X181945812Y-80525417D01*
X181710200Y-80587071D01*
X181593230Y-80919404D01*
X181593230Y-80479900D01*
X181568000Y-80345812D01*
X182125417Y-80345812D01*
X182880000Y-81100395D01*
X183634583Y-80345812D01*
X183572929Y-80110200D01*
X183072520Y-79934073D01*
X182542801Y-79962852D01*
X182187071Y-80110200D01*
X182125417Y-80345812D01*
X181568000Y-80345812D01*
X181548952Y-80244583D01*
X181409880Y-80028459D01*
X181197680Y-79883469D01*
X180945790Y-79832460D01*
X180269220Y-79832460D01*
X181443344Y-78658336D01*
X181508381Y-78985299D01*
X181830208Y-79466948D01*
X182311857Y-79788775D01*
X182880000Y-79901786D01*
X183448143Y-79788775D01*
X183929792Y-79466948D01*
X184155516Y-79129127D01*
X184460011Y-79510024D01*
X184969190Y-79790649D01*
X185063168Y-79811540D01*
X185293000Y-79690214D01*
X185293000Y-77597000D01*
X185273000Y-77597000D01*
X185273000Y-77343000D01*
X185293000Y-77343000D01*
X185293000Y-75249786D01*
X185063168Y-75128460D01*
X184969190Y-75149351D01*
X184460011Y-75429976D01*
X184155516Y-75810873D01*
X183929792Y-75473052D01*
X183448143Y-75151225D01*
X182880000Y-75038214D01*
X182311857Y-75151225D01*
X181830208Y-75473052D01*
X181508381Y-75954701D01*
X181395370Y-76522844D01*
X181395370Y-76585000D01*
X181380100Y-76585000D01*
X181041425Y-76652367D01*
X180754310Y-76844210D01*
X180754308Y-76844213D01*
X178545733Y-79052787D01*
X178319710Y-79203810D01*
X178127867Y-79490925D01*
X178060500Y-79829600D01*
X178060500Y-79832460D01*
X176945290Y-79832460D01*
X176709973Y-79876738D01*
X176493849Y-80015810D01*
X176348859Y-80228010D01*
X176297850Y-80479900D01*
X176297850Y-82080100D01*
X176342128Y-82315417D01*
X176481200Y-82531541D01*
X176693400Y-82676531D01*
X176945290Y-82727540D01*
X177750081Y-82727540D01*
X177665567Y-82854025D01*
X177665567Y-82854026D01*
X177598199Y-83192700D01*
X177598200Y-83192705D01*
X177598200Y-85003900D01*
X169525236Y-85003900D01*
X169622419Y-84727878D01*
X169593664Y-84197560D01*
X169463576Y-83883500D01*
X169734809Y-83883500D01*
X169968198Y-83786827D01*
X170146827Y-83608199D01*
X170243500Y-83374810D01*
X170243500Y-82835750D01*
X170084750Y-82677000D01*
X169037000Y-82677000D01*
X169037000Y-83593392D01*
X169030669Y-83599723D01*
X168968831Y-83363958D01*
X168783000Y-83298530D01*
X168783000Y-82677000D01*
X167735250Y-82677000D01*
X167576500Y-82835750D01*
X167576500Y-83374810D01*
X167577616Y-83377504D01*
X167519331Y-83599725D01*
X168275000Y-84355395D01*
X168289142Y-84341252D01*
X168468748Y-84520858D01*
X168454605Y-84535000D01*
X168468748Y-84549142D01*
X168289143Y-84728748D01*
X168275000Y-84714605D01*
X168260858Y-84728748D01*
X168081252Y-84549142D01*
X168095395Y-84535000D01*
X167339725Y-83779331D01*
X167103958Y-83841169D01*
X166927581Y-84342122D01*
X166956336Y-84872440D01*
X167010789Y-85003900D01*
X165953679Y-85003900D01*
X164157790Y-83208010D01*
X164104756Y-83172574D01*
X163870675Y-83016167D01*
X163814484Y-83004990D01*
X163532000Y-82948799D01*
X163531995Y-82948800D01*
X160733179Y-82948800D01*
X161956789Y-81725190D01*
X167576500Y-81725190D01*
X167576500Y-82264250D01*
X167735250Y-82423000D01*
X168783000Y-82423000D01*
X168783000Y-81375250D01*
X169037000Y-81375250D01*
X169037000Y-82423000D01*
X170084750Y-82423000D01*
X170236194Y-82271556D01*
X170305883Y-82439799D01*
X170484512Y-82618427D01*
X170717901Y-82715100D01*
X172558710Y-82715100D01*
X172717460Y-82556350D01*
X172717460Y-81407000D01*
X172971460Y-81407000D01*
X172971460Y-82556350D01*
X173130210Y-82715100D01*
X174971019Y-82715100D01*
X175204408Y-82618427D01*
X175383037Y-82439799D01*
X175479710Y-82206410D01*
X175479710Y-81565750D01*
X175320960Y-81407000D01*
X172971460Y-81407000D01*
X172717460Y-81407000D01*
X170367960Y-81407000D01*
X170209210Y-81565750D01*
X170209210Y-81642407D01*
X170146827Y-81491801D01*
X169968198Y-81313173D01*
X169734809Y-81216500D01*
X169195750Y-81216500D01*
X169037000Y-81375250D01*
X168783000Y-81375250D01*
X168624250Y-81216500D01*
X168085191Y-81216500D01*
X167851802Y-81313173D01*
X167673173Y-81491801D01*
X167576500Y-81725190D01*
X161956789Y-81725190D01*
X163185787Y-80496192D01*
X163185790Y-80496190D01*
X163281071Y-80353590D01*
X170209210Y-80353590D01*
X170209210Y-80994250D01*
X170367960Y-81153000D01*
X172717460Y-81153000D01*
X172717460Y-80003650D01*
X172971460Y-80003650D01*
X172971460Y-81153000D01*
X175320960Y-81153000D01*
X175479710Y-80994250D01*
X175479710Y-80353590D01*
X175383037Y-80120201D01*
X175204408Y-79941573D01*
X174971019Y-79844900D01*
X173130210Y-79844900D01*
X172971460Y-80003650D01*
X172717460Y-80003650D01*
X172558710Y-79844900D01*
X170717901Y-79844900D01*
X170484512Y-79941573D01*
X170305883Y-80120201D01*
X170209210Y-80353590D01*
X163281071Y-80353590D01*
X163377633Y-80209075D01*
X163445000Y-79870400D01*
X163445000Y-79577058D01*
X163609792Y-79466948D01*
X163931619Y-78985299D01*
X164044630Y-78417156D01*
X164044630Y-76522844D01*
X163931619Y-75954701D01*
X163609792Y-75473052D01*
X163128143Y-75151225D01*
X162560000Y-75038214D01*
X161991857Y-75151225D01*
X161510208Y-75473052D01*
X161284484Y-75810873D01*
X160979989Y-75429976D01*
X160470810Y-75149351D01*
X160376832Y-75128460D01*
X160147000Y-75249786D01*
X160147000Y-77343000D01*
X160167000Y-77343000D01*
X160167000Y-77597000D01*
X160147000Y-77597000D01*
X160147000Y-79690214D01*
X160376832Y-79811540D01*
X160470810Y-79790649D01*
X160979989Y-79510024D01*
X161284484Y-79129127D01*
X161510208Y-79466948D01*
X161631097Y-79547724D01*
X156775820Y-84403000D01*
X152745479Y-84403000D01*
X153713479Y-83435000D01*
X155209246Y-83435000D01*
X155453647Y-83679827D01*
X155943587Y-83883268D01*
X156474086Y-83883731D01*
X156964380Y-83681146D01*
X157339827Y-83306353D01*
X157543268Y-82816413D01*
X157543731Y-82285914D01*
X157341146Y-81795620D01*
X157095000Y-81549044D01*
X157095000Y-81506980D01*
X158105787Y-80496192D01*
X158105790Y-80496190D01*
X158297633Y-80209075D01*
X158311970Y-80137000D01*
X158365001Y-79870400D01*
X158365000Y-79870395D01*
X158365000Y-79577058D01*
X158529792Y-79466948D01*
X158755516Y-79129127D01*
X159060011Y-79510024D01*
X159569190Y-79790649D01*
X159663168Y-79811540D01*
X159893000Y-79690214D01*
X159893000Y-77597000D01*
X159873000Y-77597000D01*
X159873000Y-77343000D01*
X159893000Y-77343000D01*
X159893000Y-75249786D01*
X159663168Y-75128460D01*
X159569190Y-75149351D01*
X159060011Y-75429976D01*
X158755516Y-75810873D01*
X158529792Y-75473052D01*
X158048143Y-75151225D01*
X157480000Y-75038214D01*
X156911857Y-75151225D01*
X156430208Y-75473052D01*
X156108381Y-75954701D01*
X155995370Y-76522844D01*
X155995370Y-78417156D01*
X156108381Y-78985299D01*
X156430208Y-79466948D01*
X156551097Y-79547723D01*
X155584210Y-80514610D01*
X155392367Y-80801725D01*
X155392367Y-80801726D01*
X155324999Y-81140400D01*
X155325000Y-81140405D01*
X155325000Y-81549246D01*
X155209044Y-81665000D01*
X153346900Y-81665000D01*
X153008225Y-81732367D01*
X152721110Y-81924210D01*
X152721108Y-81924213D01*
X149726400Y-84918920D01*
X149726400Y-80026480D01*
X168544864Y-61208015D01*
X182884641Y-61208015D01*
X183269746Y-62140041D01*
X183982208Y-62853748D01*
X184913561Y-63240479D01*
X185922015Y-63241359D01*
X186854041Y-62856254D01*
X187567748Y-62143792D01*
X187954479Y-61212439D01*
X187955359Y-60203985D01*
X187570254Y-59271959D01*
X186857792Y-58558252D01*
X185926439Y-58171521D01*
X184917985Y-58170641D01*
X183985959Y-58555746D01*
X183272252Y-59268208D01*
X182885521Y-60199561D01*
X182884641Y-61208015D01*
X168544864Y-61208015D01*
X173002787Y-56750092D01*
X173002790Y-56750090D01*
X173194633Y-56462975D01*
X173205810Y-56406784D01*
X173262001Y-56124300D01*
X173262000Y-56124295D01*
X173262000Y-55805857D01*
X173364828Y-55737149D01*
X173647000Y-55314850D01*
X173929172Y-55737149D01*
X174382391Y-56039981D01*
X174917000Y-56146321D01*
X175451609Y-56039981D01*
X175904828Y-55737149D01*
X176187000Y-55314850D01*
X176469172Y-55737149D01*
X176922391Y-56039981D01*
X177457000Y-56146321D01*
X177991609Y-56039981D01*
X178444828Y-55737149D01*
X178727000Y-55314850D01*
X179009172Y-55737149D01*
X179462391Y-56039981D01*
X179997000Y-56146321D01*
X180531609Y-56039981D01*
X180984828Y-55737149D01*
X181267000Y-55314850D01*
X181549172Y-55737149D01*
X182002391Y-56039981D01*
X182537000Y-56146321D01*
X183071609Y-56039981D01*
X183524828Y-55737149D01*
X183807000Y-55314850D01*
X184089172Y-55737149D01*
X184542391Y-56039981D01*
X185077000Y-56146321D01*
X185611609Y-56039981D01*
X186064828Y-55737149D01*
X186347000Y-55314850D01*
X186629172Y-55737149D01*
X187082391Y-56039981D01*
X187617000Y-56146321D01*
X188151609Y-56039981D01*
X188604828Y-55737149D01*
X188887000Y-55314850D01*
X189169172Y-55737149D01*
X189622391Y-56039981D01*
X190157000Y-56146321D01*
X190691609Y-56039981D01*
X191144828Y-55737149D01*
X191447660Y-55283930D01*
X191554000Y-54749321D01*
X191554000Y-53658679D01*
X191447660Y-53124070D01*
X191144828Y-52670851D01*
X190691609Y-52368019D01*
X190157000Y-52261679D01*
X189622391Y-52368019D01*
X189169172Y-52670851D01*
X188887000Y-53093150D01*
X188604828Y-52670851D01*
X188151609Y-52368019D01*
X187617000Y-52261679D01*
X187082391Y-52368019D01*
X186629172Y-52670851D01*
X186347000Y-53093150D01*
X186064828Y-52670851D01*
X185611609Y-52368019D01*
X185077000Y-52261679D01*
X184542391Y-52368019D01*
X184089172Y-52670851D01*
X183807000Y-53093150D01*
X183524828Y-52670851D01*
X183071609Y-52368019D01*
X182537000Y-52261679D01*
X182002391Y-52368019D01*
X181549172Y-52670851D01*
X181267000Y-53093150D01*
X180984828Y-52670851D01*
X180531609Y-52368019D01*
X179997000Y-52261679D01*
X179462391Y-52368019D01*
X179009172Y-52670851D01*
X178727000Y-53093150D01*
X178444828Y-52670851D01*
X177991609Y-52368019D01*
X177457000Y-52261679D01*
X176922391Y-52368019D01*
X176469172Y-52670851D01*
X176187000Y-53093150D01*
X175904828Y-52670851D01*
X175451609Y-52368019D01*
X174917000Y-52261679D01*
X174382391Y-52368019D01*
X173929172Y-52670851D01*
X173647000Y-53093150D01*
X173364828Y-52670851D01*
X172911609Y-52368019D01*
X172377000Y-52261679D01*
X171842391Y-52368019D01*
X171389172Y-52670851D01*
X171086340Y-53124070D01*
X170980000Y-53658679D01*
X170980000Y-54749321D01*
X171086340Y-55283930D01*
X171389172Y-55737149D01*
X171463145Y-55786576D01*
X148640000Y-78609720D01*
X148640000Y-61208015D01*
X157484641Y-61208015D01*
X157869746Y-62140041D01*
X158582208Y-62853748D01*
X159513561Y-63240479D01*
X160522015Y-63241359D01*
X161454041Y-62856254D01*
X162167748Y-62143792D01*
X162554479Y-61212439D01*
X162555359Y-60203985D01*
X162170254Y-59271959D01*
X161457792Y-58558252D01*
X160526439Y-58171521D01*
X159517985Y-58170641D01*
X158585959Y-58555746D01*
X157872252Y-59268208D01*
X157485521Y-60199561D01*
X157484641Y-61208015D01*
X148640000Y-61208015D01*
X148640000Y-52120000D01*
X162143518Y-52120000D01*
X161535147Y-52727310D01*
M02*
