G04 #@! TF.FileFunction,Copper,L2,Bot,Signal*
%FSLAX46Y46*%
G04 Gerber Fmt 4.6, Leading zero omitted, Abs format (unit mm)*
G04 Created by KiCad (PCBNEW 4.0.2+e4-6225~38~ubuntu15.10.1-stable) date Sat 11 Jun 2016 15:46:18 BST*
%MOMM*%
G01*
G04 APERTURE LIST*
%ADD10C,0.100000*%
%ADD11O,1.524000X2.540000*%
%ADD12C,3.937000*%
%ADD13R,1.727200X1.727200*%
%ADD14O,1.727200X1.727200*%
%ADD15R,2.032000X1.727200*%
%ADD16O,2.032000X1.727200*%
%ADD17R,1.400000X1.400000*%
%ADD18C,1.400000*%
%ADD19R,1.397000X1.397000*%
%ADD20C,1.397000*%
%ADD21O,1.699260X3.500120*%
G04 APERTURE END LIST*
D10*
D11*
X212001000Y-102464000D03*
X209461000Y-102464000D03*
X206921000Y-102464000D03*
X199301000Y-102464000D03*
X201841000Y-102464000D03*
X204381000Y-102464000D03*
X194221000Y-102464000D03*
X191681000Y-102464000D03*
X189141000Y-102464000D03*
X184061000Y-102464000D03*
X181521000Y-102464000D03*
X212001000Y-54204000D03*
X209461000Y-54204000D03*
X206921000Y-54204000D03*
X204381000Y-54204000D03*
X201841000Y-54204000D03*
X199301000Y-54204000D03*
X196761000Y-54204000D03*
X194221000Y-54204000D03*
X190157000Y-54204000D03*
X187617000Y-54204000D03*
X185077000Y-54204000D03*
X182537000Y-54204000D03*
X179997000Y-54204000D03*
X177457000Y-54204000D03*
X174917000Y-54204000D03*
X172377000Y-54204000D03*
X186601000Y-102464000D03*
D12*
X214541000Y-97384000D03*
X214541000Y-69444000D03*
X163741000Y-54204000D03*
X162471000Y-102464000D03*
D13*
X210820000Y-77470000D03*
D14*
X213360000Y-77470000D03*
X210820000Y-80010000D03*
X213360000Y-80010000D03*
X210820000Y-82550000D03*
X213360000Y-82550000D03*
X210820000Y-85090000D03*
X213360000Y-85090000D03*
X210820000Y-87630000D03*
X213360000Y-87630000D03*
X210820000Y-90170000D03*
X213360000Y-90170000D03*
D15*
X152400000Y-87630000D03*
D16*
X152400000Y-90170000D03*
X152400000Y-92710000D03*
X152400000Y-95250000D03*
X152400000Y-97790000D03*
X152400000Y-100330000D03*
D17*
X168275000Y-89535000D03*
D18*
X168275000Y-84535000D03*
D17*
X157480000Y-100965000D03*
D18*
X157480000Y-95965000D03*
D19*
X195580000Y-81280000D03*
D20*
X182880000Y-81280000D03*
D19*
X168910000Y-82550000D03*
D20*
X156210000Y-82550000D03*
D19*
X194945000Y-85090000D03*
D20*
X205105000Y-85090000D03*
D19*
X207010000Y-90170000D03*
D20*
X207010000Y-80010000D03*
D21*
X185420000Y-77470000D03*
X182880000Y-77470000D03*
X187960000Y-77470000D03*
X160020000Y-77470000D03*
X157480000Y-77470000D03*
X162560000Y-77470000D03*
M02*
