solid OpenSCAD_Model
  facet normal -1 0 0
    outer loop
      vertex 0 -90 -11
      vertex 0 -1.10218e-15 -9
      vertex 0 -1.34711e-15 -11
    endloop
  endfacet
  facet normal -1 -0 0
    outer loop
      vertex 0 -1.10218e-15 -9
      vertex 0 -90 -11
      vertex 0 -90 -9
    endloop
  endfacet
  facet normal 0 0 -1
    outer loop
      vertex 15.9158 -15 -11
      vertex 15.75 -15 -11
      vertex 15.9158 -14.0594 -11
    endloop
  endfacet
  facet normal 0 0 -1
    outer loop
      vertex 23.6683 -73.1189 -11
      vertex 37 -90 -11
      vertex 24 -75 -11
    endloop
  endfacet
  facet normal 0 0 -1
    outer loop
      vertex 37 -90 -11
      vertex 23.6683 -76.8811 -11
      vertex 24 -75 -11
    endloop
  endfacet
  facet normal 0 0 -1
    outer loop
      vertex 37 -90 -11
      vertex 22.7132 -78.5353 -11
      vertex 23.6683 -76.8811 -11
    endloop
  endfacet
  facet normal 0 0 -1
    outer loop
      vertex 37 -90 -11
      vertex 21.25 -79.7631 -11
      vertex 22.7132 -78.5353 -11
    endloop
  endfacet
  facet normal 0 0 -1
    outer loop
      vertex 37 -90 -11
      vertex 19.4551 -80.4164 -11
      vertex 21.25 -79.7631 -11
    endloop
  endfacet
  facet normal 0 0 -1
    outer loop
      vertex 37 -90 -11
      vertex 17.5449 -80.4164 -11
      vertex 19.4551 -80.4164 -11
    endloop
  endfacet
  facet normal 0 0 -1
    outer loop
      vertex 0 -90 -11
      vertex 17.5449 -80.4164 -11
      vertex 37 -90 -11
    endloop
  endfacet
  facet normal -0 0 -1
    outer loop
      vertex 13.3317 -76.8811 -11
      vertex 0 -90 -11
      vertex 13 -75 -11
    endloop
  endfacet
  facet normal -0 0 -1
    outer loop
      vertex 14.2868 -78.5353 -11
      vertex 0 -90 -11
      vertex 13.3317 -76.8811 -11
    endloop
  endfacet
  facet normal -0 0 -1
    outer loop
      vertex 15.75 -79.7631 -11
      vertex 0 -90 -11
      vertex 14.2868 -78.5353 -11
    endloop
  endfacet
  facet normal -0 0 -1
    outer loop
      vertex 17.5449 -80.4164 -11
      vertex 0 -90 -11
      vertex 15.75 -79.7631 -11
    endloop
  endfacet
  facet normal 0 0 -1
    outer loop
      vertex 37 -90 -11
      vertex 23.6683 -73.1189 -11
      vertex 37 -1.34711e-15 -11
    endloop
  endfacet
  facet normal 0 0 -1
    outer loop
      vertex 22.7132 -71.4647 -11
      vertex 37 -1.34711e-15 -11
      vertex 23.6683 -73.1189 -11
    endloop
  endfacet
  facet normal 0 0 -1
    outer loop
      vertex 21.25 -15 -11
      vertex 22.7132 -71.4647 -11
      vertex 21.25 -70.2369 -11
    endloop
  endfacet
  facet normal 0 0 -1
    outer loop
      vertex 22.7132 -71.4647 -11
      vertex 21.25 -15 -11
      vertex 37 -1.34711e-15 -11
    endloop
  endfacet
  facet normal 0 0 -1
    outer loop
      vertex 20.6066 -13.2323 -11
      vertex 37 -1.34711e-15 -11
      vertex 21.25 -15 -11
    endloop
  endfacet
  facet normal 0 0 -1
    outer loop
      vertex 18.9775 -12.2918 -11
      vertex 37 -1.34711e-15 -11
      vertex 20.6066 -13.2323 -11
    endloop
  endfacet
  facet normal 0 0 -1
    outer loop
      vertex 0 -1.34711e-15 -11
      vertex 18.9775 -12.2918 -11
      vertex 17.125 -12.6184 -11
    endloop
  endfacet
  facet normal 0 0 -1
    outer loop
      vertex 14.2868 -71.4647 -11
      vertex 15.75 -15 -11
      vertex 15.75 -70.2369 -11
    endloop
  endfacet
  facet normal 0 0 -1
    outer loop
      vertex 0 -1.34711e-15 -11
      vertex 14.2868 -71.4647 -11
      vertex 13.3317 -73.1189 -11
    endloop
  endfacet
  facet normal 0 0 -1
    outer loop
      vertex 0 -90 -11
      vertex 13.3317 -73.1189 -11
      vertex 13 -75 -11
    endloop
  endfacet
  facet normal -0 0 -1
    outer loop
      vertex 13.3317 -73.1189 -11
      vertex 0 -90 -11
      vertex 0 -1.34711e-15 -11
    endloop
  endfacet
  facet normal 0 0 -1
    outer loop
      vertex 14.2868 -71.4647 -11
      vertex 0 -1.34711e-15 -11
      vertex 15.75 -15 -11
    endloop
  endfacet
  facet normal 0 0 -1
    outer loop
      vertex 18.9775 -12.2918 -11
      vertex 0 -1.34711e-15 -11
      vertex 37 -1.34711e-15 -11
    endloop
  endfacet
  facet normal 0 0 -1
    outer loop
      vertex 15.9158 -14.0594 -11
      vertex 0 -1.34711e-15 -11
      vertex 17.125 -12.6184 -11
    endloop
  endfacet
  facet normal 0 0 -1
    outer loop
      vertex 15.75 -15 -11
      vertex 0 -1.34711e-15 -11
      vertex 15.9158 -14.0594 -11
    endloop
  endfacet
  facet normal -1 0 0
    outer loop
      vertex 37 -90 -3.9
      vertex 37 -37 4.53119e-15
      vertex 37 -37 -3.9
    endloop
  endfacet
  facet normal -1 -0 0
    outer loop
      vertex 37 -37 4.53119e-15
      vertex 37 -90 -3.9
      vertex 37 -90 1.10218e-14
    endloop
  endfacet
  facet normal 1 -0 0
    outer loop
      vertex 37 -90 -9
      vertex 37 -1.34711e-15 -11
      vertex 37 -1.10218e-15 -9
    endloop
  endfacet
  facet normal 1 0 0
    outer loop
      vertex 37 -1.34711e-15 -11
      vertex 37 -90 -9
      vertex 37 -90 -11
    endloop
  endfacet
  facet normal 0 -1 0
    outer loop
      vertex 0 -90 -9
      vertex 32 -90 1.10218e-14
      vertex -2.625 -90 1.10218e-14
    endloop
  endfacet
  facet normal 0 -1 0
    outer loop
      vertex 0 -90 -11
      vertex 32 -90 -3.9
      vertex 0 -90 -9
    endloop
  endfacet
  facet normal 0 -1 -0
    outer loop
      vertex 32 -90 1.10218e-14
      vertex 0 -90 -9
      vertex 32 -90 -3.9
    endloop
  endfacet
  facet normal 0 -1 0
    outer loop
      vertex 37 -90 -3.9
      vertex 39.625 -90 1.10218e-14
      vertex 37 -90 1.10218e-14
    endloop
  endfacet
  facet normal 0 -1 0
    outer loop
      vertex 37 -90 -3.9
      vertex 37 -90 -9
      vertex 39.625 -90 1.10218e-14
    endloop
  endfacet
  facet normal 0 -1 0
    outer loop
      vertex 32 -90 -3.9
      vertex 37 -90 -9
      vertex 37 -90 -3.9
    endloop
  endfacet
  facet normal 0 -1 0
    outer loop
      vertex 37 -90 -11
      vertex 32 -90 -3.9
      vertex 0 -90 -11
    endloop
  endfacet
  facet normal 0 -1 0
    outer loop
      vertex 32 -90 -3.9
      vertex 37 -90 -11
      vertex 37 -90 -9
    endloop
  endfacet
  facet normal -0 1.22465e-16 1
    outer loop
      vertex -2.625 0 0
      vertex 3 -37 4.53119e-15
      vertex 3 0 0
    endloop
  endfacet
  facet normal 5.83512e-22 1.22465e-16 1
    outer loop
      vertex 3 -37 4.53119e-15
      vertex -2.625 0 0
      vertex 3 -41 5.02105e-15
    endloop
  endfacet
  facet normal -1.67315e-23 1.22465e-16 1
    outer loop
      vertex -2.625 -90 1.10218e-14
      vertex 3 -41 5.02105e-15
      vertex -2.625 0 0
    endloop
  endfacet
  facet normal -0 1.22465e-16 1
    outer loop
      vertex 3 -37 4.53119e-15
      vertex 10.5 -41 5.02105e-15
      vertex 10.5 -37 4.53119e-15
    endloop
  endfacet
  facet normal 0 1.22465e-16 1
    outer loop
      vertex 10.5 -41 5.02105e-15
      vertex 3 -37 4.53119e-15
      vertex 3 -41 5.02105e-15
    endloop
  endfacet
  facet normal -0 1.22465e-16 1
    outer loop
      vertex 3 -87 1.06544e-14
      vertex 32 -90 1.10218e-14
      vertex 32 -87 1.06544e-14
    endloop
  endfacet
  facet normal 0 1.22465e-16 1
    outer loop
      vertex 3 -87 1.06544e-14
      vertex -2.625 -90 1.10218e-14
      vertex 32 -90 1.10218e-14
    endloop
  endfacet
  facet normal 1.08027e-22 1.22465e-16 1
    outer loop
      vertex 3 -41 5.02105e-15
      vertex -2.625 -90 1.10218e-14
      vertex 3 -87 1.06544e-14
    endloop
  endfacet
  facet normal 0 1 -1.22465e-16
    outer loop
      vertex 39.625 0 0
      vertex 37 -4.77612e-16 -3.9
      vertex 37 0 0
    endloop
  endfacet
  facet normal 0 1 -1.22465e-16
    outer loop
      vertex 37 -4.77612e-16 -3.9
      vertex 37 -1.10218e-15 -9
      vertex 3 -4.77612e-16 -3.9
    endloop
  endfacet
  facet normal 2.31647e-23 1 -1.22465e-16
    outer loop
      vertex 37 -1.10218e-15 -9
      vertex 37 -4.77612e-16 -3.9
      vertex 39.625 0 0
    endloop
  endfacet
  facet normal 0 1 -1.22465e-16
    outer loop
      vertex 3 -4.77612e-16 -3.9
      vertex -2.625 0 0
      vertex 3 0 0
    endloop
  endfacet
  facet normal -7.67853e-24 1 -1.22465e-16
    outer loop
      vertex 3 -4.77612e-16 -3.9
      vertex 0 -1.10218e-15 -9
      vertex -2.625 0 0
    endloop
  endfacet
  facet normal 4.54276e-24 1 -1.22465e-16
    outer loop
      vertex 37 -1.34711e-15 -11
      vertex 3 -4.77612e-16 -3.9
      vertex 37 -1.10218e-15 -9
    endloop
  endfacet
  facet normal 0 1 -1.22465e-16
    outer loop
      vertex 0 -1.34711e-15 -11
      vertex 3 -4.77612e-16 -3.9
      vertex 37 -1.34711e-15 -11
    endloop
  endfacet
  facet normal -5.14846e-23 1 -1.22465e-16
    outer loop
      vertex 3 -4.77612e-16 -3.9
      vertex 0 -1.34711e-15 -11
      vertex 0 -1.10218e-15 -9
    endloop
  endfacet
  facet normal 1 0 0
    outer loop
      vertex 3 -37 4.53119e-15
      vertex 3 -4.77612e-16 -3.9
      vertex 3 0 0
    endloop
  endfacet
  facet normal 1 0 0
    outer loop
      vertex 3 -4.77612e-16 -3.9
      vertex 3 -37 4.53119e-15
      vertex 3 -37 -3.9
    endloop
  endfacet
  facet normal 1 0 0
    outer loop
      vertex 3 -87 1.06544e-14
      vertex 3 -41 -3.9
      vertex 3 -41 5.02105e-15
    endloop
  endfacet
  facet normal 1 0 0
    outer loop
      vertex 3 -41 -3.9
      vertex 3 -87 1.06544e-14
      vertex 3 -87 -3.9
    endloop
  endfacet
  facet normal 0 0 1
    outer loop
      vertex 10.5 -41 -3.9
      vertex 3 -41 -3.9
      vertex 10.5 -75 -3.9
    endloop
  endfacet
  facet normal 0 0 1
    outer loop
      vertex 26.5 -75 -3.9
      vertex 32 -37 -3.9
      vertex 26.5 -15 -3.9
    endloop
  endfacet
  facet normal 0 0 1
    outer loop
      vertex 37 -4.77612e-16 -3.9
      vertex 26.5 -15 -3.9
      vertex 32 -37 -3.9
    endloop
  endfacet
  facet normal 0 0 1
    outer loop
      vertex 37 -4.77612e-16 -3.9
      vertex 26.2675 -13.0855 -3.9
      vertex 26.5 -15 -3.9
    endloop
  endfacet
  facet normal 0 0 1
    outer loop
      vertex 37 -4.77612e-16 -3.9
      vertex 25.5836 -11.2822 -3.9
      vertex 26.2675 -13.0855 -3.9
    endloop
  endfacet
  facet normal 0 0 1
    outer loop
      vertex 37 -4.77612e-16 -3.9
      vertex 24.4881 -9.69502 -3.9
      vertex 25.5836 -11.2822 -3.9
    endloop
  endfacet
  facet normal 0 0 1
    outer loop
      vertex 37 -4.77612e-16 -3.9
      vertex 23.0445 -8.41613 -3.9
      vertex 24.4881 -9.69502 -3.9
    endloop
  endfacet
  facet normal 0 0 1
    outer loop
      vertex 37 -4.77612e-16 -3.9
      vertex 21.3368 -7.51987 -3.9
      vertex 23.0445 -8.41613 -3.9
    endloop
  endfacet
  facet normal 0 0 1
    outer loop
      vertex 37 -4.77612e-16 -3.9
      vertex 19.4643 -7.05833 -3.9
      vertex 21.3368 -7.51987 -3.9
    endloop
  endfacet
  facet normal -0 0 1
    outer loop
      vertex 3 -4.77612e-16 -3.9
      vertex 19.4643 -7.05833 -3.9
      vertex 37 -4.77612e-16 -3.9
    endloop
  endfacet
  facet normal 0 0 1
    outer loop
      vertex 19.4643 -7.05833 -3.9
      vertex 3 -4.77612e-16 -3.9
      vertex 17.5357 -7.05833 -3.9
    endloop
  endfacet
  facet normal 0 0 1
    outer loop
      vertex 17.5357 -7.05833 -3.9
      vertex 3 -4.77612e-16 -3.9
      vertex 15.6632 -7.51987 -3.9
    endloop
  endfacet
  facet normal 0 0 1
    outer loop
      vertex 3 -4.77612e-16 -3.9
      vertex 13.9555 -8.41613 -3.9
      vertex 15.6632 -7.51987 -3.9
    endloop
  endfacet
  facet normal 0 0 1
    outer loop
      vertex 3 -4.77612e-16 -3.9
      vertex 12.5119 -9.69502 -3.9
      vertex 13.9555 -8.41613 -3.9
    endloop
  endfacet
  facet normal 0 0 1
    outer loop
      vertex 3 -4.77612e-16 -3.9
      vertex 11.4164 -11.2822 -3.9
      vertex 12.5119 -9.69502 -3.9
    endloop
  endfacet
  facet normal 0 0 1
    outer loop
      vertex 3 -4.77612e-16 -3.9
      vertex 10.7325 -13.0855 -3.9
      vertex 11.4164 -11.2822 -3.9
    endloop
  endfacet
  facet normal 0 0 1
    outer loop
      vertex 3 -4.77612e-16 -3.9
      vertex 10.5 -15 -3.9
      vertex 10.7325 -13.0855 -3.9
    endloop
  endfacet
  facet normal 0 0 1
    outer loop
      vertex 10.5 -15 -3.9
      vertex 3 -4.77612e-16 -3.9
      vertex 3 -37 -3.9
    endloop
  endfacet
  facet normal 0 0 1
    outer loop
      vertex 10.5 -15 -3.9
      vertex 3 -37 -3.9
      vertex 10.5 -37 -3.9
    endloop
  endfacet
  facet normal 0 0 1
    outer loop
      vertex 32 -87 -3.9
      vertex 37 -37 -3.9
      vertex 32 -37 -3.9
    endloop
  endfacet
  facet normal 0 0 1
    outer loop
      vertex 37 -37 -3.9
      vertex 32 -87 -3.9
      vertex 37 -90 -3.9
    endloop
  endfacet
  facet normal 0 0 1
    outer loop
      vertex 37 -90 -3.9
      vertex 32 -87 -3.9
      vertex 32 -90 -3.9
    endloop
  endfacet
  facet normal 0 0 1
    outer loop
      vertex 32 -37 -3.9
      vertex 26.5 -75 -3.9
      vertex 32 -87 -3.9
    endloop
  endfacet
  facet normal -0 0 1
    outer loop
      vertex 26.2675 -76.9145 -3.9
      vertex 32 -87 -3.9
      vertex 26.5 -75 -3.9
    endloop
  endfacet
  facet normal -0 0 1
    outer loop
      vertex 25.5836 -78.7178 -3.9
      vertex 32 -87 -3.9
      vertex 26.2675 -76.9145 -3.9
    endloop
  endfacet
  facet normal -0 0 1
    outer loop
      vertex 24.4881 -80.305 -3.9
      vertex 32 -87 -3.9
      vertex 25.5836 -78.7178 -3.9
    endloop
  endfacet
  facet normal -0 0 1
    outer loop
      vertex 23.0445 -81.5839 -3.9
      vertex 32 -87 -3.9
      vertex 24.4881 -80.305 -3.9
    endloop
  endfacet
  facet normal -0 0 1
    outer loop
      vertex 21.3368 -82.4801 -3.9
      vertex 32 -87 -3.9
      vertex 23.0445 -81.5839 -3.9
    endloop
  endfacet
  facet normal -0 0 1
    outer loop
      vertex 19.4643 -82.9417 -3.9
      vertex 32 -87 -3.9
      vertex 21.3368 -82.4801 -3.9
    endloop
  endfacet
  facet normal -0 0 1
    outer loop
      vertex 17.5357 -82.9417 -3.9
      vertex 32 -87 -3.9
      vertex 19.4643 -82.9417 -3.9
    endloop
  endfacet
  facet normal 0 0 1
    outer loop
      vertex 3 -87 -3.9
      vertex 17.5357 -82.9417 -3.9
      vertex 15.6632 -82.4801 -3.9
    endloop
  endfacet
  facet normal 0 0 1
    outer loop
      vertex 3 -87 -3.9
      vertex 10.5 -75 -3.9
      vertex 3 -41 -3.9
    endloop
  endfacet
  facet normal 0 0 1
    outer loop
      vertex 17.5357 -82.9417 -3.9
      vertex 3 -87 -3.9
      vertex 32 -87 -3.9
    endloop
  endfacet
  facet normal 0 0 1
    outer loop
      vertex 13.9555 -81.5839 -3.9
      vertex 3 -87 -3.9
      vertex 15.6632 -82.4801 -3.9
    endloop
  endfacet
  facet normal 0 0 1
    outer loop
      vertex 12.5119 -80.305 -3.9
      vertex 3 -87 -3.9
      vertex 13.9555 -81.5839 -3.9
    endloop
  endfacet
  facet normal 0 0 1
    outer loop
      vertex 11.4164 -78.7178 -3.9
      vertex 3 -87 -3.9
      vertex 12.5119 -80.305 -3.9
    endloop
  endfacet
  facet normal 0 0 1
    outer loop
      vertex 10.7325 -76.9145 -3.9
      vertex 3 -87 -3.9
      vertex 11.4164 -78.7178 -3.9
    endloop
  endfacet
  facet normal 0 0 1
    outer loop
      vertex 10.5 -75 -3.9
      vertex 3 -87 -3.9
      vertex 10.7325 -76.9145 -3.9
    endloop
  endfacet
  facet normal -0.96 0 -0.28
    outer loop
      vertex 0 -90 -9
      vertex -2.625 0 0
      vertex 0 -1.10218e-15 -9
    endloop
  endfacet
  facet normal -0.96 -3.42901e-17 -0.28
    outer loop
      vertex -2.625 0 0
      vertex 0 -90 -9
      vertex -2.625 -90 1.10218e-14
    endloop
  endfacet
  facet normal 0.96 -3.42901e-17 -0.28
    outer loop
      vertex 39.625 -90 1.10218e-14
      vertex 37 -1.10218e-15 -9
      vertex 39.625 0 0
    endloop
  endfacet
  facet normal 0.96 0 -0.28
    outer loop
      vertex 37 -1.10218e-15 -9
      vertex 39.625 -90 1.10218e-14
      vertex 37 -90 -9
    endloop
  endfacet
  facet normal 0 1.22465e-16 1
    outer loop
      vertex 37 0 0
      vertex 32 -37 4.53119e-15
      vertex 37 -37 4.53119e-15
    endloop
  endfacet
  facet normal 0 1.22465e-16 1
    outer loop
      vertex 37 -37 4.53119e-15
      vertex 39.625 0 0
      vertex 37 0 0
    endloop
  endfacet
  facet normal -8.96331e-23 1.22465e-16 1
    outer loop
      vertex 39.625 0 0
      vertex 37 -37 4.53119e-15
      vertex 39.625 -90 1.10218e-14
    endloop
  endfacet
  facet normal 0 1.22465e-16 1
    outer loop
      vertex 39.625 -90 1.10218e-14
      vertex 37 -37 4.53119e-15
      vertex 37 -90 1.10218e-14
    endloop
  endfacet
  facet normal 0 -1 0
    outer loop
      vertex 3 -41 -3.9
      vertex 10.5 -41 5.02105e-15
      vertex 3 -41 5.02105e-15
    endloop
  endfacet
  facet normal 0 -1 -0
    outer loop
      vertex 10.5 -41 5.02105e-15
      vertex 3 -41 -3.9
      vertex 10.5 -41 -3.9
    endloop
  endfacet
  facet normal 0 1 -0
    outer loop
      vertex 10.5 -37 -3.9
      vertex 3 -37 4.53119e-15
      vertex 10.5 -37 4.53119e-15
    endloop
  endfacet
  facet normal 0 1 0
    outer loop
      vertex 3 -37 4.53119e-15
      vertex 10.5 -37 -3.9
      vertex 3 -37 -3.9
    endloop
  endfacet
  facet normal 1 0 0
    outer loop
      vertex 32 -90 1.10218e-14
      vertex 32 -87 -3.9
      vertex 32 -87 1.06544e-14
    endloop
  endfacet
  facet normal 1 0 0
    outer loop
      vertex 32 -87 -3.9
      vertex 32 -90 1.10218e-14
      vertex 32 -90 -3.9
    endloop
  endfacet
  facet normal 0 1 -0
    outer loop
      vertex 32 -87 -3.9
      vertex 3 -87 1.06544e-14
      vertex 32 -87 1.06544e-14
    endloop
  endfacet
  facet normal 0 1 0
    outer loop
      vertex 3 -87 1.06544e-14
      vertex 32 -87 -3.9
      vertex 3 -87 -3.9
    endloop
  endfacet
  facet normal 0 -1 0
    outer loop
      vertex 32 -37 -3.9
      vertex 37 -37 4.53119e-15
      vertex 32 -37 4.53119e-15
    endloop
  endfacet
  facet normal 0 -1 -0
    outer loop
      vertex 37 -37 4.53119e-15
      vertex 32 -37 -3.9
      vertex 37 -37 -3.9
    endloop
  endfacet
  facet normal -0.990992 0.133918 0
    outer loop
      vertex 32 -37 -3.9
      vertex 37 0 0
      vertex 37 -4.77612e-16 -3.9
    endloop
  endfacet
  facet normal -0.990992 0.133918 0
    outer loop
      vertex 37 0 0
      vertex 32 -37 -3.9
      vertex 32 -37 4.53119e-15
    endloop
  endfacet
  facet normal 1 -0 0
    outer loop
      vertex 15.9158 -15 -5
      vertex 15.9158 -14.0594 -11
      vertex 15.9158 -14.0594 -5
    endloop
  endfacet
  facet normal 1 0 0
    outer loop
      vertex 15.9158 -14.0594 -11
      vertex 15.9158 -15 -5
      vertex 15.9158 -15 -11
    endloop
  endfacet
  facet normal -0.939692 -0.342021 0
    outer loop
      vertex 21.25 -15 -11
      vertex 20.6066 -13.2323 -5
      vertex 20.6066 -13.2323 -11
    endloop
  endfacet
  facet normal -0.939692 -0.342021 0
    outer loop
      vertex 20.6066 -13.2323 -5
      vertex 21.25 -15 -11
      vertex 21.25 -15 -5
    endloop
  endfacet
  facet normal 0.766044 -0.642788 0
    outer loop
      vertex 15.9158 -14.0594 -5
      vertex 17.125 -12.6184 -11
      vertex 17.125 -12.6184 -5
    endloop
  endfacet
  facet normal 0.766044 -0.642788 0
    outer loop
      vertex 17.125 -12.6184 -11
      vertex 15.9158 -14.0594 -5
      vertex 15.9158 -14.0594 -11
    endloop
  endfacet
  facet normal -0.5 -0.866026 0
    outer loop
      vertex 18.9775 -12.2918 -11
      vertex 20.6066 -13.2323 -5
      vertex 18.9775 -12.2918 -5
    endloop
  endfacet
  facet normal -0.5 -0.866026 -0
    outer loop
      vertex 20.6066 -13.2323 -5
      vertex 18.9775 -12.2918 -11
      vertex 20.6066 -13.2323 -11
    endloop
  endfacet
  facet normal 0.173648 -0.984808 0
    outer loop
      vertex 17.125 -12.6184 -11
      vertex 18.9775 -12.2918 -5
      vertex 17.125 -12.6184 -5
    endloop
  endfacet
  facet normal 0.173648 -0.984808 0
    outer loop
      vertex 18.9775 -12.2918 -5
      vertex 17.125 -12.6184 -11
      vertex 18.9775 -12.2918 -11
    endloop
  endfacet
  facet normal 1 -0 0
    outer loop
      vertex 15.75 -70.2369 -5
      vertex 15.75 -15 -11
      vertex 15.75 -15 -5
    endloop
  endfacet
  facet normal 1 0 0
    outer loop
      vertex 15.75 -15 -11
      vertex 15.75 -70.2369 -5
      vertex 15.75 -70.2369 -11
    endloop
  endfacet
  facet normal -1 0 0
    outer loop
      vertex 21.25 -70.2369 -11
      vertex 21.25 -15 -5
      vertex 21.25 -15 -11
    endloop
  endfacet
  facet normal -1 -0 0
    outer loop
      vertex 21.25 -15 -5
      vertex 21.25 -70.2369 -11
      vertex 21.25 -70.2369 -5
    endloop
  endfacet
  facet normal 0 -1 0
    outer loop
      vertex 15.75 -15 -11
      vertex 15.9158 -15 -5
      vertex 15.75 -15 -5
    endloop
  endfacet
  facet normal 0 -1 -0
    outer loop
      vertex 15.9158 -15 -5
      vertex 15.75 -15 -11
      vertex 15.9158 -15 -11
    endloop
  endfacet
  facet normal 1 -0 0
    outer loop
      vertex 10.5 -37 -3.9
      vertex 10.5 -15 -5
      vertex 10.5 -15 -3.9
    endloop
  endfacet
  facet normal 1 0 0
    outer loop
      vertex 10.5 -41 -3.9
      vertex 10.5 -37 -3.9
      vertex 10.5 -41 5.02105e-15
    endloop
  endfacet
  facet normal 1 -0 0
    outer loop
      vertex 10.5 -41 -3.9
      vertex 10.5 -15 -5
      vertex 10.5 -37 -3.9
    endloop
  endfacet
  facet normal 1 0 0
    outer loop
      vertex 10.5 -75 -5
      vertex 10.5 -41 -3.9
      vertex 10.5 -75 -3.9
    endloop
  endfacet
  facet normal 1 0 0
    outer loop
      vertex 10.5 -41 -3.9
      vertex 10.5 -75 -5
      vertex 10.5 -15 -5
    endloop
  endfacet
  facet normal 1 0 0
    outer loop
      vertex 10.5 -37 4.53119e-15
      vertex 10.5 -41 5.02105e-15
      vertex 10.5 -37 -3.9
    endloop
  endfacet
  facet normal 0 0 1
    outer loop
      vertex 26.2675 -13.0855 -5
      vertex 20.6066 -13.2323 -5
      vertex 21.25 -15 -5
    endloop
  endfacet
  facet normal 0 0 1
    outer loop
      vertex 18.9775 -12.2918 -5
      vertex 21.3368 -7.51987 -5
      vertex 19.4643 -7.05833 -5
    endloop
  endfacet
  facet normal 0 0 1
    outer loop
      vertex 23.0445 -8.41613 -5
      vertex 18.9775 -12.2918 -5
      vertex 20.6066 -13.2323 -5
    endloop
  endfacet
  facet normal -0 0 1
    outer loop
      vertex 17.5357 -7.05833 -5
      vertex 18.9775 -12.2918 -5
      vertex 19.4643 -7.05833 -5
    endloop
  endfacet
  facet normal 0 0 1
    outer loop
      vertex 17.5357 -7.05833 -5
      vertex 17.125 -12.6184 -5
      vertex 18.9775 -12.2918 -5
    endloop
  endfacet
  facet normal -0 0 1
    outer loop
      vertex 15.6632 -7.51987 -5
      vertex 17.125 -12.6184 -5
      vertex 17.5357 -7.05833 -5
    endloop
  endfacet
  facet normal 0 0 1
    outer loop
      vertex 15.9158 -14.0594 -5
      vertex 15.75 -15 -5
      vertex 15.9158 -15 -5
    endloop
  endfacet
  facet normal -0 0 1
    outer loop
      vertex 13.9555 -8.41613 -5
      vertex 17.125 -12.6184 -5
      vertex 15.6632 -7.51987 -5
    endloop
  endfacet
  facet normal -0 0 1
    outer loop
      vertex 12.5119 -9.69502 -5
      vertex 17.125 -12.6184 -5
      vertex 13.9555 -8.41613 -5
    endloop
  endfacet
  facet normal 0 0 1
    outer loop
      vertex 17.125 -12.6184 -5
      vertex 12.5119 -9.69502 -5
      vertex 15.9158 -14.0594 -5
    endloop
  endfacet
  facet normal 0 0 1
    outer loop
      vertex 15.75 -15 -5
      vertex 10.5 -15 -5
      vertex 15.75 -70.2369 -5
    endloop
  endfacet
  facet normal -0 0 1
    outer loop
      vertex 11.4164 -11.2822 -5
      vertex 15.9158 -14.0594 -5
      vertex 12.5119 -9.69502 -5
    endloop
  endfacet
  facet normal 0 0 1
    outer loop
      vertex 15.75 -70.2369 -5
      vertex 10.5 -15 -5
      vertex 14.2868 -71.4647 -5
    endloop
  endfacet
  facet normal 0 0 1
    outer loop
      vertex 10.5 -75 -5
      vertex 14.2868 -71.4647 -5
      vertex 10.5 -15 -5
    endloop
  endfacet
  facet normal -0 0 1
    outer loop
      vertex 10.7325 -13.0855 -5
      vertex 15.9158 -14.0594 -5
      vertex 11.4164 -11.2822 -5
    endloop
  endfacet
  facet normal 0 0 1
    outer loop
      vertex 21.25 -15 -5
      vertex 26.5 -15 -5
      vertex 26.2675 -13.0855 -5
    endloop
  endfacet
  facet normal 0 0 1
    outer loop
      vertex 26.5 -15 -5
      vertex 22.7132 -71.4647 -5
      vertex 26.5 -75 -5
    endloop
  endfacet
  facet normal 0 0 1
    outer loop
      vertex 20.6066 -13.2323 -5
      vertex 26.2675 -13.0855 -5
      vertex 25.5836 -11.2822 -5
    endloop
  endfacet
  facet normal -0 -0 1
    outer loop
      vertex 23.6683 -73.1189 -5
      vertex 26.5 -75 -5
      vertex 22.7132 -71.4647 -5
    endloop
  endfacet
  facet normal 0 0 1
    outer loop
      vertex 20.6066 -13.2323 -5
      vertex 25.5836 -11.2822 -5
      vertex 24.4881 -9.69502 -5
    endloop
  endfacet
  facet normal 0 0 1
    outer loop
      vertex 26.5 -75 -5
      vertex 24 -75 -5
      vertex 26.2675 -76.9145 -5
    endloop
  endfacet
  facet normal 0 0 1
    outer loop
      vertex 26.2675 -76.9145 -5
      vertex 23.6683 -76.8811 -5
      vertex 25.5836 -78.7178 -5
    endloop
  endfacet
  facet normal -0 0 1
    outer loop
      vertex 23.6683 -76.8811 -5
      vertex 26.2675 -76.9145 -5
      vertex 24 -75 -5
    endloop
  endfacet
  facet normal 0 0 1
    outer loop
      vertex 20.6066 -13.2323 -5
      vertex 24.4881 -9.69502 -5
      vertex 23.0445 -8.41613 -5
    endloop
  endfacet
  facet normal 0 0 1
    outer loop
      vertex 26.5 -15 -5
      vertex 21.25 -15 -5
      vertex 21.25 -70.2369 -5
    endloop
  endfacet
  facet normal 0 0 1
    outer loop
      vertex 18.9775 -12.2918 -5
      vertex 23.0445 -8.41613 -5
      vertex 21.3368 -7.51987 -5
    endloop
  endfacet
  facet normal 0 -0 1
    outer loop
      vertex 24 -75 -5
      vertex 26.5 -75 -5
      vertex 23.6683 -73.1189 -5
    endloop
  endfacet
  facet normal 0 0 1
    outer loop
      vertex 26.5 -15 -5
      vertex 21.25 -70.2369 -5
      vertex 22.7132 -71.4647 -5
    endloop
  endfacet
  facet normal -0 0 1
    outer loop
      vertex 22.7132 -78.5353 -5
      vertex 25.5836 -78.7178 -5
      vertex 23.6683 -76.8811 -5
    endloop
  endfacet
  facet normal 0 0 1
    outer loop
      vertex 25.5836 -78.7178 -5
      vertex 22.7132 -78.5353 -5
      vertex 24.4881 -80.305 -5
    endloop
  endfacet
  facet normal 0 0 1
    outer loop
      vertex 24.4881 -80.305 -5
      vertex 22.7132 -78.5353 -5
      vertex 23.0445 -81.5839 -5
    endloop
  endfacet
  facet normal -0 0 1
    outer loop
      vertex 21.25 -79.7631 -5
      vertex 23.0445 -81.5839 -5
      vertex 22.7132 -78.5353 -5
    endloop
  endfacet
  facet normal 0 0 1
    outer loop
      vertex 23.0445 -81.5839 -5
      vertex 21.25 -79.7631 -5
      vertex 21.3368 -82.4801 -5
    endloop
  endfacet
  facet normal -0 0 1
    outer loop
      vertex 19.4551 -80.4164 -5
      vertex 21.3368 -82.4801 -5
      vertex 21.25 -79.7631 -5
    endloop
  endfacet
  facet normal 0 0 1
    outer loop
      vertex 21.3368 -82.4801 -5
      vertex 19.4551 -80.4164 -5
      vertex 19.4643 -82.9417 -5
    endloop
  endfacet
  facet normal -0 0 1
    outer loop
      vertex 17.5449 -80.4164 -5
      vertex 19.4643 -82.9417 -5
      vertex 19.4551 -80.4164 -5
    endloop
  endfacet
  facet normal 0 0 1
    outer loop
      vertex 17.5449 -80.4164 -5
      vertex 17.5357 -82.9417 -5
      vertex 19.4643 -82.9417 -5
    endloop
  endfacet
  facet normal 0 0 1
    outer loop
      vertex 15.6632 -82.4801 -5
      vertex 17.5449 -80.4164 -5
      vertex 15.75 -79.7631 -5
    endloop
  endfacet
  facet normal 0 0 1
    outer loop
      vertex 17.5449 -80.4164 -5
      vertex 15.6632 -82.4801 -5
      vertex 17.5357 -82.9417 -5
    endloop
  endfacet
  facet normal 0 0 1
    outer loop
      vertex 13.9555 -81.5839 -5
      vertex 15.75 -79.7631 -5
      vertex 14.2868 -78.5353 -5
    endloop
  endfacet
  facet normal 0 0 1
    outer loop
      vertex 15.75 -79.7631 -5
      vertex 13.9555 -81.5839 -5
      vertex 15.6632 -82.4801 -5
    endloop
  endfacet
  facet normal 0 0 1
    outer loop
      vertex 11.4164 -78.7178 -5
      vertex 14.2868 -78.5353 -5
      vertex 13.3317 -76.8811 -5
    endloop
  endfacet
  facet normal 0 0 1
    outer loop
      vertex 10.7325 -76.9145 -5
      vertex 13.3317 -76.8811 -5
      vertex 13 -75 -5
    endloop
  endfacet
  facet normal 0 0 1
    outer loop
      vertex 14.2868 -78.5353 -5
      vertex 12.5119 -80.305 -5
      vertex 13.9555 -81.5839 -5
    endloop
  endfacet
  facet normal 0 0 1
    outer loop
      vertex 14.2868 -71.4647 -5
      vertex 10.5 -75 -5
      vertex 13.3317 -73.1189 -5
    endloop
  endfacet
  facet normal 0 0 1
    outer loop
      vertex 15.9158 -14.0594 -5
      vertex 10.7325 -13.0855 -5
      vertex 15.75 -15 -5
    endloop
  endfacet
  facet normal 0 0 1
    outer loop
      vertex 13.3317 -73.1189 -5
      vertex 10.5 -75 -5
      vertex 13 -75 -5
    endloop
  endfacet
  facet normal -0 0 1
    outer loop
      vertex 10.5 -15 -5
      vertex 15.75 -15 -5
      vertex 10.7325 -13.0855 -5
    endloop
  endfacet
  facet normal 0 -0 1
    outer loop
      vertex 10.7325 -76.9145 -5
      vertex 13 -75 -5
      vertex 10.5 -75 -5
    endloop
  endfacet
  facet normal 0 0 1
    outer loop
      vertex 14.2868 -78.5353 -5
      vertex 11.4164 -78.7178 -5
      vertex 12.5119 -80.305 -5
    endloop
  endfacet
  facet normal 0 0 1
    outer loop
      vertex 13.3317 -76.8811 -5
      vertex 10.7325 -76.9145 -5
      vertex 11.4164 -78.7178 -5
    endloop
  endfacet
  facet normal -1 0 0
    outer loop
      vertex 26.5 -75 -5
      vertex 26.5 -15 -3.9
      vertex 26.5 -15 -5
    endloop
  endfacet
  facet normal -1 -0 0
    outer loop
      vertex 26.5 -15 -3.9
      vertex 26.5 -75 -5
      vertex 26.5 -75 -3.9
    endloop
  endfacet
  facet normal -0.239316 -0.970942 0
    outer loop
      vertex 19.4643 -7.05833 -5
      vertex 21.3368 -7.51987 -3.9
      vertex 19.4643 -7.05833 -3.9
    endloop
  endfacet
  facet normal -0.239316 -0.970942 -0
    outer loop
      vertex 21.3368 -7.51987 -3.9
      vertex 19.4643 -7.05833 -5
      vertex 21.3368 -7.51987 -5
    endloop
  endfacet
  facet normal -0.822984 -0.568065 0
    outer loop
      vertex 25.5836 -11.2822 -5
      vertex 24.4881 -9.69502 -3.9
      vertex 24.4881 -9.69502 -5
    endloop
  endfacet
  facet normal -0.822984 -0.568065 0
    outer loop
      vertex 24.4881 -9.69502 -3.9
      vertex 25.5836 -11.2822 -5
      vertex 25.5836 -11.2822 -3.9
    endloop
  endfacet
  facet normal -0.935016 -0.354605 0
    outer loop
      vertex 26.2675 -13.0855 -5
      vertex 25.5836 -11.2822 -3.9
      vertex 25.5836 -11.2822 -5
    endloop
  endfacet
  facet normal -0.935016 -0.354605 0
    outer loop
      vertex 25.5836 -11.2822 -3.9
      vertex 26.2675 -13.0855 -5
      vertex 26.2675 -13.0855 -3.9
    endloop
  endfacet
  facet normal -0.992709 -0.120537 0
    outer loop
      vertex 26.5 -15 -5
      vertex 26.2675 -13.0855 -3.9
      vertex 26.2675 -13.0855 -5
    endloop
  endfacet
  facet normal -0.992709 -0.120537 0
    outer loop
      vertex 26.2675 -13.0855 -3.9
      vertex 26.5 -15 -5
      vertex 26.5 -15 -3.9
    endloop
  endfacet
  facet normal -0.464723 -0.885456 0
    outer loop
      vertex 21.3368 -7.51987 -5
      vertex 23.0445 -8.41613 -3.9
      vertex 21.3368 -7.51987 -3.9
    endloop
  endfacet
  facet normal -0.464723 -0.885456 -0
    outer loop
      vertex 23.0445 -8.41613 -3.9
      vertex 21.3368 -7.51987 -5
      vertex 23.0445 -8.41613 -5
    endloop
  endfacet
  facet normal 0.992709 -0.120536 0
    outer loop
      vertex 10.5 -15 -3.9
      vertex 10.7325 -13.0855 -5
      vertex 10.7325 -13.0855 -3.9
    endloop
  endfacet
  facet normal 0.992709 -0.120536 0
    outer loop
      vertex 10.7325 -13.0855 -5
      vertex 10.5 -15 -3.9
      vertex 10.5 -15 -5
    endloop
  endfacet
  facet normal 0.663123 -0.748511 0
    outer loop
      vertex 12.5119 -9.69502 -5
      vertex 13.9555 -8.41613 -3.9
      vertex 12.5119 -9.69502 -3.9
    endloop
  endfacet
  facet normal 0.663123 -0.748511 0
    outer loop
      vertex 13.9555 -8.41613 -3.9
      vertex 12.5119 -9.69502 -5
      vertex 13.9555 -8.41613 -5
    endloop
  endfacet
  facet normal -0.663122 -0.748511 0
    outer loop
      vertex 23.0445 -8.41613 -5
      vertex 24.4881 -9.69502 -3.9
      vertex 23.0445 -8.41613 -3.9
    endloop
  endfacet
  facet normal -0.663122 -0.748511 -0
    outer loop
      vertex 24.4881 -9.69502 -3.9
      vertex 23.0445 -8.41613 -5
      vertex 24.4881 -9.69502 -5
    endloop
  endfacet
  facet normal 0 -1 0
    outer loop
      vertex 17.5357 -7.05833 -5
      vertex 19.4643 -7.05833 -3.9
      vertex 17.5357 -7.05833 -3.9
    endloop
  endfacet
  facet normal 0 -1 -0
    outer loop
      vertex 19.4643 -7.05833 -3.9
      vertex 17.5357 -7.05833 -5
      vertex 19.4643 -7.05833 -5
    endloop
  endfacet
  facet normal 0.464723 -0.885456 0
    outer loop
      vertex 13.9555 -8.41613 -5
      vertex 15.6632 -7.51987 -3.9
      vertex 13.9555 -8.41613 -3.9
    endloop
  endfacet
  facet normal 0.464723 -0.885456 0
    outer loop
      vertex 15.6632 -7.51987 -3.9
      vertex 13.9555 -8.41613 -5
      vertex 15.6632 -7.51987 -5
    endloop
  endfacet
  facet normal 0.239316 -0.970942 0
    outer loop
      vertex 15.6632 -7.51987 -5
      vertex 17.5357 -7.05833 -3.9
      vertex 15.6632 -7.51987 -3.9
    endloop
  endfacet
  facet normal 0.239316 -0.970942 0
    outer loop
      vertex 17.5357 -7.05833 -3.9
      vertex 15.6632 -7.51987 -5
      vertex 17.5357 -7.05833 -5
    endloop
  endfacet
  facet normal 0.822984 -0.568065 0
    outer loop
      vertex 11.4164 -11.2822 -3.9
      vertex 12.5119 -9.69502 -5
      vertex 12.5119 -9.69502 -3.9
    endloop
  endfacet
  facet normal 0.822984 -0.568065 0
    outer loop
      vertex 12.5119 -9.69502 -5
      vertex 11.4164 -11.2822 -3.9
      vertex 11.4164 -11.2822 -5
    endloop
  endfacet
  facet normal 0.935016 -0.354605 0
    outer loop
      vertex 10.7325 -13.0855 -3.9
      vertex 11.4164 -11.2822 -5
      vertex 11.4164 -11.2822 -3.9
    endloop
  endfacet
  facet normal 0.935016 -0.354605 0
    outer loop
      vertex 11.4164 -11.2822 -5
      vertex 10.7325 -13.0855 -3.9
      vertex 10.7325 -13.0855 -5
    endloop
  endfacet
  facet normal -0.822983 0.568066 0
    outer loop
      vertex 24.4881 -80.305 -5
      vertex 25.5836 -78.7178 -3.9
      vertex 25.5836 -78.7178 -5
    endloop
  endfacet
  facet normal -0.822983 0.568066 0
    outer loop
      vertex 25.5836 -78.7178 -3.9
      vertex 24.4881 -80.305 -5
      vertex 24.4881 -80.305 -3.9
    endloop
  endfacet
  facet normal -0.992709 0.120537 0
    outer loop
      vertex 26.2675 -76.9145 -5
      vertex 26.5 -75 -3.9
      vertex 26.5 -75 -5
    endloop
  endfacet
  facet normal -0.992709 0.120537 0
    outer loop
      vertex 26.5 -75 -3.9
      vertex 26.2675 -76.9145 -5
      vertex 26.2675 -76.9145 -3.9
    endloop
  endfacet
  facet normal -0.663123 0.74851 0
    outer loop
      vertex 24.4881 -80.305 -5
      vertex 23.0445 -81.5839 -3.9
      vertex 24.4881 -80.305 -3.9
    endloop
  endfacet
  facet normal -0.663123 0.74851 0
    outer loop
      vertex 23.0445 -81.5839 -3.9
      vertex 24.4881 -80.305 -5
      vertex 23.0445 -81.5839 -5
    endloop
  endfacet
  facet normal 0 1 -0
    outer loop
      vertex 19.4643 -82.9417 -5
      vertex 17.5357 -82.9417 -3.9
      vertex 19.4643 -82.9417 -3.9
    endloop
  endfacet
  facet normal 0 1 0
    outer loop
      vertex 17.5357 -82.9417 -3.9
      vertex 19.4643 -82.9417 -5
      vertex 17.5357 -82.9417 -5
    endloop
  endfacet
  facet normal -0.239315 0.970942 0
    outer loop
      vertex 21.3368 -82.4801 -5
      vertex 19.4643 -82.9417 -3.9
      vertex 21.3368 -82.4801 -3.9
    endloop
  endfacet
  facet normal -0.239315 0.970942 0
    outer loop
      vertex 19.4643 -82.9417 -3.9
      vertex 21.3368 -82.4801 -5
      vertex 19.4643 -82.9417 -5
    endloop
  endfacet
  facet normal 0.663123 0.74851 -0
    outer loop
      vertex 13.9555 -81.5839 -5
      vertex 12.5119 -80.305 -3.9
      vertex 13.9555 -81.5839 -3.9
    endloop
  endfacet
  facet normal 0.663123 0.74851 0
    outer loop
      vertex 12.5119 -80.305 -3.9
      vertex 13.9555 -81.5839 -5
      vertex 12.5119 -80.305 -5
    endloop
  endfacet
  facet normal 0.935016 0.354605 0
    outer loop
      vertex 11.4164 -78.7178 -3.9
      vertex 10.7325 -76.9145 -5
      vertex 10.7325 -76.9145 -3.9
    endloop
  endfacet
  facet normal 0.935016 0.354605 0
    outer loop
      vertex 10.7325 -76.9145 -5
      vertex 11.4164 -78.7178 -3.9
      vertex 11.4164 -78.7178 -5
    endloop
  endfacet
  facet normal 0.822983 0.568066 0
    outer loop
      vertex 12.5119 -80.305 -3.9
      vertex 11.4164 -78.7178 -5
      vertex 11.4164 -78.7178 -3.9
    endloop
  endfacet
  facet normal 0.822983 0.568066 0
    outer loop
      vertex 11.4164 -78.7178 -5
      vertex 12.5119 -80.305 -3.9
      vertex 12.5119 -80.305 -5
    endloop
  endfacet
  facet normal -0.935016 0.354604 0
    outer loop
      vertex 25.5836 -78.7178 -5
      vertex 26.2675 -76.9145 -3.9
      vertex 26.2675 -76.9145 -5
    endloop
  endfacet
  facet normal -0.935016 0.354604 0
    outer loop
      vertex 26.2675 -76.9145 -3.9
      vertex 25.5836 -78.7178 -5
      vertex 25.5836 -78.7178 -3.9
    endloop
  endfacet
  facet normal 0.239315 0.970942 -0
    outer loop
      vertex 17.5357 -82.9417 -5
      vertex 15.6632 -82.4801 -3.9
      vertex 17.5357 -82.9417 -3.9
    endloop
  endfacet
  facet normal 0.239315 0.970942 0
    outer loop
      vertex 15.6632 -82.4801 -3.9
      vertex 17.5357 -82.9417 -5
      vertex 15.6632 -82.4801 -5
    endloop
  endfacet
  facet normal -0.464725 0.885455 0
    outer loop
      vertex 23.0445 -81.5839 -5
      vertex 21.3368 -82.4801 -3.9
      vertex 23.0445 -81.5839 -3.9
    endloop
  endfacet
  facet normal -0.464725 0.885455 0
    outer loop
      vertex 21.3368 -82.4801 -3.9
      vertex 23.0445 -81.5839 -5
      vertex 21.3368 -82.4801 -5
    endloop
  endfacet
  facet normal 0.464725 0.885455 -0
    outer loop
      vertex 15.6632 -82.4801 -5
      vertex 13.9555 -81.5839 -3.9
      vertex 15.6632 -82.4801 -3.9
    endloop
  endfacet
  facet normal 0.464725 0.885455 0
    outer loop
      vertex 13.9555 -81.5839 -3.9
      vertex 15.6632 -82.4801 -5
      vertex 13.9555 -81.5839 -5
    endloop
  endfacet
  facet normal 0.992709 0.120536 0
    outer loop
      vertex 10.7325 -76.9145 -3.9
      vertex 10.5 -75 -5
      vertex 10.5 -75 -3.9
    endloop
  endfacet
  facet normal 0.992709 0.120536 0
    outer loop
      vertex 10.5 -75 -5
      vertex 10.7325 -76.9145 -3.9
      vertex 10.7325 -76.9145 -5
    endloop
  endfacet
  facet normal -0.984808 0.173649 0
    outer loop
      vertex 23.6683 -76.8811 -11
      vertex 24 -75 -5
      vertex 24 -75 -11
    endloop
  endfacet
  facet normal -0.984808 0.173649 0
    outer loop
      vertex 24 -75 -5
      vertex 23.6683 -76.8811 -11
      vertex 23.6683 -76.8811 -5
    endloop
  endfacet
  facet normal -0.342021 0.939692 0
    outer loop
      vertex 21.25 -79.7631 -11
      vertex 19.4551 -80.4164 -5
      vertex 21.25 -79.7631 -5
    endloop
  endfacet
  facet normal -0.342021 0.939692 0
    outer loop
      vertex 19.4551 -80.4164 -5
      vertex 21.25 -79.7631 -11
      vertex 19.4551 -80.4164 -11
    endloop
  endfacet
  facet normal 0.984808 -0.173648 0
    outer loop
      vertex 13 -75 -5
      vertex 13.3317 -73.1189 -11
      vertex 13.3317 -73.1189 -5
    endloop
  endfacet
  facet normal 0.984808 -0.173648 0
    outer loop
      vertex 13.3317 -73.1189 -11
      vertex 13 -75 -5
      vertex 13 -75 -11
    endloop
  endfacet
  facet normal -0.866025 -0.5 0
    outer loop
      vertex 23.6683 -73.1189 -11
      vertex 22.7132 -71.4647 -5
      vertex 22.7132 -71.4647 -11
    endloop
  endfacet
  facet normal -0.866025 -0.5 0
    outer loop
      vertex 22.7132 -71.4647 -5
      vertex 23.6683 -73.1189 -11
      vertex 23.6683 -73.1189 -5
    endloop
  endfacet
  facet normal -0.642787 0.766045 0
    outer loop
      vertex 22.7132 -78.5353 -11
      vertex 21.25 -79.7631 -5
      vertex 22.7132 -78.5353 -5
    endloop
  endfacet
  facet normal -0.642787 0.766045 0
    outer loop
      vertex 21.25 -79.7631 -5
      vertex 22.7132 -78.5353 -11
      vertex 21.25 -79.7631 -11
    endloop
  endfacet
  facet normal -0.866025 0.5 0
    outer loop
      vertex 22.7132 -78.5353 -11
      vertex 23.6683 -76.8811 -5
      vertex 23.6683 -76.8811 -11
    endloop
  endfacet
  facet normal -0.866025 0.5 0
    outer loop
      vertex 23.6683 -76.8811 -5
      vertex 22.7132 -78.5353 -11
      vertex 22.7132 -78.5353 -5
    endloop
  endfacet
  facet normal 0 1 -0
    outer loop
      vertex 19.4551 -80.4164 -11
      vertex 17.5449 -80.4164 -5
      vertex 19.4551 -80.4164 -5
    endloop
  endfacet
  facet normal 0 1 0
    outer loop
      vertex 17.5449 -80.4164 -5
      vertex 19.4551 -80.4164 -11
      vertex 17.5449 -80.4164 -11
    endloop
  endfacet
  facet normal 0.642787 0.766045 -0
    outer loop
      vertex 15.75 -79.7631 -11
      vertex 14.2868 -78.5353 -5
      vertex 15.75 -79.7631 -5
    endloop
  endfacet
  facet normal 0.642787 0.766045 0
    outer loop
      vertex 14.2868 -78.5353 -5
      vertex 15.75 -79.7631 -11
      vertex 14.2868 -78.5353 -11
    endloop
  endfacet
  facet normal 0.984808 0.173648 0
    outer loop
      vertex 13.3317 -76.8811 -5
      vertex 13 -75 -11
      vertex 13 -75 -5
    endloop
  endfacet
  facet normal 0.984808 0.173648 0
    outer loop
      vertex 13 -75 -11
      vertex 13.3317 -76.8811 -5
      vertex 13.3317 -76.8811 -11
    endloop
  endfacet
  facet normal 0.866025 0.5 0
    outer loop
      vertex 14.2868 -78.5353 -5
      vertex 13.3317 -76.8811 -11
      vertex 13.3317 -76.8811 -5
    endloop
  endfacet
  facet normal 0.866025 0.5 0
    outer loop
      vertex 13.3317 -76.8811 -11
      vertex 14.2868 -78.5353 -5
      vertex 14.2868 -78.5353 -11
    endloop
  endfacet
  facet normal 0.866025 -0.5 0
    outer loop
      vertex 13.3317 -73.1189 -5
      vertex 14.2868 -71.4647 -11
      vertex 14.2868 -71.4647 -5
    endloop
  endfacet
  facet normal 0.866025 -0.5 0
    outer loop
      vertex 14.2868 -71.4647 -11
      vertex 13.3317 -73.1189 -5
      vertex 13.3317 -73.1189 -11
    endloop
  endfacet
  facet normal 0.642787 -0.766045 0
    outer loop
      vertex 14.2868 -71.4647 -11
      vertex 15.75 -70.2369 -5
      vertex 14.2868 -71.4647 -5
    endloop
  endfacet
  facet normal 0.642787 -0.766045 0
    outer loop
      vertex 15.75 -70.2369 -5
      vertex 14.2868 -71.4647 -11
      vertex 15.75 -70.2369 -11
    endloop
  endfacet
  facet normal 0.342021 0.939692 -0
    outer loop
      vertex 17.5449 -80.4164 -11
      vertex 15.75 -79.7631 -5
      vertex 17.5449 -80.4164 -5
    endloop
  endfacet
  facet normal 0.342021 0.939692 0
    outer loop
      vertex 15.75 -79.7631 -5
      vertex 17.5449 -80.4164 -11
      vertex 15.75 -79.7631 -11
    endloop
  endfacet
  facet normal -0.984808 -0.173649 0
    outer loop
      vertex 24 -75 -11
      vertex 23.6683 -73.1189 -5
      vertex 23.6683 -73.1189 -11
    endloop
  endfacet
  facet normal -0.984808 -0.173649 0
    outer loop
      vertex 23.6683 -73.1189 -5
      vertex 24 -75 -11
      vertex 24 -75 -5
    endloop
  endfacet
  facet normal -0.642787 -0.766045 0
    outer loop
      vertex 21.25 -70.2369 -11
      vertex 22.7132 -71.4647 -5
      vertex 21.25 -70.2369 -5
    endloop
  endfacet
  facet normal -0.642787 -0.766045 -0
    outer loop
      vertex 22.7132 -71.4647 -5
      vertex 21.25 -70.2369 -11
      vertex 22.7132 -71.4647 -11
    endloop
  endfacet
endsolid OpenSCAD_Model
